<?xml version="1.0" encoding="utf-8"?>
<!-- Generator: Adobe Illustrator 16.0.0, SVG Export Plug-In . SVG Version: 6.00 Build 0)  -->
<!DOCTYPE svg PUBLIC "-//W3C//DTD SVG 1.1//EN" "http://www.w3.org/Graphics/SVG/1.1/DTD/svg11.dtd">
<svg version="1.1" id="Layer_1" xmlns="http://www.w3.org/2000/svg" xmlns:xlink="http://www.w3.org/1999/xlink" x="0px" y="0px"
	 width="316.832px" height="102.404px" viewBox="0 0 316.832 102.404" enable-background="new 0 0 316.832 102.404"
	 xml:space="preserve">
<g>
	<polygon fill="#9B7F56" points="83.699,49.536 72.187,49.536 66.705,49.536 48.242,49.536 39.845,60.845 66.705,60.845 
		72.187,60.845 92.095,60.845 	"/>
	<g>
		<path fill="#7A5125" d="M24.434,49.071l-2.348-6.917c-0.231-0.682-0.973-1.047-1.656-0.815c-0.682,0.231-1.047,0.973-0.816,1.655
			l2.348,6.917c0.185,0.544,0.692,0.886,1.236,0.886c0.139,0,0.28-0.022,0.419-0.068C24.301,50.495,24.666,49.753,24.434,49.071z"/>
		<path fill="#7A5125" d="M48.603,69.198H31.959l-5.51-16.083c-0.234-0.683-0.976-1.046-1.658-0.813s-1.045,0.976-0.812,1.658
			l6.115,17.848h8.092v9.005h-6.159c-0.722,0-1.306,0.586-1.306,1.307c0,0.72,0.584,1.305,1.306,1.305h15.268
			c0.722,0,1.307-0.585,1.307-1.305c0-0.721-0.585-1.307-1.307-1.307h-6.499v-9.005h7.806c0.72,0,1.304-0.584,1.304-1.304
			C49.906,69.784,49.323,69.198,48.603,69.198z"/>
	</g>
	<path fill="#E2C7B5" d="M56.586,54.342c0,1.045-0.994,1.893-2.219,1.893l0,0c-1.225,0-2.219-0.848-2.219-1.893v-0.261
		c0-1.046,0.995-1.893,2.219-1.893l0,0c1.225,0,2.219,0.847,2.219,1.893V54.342z"/>
	<path fill="#6D221B" d="M42.057,39.442c0,0-4.525-0.436-5.83,0.609c-1.304,1.044-3.219,6.525-3.219,8.048
		c0,1.523,0,12.746,0,12.746h0.869h11.748c0,0,1.217-14.269,1.043-15.4C46.494,44.314,43.799,39.442,42.057,39.442z"/>
	<path fill="#5E0F04" d="M39.845,41.356l4.559,9.18l9.223,1.348l-0.521,4.352L40.969,55.19l-5.09-9.658
		C35.878,45.532,36.331,39.181,39.845,41.356z"/>
	<path fill="#5E0F04" d="M33.877,60.845c0,0-1.131,5.396,0,6.438c1.132,1.045,2.192,1.914,5.968,1.914s12.303-1.215,12.303-1.215
		l-0.522,12.701h5.656l1.478-15.313c0,0,0-3.438-6.263-3.569c-4.645-0.097-7.744-0.086-7.744-0.086v-0.871H33.877z"/>
	<polygon fill="#190504" points="52.498,80.684 51.894,83.424 61.72,83.424 61.197,82.054 57.2,81.38 56.611,80.684 	"/>
	<g>
		<path fill="#7A5125" d="M107.305,49.071l2.347-6.917c0.231-0.682,0.973-1.047,1.657-0.815c0.682,0.231,1.046,0.973,0.815,1.655
			l-2.348,6.917c-0.185,0.544-0.692,0.886-1.237,0.886c-0.138,0-0.28-0.022-0.419-0.068
			C107.438,50.495,107.072,49.753,107.305,49.071z"/>
		<path fill="#7A5125" d="M83.136,69.198h16.644l5.51-16.083c0.233-0.683,0.976-1.046,1.657-0.813
			c0.682,0.233,1.046,0.976,0.812,1.658l-6.115,17.848h-8.091v9.005h6.159c0.721,0,1.306,0.586,1.306,1.307
			c0,0.72-0.584,1.305-1.306,1.305h-15.27c-0.72,0-1.305-0.585-1.305-1.305c0-0.721,0.585-1.307,1.305-1.307h6.501v-9.005h-7.807
			c-0.72,0-1.304-0.584-1.304-1.304C81.832,69.784,82.416,69.198,83.136,69.198z"/>
	</g>
	<path fill="#E2C7B5" d="M75.153,54.342c0,1.045,0.993,1.893,2.218,1.893l0,0c1.225,0,2.218-0.848,2.218-1.893v-0.261
		c0-1.046-0.993-1.893-2.218-1.893l0,0c-1.225,0-2.218,0.847-2.218,1.893V54.342z"/>
	<path fill="#005C5E" d="M89.682,39.442c0,0,4.524-0.436,5.83,0.609c1.305,1.044,3.22,6.525,3.22,8.048c0,1.523,0,12.746,0,12.746
		h-0.87H86.115c0,0-1.218-14.269-1.044-15.4C85.245,44.314,87.939,39.442,89.682,39.442z"/>
	<path fill="#067B84" d="M91.892,41.356l-4.559,9.18l-9.223,1.348l0.522,4.352L90.77,55.19l5.091-9.658
		C95.86,45.532,95.408,39.181,91.892,41.356z"/>
	<path fill="#067B84" d="M97.862,60.845c0,0,1.13,5.396,0,6.438c-1.132,1.045-2.193,1.914-5.97,1.914
		c-3.776,0-12.303-1.215-12.303-1.215l0.523,12.701h-5.657l-1.479-15.313c0,0,0-3.438,6.266-3.569
		c4.644-0.097,7.742-0.086,7.742-0.086v-0.871H97.862z"/>
	<polygon points="79.242,80.684 79.846,83.424 70.019,83.424 70.541,82.054 74.538,81.38 75.128,80.684 	"/>
	<rect x="64.243" y="60.845" fill="#7A5125" width="3.002" height="19.839"/>
	<ellipse fill="#7A5125" cx="65.743" cy="79.944" rx="5.932" ry="1.92"/>
	<path fill="#ED800A" d="M56.586,20.056c-4.576,0-8.284,2.272-8.284,5.074c0,1.862,1.638,3.489,4.08,4.373
		c0.043,1.396-0.439,3.416-2.865,5.359c0,0,4.354-1.155,4.866-4.84c0.702,0.119,1.439,0.183,2.203,0.183
		c4.575,0,8.284-2.271,8.284-5.075C64.87,22.329,61.162,20.056,56.586,20.056z"/>
	<path fill="#0CA9AD" d="M75.835,18.385c5.092,0,9.22,2.527,9.22,5.647c0,2.071-1.824,3.883-4.541,4.865
		c-0.048,1.555,0.488,3.802,3.188,5.965c0,0-4.845-1.285-5.414-5.387c-0.78,0.132-1.602,0.203-2.452,0.203
		c-5.091,0-9.219-2.528-9.219-5.646C66.616,20.913,70.744,18.385,75.835,18.385z"/>
	<g>
		<path fill="#441707" d="M38.083,31.816c0.349-0.977,0.728-1.524,1.753-1.846c0.912-0.285,1.843-0.371,2.789-0.455
			c0.67-0.062,1.368-0.037,2.053-0.062c-0.297-1.399,0.136-2.416,0.932-3.805c-1.481,0.4-2.909,0.444-4.436,0.429
			c-2.024-0.02-5.11-0.179-6.484,1.655c-1.463,1.952,0.124,4.602,0.494,6.65c0.081,0.45,0.206,0.883,0.402,1.287
			C37.101,35.082,37.6,33.172,38.083,31.816z"/>
		<path fill="#E2C7B5" d="M44.678,29.454c-0.685,0.024-1.383,0-2.053,0.062c-0.946,0.084-1.877,0.17-2.789,0.455
			c-1.025,0.321-1.404,0.869-1.753,1.846c-0.483,1.356-0.982,3.266-2.496,3.854c0.103,0.211,0.219,0.417,0.369,0.609
			c1.841,2.346,8.738,2.923,9.074,1.171c0.397-2.063,0.58-5.146-0.172-7.35C44.781,29.875,44.723,29.661,44.678,29.454z"/>
	</g>
	<g>
		<path fill="#441707" d="M93.345,31.816c-0.348-0.977-0.728-1.524-1.753-1.846c-0.911-0.285-1.842-0.371-2.789-0.455
			c-0.669-0.062-1.368-0.037-2.053-0.062c0.298-1.399-0.137-2.416-0.932-3.805c1.481,0.4,2.909,0.444,4.436,0.429
			c2.024-0.02,5.11-0.179,6.484,1.655c1.463,1.952-0.124,4.602-0.494,6.65c-0.081,0.45-0.206,0.883-0.402,1.287
			C94.328,35.082,93.829,33.172,93.345,31.816z"/>
		<path fill="#E2C7B5" d="M86.75,29.454c0.685,0.024,1.383,0,2.053,0.062c0.947,0.084,1.878,0.17,2.789,0.455
			c1.025,0.321,1.405,0.869,1.753,1.846c0.484,1.356,0.983,3.266,2.497,3.854c-0.103,0.211-0.219,0.417-0.369,0.609
			c-1.842,2.346-8.739,2.923-9.074,1.171c-0.398-2.063-0.58-5.146,0.173-7.35C86.648,29.875,86.706,29.661,86.75,29.454z"/>
	</g>
</g>
<g>
	<path fill="#1D3766" d="M124.406,24.508h14.824c0.075,0.445,0.113,0.938,0.113,1.473c0,0.246-0.007,0.502-0.019,0.77
		c-0.013,0.268-0.044,0.514-0.094,0.736h-10.996v6.893h8.782c0.05,0.225,0.087,0.463,0.113,0.721
		c0.024,0.256,0.038,0.508,0.038,0.752c0,0.246-0.013,0.502-0.038,0.77c-0.025,0.268-0.063,0.514-0.113,0.736h-8.782v8.232h11.296
		c0.075,0.447,0.113,0.938,0.113,1.473c0,0.246-0.007,0.502-0.019,0.77c-0.013,0.268-0.044,0.514-0.094,0.736h-15.125V24.508z
		 M132.362,22.5c-0.325,0.045-0.663,0.078-1.013,0.1c-0.351,0.023-0.701,0.033-1.051,0.033c-0.351,0-0.675-0.01-0.976-0.033
		c-0.3-0.021-0.626-0.055-0.976-0.1l3.979-3.615c0.4-0.043,0.826-0.082,1.276-0.115c0.45-0.035,0.901-0.051,1.351-0.051
		c0.475,0,0.925,0.016,1.351,0.051c0.425,0.033,0.813,0.072,1.164,0.115L132.362,22.5z"/>
	<path fill="#1D3766" d="M148.274,34.012h-3.152c-0.101-0.357-0.15-0.793-0.15-1.305c0-0.492,0.05-0.926,0.15-1.307h3.152v-1.203
		c0-2.119,0.594-3.732,1.783-4.836c1.188-1.105,2.921-1.656,5.198-1.656c0.625,0,1.176,0.027,1.651,0.084
		c0.475,0.055,0.925,0.139,1.351,0.25c-0.05,0.559-0.119,1.037-0.207,1.439c-0.088,0.4-0.206,0.814-0.356,1.238
		c-0.25-0.045-0.544-0.096-0.882-0.15c-0.338-0.057-0.745-0.084-1.22-0.084c-0.551,0-1.045,0.049-1.482,0.15
		c-0.438,0.1-0.813,0.289-1.126,0.568c-0.313,0.279-0.557,0.67-0.732,1.172c-0.175,0.502-0.263,1.143-0.263,1.924v1.104h4.917
		c0.075,0.447,0.113,0.904,0.113,1.373c0,0.424-0.038,0.836-0.113,1.238h-4.917v14.557c-0.275,0.045-0.582,0.078-0.919,0.1
		s-0.645,0.033-0.919,0.033c-0.275,0-0.588-0.012-0.938-0.033c-0.351-0.021-0.664-0.055-0.938-0.1V34.012z"/>
	<path fill="#1D3766" d="M167.565,37.258c0-1.316-0.375-2.23-1.125-2.744c-0.751-0.514-1.839-0.77-3.265-0.77
		c-0.876,0-1.695,0.061-2.458,0.184c-0.764,0.123-1.508,0.285-2.233,0.484c-0.476-0.736-0.713-1.617-0.713-2.643
		c0.85-0.246,1.788-0.436,2.814-0.568c1.026-0.135,2.014-0.201,2.965-0.201c2.501,0,4.403,0.508,5.705,1.521
		c1.301,1.016,1.952,2.639,1.952,4.869v10.742c-0.876,0.18-1.939,0.363-3.19,0.553c-1.251,0.189-2.527,0.283-3.828,0.283
		c-1.226,0-2.333-0.1-3.321-0.301c-0.989-0.201-1.827-0.523-2.515-0.971c-0.688-0.445-1.22-1.014-1.595-1.707
		c-0.375-0.689-0.563-1.527-0.563-2.51c0-0.957,0.219-1.801,0.657-2.525c0.438-0.725,1.032-1.328,1.783-1.807
		c0.751-0.48,1.614-0.838,2.59-1.072c0.976-0.232,2.001-0.35,3.077-0.35c0.801,0,1.458,0.016,1.971,0.049
		c0.512,0.033,0.944,0.072,1.294,0.117V37.258z M167.565,40.504c-0.375-0.045-0.851-0.09-1.426-0.135
		c-0.576-0.045-1.064-0.066-1.464-0.066c-1.552,0-2.734,0.256-3.546,0.77c-0.813,0.514-1.22,1.293-1.22,2.342
		c0,0.67,0.137,1.193,0.413,1.572c0.275,0.381,0.619,0.67,1.032,0.871c0.413,0.201,0.869,0.324,1.37,0.367
		c0.5,0.045,0.976,0.068,1.426,0.068c0.575,0,1.169-0.029,1.783-0.084c0.613-0.057,1.157-0.139,1.632-0.252V40.504z M164.075,28.692
		c-0.275,0.045-0.576,0.078-0.9,0.1c-0.326,0.021-0.688,0.033-1.088,0.033c-0.276,0-0.557-0.012-0.845-0.033s-0.582-0.055-0.882-0.1
		l4.316-4.25c0.375-0.045,0.763-0.078,1.164-0.102c0.4-0.021,0.813-0.033,1.238-0.033c0.45,0,0.863,0.012,1.239,0.033
		c0.375,0.023,0.737,0.057,1.088,0.102L164.075,28.692z"/>
	<path fill="#1D3766" d="M186.555,45.59c0.2,0.313,0.375,0.703,0.525,1.172c0.15,0.467,0.237,0.947,0.263,1.438
		c-1.477,0.514-3.166,0.77-5.067,0.77c-3.203,0-5.617-0.809-7.243-2.426c-1.626-1.617-2.439-3.797-2.439-6.541
		c0-1.271,0.2-2.455,0.601-3.549c0.4-1.092,0.995-2.041,1.783-2.844s1.77-1.439,2.946-1.906c1.176-0.469,2.54-0.703,4.091-0.703
		c1.051,0,1.977,0.055,2.777,0.166c0.8,0.113,1.563,0.291,2.29,0.537c0,0.379-0.057,0.818-0.169,1.32
		c-0.113,0.502-0.27,0.943-0.469,1.322c-1.226-0.379-2.627-0.568-4.204-0.568c-1.927,0-3.365,0.568-4.316,1.707
		c-0.951,1.137-1.426,2.643-1.426,4.518c0,2.141,0.538,3.709,1.614,4.701c1.075,0.992,2.552,1.488,4.428,1.488
		c0.751,0,1.445-0.043,2.083-0.133S185.904,45.813,186.555,45.59z"/>
	<path fill="#1D3766" d="M189.708,34.012h-2.439c-0.051-0.18-0.088-0.385-0.113-0.619s-0.038-0.463-0.038-0.686
		s0.013-0.453,0.038-0.688s0.062-0.439,0.113-0.619h6.08v17.168c-0.275,0.045-0.582,0.078-0.919,0.1s-0.645,0.033-0.919,0.033
		c-0.25,0-0.544-0.012-0.882-0.033s-0.645-0.055-0.919-0.1V34.012z M188.882,27.62c-0.05-0.268-0.082-0.557-0.094-0.869
		c-0.013-0.313-0.019-0.592-0.019-0.838c0-0.244,0.006-0.523,0.019-0.836c0.012-0.313,0.043-0.59,0.094-0.836
		c0.325-0.045,0.675-0.078,1.051-0.102c0.375-0.021,0.7-0.033,0.976-0.033s0.601,0.012,0.976,0.033
		c0.375,0.023,0.713,0.057,1.013,0.102c0.05,0.246,0.081,0.523,0.094,0.836c0.012,0.313,0.019,0.592,0.019,0.836
		c0,0.246-0.007,0.525-0.019,0.838c-0.013,0.313-0.044,0.602-0.094,0.869c-0.3,0.045-0.632,0.078-0.995,0.102
		c-0.363,0.021-0.682,0.033-0.957,0.033c-0.3,0-0.638-0.012-1.013-0.033C189.557,27.698,189.207,27.665,188.882,27.62z"/>
	<path fill="#1D3766" d="M196.237,24.04c0.275-0.045,0.582-0.078,0.919-0.1c0.338-0.023,0.644-0.035,0.919-0.035
		s0.582,0.012,0.919,0.035c0.338,0.021,0.644,0.055,0.92,0.1v19.342c0,0.625,0.062,1.115,0.188,1.473
		c0.125,0.357,0.294,0.631,0.507,0.82c0.212,0.189,0.462,0.313,0.75,0.367c0.287,0.057,0.594,0.084,0.919,0.084
		c0.225,0,0.481-0.012,0.77-0.033c0.287-0.021,0.531-0.055,0.731-0.102c0.225,0.781,0.338,1.629,0.338,2.545
		c-0.351,0.111-0.776,0.184-1.276,0.217c-0.501,0.033-0.963,0.051-1.389,0.051c-0.726,0-1.401-0.078-2.027-0.234
		s-1.176-0.412-1.651-0.77c-0.476-0.357-0.851-0.838-1.126-1.439c-0.276-0.602-0.413-1.35-0.413-2.242V24.04z"/>
	<path fill="#1D3766" d="M209.898,45.456c0.676,0.246,1.42,0.441,2.233,0.586c0.813,0.146,1.62,0.219,2.421,0.219
		c0.575,0,1.126-0.057,1.651-0.168s0.981-0.279,1.37-0.502c0.388-0.223,0.7-0.496,0.938-0.82c0.237-0.322,0.356-0.686,0.356-1.088
		c0-0.445-0.094-0.814-0.281-1.104c-0.188-0.289-0.438-0.535-0.751-0.736c-0.313-0.201-0.675-0.373-1.088-0.52
		c-0.413-0.145-0.857-0.283-1.332-0.418l-1.313-0.436c-1.602-0.535-2.765-1.137-3.49-1.807c-0.726-0.668-1.088-1.572-1.088-2.711
		c0-1.516,0.606-2.721,1.82-3.613c1.213-0.893,2.996-1.338,5.348-1.338c0.976,0,1.933,0.084,2.871,0.25
		c0.938,0.168,1.757,0.363,2.458,0.586c-0.05,0.447-0.144,0.893-0.281,1.338c-0.138,0.447-0.307,0.859-0.507,1.238
		c-0.55-0.178-1.207-0.352-1.97-0.518c-0.764-0.168-1.583-0.252-2.458-0.252c-0.926,0-1.745,0.146-2.458,0.436
		c-0.713,0.291-1.069,0.803-1.069,1.539c0,0.381,0.087,0.703,0.263,0.971c0.175,0.268,0.413,0.496,0.713,0.686
		s0.644,0.352,1.032,0.486c0.388,0.133,0.807,0.268,1.257,0.4l1.651,0.502c0.6,0.18,1.169,0.391,1.708,0.637
		c0.538,0.246,1,0.553,1.389,0.92c0.387,0.367,0.7,0.814,0.938,1.338c0.238,0.525,0.356,1.154,0.356,1.891
		c0,0.826-0.188,1.58-0.563,2.26c-0.375,0.68-0.907,1.26-1.595,1.74c-0.688,0.48-1.52,0.854-2.496,1.121
		c-0.976,0.268-2.052,0.4-3.228,0.4c-1.201,0-2.251-0.072-3.152-0.217s-1.739-0.34-2.515-0.586c0.05-0.445,0.156-0.898,0.319-1.355
		C209.516,46.354,209.697,45.903,209.898,45.456z"/>
	<path fill="#1D3766" d="M227.011,40.805c0.05,1.873,0.594,3.246,1.632,4.115c1.038,0.871,2.571,1.305,4.598,1.305
		c1.776,0,3.465-0.277,5.066-0.836c0.2,0.334,0.362,0.742,0.488,1.221c0.125,0.48,0.2,0.955,0.225,1.424
		c-0.826,0.313-1.733,0.545-2.721,0.701c-0.989,0.156-2.083,0.234-3.284,0.234c-1.751,0-3.252-0.217-4.503-0.652
		c-1.251-0.434-2.283-1.049-3.096-1.84c-0.813-0.791-1.407-1.729-1.783-2.811c-0.375-1.082-0.563-2.27-0.563-3.564
		c0-1.271,0.181-2.459,0.544-3.564c0.362-1.104,0.919-2.063,1.67-2.877s1.695-1.461,2.833-1.941
		c1.138-0.479,2.483-0.719,4.035-0.719c1.326,0,2.489,0.201,3.49,0.602c1,0.402,1.839,0.953,2.514,1.656
		c0.676,0.703,1.188,1.539,1.539,2.51c0.35,0.971,0.525,2.025,0.525,3.162c0,0.313-0.013,0.643-0.038,0.988
		c-0.025,0.346-0.05,0.641-0.075,0.887H227.011z M236.543,38.329c0-0.625-0.094-1.221-0.281-1.791
		c-0.188-0.568-0.463-1.064-0.826-1.488c-0.363-0.424-0.826-0.764-1.389-1.021c-0.563-0.256-1.232-0.385-2.008-0.385
		c-1.526,0-2.696,0.414-3.509,1.238c-0.813,0.826-1.308,1.975-1.482,3.447H236.543z"/>
	<path fill="#1D3766" d="M242.023,31.401c0.275-0.043,0.538-0.078,0.788-0.1c0.25-0.021,0.513-0.033,0.788-0.033
		c0.275,0,0.55,0.012,0.826,0.033c0.275,0.021,0.525,0.057,0.75,0.1c0.075,0.336,0.15,0.775,0.225,1.322
		c0.075,0.547,0.113,1.01,0.113,1.389c0.525-0.758,1.22-1.416,2.083-1.975c0.863-0.557,1.97-0.836,3.321-0.836
		c0.2,0,0.406,0.006,0.619,0.018c0.212,0.01,0.394,0.027,0.544,0.049c0.05,0.201,0.087,0.414,0.112,0.637s0.038,0.457,0.038,0.703
		c0,0.268-0.019,0.547-0.056,0.836s-0.082,0.568-0.131,0.836c-0.201-0.045-0.407-0.066-0.619-0.066c-0.213,0-0.382,0-0.507,0
		c-0.675,0-1.32,0.084-1.933,0.25c-0.614,0.168-1.164,0.465-1.651,0.887c-0.488,0.426-0.876,1.004-1.164,1.74
		c-0.288,0.736-0.432,1.686-0.432,2.846v8.533c-0.275,0.045-0.582,0.078-0.919,0.1s-0.645,0.033-0.919,0.033
		c-0.275,0-0.582-0.012-0.919-0.033s-0.657-0.055-0.957-0.1V31.401z"/>
	<path fill="#1D3766" d="M123.88,62.401c0.275-0.043,0.587-0.078,0.938-0.1c0.35-0.021,0.65-0.033,0.901-0.033
		c0.275,0,0.587,0.012,0.938,0.033c0.35,0.021,0.663,0.057,0.938,0.1v9.404c0,1.07,0.113,1.957,0.338,2.66s0.563,1.254,1.013,1.656
		s1,0.682,1.651,0.836c0.65,0.156,1.401,0.234,2.252,0.234c1.276,0,2.364-0.121,3.265-0.367V62.401
		c0.275-0.043,0.582-0.078,0.919-0.1c0.337-0.021,0.644-0.033,0.919-0.033c0.275,0,0.582,0.012,0.919,0.033s0.644,0.057,0.919,0.1
		v16.633c-0.876,0.223-1.92,0.434-3.134,0.635c-1.214,0.201-2.471,0.301-3.772,0.301c-1.226,0-2.383-0.094-3.471-0.283
		s-2.045-0.574-2.871-1.154s-1.477-1.395-1.952-2.443c-0.476-1.049-0.713-2.432-0.713-4.15V62.401z"/>
	<path fill="#1D3766" d="M142.57,62.401c0.275-0.043,0.544-0.078,0.807-0.1s0.531-0.033,0.807-0.033c0.275,0,0.531,0.012,0.77,0.033
		c0.237,0.021,0.494,0.057,0.769,0.1c0.075,0.336,0.15,0.775,0.225,1.322c0.075,0.547,0.113,1.01,0.113,1.389
		c0.225-0.4,0.507-0.785,0.844-1.154c0.338-0.367,0.738-0.697,1.201-0.986c0.463-0.291,0.995-0.525,1.595-0.703
		c0.6-0.178,1.263-0.268,1.989-0.268c1.501,0,2.658,0.273,3.472,0.82c0.813,0.547,1.432,1.311,1.858,2.291
		c0.25-0.379,0.556-0.758,0.919-1.137c0.362-0.379,0.769-0.715,1.22-1.004c0.45-0.291,0.963-0.525,1.539-0.703
		c0.575-0.178,1.226-0.268,1.952-0.268c2.227,0,3.847,0.557,4.86,1.672c1.014,1.117,1.52,2.768,1.52,4.953v10.943
		c-0.275,0.045-0.588,0.078-0.938,0.1c-0.351,0.021-0.664,0.033-0.938,0.033c-0.275,0-0.582-0.012-0.919-0.033
		s-0.645-0.055-0.919-0.1v-9.973c0-1.539-0.263-2.693-0.788-3.463s-1.389-1.154-2.59-1.154c-1.276,0-2.308,0.412-3.096,1.238
		c-0.788,0.824-1.182,2.041-1.182,3.646v9.705c-0.275,0.045-0.582,0.078-0.919,0.1s-0.645,0.033-0.919,0.033
		c-0.275,0-0.582-0.012-0.919-0.033s-0.645-0.055-0.919-0.1V69.362c0-1.494-0.25-2.615-0.75-3.363
		c-0.501-0.746-1.301-1.121-2.402-1.121c-0.625,0-1.214,0.123-1.764,0.369c-0.551,0.246-1.032,0.613-1.445,1.104
		c-0.413,0.49-0.738,1.109-0.976,1.857s-0.356,1.611-0.356,2.594v8.768c-0.275,0.045-0.582,0.078-0.919,0.1
		s-0.645,0.033-0.919,0.033c-0.275,0-0.588-0.012-0.938-0.033c-0.351-0.021-0.663-0.055-0.938-0.1V62.401z"/>
	<path fill="#1D3766" d="M176.984,55.508c0.925-0.135,1.839-0.201,2.74-0.201c0.901,0,1.826,0.066,2.777,0.201v24.061
		c-0.951,0.133-1.864,0.201-2.74,0.201c-0.926,0-1.852-0.068-2.777-0.201V55.508z"/>
	<path fill="#1D3766" d="M184.677,55.508c0.775-0.135,1.514-0.201,2.214-0.201c0.75,0,1.526,0.066,2.327,0.201l10.433,15.326V55.508
		c0.901-0.135,1.764-0.201,2.589-0.201c0.775,0,1.526,0.066,2.252,0.201v24.061c-0.801,0.133-1.526,0.201-2.177,0.201
		c-0.701,0-1.463-0.068-2.289-0.201l-10.509-15.293v15.293c-0.801,0.133-1.614,0.201-2.439,0.201s-1.626-0.068-2.402-0.201V55.508z"
		/>
	<path fill="#1D3766" d="M206.783,55.508c1.051-0.111,2.151-0.207,3.303-0.285c1.15-0.078,2.426-0.117,3.828-0.117
		c4.729,0,8.325,1.049,10.79,3.146s3.697,5.242,3.697,9.436c0,4.217-1.251,7.318-3.753,9.303c-2.502,1.986-6.218,2.979-11.146,2.979
		c-1.276,0-2.452-0.039-3.528-0.117c-1.076-0.078-2.139-0.172-3.19-0.283V55.508z M212.3,75.686
		c0.225,0.023,0.512,0.045,0.863,0.068c0.35,0.021,0.775,0.033,1.276,0.033c1.15,0,2.22-0.117,3.208-0.352
		c0.988-0.234,1.845-0.664,2.571-1.289c0.726-0.623,1.301-1.461,1.727-2.51c0.425-1.049,0.638-2.398,0.638-4.049
		c0-1.605-0.213-2.945-0.638-4.016c-0.426-1.07-1.001-1.918-1.727-2.543c-0.726-0.625-1.557-1.064-2.496-1.322
		c-0.938-0.256-1.933-0.385-2.984-0.385c-0.351,0-0.757,0.006-1.22,0.018s-0.87,0.039-1.219,0.082V75.686z"/>
	<path fill="#1D3766" d="M229.863,55.508c0.925-0.135,1.839-0.201,2.74-0.201c0.901,0,1.826,0.066,2.777,0.201v24.061
		c-0.951,0.133-1.864,0.201-2.74,0.201c-0.926,0-1.852-0.068-2.777-0.201V55.508z"/>
	<path fill="#F68E20" d="M237.556,55.475c0.475-0.068,0.938-0.111,1.389-0.135c0.451-0.021,0.913-0.033,1.389-0.033
		c0.425,0,0.863,0.012,1.313,0.033c0.451,0.023,0.913,0.066,1.389,0.135v24.127c-0.476,0.066-0.938,0.111-1.389,0.133
		c-0.45,0.023-0.9,0.035-1.351,0.035c-0.45,0-0.9-0.012-1.351-0.035c-0.45-0.021-0.914-0.066-1.389-0.133V55.475z M243.824,67.454
		l7.318-11.945c0.575-0.09,1.107-0.145,1.595-0.168c0.488-0.021,0.932-0.033,1.332-0.033c0.425,0,0.901,0.023,1.426,0.066
		c0.525,0.045,1.076,0.09,1.651,0.135l-7.394,11.611l8.032,12.449c-0.576,0.045-1.132,0.088-1.67,0.133s-1.02,0.068-1.445,0.068
		c-0.4,0-0.844-0.012-1.332-0.035c-0.488-0.021-1.032-0.078-1.633-0.166L243.824,67.454z"/>
	<path fill="#F68E20" d="M263.339,55.508c1-0.135,2.126-0.201,3.377-0.201c0.65,0,1.207,0.018,1.67,0.051s0.944,0.084,1.445,0.15
		l-5.667,4.115c-0.325,0.045-0.713,0.09-1.163,0.135c-0.451,0.045-0.926,0.066-1.426,0.066c-0.801,0-1.614-0.066-2.439-0.201
		L263.339,55.508z"/>
	<path fill="#0A81C4" d="M278.313,68.424c-0.851-0.289-1.614-0.607-2.289-0.953c-0.676-0.346-1.251-0.758-1.727-1.238
		c-0.476-0.479-0.844-1.055-1.107-1.723c-0.263-0.67-0.394-1.473-0.394-2.41c0-1.137,0.218-2.141,0.657-3.012
		c0.438-0.869,1.057-1.6,1.857-2.191s1.764-1.037,2.89-1.338c1.125-0.303,2.389-0.453,3.791-0.453c1.276,0,2.47,0.102,3.584,0.301
		c1.113,0.201,2.283,0.492,3.509,0.871c-0.15,1.295-0.55,2.566-1.201,3.814c-0.375-0.133-0.757-0.268-1.145-0.4
		c-0.389-0.135-0.801-0.246-1.239-0.336c-0.438-0.088-0.932-0.162-1.482-0.217c-0.551-0.057-1.176-0.084-1.876-0.084
		c-0.426,0-0.857,0.033-1.295,0.1c-0.438,0.068-0.832,0.191-1.182,0.369c-0.351,0.178-0.638,0.441-0.863,0.787
		c-0.225,0.346-0.337,0.797-0.337,1.354c0,0.447,0.087,0.82,0.263,1.121c0.174,0.303,0.413,0.559,0.713,0.77
		c0.3,0.213,0.638,0.391,1.013,0.537c0.375,0.145,0.75,0.283,1.126,0.418l2.252,0.77c0.951,0.334,1.813,0.68,2.589,1.037
		c0.775,0.357,1.432,0.797,1.97,1.322c0.538,0.523,0.957,1.16,1.257,1.906c0.3,0.748,0.451,1.668,0.451,2.762
		c0,1.137-0.232,2.174-0.694,3.111c-0.463,0.938-1.132,1.74-2.008,2.41c-0.876,0.668-1.958,1.193-3.247,1.572
		c-1.289,0.379-2.771,0.568-4.447,0.568c-0.826,0-1.564-0.021-2.214-0.066c-0.651-0.045-1.27-0.117-1.857-0.217
		c-0.588-0.102-1.17-0.229-1.746-0.385s-1.176-0.346-1.801-0.57c0.075-0.646,0.212-1.32,0.413-2.023
		c0.2-0.703,0.438-1.41,0.713-2.125c1.051,0.379,2.039,0.664,2.965,0.854c0.925,0.189,1.914,0.283,2.965,0.283
		c1.576,0,2.815-0.262,3.715-0.785c0.901-0.523,1.351-1.322,1.351-2.393c0-0.535-0.106-0.982-0.319-1.34
		c-0.213-0.355-0.488-0.656-0.826-0.902s-0.719-0.451-1.145-0.619c-0.426-0.168-0.863-0.33-1.313-0.486L278.313,68.424z"/>
</g>
</svg>
