<?xml version="1.0" encoding="utf-8"?>
<!-- Generator: Adobe Illustrator 16.0.0, SVG Export Plug-In . SVG Version: 6.00 Build 0)  -->
<!DOCTYPE svg PUBLIC "-//W3C//DTD SVG 1.1//EN" "http://www.w3.org/Graphics/SVG/1.1/DTD/svg11.dtd">
<svg version="1.1" id="Layer_1" xmlns="http://www.w3.org/2000/svg" xmlns:xlink="http://www.w3.org/1999/xlink" x="0px" y="0px"
	 width="316.832px" height="102.404px" viewBox="0 0 316.832 102.404" enable-background="new 0 0 316.832 102.404"
	 xml:space="preserve">
<g>
	<path fill="#CE8421" d="M68.817,39.152v-9.197c0-2.787-2.26-5.048-5.048-5.048h-6.212c-2.786,0-5.048,2.261-5.048,5.048v9.197
		H68.817z"/>
	<polygon fill="#FFFFFF" points="57.636,24.907 60.643,35.185 63.69,24.907 	"/>
	<path fill="#106B77" d="M41.125,69.121v-9.197c0-2.789-2.26-5.049-5.049-5.049h-6.212c-2.787,0-5.048,2.26-5.048,5.049v9.197
		H41.125z"/>
	<polygon fill="#FFFFFF" points="29.943,54.875 32.95,65.152 35.998,54.875 	"/>
	<path fill="#C12106" d="M96.509,69.121v-9.197c0-2.789-2.259-5.049-5.048-5.049H85.25c-2.786,0-5.048,2.26-5.048,5.049v9.197
		H96.509z"/>
	<polygon fill="#FFFFFF" points="85.329,54.875 88.334,65.152 91.383,54.875 	"/>
	<g>
		<path fill="#4EA000" d="M84.441,72.716c-4.427,8.643-13.421,14.574-23.778,14.574c-10.358,0-19.352-5.932-23.778-14.574h-3.626
			c4.667,10.502,15.191,17.848,27.405,17.848c12.213,0,22.737-7.346,27.404-17.848H84.441z"/>
		<path fill="#4EA000" d="M72.182,36.498c2.317,1.112,4.449,2.551,6.337,4.252h4.593c-2.984-3.374-6.712-6.075-10.93-7.837V36.498z"
			/>
		<path fill="#4EA000" d="M42.806,40.75c1.773-1.598,3.762-2.956,5.915-4.038v-3.615c-4.043,1.764-7.624,4.393-10.508,7.653H42.806z
			"/>
	</g>
	<g>
		<polygon fill="#4EA000" points="60.304,74.451 49.115,59.037 53.531,55.832 59.871,64.566 70.572,46.721 75.251,49.528 		"/>
	</g>
	<g>
		<path fill="#E2C7B5" d="M38.299,48.725c-0.458,3.126-2.343,5.731-5.232,5.731c-2.888,0-4.788-2.604-5.231-5.731
			c-0.632-4.479,0.704-6.684,5.226-6.684C37.752,42.042,38.878,44.781,38.299,48.725z"/>
		<path fill="#595554" d="M34.538,40.839c-1.621-0.252-3.597-0.097-5.101,0.629c-1.624,0.781-2.436,2.424-2.162,4.222
			c0.212,1.386,0.329,2.779,0.56,3.035c0.14,0.152,1.863-0.825,2.62-0.99c2.095-0.457,7.737-1.877,6.054-5.461
			C36.138,41.485,35.34,40.965,34.538,40.839z"/>
		<path fill="#595554" d="M38.701,45.086c0.017,0.73,0.095,2.297-0.313,2.918c-0.96,1.457-2.615-2.731-2.568-3.706
			c0.032-0.646,0.087-1.39,0.571-1.838c0.495-0.462,1.479-0.637,1.917-0.015C38.819,43.165,38.684,44.294,38.701,45.086z"/>
	</g>
	<g>
		<path fill="#E2C7B5" d="M93.395,48.725c-0.457,3.126-2.342,5.731-5.232,5.731c-2.888,0-4.787-2.604-5.23-5.731
			c-0.633-4.479,0.703-6.684,5.225-6.684C92.848,42.042,93.975,44.781,93.395,48.725z"/>
		<path fill="#916826" d="M89.635,40.839c-1.621-0.252-3.598-0.097-5.102,0.629c-1.623,0.781-2.436,2.424-2.162,4.222
			c0.213,1.386,0.33,2.779,0.561,3.035c0.139,0.152,1.862-0.825,2.619-0.99c2.096-0.457,7.737-1.877,6.055-5.461
			C91.235,41.485,90.437,40.965,89.635,40.839z"/>
		<path fill="#916826" d="M93.797,45.086c0.018,0.73,0.096,2.297-0.313,2.918c-0.961,1.457-2.615-2.731-2.568-3.706
			c0.032-0.646,0.088-1.39,0.57-1.838c0.495-0.462,1.479-0.637,1.917-0.015C93.916,43.165,93.78,44.294,93.797,45.086z"/>
	</g>
	<g>
		<path fill="#E2C7B5" d="M65.711,18.772c-0.459,3.127-2.344,5.731-5.233,5.731c-2.888,0-4.788-2.604-5.231-5.731
			c-0.632-4.479,0.704-6.684,5.226-6.684C65.165,12.088,66.29,14.828,65.711,18.772z"/>
		<path fill="#280B02" d="M61.95,10.886c-1.621-0.252-3.596-0.097-5.101,0.629c-1.624,0.781-2.436,2.424-2.162,4.222
			c0.212,1.386,0.329,2.779,0.56,3.035c0.14,0.152,1.863-0.825,2.62-0.99c2.095-0.457,7.737-1.877,6.054-5.461
			C63.55,11.532,62.752,11.012,61.95,10.886z"/>
		<path fill="#280B02" d="M66.114,15.133c0.016,0.73,0.095,2.297-0.314,2.918c-0.959,1.457-2.614-2.731-2.567-3.706
			c0.032-0.646,0.087-1.39,0.571-1.838c0.494-0.462,1.479-0.637,1.916-0.015C66.231,13.211,66.096,14.341,66.114,15.133z"/>
	</g>
</g>
<g>
	<path fill="#1D3766" d="M116.285,23.682c0.391-0.045,0.853-0.09,1.387-0.137c0.534-0.045,1.094-0.084,1.68-0.119
		c0.586-0.033,1.172-0.062,1.758-0.085c0.586-0.021,1.153-0.034,1.7-0.034c1.432,0,2.793,0.126,4.083,0.375
		c1.289,0.25,2.423,0.683,3.399,1.295c0.977,0.614,1.751,1.427,2.325,2.438c0.572,1.011,0.859,2.278,0.859,3.8
		c0,1.591-0.306,2.914-0.918,3.971c-0.613,1.057-1.42,1.903-2.423,2.539c-1.003,0.637-2.143,1.085-3.418,1.346
		c-1.277,0.262-2.579,0.393-3.907,0.393c-0.495,0-0.932-0.006-1.309-0.018c-0.378-0.011-0.788-0.039-1.23-0.084v8.86
		c-0.625,0.068-1.29,0.103-1.993,0.103c-0.313,0-0.645-0.006-0.997-0.017c-0.352-0.013-0.684-0.041-0.996-0.086V23.682z
		 M120.271,36.327c0.416,0.046,0.781,0.08,1.094,0.103c0.312,0.022,0.768,0.033,1.367,0.033c0.808,0,1.608-0.073,2.403-0.221
		s1.504-0.414,2.13-0.801c0.625-0.387,1.126-0.915,1.504-1.586c0.377-0.669,0.566-1.538,0.566-2.606
		c0-0.932-0.163-1.715-0.488-2.352c-0.326-0.636-0.775-1.146-1.348-1.533c-0.574-0.387-1.264-0.659-2.071-0.818
		c-0.807-0.158-1.68-0.238-2.617-0.238c-0.964,0-1.811,0.033-2.54,0.102V36.327z"/>
	<path fill="#1D3766" d="M142.228,48.63c-1.563,0-2.93-0.233-4.103-0.698c-1.172-0.466-2.149-1.107-2.93-1.927
		c-0.782-0.817-1.361-1.782-1.739-2.896c-0.377-1.113-0.566-2.317-0.566-3.612s0.189-2.499,0.566-3.613
		c0.377-1.113,0.957-2.079,1.739-2.896c0.781-0.818,1.758-1.466,2.93-1.942c1.172-0.478,2.54-0.716,4.103-0.716
		c1.563,0,2.93,0.238,4.102,0.716c1.172,0.477,2.149,1.124,2.93,1.942c0.782,0.817,1.361,1.783,1.739,2.896
		c0.377,1.114,0.566,2.318,0.566,3.613s-0.189,2.499-0.566,3.612c-0.378,1.114-0.957,2.079-1.739,2.896
		c-0.781,0.819-1.758,1.461-2.93,1.927C145.158,48.397,143.791,48.63,142.228,48.63z M142.228,45.938
		c1.797,0,3.125-0.568,3.985-1.704s1.29-2.716,1.29-4.737s-0.43-3.596-1.29-4.721c-0.859-1.124-2.188-1.688-3.985-1.688
		c-1.797,0-3.12,0.563-3.966,1.688c-0.847,1.125-1.27,2.699-1.27,4.721s0.423,3.602,1.27,4.737
		C139.108,45.37,140.431,45.938,142.228,45.938z"/>
	<path fill="#1D3766" d="M153.089,45.051c0.703,0.251,1.478,0.449,2.324,0.597c0.846,0.147,1.686,0.222,2.521,0.222
		c0.599,0,1.171-0.057,1.719-0.17c0.547-0.113,1.022-0.284,1.426-0.512c0.403-0.228,0.729-0.505,0.977-0.835
		c0.247-0.329,0.371-0.699,0.371-1.107c0-0.454-0.098-0.829-0.293-1.125c-0.195-0.295-0.456-0.546-0.782-0.749
		c-0.326-0.205-0.703-0.381-1.133-0.528c-0.43-0.148-0.892-0.291-1.387-0.427l-1.368-0.443c-1.667-0.545-2.878-1.158-3.633-1.84
		c-0.756-0.682-1.133-1.603-1.133-2.761c0-1.545,0.631-2.771,1.895-3.681c1.263-0.908,3.119-1.363,5.567-1.363
		c1.016,0,2.012,0.085,2.989,0.256c0.977,0.17,1.83,0.369,2.559,0.597c-0.052,0.454-0.15,0.908-0.293,1.363
		c-0.144,0.454-0.319,0.874-0.527,1.26c-0.573-0.181-1.257-0.357-2.051-0.528c-0.795-0.17-1.647-0.255-2.559-0.255
		c-0.964,0-1.817,0.147-2.559,0.442c-0.742,0.296-1.113,0.818-1.113,1.568c0,0.386,0.091,0.716,0.273,0.988
		c0.182,0.272,0.43,0.506,0.742,0.698c0.313,0.193,0.67,0.358,1.074,0.495c0.404,0.136,0.84,0.272,1.309,0.408l1.719,0.512
		c0.625,0.183,1.217,0.397,1.777,0.647c0.56,0.25,1.042,0.563,1.445,0.938c0.404,0.374,0.729,0.829,0.977,1.362
		c0.248,0.535,0.372,1.177,0.372,1.926c0,0.841-0.196,1.608-0.586,2.301c-0.391,0.693-0.944,1.284-1.661,1.772
		s-1.582,0.869-2.598,1.142c-1.015,0.272-2.136,0.409-3.359,0.409c-1.25,0-2.345-0.074-3.282-0.222
		c-0.938-0.148-1.811-0.346-2.617-0.597c0.051-0.454,0.162-0.914,0.332-1.38C152.691,45.966,152.88,45.506,153.089,45.051z"/>
	<path fill="#1D3766" d="M166.646,45.051c0.703,0.251,1.478,0.449,2.324,0.597s1.686,0.222,2.521,0.222
		c0.599,0,1.172-0.057,1.719-0.17s1.022-0.284,1.426-0.512c0.403-0.228,0.729-0.505,0.977-0.835
		c0.247-0.329,0.371-0.699,0.371-1.107c0-0.454-0.098-0.829-0.293-1.125c-0.195-0.295-0.456-0.546-0.782-0.749
		c-0.326-0.205-0.703-0.381-1.133-0.528c-0.429-0.148-0.892-0.291-1.387-0.427l-1.368-0.443c-1.667-0.545-2.878-1.158-3.633-1.84
		c-0.756-0.682-1.133-1.603-1.133-2.761c0-1.545,0.632-2.771,1.895-3.681c1.263-0.908,3.119-1.363,5.567-1.363
		c1.016,0,2.012,0.085,2.989,0.256c0.977,0.17,1.83,0.369,2.559,0.597c-0.052,0.454-0.15,0.908-0.293,1.363
		c-0.143,0.454-0.319,0.874-0.527,1.26c-0.573-0.181-1.257-0.357-2.051-0.528c-0.795-0.17-1.648-0.255-2.559-0.255
		c-0.964,0-1.817,0.147-2.56,0.442c-0.742,0.296-1.113,0.818-1.113,1.568c0,0.386,0.091,0.716,0.273,0.988
		c0.182,0.272,0.43,0.506,0.742,0.698c0.313,0.193,0.67,0.358,1.074,0.495c0.404,0.136,0.84,0.272,1.309,0.408l1.719,0.512
		c0.625,0.183,1.217,0.397,1.777,0.647c0.56,0.25,1.042,0.563,1.446,0.938c0.403,0.374,0.729,0.829,0.977,1.362
		c0.247,0.535,0.371,1.177,0.371,1.926c0,0.841-0.196,1.608-0.586,2.301c-0.391,0.693-0.944,1.284-1.661,1.772
		s-1.582,0.869-2.598,1.142c-1.015,0.272-2.136,0.409-3.359,0.409c-1.25,0-2.345-0.074-3.282-0.222
		c-0.938-0.148-1.811-0.346-2.617-0.597c0.051-0.454,0.162-0.914,0.332-1.38C166.249,45.966,166.438,45.506,166.646,45.051z"/>
	<path fill="#1D3766" d="M189.697,48.63c-1.563,0-2.93-0.233-4.103-0.698c-1.172-0.466-2.149-1.107-2.93-1.927
		c-0.782-0.817-1.361-1.782-1.739-2.896c-0.377-1.113-0.566-2.317-0.566-3.612s0.189-2.499,0.566-3.613
		c0.377-1.113,0.957-2.079,1.739-2.896c0.781-0.818,1.758-1.466,2.93-1.942c1.172-0.478,2.54-0.716,4.103-0.716
		c1.563,0,2.93,0.238,4.102,0.716c1.172,0.477,2.149,1.124,2.93,1.942c0.782,0.817,1.361,1.783,1.739,2.896
		c0.377,1.114,0.566,2.318,0.566,3.613s-0.189,2.499-0.566,3.612c-0.378,1.114-0.957,2.079-1.739,2.896
		c-0.781,0.819-1.758,1.461-2.93,1.927C192.627,48.397,191.26,48.63,189.697,48.63z M189.697,45.938
		c1.797,0,3.125-0.568,3.985-1.704s1.29-2.716,1.29-4.737s-0.43-3.596-1.29-4.721c-0.859-1.124-2.188-1.688-3.985-1.688
		c-1.797,0-3.12,0.563-3.966,1.688c-0.847,1.125-1.27,2.699-1.27,4.721s0.423,3.602,1.27,4.737
		C186.578,45.37,187.9,45.938,189.697,45.938z"/>
	<path fill="#1D3766" d="M206.614,45.051c0.703,0.251,1.478,0.449,2.325,0.597c0.846,0.147,1.686,0.222,2.52,0.222
		c0.599,0,1.172-0.057,1.719-0.17s1.022-0.284,1.426-0.512s0.729-0.505,0.977-0.835c0.247-0.329,0.372-0.699,0.372-1.107
		c0-0.454-0.098-0.829-0.293-1.125c-0.195-0.295-0.456-0.546-0.782-0.749c-0.326-0.205-0.704-0.381-1.133-0.528
		c-0.43-0.148-0.893-0.291-1.387-0.427l-1.368-0.443c-1.667-0.545-2.878-1.158-3.633-1.84s-1.133-1.603-1.133-2.761
		c0-1.545,0.632-2.771,1.895-3.681c1.263-0.908,3.119-1.363,5.567-1.363c1.016,0,2.012,0.085,2.989,0.256
		c0.977,0.17,1.83,0.369,2.559,0.597c-0.052,0.454-0.15,0.908-0.293,1.363c-0.143,0.454-0.319,0.874-0.527,1.26
		c-0.574-0.181-1.257-0.357-2.051-0.528c-0.795-0.17-1.647-0.255-2.559-0.255c-0.964,0-1.817,0.147-2.559,0.442
		c-0.742,0.296-1.114,0.818-1.114,1.568c0,0.386,0.091,0.716,0.274,0.988c0.182,0.272,0.429,0.506,0.742,0.698
		c0.313,0.193,0.67,0.358,1.074,0.495c0.403,0.136,0.84,0.272,1.309,0.408l1.719,0.512c0.625,0.183,1.217,0.397,1.777,0.647
		s1.042,0.563,1.446,0.938c0.403,0.374,0.729,0.829,0.977,1.362c0.247,0.535,0.371,1.177,0.371,1.926
		c0,0.841-0.196,1.608-0.586,2.301c-0.391,0.693-0.944,1.284-1.66,1.772s-1.583,0.869-2.598,1.142s-2.136,0.409-3.36,0.409
		c-1.25,0-2.345-0.074-3.282-0.222c-0.938-0.148-1.811-0.346-2.617-0.597c0.051-0.454,0.162-0.914,0.332-1.38
		C206.216,45.966,206.405,45.506,206.614,45.051z"/>
	<path fill="#1D3766" d="M224.429,40.314c0.052,1.909,0.618,3.307,1.7,4.192c1.081,0.887,2.676,1.329,4.786,1.329
		c1.849,0,3.607-0.284,5.275-0.852c0.208,0.341,0.377,0.755,0.507,1.244c0.13,0.488,0.208,0.971,0.235,1.448
		c-0.86,0.318-1.804,0.557-2.833,0.715c-1.029,0.159-2.168,0.239-3.418,0.239c-1.824,0-3.387-0.222-4.689-0.665
		c-1.303-0.442-2.377-1.067-3.223-1.874s-1.465-1.761-1.855-2.863c-0.391-1.102-0.586-2.312-0.586-3.629
		c0-1.296,0.188-2.505,0.566-3.63c0.378-1.125,0.958-2.102,1.739-2.932c0.781-0.829,1.764-1.487,2.95-1.976
		c1.185-0.489,2.584-0.733,4.2-0.733c1.38,0,2.591,0.205,3.633,0.613c1.042,0.409,1.915,0.971,2.618,1.687
		c0.703,0.716,1.237,1.568,1.602,2.557c0.364,0.988,0.547,2.062,0.547,3.221c0,0.318-0.013,0.653-0.039,1.006
		c-0.027,0.352-0.053,0.653-0.079,0.902H224.429z M234.353,37.792c0-0.636-0.098-1.244-0.293-1.823s-0.482-1.085-0.859-1.518
		c-0.377-0.431-0.859-0.777-1.445-1.039c-0.586-0.261-1.283-0.392-2.09-0.392c-1.589,0-2.807,0.421-3.653,1.261
		c-0.847,0.841-1.362,2.011-1.543,3.511H234.353z"/>
	<path fill="#1D3766" d="M240.058,30.737c0.286-0.045,0.559-0.078,0.82-0.102c0.26-0.022,0.534-0.034,0.821-0.034
		c0.286,0,0.572,0.012,0.86,0.034c0.286,0.023,0.547,0.057,0.781,0.102c0.078,0.341,0.157,0.79,0.234,1.347
		c0.079,0.557,0.118,1.028,0.118,1.414c0.547-0.771,1.27-1.442,2.168-2.011c0.898-0.567,2.051-0.852,3.457-0.852
		c0.208,0,0.423,0.006,0.645,0.017c0.221,0.013,0.41,0.028,0.566,0.052c0.052,0.204,0.091,0.421,0.117,0.647
		c0.026,0.228,0.039,0.466,0.039,0.716c0,0.272-0.02,0.557-0.059,0.852s-0.084,0.579-0.137,0.853
		c-0.208-0.046-0.424-0.068-0.645-0.068c-0.222,0-0.397,0-0.528,0c-0.703,0-1.374,0.085-2.012,0.256
		c-0.639,0.17-1.211,0.472-1.719,0.902c-0.508,0.432-0.912,1.022-1.211,1.773c-0.3,0.749-0.45,1.715-0.45,2.896v8.69
		c-0.287,0.045-0.605,0.079-0.957,0.103c-0.352,0.022-0.67,0.034-0.958,0.034c-0.287,0-0.605-0.012-0.957-0.034
		c-0.352-0.023-0.684-0.058-0.996-0.103V30.737z"/>
	<path fill="#1D3766" d="M115.738,62.263c0.286-0.046,0.612-0.079,0.977-0.103c0.364-0.021,0.677-0.034,0.938-0.034
		c0.286,0,0.612,0.013,0.977,0.034c0.365,0.023,0.69,0.057,0.977,0.103v9.576c0,1.091,0.117,1.994,0.352,2.71
		s0.586,1.278,1.055,1.687c0.469,0.409,1.042,0.694,1.719,0.853c0.678,0.159,1.459,0.239,2.345,0.239
		c1.328,0,2.461-0.125,3.399-0.376V62.263c0.287-0.046,0.605-0.079,0.957-0.103c0.352-0.021,0.67-0.034,0.957-0.034
		s0.606,0.013,0.958,0.034c0.352,0.023,0.67,0.057,0.957,0.103v16.938c-0.912,0.228-1.999,0.443-3.262,0.647
		c-1.264,0.205-2.573,0.307-3.926,0.307c-1.277,0-2.481-0.097-3.614-0.29c-1.133-0.192-2.129-0.585-2.988-1.175
		c-0.86-0.591-1.538-1.421-2.032-2.488c-0.495-1.068-0.742-2.477-0.742-4.227V62.263z"/>
	<path fill="#1D3766" d="M135.195,62.263c0.287-0.046,0.566-0.079,0.84-0.103c0.273-0.021,0.553-0.034,0.84-0.034
		c0.286,0,0.553,0.013,0.801,0.034c0.247,0.023,0.514,0.057,0.801,0.103c0.078,0.34,0.156,0.79,0.234,1.346
		c0.079,0.557,0.117,1.028,0.117,1.414c0.234-0.409,0.527-0.8,0.879-1.176c0.352-0.374,0.769-0.71,1.25-1.005
		s1.036-0.533,1.661-0.716c0.625-0.181,1.315-0.272,2.071-0.272c1.563,0,2.767,0.278,3.613,0.835
		c0.846,0.558,1.491,1.336,1.935,2.334c0.26-0.386,0.579-0.771,0.957-1.158c0.377-0.386,0.801-0.728,1.27-1.022
		c0.469-0.295,1.002-0.533,1.602-0.716c0.599-0.181,1.276-0.272,2.032-0.272c2.318,0,4.005,0.568,5.06,1.704
		s1.583,2.817,1.583,5.044v11.145c-0.288,0.046-0.613,0.079-0.977,0.103c-0.365,0.022-0.69,0.034-0.977,0.034
		c-0.287,0-0.606-0.012-0.958-0.034c-0.352-0.023-0.671-0.057-0.957-0.103V69.59c0-1.567-0.273-2.743-0.82-3.527
		s-1.446-1.176-2.696-1.176c-1.328,0-2.402,0.421-3.223,1.261c-0.82,0.841-1.23,2.079-1.23,3.716v9.883
		c-0.287,0.046-0.605,0.079-0.957,0.103c-0.352,0.022-0.671,0.034-0.958,0.034c-0.287,0-0.605-0.012-0.957-0.034
		c-0.352-0.023-0.671-0.057-0.958-0.103V69.351c0-1.521-0.261-2.662-0.781-3.425c-0.521-0.761-1.354-1.142-2.5-1.142
		c-0.651,0-1.264,0.126-1.836,0.375c-0.573,0.25-1.074,0.625-1.504,1.125c-0.429,0.5-0.768,1.13-1.015,1.892
		c-0.248,0.762-0.372,1.642-0.372,2.642v8.929c-0.287,0.046-0.605,0.079-0.957,0.103c-0.352,0.022-0.671,0.034-0.958,0.034
		s-0.612-0.012-0.977-0.034c-0.365-0.023-0.69-0.057-0.977-0.103V62.263z"/>
	<path fill="#1D3766" d="M171.021,55.243c0.964-0.137,1.915-0.205,2.852-0.205c0.938,0,1.901,0.068,2.892,0.205v24.504
		c-0.99,0.137-1.941,0.205-2.852,0.205c-0.964,0-1.928-0.068-2.892-0.205V55.243z"/>
	<path fill="#1D3766" d="M179.03,55.243c0.808-0.137,1.576-0.205,2.305-0.205c0.782,0,1.588,0.068,2.423,0.205l10.861,15.608V55.243
		c0.938-0.137,1.836-0.205,2.696-0.205c0.807,0,1.588,0.068,2.344,0.205v24.504c-0.834,0.137-1.589,0.205-2.267,0.205
		c-0.729,0-1.523-0.068-2.383-0.205L184.07,64.171v15.575c-0.834,0.137-1.68,0.205-2.54,0.205c-0.859,0-1.693-0.068-2.5-0.205
		V55.243z"/>
	<path fill="#1D3766" d="M202.042,55.243c1.094-0.113,2.24-0.211,3.438-0.291c1.198-0.078,2.526-0.119,3.985-0.119
		c4.923,0,8.667,1.069,11.232,3.204c2.565,2.137,3.849,5.34,3.849,9.611c0,4.295-1.303,7.453-3.907,9.475
		c-2.605,2.023-6.472,3.033-11.604,3.033c-1.328,0-2.553-0.039-3.672-0.119c-1.121-0.08-2.228-0.176-3.321-0.29V55.243z
		 M207.785,75.793c0.234,0.023,0.534,0.046,0.899,0.068c0.364,0.022,0.807,0.034,1.329,0.034c1.198,0,2.311-0.12,3.34-0.358
		c1.028-0.238,1.92-0.675,2.676-1.313c0.755-0.636,1.354-1.487,1.797-2.556c0.442-1.067,0.664-2.442,0.664-4.124
		c0-1.635-0.222-2.998-0.664-4.09c-0.443-1.091-1.042-1.954-1.797-2.59c-0.756-0.636-1.621-1.085-2.598-1.347
		c-0.977-0.261-2.012-0.392-3.106-0.392c-0.365,0-0.788,0.006-1.27,0.018c-0.482,0.012-0.905,0.039-1.27,0.084V75.793z"/>
	<path fill="#1D3766" d="M226.07,55.243c0.963-0.137,1.915-0.205,2.852-0.205c0.938,0,1.901,0.068,2.892,0.205v24.504
		c-0.991,0.137-1.941,0.205-2.852,0.205c-0.964,0-1.928-0.068-2.892-0.205V55.243z"/>
	<path fill="#F68E20" d="M234.079,55.208c0.495-0.068,0.977-0.113,1.445-0.136c0.469-0.022,0.951-0.034,1.446-0.034
		c0.442,0,0.898,0.012,1.367,0.034s0.95,0.067,1.445,0.136v24.573c-0.495,0.068-0.977,0.113-1.445,0.137
		c-0.469,0.021-0.938,0.034-1.407,0.034c-0.469,0-0.938-0.013-1.407-0.034c-0.468-0.023-0.951-0.068-1.445-0.137V55.208z
		 M240.604,67.409l7.619-12.166c0.599-0.092,1.153-0.148,1.66-0.171c0.508-0.022,0.97-0.034,1.387-0.034
		c0.442,0,0.938,0.023,1.484,0.068s1.12,0.091,1.719,0.137l-7.697,11.826l8.361,12.678c-0.6,0.046-1.179,0.091-1.739,0.137
		c-0.56,0.045-1.062,0.068-1.504,0.068c-0.417,0-0.879-0.013-1.387-0.034c-0.508-0.023-1.075-0.08-1.7-0.171L240.604,67.409z"/>
	<path fill="#F68E20" d="M260.919,55.243c1.042-0.137,2.214-0.205,3.516-0.205c0.678,0,1.257,0.018,1.74,0.051
		c0.481,0.035,0.983,0.086,1.504,0.154l-5.9,4.191c-0.338,0.046-0.742,0.091-1.211,0.136c-0.469,0.046-0.964,0.068-1.485,0.068
		c-0.834,0-1.68-0.068-2.539-0.204L260.919,55.243z"/>
	<path fill="#0A81C4" d="M276.508,68.398c-0.886-0.295-1.681-0.619-2.384-0.972c-0.704-0.352-1.303-0.772-1.797-1.261
		s-0.878-1.074-1.152-1.755c-0.273-0.683-0.41-1.5-0.41-2.455c0-1.158,0.228-2.181,0.684-3.066c0.455-0.887,1.1-1.63,1.934-2.232
		c0.833-0.603,1.835-1.058,3.008-1.363c1.172-0.307,2.487-0.461,3.945-0.461c1.329,0,2.572,0.104,3.731,0.307
		c1.16,0.205,2.377,0.501,3.653,0.887c-0.156,1.318-0.573,2.613-1.25,3.886c-0.391-0.137-0.788-0.273-1.192-0.409
		c-0.404-0.137-0.833-0.25-1.289-0.341s-0.971-0.165-1.543-0.222c-0.573-0.057-1.225-0.085-1.953-0.085
		c-0.444,0-0.893,0.034-1.348,0.103c-0.456,0.068-0.867,0.193-1.231,0.375s-0.664,0.448-0.898,0.801
		c-0.234,0.352-0.351,0.813-0.351,1.38c0,0.454,0.09,0.835,0.273,1.142c0.182,0.307,0.43,0.568,0.743,0.784s0.664,0.397,1.055,0.545
		c0.391,0.148,0.781,0.29,1.173,0.427l2.343,0.784c0.99,0.34,1.889,0.692,2.696,1.056c0.807,0.364,1.491,0.813,2.051,1.347
		c0.56,0.533,0.997,1.181,1.31,1.942c0.312,0.762,0.468,1.698,0.468,2.812c0,1.158-0.241,2.215-0.723,3.169
		c-0.483,0.955-1.179,1.772-2.09,2.455c-0.912,0.681-2.039,1.216-3.38,1.602s-2.884,0.579-4.629,0.579
		c-0.859,0-1.628-0.023-2.305-0.068s-1.322-0.119-1.934-0.222c-0.613-0.102-1.218-0.232-1.816-0.391
		c-0.6-0.159-1.225-0.353-1.876-0.581c0.079-0.657,0.221-1.346,0.43-2.062c0.208-0.716,0.455-1.437,0.743-2.163
		c1.094,0.387,2.123,0.676,3.086,0.868c0.963,0.193,1.993,0.29,3.086,0.29c1.641,0,2.931-0.267,3.868-0.801
		c0.938-0.534,1.406-1.347,1.406-2.437c0-0.546-0.11-1-0.332-1.363c-0.222-0.364-0.508-0.671-0.859-0.921
		c-0.352-0.249-0.75-0.46-1.192-0.631c-0.444-0.17-0.899-0.334-1.367-0.494L276.508,68.398z"/>
</g>
</svg>
