<?xml version="1.0" encoding="utf-8"?>
<!-- Generator: Adobe Illustrator 16.0.0, SVG Export Plug-In . SVG Version: 6.00 Build 0)  -->
<!DOCTYPE svg PUBLIC "-//W3C//DTD SVG 1.1//EN" "http://www.w3.org/Graphics/SVG/1.1/DTD/svg11.dtd">
<svg version="1.1" id="Layer_1" xmlns="http://www.w3.org/2000/svg" xmlns:xlink="http://www.w3.org/1999/xlink" x="0px" y="0px"
	 width="316.832px" height="102.404px" viewBox="0 0 316.832 102.404" enable-background="new 0 0 316.832 102.404"
	 xml:space="preserve">
<g>
	<path fill="#7A5125" d="M62.924,70.573c0,1.241-1.007,2.249-2.249,2.249H46.558c-1.242,0-2.249-1.008-2.249-2.249v-8.12
		c0-1.242,1.007-2.25,2.249-2.25h14.118c1.242,0,2.249,1.008,2.249,2.25V70.573z"/>
	<path fill="#E2C7B5" d="M55.412,59.965c0,1.183-0.96,2.144-2.144,2.144l0,0c-1.184,0-2.144-0.961-2.144-2.144v-0.331
		c0-1.183,0.959-2.143,2.144-2.143l0,0c1.184,0,2.144,0.96,2.144,2.143V59.965z"/>
	<path fill="#101314" d="M53.514,34.917c0,0-1.864,3.519-2.242,4.838c-0.385,1.339-0.807,5.79-0.807,5.79v13.559h5.423V45.399
		l0.88-8.061L53.514,34.917z"/>
	<path fill="#E2C7B5" d="M86.808,48.792c-0.167,1.215-1.114,2.089-2.117,1.952l-1.233-0.169c-1.002-0.138-1.681-1.234-1.514-2.451
		l0,0c0.167-1.215,1.114-2.089,2.117-1.951l1.234,0.169C86.297,46.478,86.975,47.575,86.808,48.792L86.808,48.792z"/>
	<path fill="#262C2D" d="M70.472,56.396l0.659-17.153c-0.606-4.328-3.558-7.329-7.406-7.329h-4.257
		c-3.847,0-6.966,2.798-6.966,6.249v18.229L70.472,56.396z"/>
	<polygon fill="#101314" points="70.068,35.892 74.209,44.155 83.591,45.986 83.004,50.676 72.158,49.43 67.468,43.285 	"/>
	<polygon fill="#1C2021" points="54.674,56.396 54.674,87.319 61.403,87.319 62.777,73.889 62.941,87.319 69.665,87.319 
		69.665,56.396 	"/>
	<polygon points="55.009,87.319 55.009,90.361 60.834,90.361 61.934,89.811 60.725,87.319 	"/>
	<polygon points="63.62,87.319 63.62,90.361 72.561,90.361 72.011,89.261 69.446,88.271 68.86,87.319 	"/>
	<g>
		<path fill="#E2C7B5" d="M90.103,48.086c0.179,1.166-0.488,2.234-1.488,2.388l-1.231,0.189c-1.001,0.153-1.956-0.669-2.134-1.835
			l0,0c-0.179-1.166,0.487-2.234,1.488-2.388l1.231-0.189C88.968,46.099,89.924,46.92,90.103,48.086L90.103,48.086z"/>
		<g>
			<polygon fill="#23879E" points="101.4,35.892 97.259,44.155 87.877,45.986 88.463,50.676 99.31,49.43 104.001,43.285 			"/>
			<path fill="#50ABBA" d="M100.996,56.396l-0.659-17.153c0.608-4.328,3.56-7.329,7.406-7.329H112c3.848,0,6.966,2.798,6.966,6.249
				v18.229L100.996,56.396z"/>
			<polygon fill="#23879E" points="116.793,56.396 116.793,87.319 110.065,87.319 108.692,73.889 108.525,87.319 101.802,87.319 
				101.802,56.396 			"/>
			<path fill="#133B42" d="M108.544,70.573c0,1.241,1.007,2.249,2.249,2.249h14.118c1.242,0,2.25-1.008,2.25-2.249v-8.12
				c0-1.242-1.008-2.25-2.25-2.25h-14.118c-1.242,0-2.249,1.008-2.249,2.25V70.573z"/>
			<path fill="#E2C7B5" d="M116.056,59.965c0,1.183,0.96,2.144,2.145,2.144l0,0c1.183,0,2.144-0.961,2.144-2.144v-0.331
				c0-1.183-0.961-2.143-2.144-2.143l0,0c-1.185,0-2.145,0.96-2.145,2.143V59.965z"/>
			<polygon fill="#110701" points="116.459,87.319 116.459,90.361 110.634,90.361 109.534,89.811 110.744,87.319 			"/>
			<path fill="#23879E" d="M117.954,34.917c0,0,1.866,3.519,2.244,4.838c0.383,1.339,0.806,5.79,0.806,5.79v13.559h-5.423V45.399
				l-0.88-8.061L117.954,34.917z"/>
			<polygon fill="#110701" points="107.849,87.319 107.849,90.361 98.907,90.361 99.457,89.261 102.022,88.271 102.608,87.319 			
				"/>
		</g>
		<polygon fill="#FFFFFF" points="107.113,31.943 106.383,44.155 111.659,31.943 		"/>
	</g>
	<g>
		<path fill="#441707" d="M59.583,22.988c0.427-1.199,0.892-1.871,2.15-2.265c1.118-0.35,2.261-0.455,3.422-0.559
			c0.822-0.074,1.678-0.045,2.519-0.074c-0.366-1.718,0.167-2.966,1.143-4.668c-1.817,0.49-3.568,0.545-5.442,0.526
			c-2.483-0.024-6.27-0.22-7.954,2.029c-1.796,2.396,0.151,5.646,0.605,8.16c0.099,0.552,0.253,1.082,0.493,1.578
			C58.377,26.995,58.99,24.651,59.583,22.988z"/>
		<path fill="#E2C7B5" d="M67.674,20.09c-0.841,0.029-1.697,0-2.519,0.074c-1.161,0.104-2.304,0.209-3.422,0.559
			c-1.258,0.394-1.723,1.065-2.15,2.265c-0.593,1.663-1.206,4.007-3.063,4.729c0.125,0.259,0.268,0.512,0.453,0.748
			c2.259,2.877,10.72,3.585,11.132,1.436c0.487-2.529,0.711-6.312-0.212-9.017C67.799,20.607,67.728,20.343,67.674,20.09z"/>
	</g>
	<g>
		<path fill="#4C4C4C" d="M111.814,22.988c-0.428-1.199-0.893-1.871-2.15-2.265c-1.119-0.35-2.261-0.455-3.421-0.559
			c-0.823-0.074-1.678-0.045-2.52-0.074c0.365-1.718-0.167-2.966-1.145-4.668c1.818,0.49,3.569,0.545,5.443,0.526
			c2.483-0.024,6.27-0.22,7.954,2.029c1.796,2.396-0.151,5.646-0.605,8.16c-0.099,0.552-0.254,1.082-0.494,1.578
			C113.02,26.995,112.407,24.651,111.814,22.988z"/>
		<path fill="#E2C7B5" d="M103.723,20.09c0.841,0.029,1.696,0,2.52,0.074c1.16,0.104,2.302,0.209,3.421,0.559
			c1.257,0.394,1.722,1.065,2.15,2.265c0.593,1.663,1.206,4.007,3.063,4.729c-0.125,0.259-0.268,0.512-0.453,0.748
			c-2.259,2.877-10.72,3.585-11.133,1.436c-0.488-2.529-0.712-6.312,0.212-9.017C103.597,20.607,103.67,20.343,103.723,20.09z"/>
	</g>
</g>
<g>
	<path fill="#1D3766" d="M151.817,41.522c0.888,0.282,1.817,0.528,2.786,0.74c0.969,0.211,2.153,0.316,3.553,0.316
		c2.207,0,3.855-0.393,4.945-1.18c1.09-0.786,1.635-1.849,1.635-3.187c0-0.657-0.115-1.221-0.343-1.69
		c-0.229-0.47-0.572-0.875-1.03-1.216c-0.458-0.34-1.029-0.651-1.715-0.933c-0.687-0.282-1.488-0.587-2.402-0.916l-2.301-0.81
		c-0.781-0.282-1.494-0.593-2.14-0.934c-0.646-0.34-1.205-0.757-1.675-1.25c-0.471-0.493-0.842-1.062-1.11-1.708
		c-0.27-0.646-0.404-1.414-0.404-2.307c0-2.136,0.834-3.809,2.503-5.019c1.668-1.209,4.01-1.813,7.024-1.813
		c1.292,0,2.516,0.095,3.674,0.282c1.157,0.188,2.18,0.422,3.068,0.704c-0.135,0.986-0.431,1.96-0.888,2.923
		c-0.727-0.234-1.568-0.445-2.523-0.634c-0.956-0.188-2.039-0.282-3.25-0.282c-1.696,0-3.001,0.3-3.916,0.898
		c-0.916,0.599-1.373,1.497-1.373,2.694c0,0.492,0.114,0.933,0.343,1.32c0.229,0.388,0.531,0.728,0.909,1.021
		c0.376,0.294,0.82,0.558,1.332,0.792c0.511,0.235,1.05,0.446,1.615,0.634l2.261,0.775c1.076,0.375,2.032,0.769,2.866,1.18
		c0.834,0.41,1.547,0.893,2.14,1.443c0.592,0.552,1.043,1.203,1.353,1.955c0.309,0.751,0.464,1.632,0.464,2.641
		c0,2.419-0.956,4.326-2.866,5.723c-1.912,1.397-4.589,2.096-8.034,2.096c-0.834,0-1.588-0.023-2.261-0.07
		c-0.673-0.048-1.299-0.118-1.877-0.212c-0.579-0.094-1.137-0.211-1.675-0.352c-0.539-0.142-1.09-0.294-1.655-0.458
		c0.054-0.517,0.175-1.045,0.363-1.585C151.399,42.567,151.602,42.039,151.817,41.522z"/>
	<path fill="#1D3766" d="M173.899,37.191c0.054,1.972,0.639,3.416,1.756,4.331c1.117,0.916,2.765,1.374,4.945,1.374
		c1.911,0,3.728-0.294,5.45-0.881c0.215,0.353,0.39,0.781,0.524,1.285c0.135,0.506,0.215,1.004,0.242,1.497
		c-0.888,0.329-1.864,0.575-2.927,0.739c-1.063,0.164-2.24,0.247-3.532,0.247c-1.884,0-3.499-0.229-4.844-0.687
		c-1.346-0.458-2.457-1.104-3.331-1.938c-0.875-0.833-1.514-1.819-1.918-2.958c-0.403-1.139-0.605-2.389-0.605-3.751
		c0-1.338,0.195-2.588,0.585-3.75c0.39-1.162,0.989-2.171,1.796-3.028c0.808-0.857,1.823-1.538,3.048-2.043s2.671-0.757,4.34-0.757
		c1.426,0,2.678,0.211,3.754,0.634c1.076,0.423,1.979,1.004,2.705,1.743s1.278,1.62,1.655,2.642c0.376,1.021,0.565,2.13,0.565,3.327
		c0,0.329-0.014,0.676-0.04,1.039c-0.027,0.364-0.055,0.676-0.081,0.934H173.899z M184.154,34.584c0-0.657-0.101-1.285-0.303-1.884
		c-0.202-0.599-0.499-1.121-0.888-1.567c-0.391-0.445-0.888-0.804-1.494-1.074c-0.606-0.27-1.326-0.404-2.16-0.404
		c-1.642,0-2.9,0.435-3.774,1.303c-0.875,0.869-1.407,2.078-1.595,3.627H184.154z"/>
	<path fill="#1D3766" d="M191.38,30.042h-2.624c-0.055-0.188-0.095-0.404-0.121-0.651c-0.027-0.246-0.041-0.486-0.041-0.722
		c0-0.234,0.013-0.476,0.041-0.722c0.026-0.247,0.066-0.464,0.121-0.651h6.54v19.087c0,1.057-0.161,1.937-0.484,2.641
		c-0.323,0.705-0.774,1.273-1.352,1.708c-0.579,0.435-1.259,0.745-2.039,0.934c-0.781,0.188-1.628,0.281-2.543,0.281
		c-1.454,0-2.678-0.152-3.674-0.457c0.027-0.446,0.095-0.904,0.202-1.374c0.108-0.47,0.256-0.893,0.444-1.268
		c0.646,0.188,1.399,0.282,2.261,0.282c0.349,0,0.712-0.024,1.09-0.071c0.376-0.047,0.727-0.17,1.05-0.369
		c0.323-0.2,0.591-0.499,0.807-0.898c0.215-0.399,0.323-0.95,0.323-1.655V30.042z M190.411,23.281
		c-0.054-0.329-0.094-0.64-0.121-0.934c-0.027-0.293-0.04-0.569-0.04-0.828c0-0.258,0.013-0.533,0.04-0.827
		c0.027-0.293,0.067-0.593,0.121-0.898c0.35-0.046,0.727-0.088,1.13-0.123c0.404-0.035,0.753-0.053,1.05-0.053
		c0.296,0,0.639,0.018,1.029,0.053s0.747,0.077,1.07,0.123c0.054,0.306,0.094,0.605,0.121,0.898
		c0.027,0.294,0.041,0.569,0.041,0.827c0,0.259-0.014,0.535-0.041,0.828c-0.027,0.294-0.067,0.604-0.121,0.934
		c-0.323,0.047-0.68,0.088-1.07,0.123s-0.733,0.053-1.029,0.053c-0.296,0-0.646-0.018-1.05-0.053
		C191.138,23.369,190.76,23.328,190.411,23.281z"/>
	<path fill="#1D3766" d="M209.385,33.458c0-1.385-0.404-2.347-1.211-2.888c-0.808-0.54-1.979-0.81-3.512-0.81
		c-0.942,0-1.824,0.064-2.645,0.193c-0.821,0.13-1.622,0.3-2.402,0.511c-0.512-0.774-0.767-1.702-0.767-2.782
		c0.915-0.258,1.924-0.458,3.028-0.599c1.103-0.141,2.166-0.211,3.189-0.211c2.691,0,4.737,0.534,6.137,1.603
		c1.399,1.068,2.099,2.776,2.099,5.124v11.304c-0.942,0.188-2.086,0.382-3.432,0.581c-1.346,0.199-2.719,0.3-4.118,0.3
		c-1.319,0-2.51-0.105-3.573-0.317c-1.063-0.211-1.965-0.551-2.705-1.021c-0.741-0.469-1.312-1.067-1.716-1.796
		c-0.404-0.728-0.605-1.607-0.605-2.641c0-1.01,0.235-1.896,0.706-2.659c0.471-0.763,1.11-1.396,1.918-1.901
		c0.807-0.505,1.736-0.881,2.785-1.127c1.05-0.247,2.153-0.37,3.311-0.37c0.861,0,1.567,0.018,2.12,0.053
		c0.551,0.035,1.016,0.077,1.393,0.123V33.458z M209.385,36.874c-0.404-0.047-0.915-0.094-1.534-0.141s-1.144-0.07-1.574-0.07
		c-1.669,0-2.941,0.271-3.815,0.81c-0.875,0.541-1.312,1.362-1.312,2.466c0,0.704,0.147,1.256,0.444,1.654
		c0.296,0.4,0.666,0.705,1.11,0.916c0.444,0.211,0.935,0.341,1.474,0.388c0.538,0.047,1.049,0.07,1.534,0.07
		c0.619,0,1.258-0.029,1.918-0.088c0.659-0.059,1.244-0.146,1.756-0.265V36.874z"/>
	<path fill="#1D3766" d="M222.021,27.295c0.296-0.047,0.632-0.082,1.009-0.106c0.376-0.022,0.7-0.035,0.969-0.035
		c0.296,0,0.632,0.013,1.009,0.035c0.377,0.024,0.713,0.06,1.009,0.106v9.896c0,1.127,0.121,2.06,0.363,2.8
		c0.243,0.739,0.606,1.32,1.09,1.743c0.484,0.422,1.076,0.716,1.776,0.88c0.699,0.165,1.507,0.247,2.422,0.247
		c1.373,0,2.543-0.129,3.512-0.388V27.295c0.296-0.047,0.626-0.082,0.989-0.106c0.363-0.022,0.692-0.035,0.989-0.035
		c0.295,0,0.625,0.013,0.989,0.035c0.363,0.024,0.693,0.06,0.989,0.106v17.502c-0.942,0.235-2.066,0.458-3.371,0.669
		c-1.306,0.212-2.658,0.317-4.057,0.317c-1.319,0-2.563-0.101-3.734-0.3c-1.17-0.199-2.2-0.604-3.088-1.215
		c-0.888-0.61-1.588-1.467-2.099-2.57c-0.512-1.104-0.767-2.559-0.767-4.367V27.295z"/>
	<path fill="#1D3766" d="M242.125,27.295c0.296-0.047,0.585-0.082,0.868-0.106c0.283-0.022,0.571-0.035,0.868-0.035
		c0.296,0,0.572,0.013,0.828,0.035c0.256,0.024,0.531,0.06,0.828,0.106c0.081,0.352,0.162,0.815,0.242,1.391
		c0.081,0.575,0.121,1.063,0.121,1.461c0.242-0.422,0.545-0.827,0.909-1.215c0.363-0.387,0.793-0.733,1.292-1.038
		c0.498-0.306,1.07-0.552,1.716-0.74c0.646-0.188,1.359-0.281,2.14-0.281c1.615,0,2.859,0.287,3.734,0.862
		c0.874,0.576,1.541,1.38,1.998,2.412c0.269-0.398,0.599-0.798,0.989-1.197c0.39-0.398,0.828-0.751,1.312-1.056
		c0.484-0.306,1.036-0.552,1.655-0.74c0.619-0.188,1.318-0.281,2.099-0.281c2.395,0,4.138,0.587,5.228,1.761
		s1.635,2.911,1.635,5.212v11.516c-0.296,0.047-0.632,0.082-1.009,0.105s-0.713,0.035-1.009,0.035c-0.297,0-0.626-0.012-0.989-0.035
		s-0.693-0.059-0.989-0.105V34.867c0-1.62-0.282-2.835-0.848-3.646c-0.565-0.81-1.494-1.215-2.786-1.215
		c-1.373,0-2.482,0.435-3.331,1.304c-0.848,0.868-1.271,2.147-1.271,3.838v10.213c-0.296,0.047-0.626,0.082-0.989,0.105
		s-0.693,0.035-0.989,0.035c-0.296,0-0.626-0.012-0.989-0.035s-0.693-0.059-0.989-0.105V34.62c0-1.572-0.269-2.752-0.807-3.539
		c-0.539-0.786-1.4-1.18-2.584-1.18c-0.673,0-1.306,0.129-1.897,0.388c-0.592,0.259-1.11,0.646-1.555,1.162
		c-0.444,0.517-0.794,1.168-1.049,1.954c-0.256,0.787-0.384,1.696-0.384,2.729v9.227c-0.296,0.047-0.625,0.082-0.989,0.105
		s-0.693,0.035-0.989,0.035c-0.296,0-0.633-0.012-1.009-0.035c-0.377-0.023-0.713-0.059-1.009-0.105V27.295z"/>
	<path fill="#1D3766" d="M151.817,55.802c0.996-0.141,1.979-0.211,2.947-0.211s1.964,0.07,2.987,0.211v25.32
		c-1.023,0.141-2.005,0.211-2.947,0.211c-0.996,0-1.992-0.07-2.988-0.211V55.802z"/>
	<path fill="#1D3766" d="M160.092,55.802c0.834-0.141,1.628-0.211,2.382-0.211c0.808,0,1.642,0.07,2.503,0.211L176.2,71.931V55.802
		c0.969-0.141,1.897-0.211,2.786-0.211c0.834,0,1.641,0.07,2.422,0.211v25.32c-0.862,0.141-1.642,0.211-2.342,0.211
		c-0.754,0-1.574-0.07-2.462-0.211L165.3,65.029v16.094c-0.862,0.141-1.736,0.211-2.624,0.211s-1.75-0.07-2.584-0.211V55.802z"/>
	<path fill="#1D3766" d="M183.871,55.802c1.13-0.117,2.314-0.217,3.552-0.3c1.238-0.082,2.61-0.123,4.118-0.123
		c5.087,0,8.956,1.104,11.606,3.311s3.977,5.518,3.977,9.931c0,4.438-1.346,7.701-4.037,9.79c-2.691,2.09-6.688,3.135-11.99,3.135
		c-1.373,0-2.638-0.042-3.795-0.123c-1.157-0.083-2.301-0.183-3.431-0.3V55.802z M189.805,77.038
		c0.242,0.023,0.551,0.047,0.929,0.07c0.376,0.023,0.834,0.035,1.373,0.035c1.237,0,2.388-0.123,3.452-0.37
		c1.063-0.246,1.984-0.698,2.765-1.355c0.78-0.657,1.399-1.537,1.857-2.642c0.457-1.103,0.686-2.523,0.686-4.261
		c0-1.69-0.229-3.099-0.686-4.226c-0.458-1.127-1.077-2.02-1.857-2.677c-0.781-0.657-1.675-1.121-2.685-1.391
		c-1.009-0.271-2.079-0.405-3.209-0.405c-0.377,0-0.814,0.006-1.312,0.018s-0.936,0.041-1.312,0.088V77.038z"/>
	<path fill="#1D3766" d="M208.698,55.802c0.996-0.141,1.979-0.211,2.947-0.211s1.964,0.07,2.987,0.211v25.32
		c-1.023,0.141-2.005,0.211-2.947,0.211c-0.996,0-1.992-0.07-2.988-0.211V55.802z"/>
	<path fill="#F68E20" d="M216.973,55.767c0.511-0.07,1.009-0.117,1.494-0.141c0.484-0.023,0.982-0.035,1.494-0.035
		c0.457,0,0.928,0.012,1.413,0.035c0.485,0.023,0.982,0.07,1.494,0.141v25.391c-0.512,0.07-1.009,0.117-1.494,0.141
		c-0.484,0.023-0.969,0.035-1.453,0.035s-0.969-0.012-1.453-0.035c-0.485-0.023-0.983-0.07-1.494-0.141V55.767z M223.715,68.375
		l7.872-12.572c0.619-0.094,1.191-0.152,1.716-0.176s1.002-0.035,1.433-0.035c0.457,0,0.969,0.023,1.534,0.07
		c0.565,0.047,1.157,0.094,1.776,0.141l-7.953,12.22l8.639,13.101c-0.62,0.047-1.218,0.094-1.796,0.141
		c-0.579,0.047-1.097,0.07-1.554,0.07c-0.431,0-0.909-0.012-1.433-0.035c-0.525-0.023-1.11-0.082-1.756-0.176L223.715,68.375z"/>
	<path fill="#F68E20" d="M244.707,55.802c1.076-0.141,2.287-0.211,3.633-0.211c0.7,0,1.298,0.018,1.796,0.053
		s1.016,0.088,1.555,0.158l-6.096,4.331c-0.35,0.048-0.767,0.095-1.251,0.142s-0.996,0.07-1.534,0.07
		c-0.861,0-1.736-0.07-2.624-0.212L244.707,55.802z"/>
	<path fill="#0A81C4" d="M260.815,69.396c-0.915-0.306-1.736-0.64-2.462-1.004s-1.346-0.798-1.857-1.303
		c-0.512-0.505-0.909-1.109-1.191-1.814c-0.283-0.704-0.424-1.549-0.424-2.535c0-1.197,0.235-2.254,0.706-3.17
		c0.471-0.915,1.137-1.684,1.999-2.307c0.861-0.621,1.897-1.091,3.108-1.408c1.211-0.317,2.57-0.476,4.078-0.476
		c1.373,0,2.657,0.105,3.855,0.317c1.197,0.211,2.456,0.517,3.774,0.915c-0.162,1.362-0.592,2.7-1.292,4.015
		c-0.404-0.141-0.814-0.281-1.231-0.422c-0.418-0.142-0.862-0.259-1.333-0.353c-0.471-0.094-1.003-0.17-1.595-0.229
		c-0.592-0.059-1.265-0.089-2.018-0.089c-0.458,0-0.922,0.035-1.393,0.106c-0.471,0.07-0.895,0.199-1.271,0.387
		c-0.377,0.188-0.687,0.464-0.929,0.828s-0.363,0.84-0.363,1.426c0,0.47,0.094,0.863,0.283,1.18
		c0.188,0.317,0.444,0.587,0.767,0.811c0.323,0.223,0.686,0.411,1.09,0.563s0.808,0.299,1.211,0.439l2.422,0.811
		c1.022,0.352,1.951,0.716,2.786,1.092c0.834,0.376,1.541,0.84,2.119,1.391c0.579,0.552,1.03,1.221,1.353,2.008
		c0.323,0.786,0.484,1.755,0.484,2.905c0,1.197-0.249,2.289-0.747,3.274c-0.499,0.986-1.218,1.832-2.16,2.536
		c-0.942,0.704-2.106,1.256-3.492,1.655c-1.387,0.398-2.981,0.599-4.784,0.599c-0.888,0-1.682-0.023-2.382-0.07
		c-0.7-0.048-1.366-0.124-1.998-0.229c-0.633-0.105-1.258-0.24-1.877-0.404s-1.265-0.364-1.938-0.6
		c0.081-0.681,0.228-1.391,0.444-2.13c0.215-0.74,0.471-1.484,0.767-2.236c1.13,0.399,2.193,0.698,3.189,0.897
		c0.995,0.2,2.059,0.3,3.189,0.3c1.696,0,3.028-0.275,3.997-0.827c0.969-0.552,1.454-1.392,1.454-2.519
		c0-0.563-0.115-1.032-0.343-1.408c-0.229-0.376-0.525-0.692-0.888-0.951c-0.363-0.258-0.774-0.476-1.231-0.651
		s-0.928-0.347-1.413-0.511L260.815,69.396z"/>
</g>
</svg>
