<?xml version="1.0" encoding="utf-8"?>
<!-- Generator: Adobe Illustrator 16.0.0, SVG Export Plug-In . SVG Version: 6.00 Build 0)  -->
<!DOCTYPE svg PUBLIC "-//W3C//DTD SVG 1.1//EN" "http://www.w3.org/Graphics/SVG/1.1/DTD/svg11.dtd">
<svg version="1.1" id="Layer_1" xmlns="http://www.w3.org/2000/svg" xmlns:xlink="http://www.w3.org/1999/xlink" x="0px" y="0px"
	 width="182.417px" height="103.878px" viewBox="0 0 182.417 103.878" enable-background="new 0 0 182.417 103.878"
	 xml:space="preserve">
<title>Group 2</title>
<desc>Created with Sketch.</desc>
<g>
	<g enable-background="new    ">
		<path fill="#1D3766" d="M23.924,9.207c1.73-0.21,3.439-0.315,5.122-0.315s3.414,0.105,5.192,0.315V47.01
			c-1.779,0.211-3.485,0.316-5.122,0.316c-1.731,0-3.462-0.104-5.192-0.316V9.207z"/>
		<path fill="#1D3766" d="M37.187,9.207c1.45-0.21,2.831-0.315,4.14-0.315c1.404,0,2.854,0.105,4.351,0.315l19.508,24.08V9.207
			c1.684-0.21,3.297-0.315,4.841-0.315c1.45,0,2.854,0.105,4.211,0.315V47.01c-1.497,0.211-2.854,0.316-4.069,0.316
			c-1.311,0-2.737-0.104-4.282-0.316L46.24,22.981V47.01c-1.499,0.211-3.019,0.316-4.563,0.316c-1.543,0-3.042-0.104-4.491-0.316
			V9.207z"/>
		<path fill="#1D3766" d="M77.397,9.207c1.965-0.175,4.023-0.324,6.176-0.446c2.152-0.123,4.538-0.184,7.16-0.184
			c8.842,0,15.564,1.647,20.174,4.942c4.608,3.295,6.913,8.238,6.913,14.827c0,6.625-2.34,11.497-7.017,14.617
			c-4.682,3.119-11.628,4.68-20.845,4.68c-2.386,0-4.584-0.063-6.595-0.184c-2.013-0.123-4-0.271-5.966-0.447L77.397,9.207
			L77.397,9.207z M87.712,40.91c0.423,0.036,0.959,0.07,1.614,0.105c0.656,0.035,1.451,0.052,2.388,0.052
			c2.151,0,4.151-0.184,6-0.552c1.848-0.367,3.45-1.043,4.808-2.024c1.354-0.98,2.431-2.294,3.228-3.943
			c0.795-1.647,1.193-3.767,1.193-6.362c0-2.523-0.398-4.627-1.193-6.309c-0.797-1.684-1.872-3.015-3.228-3.997
			c-1.357-0.98-2.913-1.674-4.667-2.077c-1.756-0.403-3.613-0.604-5.58-0.604c-0.656,0-1.416,0.009-2.28,0.026
			c-0.865,0.018-1.625,0.062-2.28,0.131V40.91H87.712z"/>
		<path fill="#1D3766" d="M119.434,9.207c1.729-0.21,3.437-0.315,5.123-0.315c1.683,0,3.414,0.105,5.191,0.315V47.01
			c-1.777,0.211-3.484,0.316-5.122,0.316c-1.731,0-3.463-0.104-5.192-0.316V9.207z"/>
	</g>
	<g enable-background="new    ">
		<path fill="#F68E20" d="M132.65,9.154c0.89-0.105,1.756-0.174,2.598-0.21c0.843-0.036,1.707-0.052,2.598-0.052
			c0.793,0,1.614,0.018,2.454,0.052c0.842,0.035,1.707,0.105,2.598,0.21v37.909c-0.891,0.105-1.755,0.174-2.598,0.21
			c-0.84,0.035-1.683,0.053-2.526,0.053c-0.841,0-1.684-0.018-2.525-0.053c-0.841-0.036-1.708-0.104-2.598-0.21V9.154z
			 M144.369,27.977l13.685-18.771c1.075-0.14,2.07-0.228,2.982-0.263c0.913-0.034,1.742-0.052,2.492-0.052
			c0.794,0,1.683,0.035,2.666,0.105c0.983,0.071,2.011,0.141,3.087,0.21l-13.822,18.245l15.018,19.559
			c-1.078,0.071-2.117,0.14-3.124,0.211c-1.006,0.068-1.906,0.104-2.702,0.104c-0.749,0-1.578-0.018-2.491-0.053
			c-0.913-0.036-1.929-0.123-3.052-0.263L144.369,27.977z"/>
	</g>
	<g enable-background="new    ">
		<path fill="#0A81C4" d="M24.529,51.887c2.129-0.23,4.181-0.346,6.152-0.346c2.077,0,4.127,0.115,6.152,0.346l13.183,23.725
			l13.583-23.725c1.65-0.23,3.489-0.346,5.513-0.346s3.968,0.115,5.835,0.346l2.716,41.404c-2.024,0.23-3.943,0.345-5.753,0.345
			c-1.813,0-3.597-0.114-5.353-0.345l-1.439-28.104L53.453,84.652c-0.747,0.079-1.517,0.145-2.317,0.201s-1.598,0.088-2.398,0.088
			c-0.692,0-1.385-0.021-2.077-0.058c-0.693-0.038-1.412-0.115-2.159-0.231L33.638,64.786l-1.119,28.505
			c-1.705,0.23-3.355,0.345-4.954,0.345c-1.705,0-3.463-0.114-5.275-0.345L24.529,51.887z"/>
		<path fill="#0A81C4" d="M93.323,51.887c1.118-0.114,2.184-0.202,3.195-0.26c1.01-0.058,2.13-0.087,3.357-0.087
			c1.063,0,2.102,0.029,3.116,0.087c1.01,0.058,2.13,0.144,3.355,0.26l17.979,41.404c-2.185,0.23-4.314,0.345-6.393,0.345
			c-2.025,0-3.996-0.114-5.912-0.345l-3.196-8.293H89.809l-3.276,8.293c-1.916,0.23-3.755,0.345-5.514,0.345
			c-1.972,0-3.915-0.114-5.832-0.345L93.323,51.887z M106.106,78.031l-6.632-17.394l-6.952,17.394H106.106z"/>
		<path fill="#0A81C4" d="M122.565,51.887c1.969-0.23,3.913-0.346,5.831-0.346c1.919,0,3.889,0.115,5.913,0.346v41.404
			c-2.024,0.23-3.968,0.345-5.832,0.345c-1.972,0-3.943-0.114-5.912-0.345V51.887z"/>
		<path fill="#0A81C4" d="M147.732,74.114c-1.812-0.499-3.434-1.045-4.871-1.642c-1.439-0.596-2.667-1.305-3.677-2.131
			c-1.012-0.825-1.798-1.814-2.357-2.967c-0.559-1.151-0.839-2.532-0.839-4.146c0-1.958,0.467-3.685,1.399-5.182
			s2.25-2.754,3.955-3.772c1.703-1.016,3.756-1.784,6.152-2.302s5.087-0.777,8.07-0.777c2.718,0,5.26,0.173,7.629,0.518
			c2.37,0.346,4.862,0.845,7.471,1.495c-0.318,2.228-1.172,4.415-2.558,6.565c-0.798-0.229-1.61-0.462-2.437-0.69
			c-0.827-0.229-1.705-0.423-2.638-0.575s-1.985-0.28-3.155-0.375c-1.173-0.097-2.504-0.146-3.996-0.146
			c-0.906,0-1.824,0.06-2.756,0.173c-0.934,0.116-1.772,0.328-2.517,0.634c-0.747,0.309-1.357,0.761-1.836,1.354
			c-0.481,0.596-0.72,1.373-0.72,2.33c0,0.771,0.186,1.411,0.56,1.93c0.372,0.519,0.878,0.961,1.517,1.325
			c0.64,0.365,1.359,0.671,2.159,0.919c0.798,0.253,1.597,0.49,2.396,0.719l4.795,1.325c2.024,0.577,3.862,1.173,5.512,1.785
			c1.651,0.615,3.048,1.373,4.194,2.275s2.039,1.997,2.677,3.281c0.64,1.286,0.958,2.871,0.958,4.753
			c0,1.956-0.492,3.742-1.477,5.354c-0.987,1.613-2.412,2.994-4.276,4.146c-1.864,1.152-4.168,2.056-6.911,2.709
			c-2.743,0.651-5.898,0.979-9.466,0.979c-1.759,0-3.331-0.04-4.715-0.116c-1.387-0.078-2.704-0.202-3.956-0.374
			c-1.253-0.173-2.49-0.392-3.714-0.661c-1.226-0.27-2.505-0.597-3.836-0.979c0.161-1.114,0.453-2.273,0.88-3.484
			c0.428-1.209,0.932-2.428,1.52-3.655c2.237,0.652,4.34,1.141,6.311,1.468c1.972,0.326,4.075,0.489,6.312,0.489
			c3.356,0,5.993-0.45,7.913-1.353c1.917-0.901,2.873-2.274,2.873-4.116c0-0.921-0.225-1.688-0.677-2.304
			c-0.453-0.613-1.038-1.132-1.757-1.554c-0.719-0.423-1.531-0.778-2.438-1.065c-0.906-0.288-1.837-0.566-2.796-0.835
			L147.732,74.114z"/>
	</g>
	<g enable-background="new    ">
		<path fill="#1D3766" d="M8.204,93.306c-0.019-0.185-0.037-0.404-0.054-0.657c-0.019-0.253-0.034-0.519-0.047-0.798
			c-0.014-0.278-0.026-0.556-0.034-0.834c-0.008-0.28-0.014-0.546-0.014-0.806c0-0.678,0.05-1.325,0.147-1.935
			c0.097-0.612,0.266-1.148,0.506-1.612c0.241-0.463,0.56-0.831,0.955-1.104c0.396-0.27,0.893-0.407,1.489-0.407
			c0.623,0,1.142,0.145,1.555,0.436c0.414,0.29,0.746,0.672,0.994,1.147c0.251,0.478,0.426,1.016,0.527,1.621
			c0.103,0.605,0.154,1.225,0.154,1.854c0,0.234-0.001,0.44-0.007,0.62c-0.004,0.181-0.015,0.375-0.034,0.585h3.473
			c0.027,0.297,0.039,0.609,0.039,0.944c0,0.148-0.001,0.306-0.005,0.474c-0.004,0.166-0.016,0.322-0.032,0.473L8.204,93.306
			L8.204,93.306z M13.158,91.416c0.018-0.196,0.031-0.371,0.039-0.518c0.009-0.147,0.013-0.365,0.013-0.65
			c0-0.383-0.029-0.762-0.087-1.138c-0.058-0.377-0.163-0.715-0.314-1.009c-0.151-0.297-0.358-0.534-0.62-0.715
			c-0.263-0.179-0.604-0.268-1.022-0.268c-0.364,0-0.673,0.077-0.921,0.23c-0.248,0.155-0.449,0.369-0.6,0.64
			c-0.151,0.271-0.259,0.601-0.321,0.981c-0.062,0.382-0.092,0.799-0.092,1.242c0,0.456,0.012,0.858,0.04,1.203H13.158z"/>
		<path fill="#1D3766" d="M8.204,84.153c-0.019-0.271-0.037-0.519-0.054-0.74c-0.019-0.221-0.034-0.442-0.047-0.658
			c-0.014-0.217-0.026-0.442-0.034-0.677c-0.008-0.234-0.014-0.493-0.014-0.776c0-0.632,0.044-1.255,0.133-1.872
			c0.09-0.618,0.246-1.168,0.468-1.648c0.221-0.482,0.523-0.874,0.901-1.177c0.379-0.303,0.856-0.455,1.435-0.455
			c0.347,0,0.664,0.081,0.949,0.243c0.286,0.159,0.538,0.364,0.761,0.609c0.223,0.248,0.416,0.528,0.58,0.844
			c0.166,0.314,0.301,0.621,0.407,0.918l0.08,0.221l4.047-3.872c0.027,0.332,0.039,0.711,0.039,1.129
			c0,0.332-0.012,0.666-0.039,1.001l-4.448,4.26h-0.052l-0.028-0.146c-0.062-0.332-0.147-0.686-0.254-1.056
			c-0.106-0.371-0.248-0.714-0.422-1.026c-0.173-0.317-0.382-0.578-0.627-0.788c-0.244-0.21-0.541-0.316-0.888-0.316
			c-0.641,0-1.117,0.261-1.43,0.787c-0.312,0.524-0.466,1.234-0.466,2.119c0,0.21,0.004,0.407,0.013,0.586
			c0.008,0.179,0.023,0.379,0.041,0.604h8.56c0.008,0.136,0.018,0.285,0.027,0.451c0.008,0.168,0.012,0.325,0.012,0.474
			c0,0.147-0.001,0.311-0.005,0.482c-0.004,0.173-0.016,0.332-0.032,0.481H8.204z"/>
		<path fill="#1D3766" d="M17.979,69.647c0,0.963-0.124,1.798-0.368,2.502c-0.244,0.705-0.586,1.288-1.029,1.752
			c-0.44,0.463-0.962,0.81-1.569,1.037s-1.269,0.343-1.99,0.343c-0.72,0-1.384-0.115-1.988-0.343
			c-0.605-0.228-1.128-0.574-1.568-1.037c-0.441-0.464-0.786-1.047-1.036-1.752c-0.25-0.704-0.375-1.537-0.375-2.502
			c0-0.964,0.124-1.798,0.375-2.502c0.25-0.703,0.595-1.287,1.036-1.751c0.44-0.465,0.963-0.807,1.568-1.026
			c0.604-0.225,1.268-0.335,1.988-0.335c0.721,0,1.383,0.11,1.99,0.335c0.606,0.22,1.129,0.562,1.569,1.026
			c0.441,0.464,0.783,1.048,1.029,1.751C17.857,67.85,17.979,68.684,17.979,69.647z M16.803,69.647c0-0.616-0.086-1.151-0.259-1.604
			c-0.172-0.45-0.426-0.824-0.755-1.119c-0.328-0.297-0.725-0.52-1.187-0.668c-0.462-0.146-0.989-0.223-1.577-0.223
			c-0.579,0-1.101,0.076-1.568,0.223c-0.467,0.148-0.863,0.371-1.187,0.668c-0.325,0.295-0.574,0.669-0.749,1.119
			c-0.172,0.452-0.26,0.987-0.26,1.604c0,0.618,0.088,1.152,0.26,1.603c0.174,0.452,0.422,0.824,0.749,1.121
			c0.325,0.296,0.72,0.521,1.187,0.667c0.468,0.147,0.99,0.223,1.568,0.223c0.588,0,1.114-0.075,1.577-0.223
			c0.462-0.146,0.859-0.371,1.187-0.667c0.33-0.297,0.583-0.668,0.755-1.121C16.717,70.8,16.803,70.267,16.803,69.647z"/>
		<path fill="#1D3766" d="M12.85,54.938c-0.018-0.146-0.03-0.303-0.039-0.464c-0.008-0.159-0.012-0.319-0.012-0.482
			c0-0.159,0.004-0.321,0.012-0.48c0.009-0.161,0.021-0.31,0.039-0.444h4.688c0.08,0.259,0.148,0.545,0.206,0.852
			c0.058,0.308,0.103,0.629,0.135,0.963c0.029,0.335,0.055,0.665,0.073,1.001c0.018,0.332,0.028,0.648,0.028,0.944
			c0,0.99-0.112,1.879-0.334,2.668c-0.223,0.793-0.546,1.46-0.968,2.001c-0.422,0.546-0.936,0.96-1.543,1.252
			c-0.604,0.289-1.291,0.434-2.057,0.434c-0.765,0-1.457-0.148-2.076-0.443c-0.618-0.297-1.146-0.719-1.582-1.27
			c-0.437-0.55-0.773-1.204-1.009-1.963c-0.236-0.761-0.353-1.603-0.353-2.53c0-0.704,0.034-1.315,0.1-1.834
			s0.159-0.987,0.274-1.408c0.204,0.025,0.394,0.078,0.566,0.156c0.172,0.081,0.36,0.178,0.554,0.287
			c-0.08,0.346-0.152,0.721-0.214,1.122c-0.062,0.4-0.093,0.905-0.093,1.511c0,0.654,0.085,1.25,0.253,1.787
			c0.169,0.539,0.416,0.995,0.742,1.371c0.327,0.377,0.726,0.671,1.202,0.881c0.476,0.212,1.022,0.315,1.635,0.315
			c0.632,0,1.179-0.107,1.637-0.325c0.458-0.214,0.84-0.521,1.149-0.917c0.306-0.394,0.534-0.86,0.681-1.396
			c0.146-0.538,0.22-1.133,0.22-1.79c0-0.394-0.015-0.74-0.045-1.038c-0.031-0.294-0.07-0.548-0.114-0.759H12.85z"/>
		<path fill="#1D3766" d="M8.204,51.362c-0.019-0.271-0.037-0.519-0.054-0.742c-0.019-0.223-0.034-0.44-0.047-0.657
			c-0.014-0.215-0.026-0.441-0.034-0.677c-0.008-0.235-0.014-0.493-0.014-0.777c0-0.63,0.044-1.254,0.133-1.872
			c0.09-0.617,0.246-1.166,0.468-1.648c0.221-0.482,0.523-0.874,0.901-1.177c0.379-0.302,0.856-0.454,1.435-0.454
			c0.347,0,0.664,0.08,0.949,0.24c0.286,0.161,0.538,0.365,0.761,0.611c0.223,0.248,0.416,0.527,0.58,0.843
			c0.166,0.314,0.301,0.62,0.407,0.917l0.08,0.223l4.047-3.873c0.027,0.333,0.039,0.71,0.039,1.131c0,0.333-0.012,0.666-0.039,1
			l-4.448,4.261h-0.052l-0.028-0.147c-0.062-0.334-0.147-0.687-0.254-1.057c-0.106-0.37-0.248-0.713-0.422-1.027
			c-0.173-0.314-0.382-0.577-0.627-0.787c-0.244-0.21-0.541-0.314-0.888-0.314c-0.641,0-1.117,0.262-1.43,0.787
			c-0.312,0.524-0.466,1.231-0.466,2.121c0,0.21,0.004,0.404,0.013,0.584c0.008,0.18,0.023,0.38,0.041,0.603h8.56
			c0.008,0.137,0.018,0.287,0.027,0.454c0.008,0.167,0.012,0.324,0.012,0.472s-0.001,0.31-0.005,0.482s-0.016,0.333-0.032,0.482
			H8.204z"/>
		<path fill="#1D3766" d="M15.602,35.151v5.059l2.217,0.907c0.018,0.16,0.03,0.322,0.039,0.482c0.01,0.161,0.015,0.322,0.015,0.481
			c0,0.173-0.004,0.343-0.015,0.51c-0.008,0.167-0.021,0.317-0.039,0.455L8.218,38.71c-0.017-0.163-0.032-0.336-0.04-0.521
			c-0.008-0.186-0.014-0.377-0.014-0.575c0-0.173,0.004-0.352,0.014-0.538c0.008-0.185,0.023-0.364,0.04-0.537l9.601-4.317
			c0.018,0.147,0.03,0.314,0.039,0.5c0.011,0.185,0.015,0.365,0.015,0.538c0,0.16-0.004,0.323-0.015,0.49
			c-0.008,0.167-0.021,0.324-0.039,0.472L15.602,35.151z M14.413,39.709v-4.058L9.511,37.69L14.413,39.709z"/>
		<path fill="#1D3766" d="M8.218,31.279c-0.017-0.148-0.032-0.318-0.04-0.51c-0.008-0.192-0.014-0.375-0.014-0.547
			c0-0.173,0.004-0.362,0.014-0.565c0.008-0.205,0.023-0.375,0.04-0.509l6.008-3.446l-6.008-3.465
			c-0.017-0.123-0.032-0.277-0.04-0.463c-0.008-0.185-0.014-0.364-0.014-0.537c0-0.161,0.004-0.34,0.014-0.538
			c0.009-0.197,0.023-0.365,0.04-0.5l9.601-0.63c0.018,0.148,0.03,0.299,0.039,0.455c0.011,0.154,0.015,0.312,0.015,0.472
			c0,0.162-0.004,0.317-0.015,0.472c-0.009,0.155-0.021,0.3-0.039,0.435l-7.465,0.426l5.475,3.261c0.027,0.247,0.04,0.5,0.04,0.759
			c0,0.235-0.013,0.47-0.04,0.704l-5.516,3.149l7.505,0.427c0.018,0.137,0.029,0.277,0.039,0.427
			c0.011,0.149,0.015,0.29,0.015,0.426c0,0.16-0.004,0.315-0.015,0.462c-0.01,0.148-0.021,0.291-0.039,0.427L8.218,31.279z"/>
		<path fill="#1D3766" d="M15.602,11.344v5.059l2.217,0.907c0.018,0.16,0.03,0.321,0.039,0.482c0.01,0.162,0.015,0.322,0.015,0.482
			c0,0.172-0.004,0.342-0.015,0.509c-0.008,0.167-0.021,0.318-0.039,0.455l-9.601-4.334c-0.017-0.161-0.032-0.333-0.04-0.518
			c-0.008-0.186-0.014-0.377-0.014-0.574c0-0.173,0.004-0.353,0.014-0.538c0.008-0.186,0.023-0.365,0.04-0.538l9.601-4.317
			c0.018,0.147,0.03,0.315,0.039,0.5c0.011,0.185,0.015,0.364,0.015,0.537c0,0.161-0.004,0.323-0.015,0.49
			c-0.008,0.167-0.021,0.324-0.039,0.473L15.602,11.344z M14.413,15.901v-4.058l-4.902,2.039L14.413,15.901z"/>
	</g>
</g>
</svg>
