<?xml version="1.0" encoding="utf-8"?>
<!-- Generator: Adobe Illustrator 16.0.0, SVG Export Plug-In . SVG Version: 6.00 Build 0)  -->
<!DOCTYPE svg PUBLIC "-//W3C//DTD SVG 1.1//EN" "http://www.w3.org/Graphics/SVG/1.1/DTD/svg11.dtd">
<svg version="1.1" id="Layer_1" xmlns="http://www.w3.org/2000/svg" xmlns:xlink="http://www.w3.org/1999/xlink" x="0px" y="0px"
	 width="316.832px" height="102.404px" viewBox="0 0 316.832 102.404" enable-background="new 0 0 316.832 102.404"
	 xml:space="preserve">
<g enable-background="new    ">
	<path fill="#1D3766" d="M143.886,24.384h11.547c0.113,0.566,0.17,1.142,0.17,1.727c0,0.623-0.057,1.217-0.17,1.783h-7.415v4.415
		h5.887c0.113,0.604,0.17,1.188,0.17,1.755c0,0.604-0.057,1.198-0.17,1.783h-5.887v5.377h7.613c0.113,0.566,0.17,1.143,0.17,1.727
		c0,0.623-0.057,1.217-0.17,1.783h-11.746V24.384z"/>
	<path fill="#1D3766" d="M160.698,37.177l-2.802-7.076c0.623-0.112,1.311-0.169,2.066-0.169c0.717,0,1.443,0.057,2.179,0.169
		l2.235,7.161l-2.914,7.472c-0.68,0.113-1.35,0.17-2.01,0.17c-0.661,0-1.359-0.057-2.095-0.17L160.698,37.177z M164.576,37.261
		l2.264-7.161c0.697-0.112,1.424-0.169,2.18-0.169c0.697,0,1.387,0.057,2.066,0.169l-2.831,7.076l3.368,7.557
		c-0.736,0.113-1.434,0.17-2.094,0.17c-0.661,0-1.331-0.057-2.01-0.17L164.576,37.261z"/>
	<path fill="#1D3766" d="M174.82,33.158h-1.896c-0.057-0.245-0.099-0.505-0.128-0.778c-0.027-0.273-0.042-0.533-0.042-0.778
		c0-0.51,0.057-1.01,0.17-1.501h5.83v14.633c-0.679,0.113-1.34,0.17-1.981,0.17c-0.622,0-1.273-0.057-1.953-0.17V33.158z
		 M174.226,27.638c-0.113-0.642-0.17-1.273-0.17-1.896c0-0.604,0.057-1.235,0.17-1.896c0.32-0.057,0.665-0.1,1.033-0.128
		c0.367-0.028,0.703-0.042,1.005-0.042c0.32,0,0.669,0.014,1.047,0.042s0.726,0.071,1.048,0.128c0.057,0.32,0.094,0.637,0.113,0.947
		c0.018,0.312,0.027,0.628,0.027,0.948c0,0.303-0.01,0.613-0.027,0.935c-0.02,0.32-0.057,0.642-0.113,0.962
		c-0.322,0.057-0.666,0.095-1.033,0.113c-0.368,0.019-0.713,0.028-1.033,0.028c-0.303,0-0.643-0.01-1.02-0.028
		S174.547,27.695,174.226,27.638z"/>
	<path fill="#1D3766" d="M190.925,42.3c1.717,0.038,2.981,0.42,3.792,1.146c0.812,0.727,1.217,1.76,1.217,3.1
		c0,0.792-0.207,1.514-0.622,2.165s-0.981,1.203-1.698,1.655c-0.717,0.453-1.566,0.802-2.547,1.048
		c-0.981,0.245-2.038,0.367-3.17,0.367c-1.133,0-2.095-0.089-2.887-0.269c-0.793-0.18-1.439-0.43-1.939-0.75
		c-0.5-0.321-0.858-0.717-1.075-1.188s-0.325-0.99-0.325-1.557c0-0.85,0.203-1.548,0.608-2.095s0.948-1.028,1.628-1.443
		c-0.435-0.264-0.779-0.589-1.033-0.977c-0.255-0.386-0.383-0.882-0.383-1.485c0-0.717,0.151-1.302,0.453-1.755
		s0.745-0.887,1.33-1.302c-0.66-0.472-1.17-1.048-1.528-1.727c-0.358-0.68-0.538-1.434-0.538-2.265c0-0.735,0.143-1.419,0.426-2.052
		c0.282-0.632,0.693-1.179,1.23-1.642c0.537-0.462,1.193-0.825,1.967-1.09c0.773-0.264,1.642-0.396,2.604-0.396
		c0.943,0,1.813,0.146,2.604,0.438c0.792,0.293,1.452,0.665,1.981,1.118c0.357-0.472,0.801-0.825,1.33-1.062
		c0.527-0.235,1.245-0.354,2.15-0.354c0.038,0.245,0.07,0.485,0.1,0.722c0.027,0.235,0.042,0.485,0.042,0.75
		c0,0.302-0.01,0.604-0.028,0.905c-0.02,0.302-0.057,0.613-0.113,0.934h-2.292c0.094,0.189,0.179,0.416,0.255,0.68
		c0.074,0.265,0.113,0.613,0.113,1.047c0,0.736-0.138,1.42-0.41,2.052c-0.274,0.633-0.676,1.175-1.203,1.628
		c-0.529,0.453-1.175,0.812-1.939,1.075c-0.764,0.265-1.627,0.396-2.59,0.396c-0.811,0-1.537-0.085-2.179-0.255
		c-0.321,0.208-0.519,0.43-0.595,0.665c-0.075,0.236-0.113,0.458-0.113,0.665c0,0.303,0.1,0.548,0.297,0.736
		c0.199,0.188,0.6,0.293,1.203,0.312L190.925,42.3z M187.302,45.243c-0.415-0.02-0.759,0.028-1.032,0.142
		c-0.274,0.113-0.491,0.259-0.651,0.438c-0.161,0.179-0.274,0.377-0.34,0.594c-0.066,0.217-0.099,0.43-0.099,0.637
		c0,0.718,0.269,1.203,0.807,1.458c0.537,0.255,1.26,0.382,2.164,0.382c1.189,0,2.146-0.188,2.873-0.565
		c0.727-0.378,1.09-0.888,1.09-1.528c0-0.189-0.023-0.368-0.07-0.538c-0.048-0.17-0.137-0.325-0.27-0.467
		c-0.132-0.142-0.316-0.26-0.552-0.354c-0.235-0.095-0.552-0.142-0.948-0.142L187.302,45.243z M188.463,37.516
		c0.792,0,1.362-0.227,1.712-0.68c0.349-0.453,0.523-1.075,0.523-1.868c0-0.792-0.175-1.419-0.523-1.882
		c-0.35-0.462-0.92-0.693-1.712-0.693c-0.813,0-1.396,0.231-1.756,0.693c-0.357,0.463-0.537,1.09-0.537,1.882
		c0,0.793,0.18,1.415,0.537,1.868C187.066,37.29,187.65,37.516,188.463,37.516z"/>
	<path fill="#1D3766" d="M201.651,38.648c0.075,1.132,0.472,1.953,1.188,2.462c0.717,0.51,1.66,0.765,2.83,0.765
		c0.642,0,1.297-0.062,1.968-0.185c0.669-0.122,1.306-0.297,1.91-0.523c0.208,0.378,0.387,0.831,0.538,1.358
		c0.15,0.529,0.235,1.095,0.254,1.698c-1.471,0.566-3.132,0.85-4.98,0.85c-1.359,0-2.523-0.189-3.496-0.566
		c-0.972-0.377-1.764-0.9-2.377-1.57s-1.066-1.467-1.358-2.392c-0.293-0.925-0.438-1.935-0.438-3.028
		c0-1.076,0.15-2.085,0.453-3.028c0.301-0.943,0.75-1.765,1.344-2.463c0.594-0.697,1.33-1.249,2.207-1.655
		c0.878-0.405,1.901-0.608,3.071-0.608c1.019,0,1.925,0.18,2.718,0.537c0.792,0.359,1.467,0.85,2.023,1.472
		c0.556,0.623,0.977,1.364,1.259,2.222c0.283,0.859,0.425,1.779,0.425,2.76c0,0.358-0.014,0.713-0.043,1.062
		c-0.027,0.35-0.061,0.628-0.099,0.835H201.651z M207.396,35.846c-0.037-0.906-0.287-1.637-0.75-2.193s-1.108-0.835-1.938-0.835
		c-0.943,0-1.66,0.265-2.151,0.792c-0.49,0.528-0.783,1.273-0.877,2.236H207.396z"/>
	<path fill="#1D3766" d="M220.5,30.073c0.264-0.057,0.523-0.095,0.779-0.113c0.254-0.019,0.541-0.028,0.862-0.028
		c0.528,0,1.065,0.057,1.613,0.169c0.057,0.095,0.108,0.231,0.155,0.411s0.095,0.372,0.143,0.58c0.047,0.208,0.084,0.41,0.113,0.608
		c0.027,0.198,0.051,0.363,0.07,0.495c0.17-0.302,0.377-0.599,0.623-0.892c0.244-0.292,0.541-0.552,0.891-0.778
		s0.74-0.41,1.175-0.552s0.915-0.212,1.443-0.212c0.812,0,1.571,0.151,2.278,0.452c0.707,0.303,1.326,0.76,1.854,1.373
		c0.528,0.613,0.939,1.383,1.231,2.307c0.292,0.925,0.438,2.02,0.438,3.283c0,1.227-0.18,2.325-0.537,3.297
		c-0.359,0.973-0.877,1.798-1.557,2.477c-0.68,0.68-1.51,1.203-2.49,1.571c-0.982,0.367-2.096,0.552-3.34,0.552
		c-0.321,0-0.637-0.015-0.949-0.043c-0.311-0.028-0.57-0.062-0.777-0.099v6.51c-0.359,0.057-0.703,0.094-1.033,0.113
		c-0.33,0.019-0.656,0.028-0.977,0.028c-0.321,0-0.646-0.01-0.977-0.028c-0.33-0.02-0.675-0.057-1.033-0.113V30.073z M224.519,41.62
		c0.51,0.151,1.094,0.227,1.754,0.227c1.17,0,2.066-0.377,2.689-1.132s0.934-1.896,0.934-3.425c0-0.585-0.047-1.127-0.141-1.628
		c-0.096-0.499-0.256-0.929-0.482-1.287s-0.514-0.642-0.863-0.85c-0.349-0.207-0.777-0.312-1.287-0.312
		c-0.472,0-0.873,0.09-1.203,0.27s-0.6,0.425-0.807,0.735c-0.207,0.312-0.358,0.675-0.453,1.09c-0.094,0.415-0.141,0.859-0.141,1.33
		V41.62z"/>
	<path fill="#1D3766" d="M243.51,45.073c-1.188,0-2.222-0.194-3.1-0.58c-0.877-0.387-1.604-0.925-2.179-1.613
		s-1.009-1.495-1.302-2.42s-0.439-1.925-0.439-3c0-1.076,0.146-2.085,0.439-3.028s0.727-1.76,1.302-2.448s1.302-1.231,2.179-1.628
		c0.878-0.396,1.911-0.594,3.1-0.594c1.189,0,2.227,0.198,3.113,0.594c0.887,0.396,1.623,0.939,2.208,1.628s1.019,1.505,1.302,2.448
		s0.424,1.952,0.424,3.028c0,1.075-0.141,2.075-0.424,3s-0.717,1.731-1.302,2.42s-1.321,1.227-2.208,1.613
		C245.736,44.879,244.699,45.073,243.51,45.073z M243.51,42.016c1.057,0,1.816-0.392,2.278-1.175s0.694-1.91,0.694-3.382
		s-0.232-2.6-0.694-3.383c-0.462-0.782-1.222-1.174-2.278-1.174c-1.037,0-1.787,0.392-2.25,1.174
		c-0.463,0.783-0.693,1.911-0.693,3.383s0.23,2.599,0.693,3.382S242.472,42.016,243.51,42.016z"/>
	<path fill="#1D3766" d="M253.472,30.1c0.679-0.112,1.348-0.169,2.009-0.169c0.66,0,1.33,0.057,2.01,0.169v7.755
		c0,0.774,0.062,1.411,0.184,1.911s0.312,0.896,0.566,1.188c0.255,0.293,0.57,0.5,0.948,0.623c0.377,0.122,0.82,0.184,1.33,0.184
		c0.697,0,1.283-0.066,1.754-0.198V30.1c0.68-0.112,1.34-0.169,1.982-0.169c0.66,0,1.33,0.057,2.009,0.169v14.066
		c-0.604,0.208-1.401,0.411-2.392,0.608c-0.99,0.198-2.023,0.298-3.1,0.298c-0.961,0-1.887-0.076-2.773-0.227
		s-1.665-0.472-2.334-0.962c-0.67-0.491-1.203-1.208-1.6-2.151s-0.594-2.198-0.594-3.765V30.1z"/>
	<path fill="#1D3766" d="M279.736,41.28c0.227,0.378,0.414,0.816,0.566,1.316c0.15,0.5,0.227,1.09,0.227,1.769
		c-0.756,0.303-1.463,0.495-2.123,0.58c-0.661,0.085-1.35,0.128-2.066,0.128c-1.227,0-2.293-0.194-3.198-0.58
		c-0.905-0.387-1.655-0.92-2.25-1.6c-0.595-0.679-1.042-1.485-1.345-2.42c-0.302-0.934-0.453-1.947-0.453-3.042
		c0-1.076,0.146-2.075,0.439-3s0.736-1.736,1.33-2.435c0.594-0.697,1.335-1.245,2.222-1.642c0.887-0.396,1.915-0.594,3.085-0.594
		c0.415,0,0.797,0.01,1.146,0.028c0.349,0.019,0.684,0.057,1.005,0.113c0.32,0.057,0.642,0.132,0.962,0.226
		c0.32,0.095,0.68,0.218,1.076,0.368c0,0.435-0.057,0.92-0.17,1.458c-0.113,0.537-0.293,1.052-0.538,1.542
		c-0.565-0.188-1.062-0.315-1.485-0.382c-0.426-0.065-0.911-0.099-1.458-0.099c-1.171,0-2.052,0.382-2.646,1.146
		c-0.595,0.765-0.892,1.854-0.892,3.27c0,1.528,0.32,2.642,0.963,3.34c0.641,0.698,1.509,1.047,2.604,1.047
		c0.283,0,0.542-0.005,0.778-0.015c0.235-0.009,0.467-0.032,0.693-0.07c0.226-0.038,0.457-0.095,0.693-0.17
		C279.136,41.488,279.415,41.393,279.736,41.28z"/>
	<path fill="#1D3766" d="M289.133,45.073c-1.189,0-2.223-0.194-3.1-0.58c-0.877-0.387-1.604-0.925-2.18-1.613
		c-0.575-0.688-1.009-1.495-1.301-2.42c-0.293-0.925-0.439-1.925-0.439-3c0-1.076,0.146-2.085,0.439-3.028
		c0.292-0.943,0.726-1.76,1.301-2.448c0.576-0.688,1.303-1.231,2.18-1.628c0.877-0.396,1.91-0.594,3.1-0.594
		c1.188,0,2.227,0.198,3.113,0.594c0.887,0.396,1.622,0.939,2.207,1.628s1.02,1.505,1.303,2.448
		c0.282,0.943,0.424,1.952,0.424,3.028c0,1.075-0.142,2.075-0.424,3c-0.283,0.925-0.718,1.731-1.303,2.42s-1.32,1.227-2.207,1.613
		C291.359,44.879,290.321,45.073,289.133,45.073z M289.133,42.016c1.057,0,1.815-0.392,2.277-1.175
		c0.463-0.783,0.694-1.91,0.694-3.382s-0.231-2.6-0.694-3.383c-0.462-0.782-1.221-1.174-2.277-1.174
		c-1.038,0-1.788,0.392-2.25,1.174c-0.463,0.783-0.693,1.911-0.693,3.383s0.23,2.599,0.693,3.382
		C287.344,41.625,288.094,42.016,289.133,42.016z"/>
</g>
<g enable-background="new    ">
	<path fill="#1D3766" d="M146.165,51.044c0.34-0.057,0.674-0.094,1.005-0.113c0.33-0.019,0.655-0.027,0.976-0.027
		s0.651,0.009,0.991,0.027c0.34,0.02,0.679,0.057,1.019,0.113v20.208c-0.887,0.265-1.788,0.468-2.703,0.608
		c-0.915,0.142-2.023,0.213-3.325,0.213c-1,0-1.958-0.138-2.873-0.41c-0.915-0.273-1.722-0.708-2.419-1.303
		c-0.699-0.594-1.25-1.362-1.656-2.307c-0.406-0.943-0.609-2.094-0.609-3.452c0-1.076,0.174-2.09,0.524-3.043
		c0.349-0.952,0.849-1.778,1.5-2.477c0.651-0.697,1.438-1.25,2.363-1.655c0.924-0.405,1.953-0.608,3.085-0.608
		c0.339,0,0.693,0.014,1.061,0.042c0.368,0.028,0.722,0.09,1.062,0.185V51.044z M146.165,60.13c-0.377-0.095-0.684-0.156-0.92-0.185
		s-0.533-0.042-0.892-0.042c-0.623,0-1.165,0.127-1.627,0.382c-0.463,0.255-0.845,0.595-1.146,1.019
		c-0.302,0.425-0.523,0.925-0.665,1.5c-0.142,0.576-0.212,1.175-0.212,1.798c0,0.773,0.094,1.429,0.283,1.967
		c0.188,0.537,0.448,0.967,0.778,1.288c0.33,0.32,0.722,0.552,1.174,0.693c0.453,0.141,0.943,0.212,1.472,0.212
		c0.321,0,0.613-0.015,0.877-0.043s0.557-0.089,0.877-0.184V60.13z"/>
	<path fill="#1D3766" d="M160.23,72.073c-1.188,0-2.221-0.194-3.099-0.58c-0.877-0.387-1.604-0.925-2.179-1.613
		s-1.009-1.495-1.302-2.42c-0.293-0.925-0.439-1.925-0.439-3c0-1.076,0.146-2.085,0.439-3.028c0.292-0.943,0.726-1.76,1.302-2.448
		s1.302-1.231,2.179-1.628c0.877-0.396,1.911-0.594,3.099-0.594c1.189,0,2.227,0.198,3.113,0.594
		c0.887,0.396,1.623,0.939,2.209,1.628c0.584,0.688,1.018,1.505,1.301,2.448s0.425,1.952,0.425,3.028c0,1.075-0.142,2.075-0.425,3
		s-0.717,1.731-1.301,2.42c-0.586,0.688-1.322,1.227-2.209,1.613C162.457,71.879,161.42,72.073,160.23,72.073z M160.23,69.016
		c1.057,0,1.816-0.392,2.279-1.175c0.462-0.783,0.693-1.91,0.693-3.382s-0.231-2.6-0.693-3.383
		c-0.463-0.782-1.223-1.174-2.279-1.174c-1.037,0-1.787,0.392-2.25,1.174c-0.462,0.783-0.693,1.911-0.693,3.383
		s0.231,2.599,0.693,3.382S159.193,69.016,160.23,69.016z"/>
	<path fill="#1D3766" d="M179.504,65.365c-1.057-0.302-1.882-0.75-2.477-1.345c-0.594-0.594-0.891-1.485-0.891-2.674
		c0-1.434,0.514-2.557,1.542-3.368s2.429-1.217,4.203-1.217c0.735,0,1.462,0.066,2.179,0.198s1.443,0.33,2.18,0.594
		c-0.038,0.491-0.133,1.001-0.283,1.528c-0.15,0.528-0.33,0.991-0.537,1.387c-0.453-0.188-0.953-0.354-1.5-0.495
		c-0.548-0.142-1.123-0.212-1.727-0.212c-0.643,0-1.143,0.099-1.5,0.297c-0.359,0.198-0.538,0.515-0.538,0.948
		c0,0.415,0.128,0.707,0.382,0.877c0.255,0.17,0.618,0.331,1.09,0.481l1.613,0.481c0.527,0.151,1.005,0.335,1.43,0.552
		c0.424,0.217,0.787,0.486,1.09,0.807c0.301,0.321,0.537,0.717,0.707,1.188s0.254,1.047,0.254,1.727c0,0.698-0.146,1.35-0.438,1.953
		c-0.293,0.604-0.718,1.127-1.273,1.57c-0.558,0.443-1.232,0.793-2.024,1.048c-0.792,0.254-1.688,0.382-2.688,0.382
		c-0.453,0-0.868-0.015-1.246-0.043c-0.377-0.028-0.74-0.075-1.089-0.142c-0.35-0.066-0.693-0.146-1.033-0.24
		c-0.339-0.094-0.708-0.217-1.104-0.368c0.038-0.509,0.127-1.023,0.269-1.542s0.326-1.023,0.552-1.515
		c0.623,0.246,1.212,0.43,1.769,0.552c0.557,0.123,1.137,0.185,1.741,0.185c0.265,0,0.552-0.023,0.863-0.071
		c0.312-0.047,0.599-0.132,0.863-0.254c0.264-0.123,0.485-0.283,0.665-0.481s0.269-0.457,0.269-0.778
		c0-0.453-0.137-0.778-0.41-0.977c-0.274-0.198-0.655-0.372-1.146-0.523L179.504,65.365z"/>
	<path fill="#1D3766" d="M192.89,65.648c0.076,1.132,0.473,1.953,1.189,2.462c0.717,0.51,1.66,0.765,2.83,0.765
		c0.641,0,1.297-0.062,1.967-0.185c0.67-0.122,1.307-0.297,1.91-0.523c0.208,0.378,0.387,0.831,0.538,1.358
		c0.151,0.529,0.235,1.095,0.255,1.698c-1.472,0.566-3.133,0.85-4.981,0.85c-1.358,0-2.523-0.189-3.495-0.566
		c-0.973-0.377-1.765-0.9-2.377-1.57c-0.613-0.67-1.066-1.467-1.359-2.392s-0.438-1.935-0.438-3.028
		c0-1.076,0.151-2.085,0.453-3.028s0.75-1.765,1.345-2.463c0.594-0.697,1.33-1.249,2.207-1.655c0.877-0.405,1.9-0.608,3.07-0.608
		c1.02,0,1.926,0.18,2.718,0.537c0.792,0.359,1.467,0.85,2.023,1.472c0.556,0.623,0.977,1.364,1.259,2.222
		c0.283,0.859,0.426,1.779,0.426,2.76c0,0.358-0.015,0.713-0.043,1.062c-0.028,0.35-0.062,0.628-0.1,0.835H192.89z M198.636,62.846
		c-0.038-0.906-0.288-1.637-0.75-2.193c-0.463-0.557-1.109-0.835-1.939-0.835c-0.943,0-1.66,0.265-2.15,0.792
		c-0.49,0.528-0.783,1.273-0.877,2.236H198.636z"/>
	<path fill="#1D3766" d="M205.344,57.1c0.68-0.112,1.35-0.169,2.01-0.169s1.33,0.057,2.01,0.169v7.755
		c0,0.774,0.061,1.411,0.184,1.911s0.312,0.896,0.566,1.188c0.254,0.293,0.57,0.5,0.947,0.623c0.378,0.122,0.821,0.184,1.331,0.184
		c0.698,0,1.282-0.066,1.755-0.198V57.1c0.679-0.112,1.34-0.169,1.98-0.169c0.66,0,1.33,0.057,2.01,0.169v14.066
		c-0.604,0.208-1.4,0.411-2.392,0.608c-0.99,0.198-2.023,0.298-3.099,0.298c-0.963,0-1.887-0.076-2.773-0.227
		c-0.888-0.15-1.666-0.472-2.336-0.962c-0.67-0.491-1.203-1.208-1.599-2.151s-0.595-2.198-0.595-3.765V57.1z"/>
	<path fill="#1D3766" d="M228.41,60.158h-1.84l-0.142-0.566l5.293-6.765h0.651V57.1h3.424c0.057,0.283,0.094,0.538,0.113,0.765
		c0.019,0.227,0.028,0.463,0.028,0.708c0,0.264-0.01,0.519-0.028,0.764c-0.02,0.245-0.057,0.52-0.113,0.821h-3.424v5.745
		c0,0.585,0.047,1.057,0.141,1.415c0.095,0.358,0.23,0.642,0.41,0.849c0.18,0.208,0.401,0.35,0.666,0.425
		c0.264,0.075,0.574,0.113,0.934,0.113c0.283,0,0.561-0.023,0.835-0.07c0.273-0.047,0.514-0.09,0.722-0.128
		c0.132,0.358,0.227,0.731,0.283,1.118s0.084,0.731,0.084,1.033c0,0.208-0.004,0.382-0.014,0.523s-0.023,0.278-0.042,0.41
		c-0.868,0.207-1.765,0.312-2.688,0.312c-1.718,0-3.029-0.4-3.935-1.203c-0.905-0.802-1.358-2.108-1.358-3.92V60.158z"/>
	<path fill="#1D3766" d="M242.051,65.648c0.076,1.132,0.473,1.953,1.189,2.462c0.717,0.51,1.66,0.765,2.83,0.765
		c0.641,0,1.297-0.062,1.967-0.185c0.67-0.122,1.307-0.297,1.91-0.523c0.208,0.378,0.387,0.831,0.538,1.358
		c0.151,0.529,0.235,1.095,0.255,1.698c-1.472,0.566-3.133,0.85-4.981,0.85c-1.358,0-2.523-0.189-3.495-0.566
		c-0.973-0.377-1.765-0.9-2.377-1.57c-0.613-0.67-1.066-1.467-1.359-2.392s-0.438-1.935-0.438-3.028
		c0-1.076,0.151-2.085,0.453-3.028s0.75-1.765,1.345-2.463c0.594-0.697,1.33-1.249,2.207-1.655c0.877-0.405,1.9-0.608,3.07-0.608
		c1.02,0,1.926,0.18,2.718,0.537c0.792,0.359,1.467,0.85,2.023,1.472c0.556,0.623,0.977,1.364,1.259,2.222
		c0.283,0.859,0.426,1.779,0.426,2.76c0,0.358-0.015,0.713-0.043,1.062c-0.028,0.35-0.062,0.628-0.1,0.835H242.051z M247.797,62.846
		c-0.038-0.906-0.288-1.637-0.75-2.193c-0.463-0.557-1.109-0.835-1.939-0.835c-0.943,0-1.66,0.265-2.15,0.792
		c-0.49,0.528-0.783,1.273-0.877,2.236H247.797z"/>
	<path fill="#1D3766" d="M254.759,57.1c0.265-0.056,0.528-0.099,0.792-0.127c0.265-0.028,0.557-0.042,0.878-0.042
		s0.604,0.014,0.849,0.042c0.246,0.028,0.5,0.071,0.765,0.127c0.057,0.095,0.108,0.231,0.155,0.411s0.09,0.367,0.128,0.565
		s0.071,0.393,0.099,0.58c0.029,0.189,0.053,0.35,0.071,0.481c0.15-0.283,0.349-0.565,0.595-0.849
		c0.244-0.283,0.537-0.538,0.877-0.765s0.722-0.41,1.146-0.552c0.424-0.142,0.9-0.212,1.429-0.212c2.282,0,3.745,0.868,4.388,2.604
		c0.377-0.698,0.91-1.307,1.599-1.825s1.562-0.778,2.618-0.778c1.66,0,2.881,0.457,3.664,1.372c0.783,0.916,1.176,2.345,1.176,4.288
		v9.312c-0.68,0.113-1.35,0.17-2.01,0.17c-0.661,0-1.33-0.057-2.01-0.17v-8.265c0-1.019-0.127-1.802-0.382-2.349
		s-0.769-0.821-1.542-0.821c-0.322,0-0.638,0.048-0.949,0.142c-0.311,0.095-0.594,0.27-0.849,0.523
		c-0.255,0.255-0.462,0.614-0.622,1.076c-0.161,0.462-0.241,1.062-0.241,1.797v7.896c-0.679,0.113-1.349,0.17-2.009,0.17
		c-0.661,0-1.331-0.057-2.01-0.17v-8.265c0-1.019-0.128-1.802-0.383-2.349c-0.254-0.547-0.769-0.821-1.542-0.821
		c-0.321,0-0.642,0.048-0.962,0.142c-0.321,0.095-0.609,0.279-0.863,0.552c-0.256,0.274-0.458,0.656-0.609,1.146
		c-0.15,0.491-0.227,1.132-0.227,1.925v7.67c-0.679,0.113-1.349,0.17-2.009,0.17c-0.661,0-1.33-0.057-2.01-0.17V57.1z"/>
	<path fill="#1D3766" d="M279.552,57.073c0.264-0.057,0.523-0.095,0.777-0.113c0.255-0.019,0.543-0.028,0.863-0.028
		c0.528,0,1.066,0.057,1.613,0.169c0.057,0.095,0.108,0.231,0.156,0.411c0.047,0.18,0.094,0.372,0.141,0.58s0.086,0.41,0.113,0.608
		c0.029,0.198,0.053,0.363,0.071,0.495c0.169-0.302,0.377-0.599,0.622-0.892c0.246-0.292,0.543-0.552,0.893-0.778
		c0.348-0.227,0.74-0.41,1.174-0.552s0.915-0.212,1.443-0.212c0.811,0,1.57,0.151,2.278,0.452c0.708,0.303,1.325,0.76,1.854,1.373
		c0.527,0.613,0.938,1.383,1.23,2.307c0.293,0.925,0.439,2.02,0.439,3.283c0,1.227-0.18,2.325-0.538,3.297
		c-0.358,0.973-0.878,1.798-1.557,2.477c-0.68,0.68-1.51,1.203-2.491,1.571c-0.98,0.367-2.094,0.552-3.34,0.552
		c-0.32,0-0.637-0.015-0.947-0.043c-0.312-0.028-0.571-0.062-0.779-0.099v6.51c-0.357,0.057-0.703,0.094-1.032,0.113
		c-0.331,0.019-0.655,0.028-0.977,0.028s-0.646-0.01-0.977-0.028c-0.33-0.02-0.675-0.057-1.032-0.113V57.073z M283.57,68.62
		c0.51,0.151,1.095,0.227,1.756,0.227c1.17,0,2.065-0.377,2.688-1.132c0.622-0.755,0.934-1.896,0.934-3.425
		c0-0.585-0.048-1.127-0.142-1.628c-0.094-0.499-0.254-0.929-0.48-1.287s-0.515-0.642-0.863-0.85
		c-0.35-0.207-0.779-0.312-1.288-0.312c-0.472,0-0.873,0.09-1.202,0.27c-0.331,0.18-0.6,0.425-0.807,0.735
		c-0.209,0.312-0.359,0.675-0.453,1.09c-0.096,0.415-0.143,0.859-0.143,1.33V68.62z"/>
	<path fill="#1D3766" d="M302.561,72.073c-1.188,0-2.222-0.194-3.099-0.58c-0.877-0.387-1.604-0.925-2.18-1.613
		s-1.01-1.495-1.302-2.42c-0.293-0.925-0.438-1.925-0.438-3c0-1.076,0.146-2.085,0.438-3.028c0.292-0.943,0.726-1.76,1.302-2.448
		s1.303-1.231,2.18-1.628c0.877-0.396,1.91-0.594,3.099-0.594s2.227,0.198,3.113,0.594c0.887,0.396,1.622,0.939,2.208,1.628
		c0.584,0.688,1.019,1.505,1.302,2.448c0.282,0.943,0.425,1.952,0.425,3.028c0,1.075-0.143,2.075-0.425,3
		c-0.283,0.925-0.718,1.731-1.302,2.42c-0.586,0.688-1.321,1.227-2.208,1.613C304.788,71.879,303.75,72.073,302.561,72.073z
		 M302.561,69.016c1.057,0,1.815-0.392,2.278-1.175s0.693-1.91,0.693-3.382s-0.23-2.6-0.693-3.383
		c-0.463-0.782-1.222-1.174-2.278-1.174c-1.038,0-1.788,0.392-2.25,1.174c-0.462,0.783-0.693,1.911-0.693,3.383
		s0.231,2.599,0.693,3.382S301.523,69.016,302.561,69.016z"/>
</g>
<g>
	<g>
		<g>
			<g>
				<path fill="#B0EEFF" d="M84.283,77.717c1.271-2.582,3.321-4.719,5.588-6.453c1.828-1.399,3.896-2.761,6.059-3.564
					c1.919-0.711,2.346,0.963,3.896,1.539c0.99,0.364,2.09-0.195,2.869-0.906c0.751-0.689,1.373-1.553,2.27-2.068
					c0.663-0.381,1.649-0.571,2.342-0.161c0.861,0.503,0.716,1.747,1.879,1.892c0.544,0.066,1.084-0.129,1.574-0.37
					c1.154-0.565,2.297-1.092,3.537-1.455c1.12-0.327,2.57-0.438,3.214,0.534c0.62,0.932,0.031,2.197-0.714,3.03
					c-1.797,2.008-4.454,3.09-7.123,3.446c-0.728,0.097-1.478,0.147-2.15,0.444c-0.672,0.295-1.266,0.905-1.294,1.64
					c-0.015,0.395,0.134,0.781,0.139,1.178c0.013,1.098-1.07,1.918-2.14,2.16c-2.755,0.631-4.547-1.788-7.139-2.158
					c-2.936-0.422-7.456,0.036-9.494,2.51"/>
			</g>
			
				<path opacity="0.5" fill="none" stroke="#FFFFFF" stroke-width="0.891" stroke-linecap="round" stroke-linejoin="round" stroke-miterlimit="10" enable-background="new    " d="
				M89.122,76.509c2.838-2.647,6.604-4.403,10.541-4.912c2.455-0.318,4.944-0.166,7.407-0.39c2.463-0.221,5.019-0.887,6.793-2.531"
				/>
		</g>
		<g>
			<path fill="#B0EEFF" d="M101.983,65.589c1.466-0.85,3.042-2.029,2.625-3.829c-0.135-0.59-0.57-1.125-0.497-1.729
				c0.05-0.396,0.313-0.725,0.506-1.076c0.458-0.833,0.521-1.87,0.168-2.753c-0.378-0.947-1.18-1.66-1.68-2.55
				c-0.41-0.727-0.608-1.569-0.57-2.403c-1.549,0.164-2.887,1.14-4.387,1.563c-1.146,0.322-2.371,0.317-3.504,0.691
				c-2.066,0.676-3.619,2.69-3.75,4.859c-0.995-0.079-2.015,0.369-2.628,1.158c-0.653,0.835-0.959,1.966-0.797,3.014
				c0.675,4.36,2.921,7.832,5.792,11.067c-0.624-0.705,1.293-2.891,1.665-3.319c1.612-1.849,3.825-2.918,5.939-4.076
				C101.205,66.017,101.591,65.815,101.983,65.589z"/>
			<g opacity="0.5">
				
					<path fill="none" stroke="#FFFFFF" stroke-width="0.891" stroke-linecap="round" stroke-linejoin="round" stroke-miterlimit="10" d="
					M93.612,67.741c-0.364-1.868,0.125-3.797,0.722-5.604c0.583-1.764,1.281-3.504,2.288-5.064c1.008-1.559,2.343-2.941,3.991-3.801
					"/>
				
					<path fill="none" stroke="#FFFFFF" stroke-width="0.891" stroke-linecap="round" stroke-linejoin="round" stroke-miterlimit="10" d="
					M94.108,55.034c-0.04,1.702,0.282,3.718,0.871,5.314"/>
				
					<path fill="none" stroke="#FFFFFF" stroke-width="0.891" stroke-linecap="round" stroke-linejoin="round" stroke-miterlimit="10" d="
					M95.238,59.719c1.809-1.411,4.696-2.43,6.99-2.507"/>
				
					<path fill="none" stroke="#FFFFFF" stroke-width="0.891" stroke-linecap="round" stroke-linejoin="round" stroke-miterlimit="10" d="
					M90.565,60.462c2.405,0.764,2.812,4.161,2.961,5.121"/>
				
					<path fill="none" stroke="#FFFFFF" stroke-width="0.891" stroke-linecap="round" stroke-linejoin="round" stroke-miterlimit="10" d="
					M93.96,63.361c1.654-1.433,4.5-2.963,6.426-2.661"/>
				
					<path fill="none" stroke="#FFFFFF" stroke-width="0.891" stroke-linecap="round" stroke-linejoin="round" stroke-miterlimit="10" d="
					M93.609,67.569c1.317-1.754,4.907-3.896,6.833-3.595"/>
				
					<path fill="none" stroke="#FFFFFF" stroke-width="0.891" stroke-linecap="round" stroke-linejoin="round" stroke-miterlimit="10" d="
					M97.955,53.803c-0.472,0.705-0.533,1.497-0.432,2.035"/>
				
					<path fill="none" stroke="#FFFFFF" stroke-width="0.891" stroke-linecap="round" stroke-linejoin="round" stroke-miterlimit="10" d="
					M97.985,55.309c0.778-0.492,1.861-0.686,3.056-0.502"/>
			</g>
		</g>
		<g>
			<g>
				<path fill="#B0EEFF" d="M60.213,80.861c-1.983-5.437-7.073-10.51-12.085-13.405c-1.222-0.707-3.005-1.24-3.566,0.445
					c-0.36,1.082-1.623,0.801-2.343,0.299c-0.894-0.622-1.417-1.627-2.176-2.386c-0.61-0.611-1.387-1.077-2.239-1.215
					c-0.853-0.138-1.781,0.084-2.405,0.68c-0.473,0.451-0.758,1.087-1.283,1.478c-0.881,0.658-2.16,0.414-3.097-0.161
					c-0.936-0.573-1.673-1.422-2.581-2.042c-0.908-0.617-2.13-0.984-3.095-0.46c-1.281,0.692-1.398,2.54-0.854,3.894
					c0.335,0.83,0.866,2.042,1.502,2.693c0.905,0.929,2.221,1.543,3.479,1.791c0.927,0.182,1.886,0.177,2.807,0.396
					c0.331,0.078,0.711,0.22,0.779,0.602c0.096,0.552-0.589,0.89-0.988,1.093c-0.692,0.35-1.375,1.106-1.053,1.81
					c0.202,0.439,0.72,0.639,1.197,0.72c1.437,0.243,2.862-0.171,4.224-0.589c0.829-0.257,1.556-0.775,2.406-0.997
					c0.441-0.114,1.574-0.165,1.451,0.585c-0.039,0.231-0.205,0.425-0.385,0.58c-0.18,0.153-0.381,0.284-0.532,0.467
					c-0.653,0.795-0.005,1.73,0.852,1.938c0.659,0.156,1.349-0.014,2.007-0.167c4.317-1.009,8.841-1.397,13.185-0.519
					c0.926,0.188,1.938,0.505,2.401,1.328"/>
			</g>
			
				<path opacity="0.5" fill="none" stroke="#FFFFFF" stroke-width="0.891" stroke-linecap="round" stroke-linejoin="round" stroke-miterlimit="10" enable-background="new    " d="
				M55.56,77.434c-3.176-2.937-7.381-4.878-11.773-5.426c-2.737-0.343-5.507-0.162-8.256-0.398
				c-2.747-0.237-5.598-0.967-7.582-2.788"/>
			<g>
				<path opacity="0.25" fill="#FCCCB1" enable-background="new    " d="M56.547,77.857c0,0-7.547-5.021-9.677-10.113
					c1.439,0.39,2.37,0.856,3.38,1.681c1.089,1.541,3.688,3.903,5.449,5.438C55.948,75.703,56.229,76.69,56.547,77.857z"/>
				<path fill="#B0EEFF" d="M56.262,76.134c-0.284-1.775-1.065-3.535-1.372-5.339c-0.491-2.89-0.568-5.793-0.035-8.663
					c0.456-2.451,1.213-5.011,0.384-7.486c-0.22-0.657-0.625-1.369-1.479-1.36c-0.342,0.002-0.667,0.145-0.911,0.365
					c-0.622,0.548-0.738,1.343-0.838,2.097l-0.337,2.53c-0.11,0.823-1.364,0.923-1.615,0.123c-0.001-0.009-0.003-0.015-0.007-0.021
					c-0.204-0.674-0.168-1.387-0.114-2.079c0.119-1.508,0.31-3.03,0.08-4.533c-0.28-1.82-1.277-3.664-3.223-4.35
					c-0.688-0.241-1.452-0.272-2.147-0.073c-1.947,0.554-2.341,2.393-1.951,3.928c0.276,1.083,0.884,2.063,1.443,3.051
					c1.362,2.405,0.626,4.695,0.968,7.386C45.831,67.413,51.412,72.926,56.262,76.134z"/>
				
					<path opacity="0.5" fill="none" stroke="#FFFFFF" stroke-width="0.891" stroke-linecap="round" stroke-linejoin="round" stroke-miterlimit="10" enable-background="new    " d="
					M45.602,50.648c4.079,4.935,2.605,16.583,9.71,22.87"/>
				
					<path opacity="0.5" fill="none" stroke="#FFFFFF" stroke-width="0.891" stroke-linecap="round" stroke-linejoin="round" stroke-miterlimit="10" enable-background="new    " d="
					M53.561,56.442c0.465,2.494-1.138,5.293-1.509,6.846c-0.373,1.552-0.569,4.194-0.169,5.753"/>
			</g>
		</g>
		<g>
			<path fill="#E9F9FF" d="M41.85,80.81c-0.178-0.996-2.96-7.213-6.184-5.55c-1.915,0.989-1.57,4.631,1.421,7.383
				c-0.587-0.567-1.265-1.216-2.066-1.37c-0.434-0.088-0.962,0.112-1.287,0.411c-0.29,0.265-0.373,0.687-0.388,1.08
				c-0.048,1.425,0.697,2.854,1.893,3.635c-0.662-0.372-1.234-0.835-1.989-0.897c-0.246-0.022-0.662,0.116-0.775,0.335
				c-0.124,0.239-0.114,1.132,1.341,1.796c-5.934-1.124-6.281,1.405-4.147,1.405c2.132,0,17.498,0,17.498,0"/>
		</g>
		<g>
			<path fill="#D7F6FF" d="M52.972,75.874c-0.281-1.596-3.221-11.632-8.382-8.969c-3.065,1.583-2.514,7.41,2.274,11.816
				c-0.939-0.908-2.024-1.94-3.308-2.194c-0.693-0.137-1.541,0.181-2.06,0.659c-0.461,0.425-0.597,1.1-0.619,1.727
				c-0.077,2.288,1.114,4.573,3.029,5.819c-1.06-0.594-1.978-1.332-3.186-1.436c-0.394-0.033-1.058,0.188-1.241,0.541
				c-0.197,0.379-0.183,1.806,2.148,2.87c-9.503-1.802-10.058,2.25-6.641,2.25c3.416,0,22.573,0,22.573,0"/>
		</g>
		<g>
			<path fill="#E9F9FF" d="M103.804,80.81c0.177-0.996,2.961-7.213,6.185-5.55c1.915,0.989,1.57,4.631-1.422,7.383
				c0.588-0.567,1.266-1.216,2.067-1.37c0.434-0.088,0.962,0.112,1.285,0.411c0.29,0.265,0.375,0.687,0.389,1.08
				c0.047,1.425-0.698,2.854-1.893,3.635c0.662-0.372,1.234-0.835,1.991-0.897c0.245-0.022,0.66,0.116,0.775,0.335
				c0.122,0.239,0.115,1.132-1.343,1.796c5.936-1.124,6.281,1.405,4.149,1.405s-17.5,0-17.5,0"/>
		</g>
		<g>
			<path fill="#D7F6FF" d="M92.682,75.874c0.283-1.596,3.222-11.632,8.383-8.969c3.065,1.583,2.513,7.41-2.274,11.816
				c0.939-0.908,2.024-1.94,3.308-2.194c0.693-0.137,1.54,0.181,2.06,0.659c0.462,0.425,0.598,1.1,0.618,1.727
				c0.079,2.288-1.112,4.573-3.028,5.819c1.058-0.594,1.976-1.332,3.184-1.436c0.393-0.033,1.059,0.188,1.241,0.541
				c0.197,0.379,0.184,1.806-2.147,2.87c9.501-1.802,10.055,2.25,6.641,2.25c-3.414,0-22.573,0-22.573,0"/>
		</g>
	</g>
	<g>
		<path opacity="0.2" fill="#389FE5" enable-background="new    " d="M75.658,55.321c-2.613-0.72-4.603-2.937-4.759-5.645
			c-0.004-0.13-0.012-0.258-0.012-0.392c0-0.034,0-0.075,0.006-0.115c-0.006-0.038-0.006-0.077-0.006-0.117
			c0-0.13,0.006-0.257,0.012-0.389c0.157-2.708,2.146-4.926,4.759-5.645c9.848-2.726,17.083-11.752,17.083-22.467
			c0-1.44-0.129-2.851-0.384-4.219c-0.042-0.235-0.086-0.465-0.138-0.694c-0.035-0.167-0.073-0.336-0.114-0.503
			c0-0.011-0.002-0.021-0.005-0.03c-0.021-0.087-0.042-0.173-0.067-0.262c-0.039-0.167-0.081-0.33-0.129-0.496
			c-0.069-0.25-0.141-0.499-0.218-0.749H90.89c0.025,0.081,0.054,0.161,0.074,0.242c0.006,0.015,0.011,0.027,0.016,0.041
			c0.045,0.142,0.086,0.282,0.126,0.423c0.028,0.094,0.055,0.183,0.075,0.276c0.042,0.148,0.08,0.292,0.118,0.438
			c0.024,0.095,0.048,0.187,0.066,0.276c0.039,0.151,0.07,0.298,0.103,0.447c0.011,0.051,0.023,0.102,0.033,0.152
			c0.002,0.02,0.008,0.04,0.012,0.061c0.036,0.171,0.069,0.342,0.099,0.513c0.247,1.327,0.372,2.698,0.372,4.082
			c0,10.106-6.797,19.043-16.524,21.735c-3.01,0.83-5.147,3.373-5.314,6.334c-0.01,0.145-0.014,0.289-0.014,0.433
			c0,0.04,0,0.079,0.002,0.118c-0.002,0.04-0.002,0.08-0.002,0.115c0,0.145,0.002,0.29,0.014,0.435
			c0.167,2.961,2.303,5.505,5.314,6.334c9.726,2.691,16.524,11.632,16.524,21.735c0,1.38-0.126,2.759-0.372,4.082
			c-0.339,1.893-0.928,3.732-1.75,5.479H49.008c-0.823-1.746-1.412-3.586-1.753-5.481c-0.247-1.32-0.37-2.699-0.37-4.079
			c0-10.104,6.797-19.044,16.523-21.735c3.01-0.829,5.145-3.374,5.315-6.334c0.008-0.144,0.012-0.29,0.012-0.435
			c0-0.034,0-0.075-0.004-0.115c0.004-0.038,0.004-0.078,0.004-0.118c0-0.143-0.004-0.287-0.012-0.433
			c-0.171-2.962-2.306-5.505-5.315-6.334c-9.727-2.691-16.523-11.629-16.523-21.735c0-1.382,0.123-2.754,0.37-4.082
			c0.042-0.236,0.088-0.471,0.141-0.708c0-0.006,0.002-0.011,0.002-0.02c0.053-0.229,0.102-0.456,0.16-0.683
			c0.002-0.012,0.006-0.024,0.008-0.04c0.045-0.173,0.088-0.35,0.141-0.522c0.003-0.014,0.01-0.025,0.012-0.041
			c0.016-0.068,0.035-0.136,0.057-0.201c0.033-0.127,0.073-0.25,0.111-0.373c0.002-0.015,0.009-0.027,0.015-0.041
			c0.022-0.082,0.049-0.161,0.075-0.243H47.18c-0.078,0.25-0.15,0.498-0.219,0.749c-0.047,0.166-0.09,0.328-0.128,0.496
			c-0.024,0.088-0.045,0.174-0.067,0.262c-0.003,0.01-0.007,0.021-0.007,0.03c-0.042,0.167-0.076,0.335-0.112,0.502
			c-0.051,0.229-0.097,0.459-0.14,0.694c-0.254,1.368-0.384,2.778-0.384,4.219c0,10.714,7.233,19.741,17.083,22.467
			c2.611,0.718,4.603,2.937,4.757,5.645c0.007,0.132,0.012,0.26,0.012,0.389c0,0.04,0,0.079-0.003,0.118
			c0.003,0.04,0.003,0.08,0.003,0.115c0,0.133-0.003,0.262-0.012,0.391c-0.154,2.708-2.146,4.925-4.757,5.645
			c-9.85,2.729-17.083,11.751-17.083,22.467c0,1.439,0.129,2.85,0.384,4.217c0.392,2.155,1.082,4.203,2.02,6.102h41.808
			c0.939-1.898,1.63-3.946,2.02-6.102c0.255-1.368,0.384-2.777,0.384-4.217C92.74,67.073,85.506,58.05,75.658,55.321z"/>
		<path fill="#FFFFFF" d="M91.982,77.788c0,1.381-0.127,2.759-0.372,4.082c-0.339,1.893-0.928,3.733-1.75,5.479H49.008
			c-0.823-1.746-1.412-3.587-1.753-5.481c-0.247-1.321-0.37-2.699-0.37-4.08c0-10.104,6.797-19.044,16.523-21.734
			c3.01-0.829,5.145-3.375,5.315-6.335c0.008-0.144,0.012-0.29,0.012-0.435c0-0.034,0-0.075-0.004-0.115
			c0.004-0.038,0.004-0.078,0.004-0.118c0-0.143-0.004-0.287-0.012-0.433c-0.171-2.962-2.306-5.505-5.315-6.334
			c-9.727-2.691-16.523-11.629-16.523-21.735c0-1.382,0.123-2.754,0.37-4.082c0.042-0.236,0.088-0.471,0.141-0.708
			c0-0.006,0.002-0.011,0.002-0.02c0.048-0.229,0.102-0.456,0.16-0.683c0.002-0.012,0.006-0.024,0.008-0.04
			c0.048-0.188,0.097-0.375,0.153-0.564c0.051-0.192,0.107-0.384,0.168-0.573c0.029-0.096,0.061-0.191,0.09-0.284h42.912
			c0.029,0.093,0.06,0.189,0.089,0.284c0.046,0.142,0.087,0.282,0.127,0.423c0.027,0.093,0.055,0.183,0.075,0.276
			c0.042,0.147,0.08,0.292,0.118,0.438c0.024,0.094,0.048,0.187,0.066,0.276c0.039,0.151,0.07,0.297,0.103,0.447
			c0.013,0.07,0.029,0.142,0.045,0.212c0.036,0.172,0.069,0.343,0.099,0.514c0.248,1.327,0.372,2.698,0.372,4.082
			c0,10.106-6.798,19.043-16.524,21.735c-3.01,0.83-5.147,3.373-5.315,6.334c-0.008,0.144-0.012,0.288-0.012,0.433
			c0,0.039,0,0.079,0.002,0.117c-0.002,0.04-0.002,0.08-0.002,0.115c0,0.144,0.002,0.29,0.012,0.435
			c0.168,2.961,2.305,5.506,5.315,6.334C85.184,58.745,91.982,67.685,91.982,77.788z"/>
		<path opacity="0.5" fill="#D7ECFA" enable-background="new    " d="M91.982,77.788c0,1.381-0.127,2.759-0.372,4.082
			c-0.339,1.893-0.928,3.733-1.75,5.479H49.008c-0.823-1.746-1.412-3.587-1.753-5.481c-0.247-1.321-0.37-2.699-0.37-4.08
			c0-10.104,6.797-19.044,16.523-21.734c3.01-0.829,5.145-3.375,5.315-6.335c0.008-0.144,0.012-0.29,0.012-0.435
			c0-0.034,0-0.075-0.004-0.115c0.004-0.038,0.004-0.078,0.004-0.118c0-0.143-0.004-0.287-0.012-0.433
			c-0.171-2.962-2.306-5.505-5.315-6.334c-9.727-2.691-16.523-11.629-16.523-21.735c0-1.382,0.123-2.754,0.37-4.082
			c0.042-0.236,0.088-0.471,0.141-0.708c0-0.006,0.002-0.011,0.002-0.02c0.048-0.229,0.102-0.456,0.16-0.683
			c0.002-0.012,0.006-0.024,0.008-0.04c0.048-0.188,0.097-0.375,0.153-0.564c0.051-0.192,0.107-0.384,0.168-0.573
			c0.029-0.096,0.061-0.191,0.09-0.284h42.912c0.029,0.093,0.06,0.189,0.089,0.284c0.046,0.142,0.087,0.282,0.127,0.423
			c0.027,0.093,0.055,0.183,0.075,0.276c0.042,0.147,0.08,0.292,0.118,0.438c0.024,0.094,0.048,0.187,0.066,0.276
			c0.039,0.151,0.07,0.297,0.103,0.447c0.013,0.07,0.029,0.142,0.045,0.212c0.036,0.172,0.069,0.343,0.099,0.514
			c0.248,1.327,0.372,2.698,0.372,4.082c0,10.106-6.798,19.043-16.524,21.735c-3.01,0.83-5.147,3.373-5.315,6.334
			c-0.008,0.144-0.012,0.288-0.012,0.433c0,0.039,0,0.079,0.002,0.117c-0.002,0.04-0.002,0.08-0.002,0.115
			c0,0.144,0.002,0.29,0.012,0.435c0.168,2.961,2.305,5.506,5.315,6.334C85.184,58.745,91.982,67.685,91.982,77.788z"/>
		<path fill="#FF9A30" d="M50.836,33.831c0,0,3.558,5.83,12.085,8.508c2.183,0.645,2.918,1.115,4.176,2.275
			c1.256,1.161,1.685,3.196,1.637,4.808c-0.017,1.25,0.699,19.509,0.699,21.784c0,2.146,0.277,0.556,0.216,0.093
			c0.22-12.921,0.484-22.428,0.484-22.428s0.772-4.06,1.968-4.622c1.197-0.562,5.532-2.574,7.309-3.073
			c1.776-0.494,6.066-4.407,6.066-4.407s5.45-7.772,5.782-8.766c0.331-0.996-2.464-1.09-2.464-1.09L50.836,33.831z"/>
		
			<ellipse transform="matrix(-0.155 -0.9879 0.9879 -0.155 52.1007 104.4676)" fill="#FDCF33" cx="70.728" cy="29.952" rx="4.324" ry="20.934"/>
		<g opacity="0.5">
			<g>
				<path fill="#FFFFFF" d="M63.299,39.423c-0.246,0-0.493-0.04-0.739-0.124c-1.631-0.56-3.141-1.273-4.489-2.119
					c-1.064-0.67-1.385-2.072-0.716-3.137c0.669-1.063,2.073-1.384,3.137-0.715c1.052,0.66,2.245,1.221,3.544,1.668
					c1.189,0.408,1.821,1.701,1.414,2.89C65.126,38.83,64.243,39.423,63.299,39.423z"/>
			</g>
			<g>
				<path fill="#FFFFFF" d="M54.404,32.714c-0.752,0-1.488-0.375-1.92-1.055c-3.967-6.233-2.947-13.232-2.901-13.526
					c0.19-1.241,1.355-2.095,2.594-1.902c1.24,0.191,2.09,1.349,1.903,2.587c-0.012,0.093-0.775,5.661,2.24,10.4
					c0.675,1.06,0.362,2.465-0.698,3.139C55.245,32.597,54.821,32.713,54.404,32.714z"/>
			</g>
		</g>
		<g opacity="0.5">
			<g>
				<path fill="#FFFFFF" d="M63.299,58.661c-0.246,0-0.493,0.039-0.739,0.127c-1.631,0.56-3.141,1.273-4.489,2.117
					c-1.064,0.669-1.385,2.075-0.716,3.138c0.669,1.062,2.073,1.386,3.137,0.715c1.052-0.659,2.245-1.222,3.544-1.671
					c1.189-0.405,1.821-1.701,1.414-2.889C65.126,59.256,64.243,58.661,63.299,58.661z"/>
			</g>
			<g>
				<path fill="#FFFFFF" d="M54.404,65.373c-0.752,0-1.488,0.376-1.92,1.056c-3.967,6.232-2.947,13.231-2.901,13.526
					c0.19,1.244,1.355,2.094,2.594,1.902c1.24-0.189,2.09-1.348,1.903-2.586c-0.012-0.095-0.775-5.661,2.24-10.4
					c0.675-1.061,0.362-2.467-0.698-3.142C55.245,65.488,54.821,65.373,54.404,65.373z"/>
			</g>
		</g>
		<path fill="#B7DDF6" d="M75.658,55.321c-2.613-0.72-4.603-2.937-4.759-5.645c-0.004-0.13-0.012-0.258-0.012-0.392
			c0-0.034,0-0.075,0.006-0.115c-0.006-0.038-0.006-0.077-0.006-0.117c0-0.13,0.006-0.257,0.012-0.389
			c0.157-2.708,2.146-4.926,4.759-5.645c9.848-2.726,17.083-11.752,17.083-22.467c0-1.44-0.129-2.851-0.384-4.219
			c-0.042-0.235-0.086-0.465-0.138-0.694c-0.035-0.167-0.073-0.336-0.114-0.503c0-0.011-0.002-0.021-0.005-0.03
			c-0.021-0.087-0.042-0.173-0.067-0.262c-0.039-0.167-0.081-0.33-0.129-0.496c-0.069-0.25-0.141-0.499-0.218-0.749H90.89
			c0.025,0.077,0.051,0.161,0.074,0.242c0.006,0.015,0.011,0.027,0.016,0.041c0.045,0.142,0.086,0.282,0.126,0.423
			c0.028,0.094,0.055,0.183,0.075,0.276c0.042,0.148,0.08,0.292,0.118,0.438c0.024,0.095,0.048,0.187,0.066,0.276
			c0.039,0.151,0.07,0.298,0.103,0.447c0.011,0.051,0.021,0.102,0.033,0.152c0.002,0.02,0.008,0.04,0.012,0.061
			c0.036,0.171,0.069,0.342,0.099,0.513c0.247,1.327,0.372,2.698,0.372,4.082c0,10.106-6.797,19.043-16.524,21.735
			c-3.01,0.83-5.147,3.373-5.314,6.334c-0.01,0.145-0.014,0.289-0.014,0.433c0,0.04,0,0.079,0.002,0.118
			c-0.002,0.04-0.002,0.08-0.002,0.115c0,0.145,0.002,0.29,0.014,0.435c0.167,2.961,2.303,5.505,5.314,6.334
			c9.726,2.691,16.524,11.632,16.524,21.735c0,1.38-0.126,2.759-0.372,4.082c-0.339,1.893-0.928,3.732-1.75,5.479H49.008
			c-0.823-1.746-1.412-3.586-1.753-5.481c-0.247-1.32-0.37-2.699-0.37-4.079c0-10.104,6.797-19.044,16.523-21.735
			c3.01-0.829,5.145-3.374,5.315-6.334c0.008-0.144,0.012-0.29,0.012-0.435c0-0.034,0-0.075-0.004-0.115
			c0.004-0.038,0.004-0.078,0.004-0.118c0-0.143-0.004-0.287-0.012-0.433c-0.171-2.962-2.306-5.505-5.315-6.334
			c-9.727-2.691-16.523-11.629-16.523-21.735c0-1.382,0.123-2.754,0.37-4.082c0.042-0.236,0.088-0.474,0.141-0.708
			c0-0.006,0.002-0.011,0.002-0.02c0.053-0.229,0.102-0.456,0.16-0.683c0.002-0.012,0.006-0.024,0.008-0.04
			c0.045-0.173,0.088-0.35,0.141-0.522c0.003-0.014,0.01-0.025,0.012-0.041c0.018-0.068,0.035-0.136,0.057-0.201
			c0.033-0.127,0.073-0.25,0.111-0.373c0.002-0.015,0.009-0.027,0.015-0.041c0.024-0.082,0.049-0.166,0.075-0.243H47.18
			c-0.078,0.25-0.15,0.498-0.219,0.749c-0.047,0.166-0.09,0.328-0.128,0.496c-0.024,0.088-0.045,0.174-0.067,0.262
			c-0.003,0.01-0.007,0.021-0.007,0.03c-0.042,0.167-0.076,0.335-0.112,0.502c-0.051,0.229-0.097,0.459-0.14,0.694
			c-0.254,1.368-0.384,2.778-0.384,4.219c0,10.714,7.233,19.741,17.083,22.467c2.611,0.718,4.603,2.937,4.757,5.645
			c0.007,0.132,0.012,0.26,0.012,0.389c0,0.04,0,0.079-0.003,0.118c0.003,0.04,0.003,0.08,0.003,0.115
			c0,0.133-0.003,0.262-0.012,0.391c-0.154,2.708-2.146,4.925-4.757,5.645c-9.85,2.729-17.083,11.751-17.083,22.467
			c0,1.439,0.129,2.85,0.384,4.217c0.392,2.155,1.082,4.203,2.02,6.102h41.808c0.939-1.898,1.63-3.946,2.02-6.102
			c0.255-1.368,0.384-2.777,0.384-4.217C92.74,67.073,85.506,58.05,75.658,55.321z"/>
		<path fill="#389FE5" d="M98.484,86.869L98.484,86.869c0,1.217-0.986,2.204-2.205,2.204H42.586c-1.216,0-2.204-0.987-2.204-2.204
			l0,0c0-1.216,0.986-2.205,2.204-2.205h53.693C97.497,84.663,98.484,85.651,98.484,86.869z"/>
		<g>
			
				<ellipse transform="matrix(-0.2071 -0.9783 0.9783 -0.2071 76.8397 117.9352)" fill="#FF9A30" cx="86.212" cy="27.829" rx="0.308" ry="1.089"/>
			
				<ellipse transform="matrix(-0.2055 -0.9787 0.9787 -0.2055 73.723 119.1798)" fill="#FF9A30" cx="85.237" cy="29.666" rx="0.309" ry="0.695"/>
			
				<ellipse transform="matrix(-0.2086 -0.978 0.978 -0.2086 72.4257 116.9132)" fill="#FF9A30" cx="83.516" cy="29.153" rx="0.308" ry="0.694"/>
			
				<ellipse transform="matrix(-0.2074 -0.9783 0.9783 -0.2074 56.9104 107.3442)" fill="#FF9A30" cx="71.94" cy="30.618" rx="0.166" ry="0.376"/>
			
				<ellipse transform="matrix(-0.2068 -0.9784 0.9784 -0.2068 70.688 112.9604)" fill="#FF9A30" cx="81.133" cy="27.827" rx="0.166" ry="0.376"/>
			
				<ellipse transform="matrix(-0.2046 -0.9788 0.9788 -0.2046 63.3357 113.5323)" fill="#FF9A30" cx="77.795" cy="31.033" rx="0.166" ry="0.376"/>
			
				<ellipse transform="matrix(-0.2116 -0.9773 0.9773 -0.2116 56.4674 111.8747)" fill="#FF9A30" cx="73.355" cy="33.163" rx="0.166" ry="0.376"/>
		</g>
		<path fill="#FF9A30" d="M69.691,68.892l-0.155-0.063l-0.155,0.063c0,0-1.342,10.496-15.747,15.771c7.891,0,12.878,0,16.006,0
			c4.183,0,5.034,0,5.034,0c2.336,0,5.757,0,10.767,0C71.032,79.388,69.691,68.892,69.691,68.892z"/>
		<ellipse fill="#B9DBEF" cx="69.433" cy="13.837" rx="22.324" ry="2.12"/>
		<path fill="#389FE5" d="M96.279,10.572H42.587c-0.608,0-1.161,0.246-1.561,0.646c-0.397,0.4-0.645,0.951-0.645,1.561
			c0,1.217,0.986,2.204,2.205,2.204h4.594h0.796h42.912h0.795h4.594c1.219,0,2.207-0.986,2.207-2.204
			C98.485,11.558,97.497,10.572,96.279,10.572z"/>
	</g>
	<line fill="none" stroke="#389FE5" stroke-miterlimit="10" x1="-7" y1="89.073" x2="146.052" y2="89.073"/>
	<g>
		<g>
			<ellipse fill="#E6ECEF" cx="18.844" cy="100.182" rx="18.273" ry="1.547"/>
			<g>
				<g>
					<path fill="#FFBD1D" d="M19.237,45.889c-0.129,0.703-0.159,1.438-0.089,2.186l0.276,0.057l0.013,0.002l0.206-0.006l0.222-0.235
						l0.102-1.482l-0.277-0.866l-1.987-1.37l-0.316-0.114L19.237,45.889z"/>
					<path fill="#FF9A30" d="M17.421,50.01l0.798,1.903l0.004,0.011l2.309-0.015l0.265-0.001c0.407,0.594,0.893,1.117,1.437,1.574
						l-0.082,2.764l1.919,0.79l1.749-1.768l0.059-0.061c0.696,0.128,1.418,0.157,2.153,0.091l-0.011,0.006l1.886,2.008l1.794-0.749
						l0.12-0.051l-0.012-2.575c0.593-0.412,1.121-0.896,1.578-1.445h0.001V52.49l2.694,0.091h0.061l0.789-1.916l-1.827-1.809
						c0.129-0.701,0.157-1.429,0.091-2.168l0.003,0.006l2.013-1.867l-0.8-1.915h-0.001l-2.574,0.015
						c-0.402-0.584-0.881-1.105-1.419-1.556v-0.056l0.065-2.728l-1.919-0.787l-0.008,0.008l-1.799,1.818
						c-0.685-0.125-1.394-0.154-2.118-0.092l-0.173-0.179l-1.74-1.833l-0.017,0.006l-1.897,0.792l0.013,2.576
						c-0.595,0.41-1.125,0.899-1.583,1.45l-2.753-0.097l-0.786,1.92l1.826,1.809c-0.127,0.694-0.156,1.417-0.09,2.152l-0.006-0.011
						l-0.007,0.008L17.421,50.01z"/>
					<path opacity="0.3" fill="#FF9A30" enable-background="new    " d="M20.429,48.296c0.481,3.854,3.995,6.592,7.849,6.114
						c3.856-0.479,6.593-3.995,6.116-7.846c-0.48-3.859-3.995-6.595-7.85-6.118C22.689,40.925,19.952,44.44,20.429,48.296z"/>
					<path fill="#FFFAE4" d="M21.938,47.908c0.366,2.949,3.055,5.045,6.006,4.678c2.949-0.368,5.042-3.056,4.678-6.005
						c-0.367-2.954-3.056-5.047-6.006-4.679C23.664,42.27,21.571,44.957,21.938,47.908z"/>
					<g>
						<g>
							
								<line fill="none" stroke="#E49F05" stroke-width="0.3564" stroke-miterlimit="10" x1="27.28" y1="41.857" x2="27.28" y2="42.55"/>
							
								<line fill="none" stroke="#E49F05" stroke-width="0.3564" stroke-miterlimit="10" x1="31.114" y1="43.492" x2="30.624" y2="43.98"/>
							
								<line fill="none" stroke="#E49F05" stroke-width="0.3564" stroke-miterlimit="10" x1="32.671" y1="47.359" x2="31.977" y2="47.359"/>
							
								<line fill="none" stroke="#E49F05" stroke-width="0.3564" stroke-miterlimit="10" x1="31.035" y1="51.193" x2="30.544" y2="50.704"/>
							
								<line fill="none" stroke="#E49F05" stroke-width="0.3564" stroke-miterlimit="10" x1="27.167" y1="52.749" x2="27.167" y2="52.055"/>
							
								<line fill="none" stroke="#E49F05" stroke-width="0.3564" stroke-miterlimit="10" x1="23.333" y1="51.115" x2="23.823" y2="50.624"/>
							
								<line fill="none" stroke="#E49F05" stroke-width="0.3564" stroke-miterlimit="10" x1="22.551" y1="47.246" x2="21.857" y2="47.246"/>
							
								<line fill="none" stroke="#E49F05" stroke-width="0.3564" stroke-miterlimit="10" x1="23.447" y1="43.448" x2="23.937" y2="43.937"/>
						</g>
					</g>
					<g>
						<g>
							
								<line fill="none" stroke="#E49F05" stroke-width="0.3564" stroke-miterlimit="10" x1="29.369" y1="42.255" x2="29.205" y2="42.651"/>
							
								<line fill="none" stroke="#E49F05" stroke-width="0.3564" stroke-miterlimit="10" x1="32.335" y1="45.192" x2="31.939" y2="45.353"/>
							
								<line fill="none" stroke="#E49F05" stroke-width="0.3564" stroke-miterlimit="10" x1="32.355" y1="49.364" x2="31.961" y2="49.201"/>
							
								<line fill="none" stroke="#E49F05" stroke-width="0.3564" stroke-miterlimit="10" x1="29.419" y1="52.331" x2="29.255" y2="51.937"/>
							
								<line fill="none" stroke="#E49F05" stroke-width="0.3564" stroke-miterlimit="10" x1="25.244" y1="52.35" x2="25.408" y2="51.957"/>
							
								<line fill="none" stroke="#E49F05" stroke-width="0.3564" stroke-miterlimit="10" x1="22.279" y1="49.413" x2="22.674" y2="49.252"/>
							
								<line fill="none" stroke="#E49F05" stroke-width="0.3564" stroke-miterlimit="10" x1="22.258" y1="45.24" x2="22.653" y2="45.404"/>
						</g>
					</g>
					
						<line fill="none" stroke="#E49F05" stroke-width="0.3564" stroke-miterlimit="10" x1="25.196" y1="42.275" x2="25.36" y2="42.668"/>
					<circle fill="#8CC64B" cx="27.28" cy="47.245" r="0.407"/>
					<path opacity="0.3" fill="#3D3D3D" enable-background="new    " d="M26.828,47.414c0,0.287,0.235,0.522,0.523,0.522
						c0.024,0,0.046-0.001,0.07-0.006l1.417,2.399l0.748,0.337c0.107,0.047,0.222-0.042,0.2-0.159l-0.155-0.806l-0.01-0.01
						l-1.966-1.875c0.16-0.09,0.223-0.204,0.223-0.401c0-0.275-0.21-0.494-0.479-0.521l0.334-2.61l-0.232-0.614
						c-0.039-0.103-0.187-0.109-0.231-0.003l-0.258,0.596l0.001,0.009l0.237,2.61C26.987,46.91,26.828,47.145,26.828,47.414z"/>
					<path fill="#FF9A30" d="M27.383,43.656l0.189,0.499c0.006,0.018,0.008,0.036,0.006,0.057l-0.339,2.654l-0.29-2.673
						c-0.001-0.021,0-0.039,0.009-0.058l0.208-0.486C27.209,43.554,27.345,43.556,27.383,43.656z"/>
					<path fill="#FF9A30" d="M29.719,50.466l-0.632-0.282c-0.027-0.013-0.047-0.031-0.062-0.056l-1.539-2.606l2.252,2.037
						c0.021,0.021,0.036,0.046,0.041,0.078l0.131,0.678C29.932,50.425,29.821,50.513,29.719,50.466z"/>
					<g>
						<circle fill="#E49F05" cx="27.264" cy="47.304" r="0.523"/>
						<circle fill="#FF9A30" cx="27.263" cy="47.304" r="0.457"/>
					</g>
				</g>
				<g>
					<g id="XMLID_596_">
						<path id="XMLID_601_" fill="#1F3A71" d="M20.145,39.884c0,0,2.849,0.081,1.34,3.332
							C19.976,46.466,20.145,39.884,20.145,39.884z"/>
						<path id="XMLID_600_" fill="#FFC8B0" d="M20.937,41.065c0,0,0.767,0.472,0.756,3.016c0,0.086,0.312,0.84,0.338,0.928
							c0.109,0.339-0.107,0.364-0.397,0.506c-0.119,1.916-0.406,1.884-0.658,2.051c-0.288,0.193-2.493-0.261-3.91-0.962
							c-1.415-0.702-1.896-2.799-1.299-4.083C16.368,41.236,19.282,39.959,20.937,41.065z"/>
						<path id="XMLID_599_" fill="#1F3A71" d="M14.563,42.862c-0.227,1.208,0.362,3.048,2.728,3.847c0,0,0.209-0.727,0.361-1.438
							c0.151-0.712,2.153-1.53,3.023-2.309c0.044-0.04,0.085-0.079,0.123-0.116c0.619-0.656,0.586-1.675,0.021-2.372
							c-0.487-0.598-1.562-1.592-3.491-0.937C15.606,40.118,14.844,41.376,14.563,42.862z"/>
						<path id="XMLID_598_" fill="#FFC8B0" d="M20.258,45.546c-0.371,0.404-0.441,1.217-0.411,1.993
							c0.007,0.133,0.018,0.268,0.026,0.395c0.065,0.797,0.212,1.461,0.212,1.461l-2.726-0.068c0.103-0.984-0.066-2.625-0.066-2.625
							S21.136,44.591,20.258,45.546z"/>
						<path id="XMLID_597_" fill="#F2A181" d="M19.873,47.935c-1.007-0.348-1.808-0.917-1.808-0.917
							c0.763,0.251,1.782,0.523,1.782,0.523C19.855,47.674,19.865,47.807,19.873,47.935z"/>
					</g>
					<g id="XMLID_592_">
						<path id="XMLID_595_" fill="#FFBE9D" d="M21.813,67.26l-4.261-4.596c0,0-2.581,2.729-2.104,5.726
							c0.236,1.474,0.664,2.243,0.803,2.947c0.132,0.656,0.467,9.764,0.28,10.402c-0.188,0.64-1.18,2.374-1.708,4.259
							c-0.636,2.268-1.285,5.556-1.802,7.519c-0.519,1.961,0.334,4.583,0.517,3.918c1.577-5.665,5.702-12.185,6.376-15.031
							C20.591,79.555,21.109,74.254,21.813,67.26z"/>
						<path id="XMLID_594_" fill="#FFBE9D" d="M14.837,93.319c0,0-1.306,3.707-1.201,4.176c0.063,0.29,0.355,1.258,0.419,1.395
							c0.026,0.056,0.963,0.8,0.34,0.784c-0.614-0.016-2.069-1.951-2.285-2.096c-0.36-0.243-0.504-0.622-0.431-0.953
							c0.129-0.57,0.511-1.007,0.793-1.405c0.282-0.397,0.506-1.531,0.506-1.531L14.837,93.319z"/>
						<path id="XMLID_593_" fill="#1F3A71" d="M15.224,99.84c-0.242-0.371-1.008-0.802-1.008-0.802l0,0
							c-0.114-0.146-0.208-0.239-0.161-0.146c0.081,0.157-0.334,0.238-0.54,0.071c-0.713-0.574-0.918-1.424-1.269-1.833
							c-0.502-0.576-0.151-1.336-0.097-1.465c-0.165-0.013-0.846,0.328-1.027,0.461c-0.164,0.12-0.47,0.413-0.543,0.606
							c-0.047,0.134-0.307,0.821-0.488,1.115l0.676,0.538l0.655-0.594c0,0,0,0,0.182,0.189c0.181,0.191,0.317,0.519,0.349,0.713
							c0.013,0.084,0.086,0.312,0.169,0.531c0.102,0.271,0.275,0.51,0.498,0.694c0,0,0.142,0.115,0.29,0.233
							c0.214,0.179,0.485,0.275,0.763,0.275h1.162c0,0,0,0,0.001-0.003l0.178-0.001c0.182,0,0.339-0.157,0.312-0.335
							C15.315,100.014,15.285,99.932,15.224,99.84z"/>
					</g>
					<g id="XMLID_589_">
						<path id="XMLID_591_" fill="#FFBE9D" d="M25.071,99.27c-0.093-0.124-1.181-0.402-1.679-0.667
							c-0.475-0.249-1.014-0.964-1.106-1.259c-0.09-0.292,0.065-1.714,0.133-2.313c0.475-4.113,1.929-9.875,2.257-12.277
							c0.57-4.18,0.415-8.558-0.593-15.439l-5.594-5.153c0,0-1.965,2.978-1.672,6.021c0.17,1.767,1.586,2.162,1.769,2.857
							c0.182,0.699,2.84,11.904,2.84,11.904s-0.92,2.287-1.192,4.861c-0.234,2.196,0.382,4.671,0.339,7.215
							c-0.022,0.495-0.043,1.687-0.223,2.049c-0.22,0.44-0.723,0.944-0.753,1.527c-0.017,0.337,0.199,0.683,0.612,0.854
							c0.415,0.171,0.674-0.056,0.82-0.048c0.852,0.04,1.034,0.645,2.497,0.775c0.451,0.042,1.128-0.151,1.507-0.473
							C25.179,99.578,25.163,99.392,25.071,99.27z"/>
						<path id="XMLID_590_" fill="#1F3A71" d="M25.151,99.798c-0.055,0.104-0.155,0.225-0.303,0.336
							c-0.267,0.204-0.606,0.295-0.94,0.295h-0.717c-0.291,0-0.575-0.079-0.826-0.222c-0.202-0.117-0.405-0.245-0.465-0.303
							c-0.146-0.132-0.461-0.297-0.723-0.331c-0.261-0.033-0.462-0.009-0.462-0.009l-0.051,0.863h-0.987
							c0.029-0.298-0.205-1.104-0.252-1.237c-0.067-0.197,0.021-0.559,0.07-0.756c0.056-0.219,0.5-0.906,0.638-1.002
							c0.039,0.132,0.248,0.944,1.004,1.072c0.526,0.088,1.226,0.622,2.141,0.61c0.264,0,0.537-0.322,0.376-0.393
							c-0.161-0.071,0.291,0.009,0.578,0.114c0.289,0.103,0.788,0.378,0.931,0.46C25.26,99.352,25.248,99.617,25.151,99.798z"/>
					</g>
					<path id="XMLID_588_" fill="#FFC8B0" d="M12.948,56.334c0,0,0.287,1.475,0.467,2.082c0.181,0.608,1.072,4.465,1.917,4.398
						c0.844-0.069,5.473-3.932,5.473-3.932l-0.657-1.311l-4.073,1.942c0,0-0.368-4.409-0.69-5.457L12.948,56.334z"/>
					<g id="XMLID_586_">
						<path fill="#F2A181" d="M14.123,56.497c0.432,1.522,1.263,3.871,1.58,4.312c0.143,0.196,2.873-0.787,2.88-1.848l-2.831-3.211
							L14.123,56.497z"/>
					</g>
					<path id="XMLID_585_" fill="#389FE5" d="M16.698,49.408c0,0-1.406,0.045-2.475,0.838c-1.764,1.313-1.345,6.271-1.345,6.271
						s-0.085,0.257,1.086,0.191c1.172-0.065,2.112-0.399,2.112-0.399l-0.338-3.974L16.698,49.408z"/>
					<path id="XMLID_584_" fill="#389FE5" d="M13.761,52.409c0,0-0.147,2.852,0.368,4.289c0.51-0.01,0.956-0.125,0.956-0.125
						L13.761,52.409z"/>
					<g id="XMLID_582_">
						<path fill="#389FE5" d="M16.642,49.677c0.049-0.322,0.136-0.702,0.438-0.828c0.083-0.035,0.174-0.047,0.266-0.057
							c0.919-0.102,0.813-0.146,1.737-0.131c0.384,0.005,0.779,0.027,1.123,0.198c0.538,0.268,0.831,0.847,1.092,1.386
							L16.642,49.677z"/>
					</g>
					<g id="XMLID_570_">
						<path fill="#389FE5" d="M16.642,49.677c0.049-0.322,0.136-0.702,0.438-0.828c0.083-0.035,0.174-0.047,0.266-0.057
							c0.919-0.102,0.813-0.146,1.737-0.131c0.384,0.005,0.779,0.027,1.123,0.198c0.538,0.268,0.831,0.847,1.092,1.386
							L16.642,49.677z"/>
					</g>
					<path fill="#285FAF" d="M12.995,93.052c0.36-1.588,1.281-5.678,1.938-7.418c0.657-1.738,1.566-3.611,1.601-3.896
						c0.028-0.238-0.212-1.994-0.292-2.563c-0.008-0.011-0.013-0.024-0.013-0.036c0.008-0.198-0.956-7.42-1.273-8.517
						c-0.12-0.4-0.688-1.716-0.583-3.694c0.11-1.979,1.686-4.339,2.114-4.767l7.281-0.118c0,0,1.255,2.965,1.379,4.803
						C25.4,70.711,25.01,78.86,25.01,78.86s-0.006,0.003-0.015,0.005c-0.012,0.569-0.058,1.938-0.229,3.174
						c-0.218,1.605-2.451,14.717-2.451,14.717s-1.106,0.178-1.984-0.218c0,0,0.025-0.141,0.017-0.283
						c0.082-1.58-0.632-6.612,0-9.692c0.633-3.076,0.887-3.741,0.887-3.741l-0.692-3.359c-0.01-0.059-0.025-0.194-0.045-0.193
						c-0.083,0.794-0.268,2.374-0.497,3.216c-0.331,1.23-3.511,8.14-4.775,11.113c-0.434,1.018-0.822,2.158-0.822,2.158
						s-1.516-0.175-1.947-0.844C12.456,94.915,12.674,94.469,12.995,93.052z"/>
					<g id="XMLID_580_">
						<path fill="#389FE5" d="M23.662,60.884c-0.255-0.501-0.479-2.618-0.391-3.158c0.095-0.582,0.607-0.891,0.838-2.183
							c0.298-1.662-0.384-2.952-0.763-3.504c-0.539-0.783-1.278-2.369-1.431-2.416c-2.249-0.683-2.615-0.358-4.129-0.29
							c-0.748,0.03-1.226,0.063-1.962,0.227c-0.811,0.181-1.788,0.45-1.956,1.552c-0.258,1.71-0.041,3.434,0.478,5.053
							c0.343,1.073,2.396,4.783,1.888,5.502c-0.116,0.163-0.407,0.476-0.441,0.682c-0.13,0.749,1.084,0.934,2.291,1.073
							c1.102,0.126,2.24,0.063,3.481-0.023C24.979,63.167,23.769,61.094,23.662,60.884z"/>
					</g>
					<path fill="#1F3A71" d="M14.196,51.974c1.293,0.777,2.886,0.689,3.99,0.48c-0.052-0.886,0.025-2.688,0.025-2.688
						c0.011,0.646,0.29,2.207,0.362,2.603c0.575-0.134,0.949-0.285,0.949-0.285s-0.87-4.271-0.87-6.151
						c0.002-1.616,1.706-2.721,1.706-2.721l-2.881-3.723c0,0-2.273,0.645-2.91,3.377C14.244,44.229,14.196,51.974,14.196,51.974z"/>
					<path opacity="0.35" fill="#5275A0" enable-background="new    " d="M16.894,68.646c0.083,0.372,0.349,1.313,1.046,2.232
						l2.459,9.231c0,0,0.046-0.386,0.096-0.84c-0.797-3.36-1.793-7.788-1.91-8.23C18.421,70.409,17.243,70.025,16.894,68.646z"/>
					<g id="XMLID_576_">
						<path id="XMLID_579_" fill="#FFC8B0" d="M22.786,55.142c0,0,3.387,5.434,4.586,5.434c0.873,0,5.754-5.833,5.754-5.833
							l-1.654-0.441l-3.99,2.746l-2.423-3.989L22.786,55.142z"/>
						<g>
							<g>
								<path fill="#FFC8B0" d="M35.063,52.708c0.004-0.101-0.002-0.202,0.015-0.302c0.038-0.223,0.184-0.407,0.236-0.624
									c0.041-0.172,0.021-0.348,0.033-0.523c0.012-0.196,0.134-0.532-0.027-0.552c0.03-0.127,0.08-0.269,0.108-0.396
									c0.02-0.096,0.015-0.278-0.096-0.267c-0.165,0.024-0.346,0.244-0.452,0.346c-0.142,0.137-0.355,0.493-0.479,0.645
									c-0.28,0.338-0.608,0.479-0.608,0.479s0.079-0.137,0.02-0.209c-0.092-0.109-0.393,0.086-0.724,0.133
									c-0.171,0.024-0.589,0.536-0.727,0.683c-0.138,0.146-0.27,1.052-0.309,1.239c-0.101,0.492-0.72,1.055-0.72,1.055
									s1.415,0.698,1.422,0.699c0.034,0.018,0.189-0.188,0.209-0.212c0.087-0.098,0.198-0.206,0.321-0.257
									c0.438-0.43,1.088-0.638,1.463-1.133c0.172-0.229,0.294-0.502,0.312-0.787C35.062,52.721,35.063,52.715,35.063,52.708z"/>
							</g>
							<g id="XMLID_577_">
								<path id="XMLID_578_" fill="#F2A181" d="M33.795,51.513c-0.223,0.23-0.42,0.268-0.618,0.371
									c-0.154,0.083-0.159,0.16-0.327,0.241c0.241,0.046,0.237-0.104,0.607-0.241c0.171-0.062,0.348-0.134,0.424-0.3
									C33.907,51.528,33.846,51.47,33.795,51.513L33.795,51.513z"/>
							</g>
						</g>
					</g>
					<g id="XMLID_341_">
						<path fill="#389FE5" d="M19.823,49.201c0.721,0.035,3.03,0.195,4.45,2.281c0.795,1.164,1.663,2.54,2.056,3.625
							c-0.19,0.643-1.403,1.954-2.519,1.939c-0.056-0.041-1.7-2.057-2.015-3.698L19.823,49.201z"/>
					</g>
				</g>
			</g>
		</g>
		<g>
			<g>
				<g>
					<g>
						<polyline fill="#CFEFFE" points="12.26,39.569 13.83,40.405 13.045,38.366 						"/>
					</g>
					<circle fill="#CFEFFE" cx="10.706" cy="36.96" r="3.319"/>
				</g>
			</g>
			<g>
				<g>
					<path fill="#67C2EF" d="M10.511,35.082c0.67-0.061,1.264,0.436,1.322,1.107c0.018,0.193-0.016,0.389-0.1,0.582l-0.115,0.285
						l-0.406,1.052l-0.43,0.039l-0.43,0.039l-0.579-0.964l-0.171-0.258c-0.115-0.179-0.182-0.363-0.2-0.56
						C9.345,35.736,9.843,35.142,10.511,35.082 M10.495,34.898c-0.774,0.066-1.344,0.749-1.276,1.524
						c0.022,0.238,0.107,0.453,0.23,0.643l0.806,1.317l0.544-0.048l0.545-0.049l0.562-1.439c0.087-0.206,0.133-0.434,0.113-0.67
						C11.95,35.4,11.268,34.828,10.495,34.898L10.495,34.898z"/>
				</g>
				<g>
					<path fill="#67C2EF" d="M10.893,39.375L10.893,39.375c-0.303,0.025-0.569-0.198-0.596-0.5l-0.034-0.398l1.093-0.097
						l0.036,0.401C11.418,39.081,11.195,39.348,10.893,39.375z"/>
				</g>
				<g>
					<path fill="#67C2EF" d="M10.039,36.612c-0.047,0-0.087-0.035-0.092-0.083c-0.003-0.05,0.033-0.097,0.085-0.101l1.188-0.104
						c0.052-0.005,0.097,0.033,0.102,0.083c0.003,0.052-0.033,0.098-0.084,0.103l-1.188,0.103
						C10.046,36.612,10.042,36.612,10.039,36.612z"/>
				</g>
				<g>
					<path fill="#67C2EF" d="M10.791,38.327c-0.049,0-0.09-0.034-0.093-0.082l-0.156-1.769c-0.005-0.05,0.034-0.097,0.084-0.101
						c0.052-0.006,0.097,0.03,0.102,0.083l0.156,1.77c0.003,0.051-0.034,0.096-0.086,0.101
						C10.797,38.327,10.794,38.327,10.791,38.327z"/>
				</g>
			</g>
		</g>
	</g>
	<g>
		<g>
			<g>
				<g>
					<path fill="#FF9A30" d="M101.069,78.944l1.188,1.187c0,0,1.468-1.05,1.463-1.277c-0.006-0.226-1.072-1.379-1.37-1.369
						C102.05,77.491,101.069,78.944,101.069,78.944z"/>
					<path fill="#FF9A30" d="M96.276,78.944l-1.187,1.187c0,0-1.468-1.05-1.463-1.277c0.005-0.226,1.071-1.379,1.37-1.369
						C95.295,77.491,96.276,78.944,96.276,78.944z"/>
				</g>
				<rect x="98.081" y="76.728" fill="#153351" width="1.186" height="1.008"/>
				<circle fill="#FF9A30" cx="98.673" cy="82.866" r="5.439"/>
				<path opacity="0.3" fill="#FF9A30" enable-background="new    " d="M103.675,83.098c0,2.001-1.078,3.749-2.686,4.69
					c1.847-0.869,3.124-2.747,3.124-4.923c0-3.004-2.435-5.438-5.439-5.438c-1.003,0-1.944,0.271-2.75,0.745
					c0.702-0.33,1.487-0.514,2.313-0.514C101.24,77.66,103.675,80.095,103.675,83.098z"/>
				<path opacity="0.6" fill="#FDD622" enable-background="new    " d="M93.234,82.866c0,3.006,2.436,5.439,5.439,5.439
					c1.173,0,2.258-0.37,3.146-1.001c-0.761,0.389-1.629,0.61-2.553,0.61c-3.005,0-5.44-2.34-5.44-5.229
					c0-2.886,2.434-5.227,5.44-5.227c-0.194-0.021-0.394-0.031-0.594-0.031C95.67,77.428,93.234,79.862,93.234,82.866z"/>
				<circle fill="#153351" cx="98.672" cy="82.865" r="4.059"/>
				<circle fill="#FFFDFF" cx="98.673" cy="82.866" r="3.721"/>
				<path fill="#FF9A30" d="M97.842,77.038h1.679c0,0,0.294-0.717,0.13-0.778c-0.163-0.063-1.733-0.089-1.939,0
					C97.507,76.347,97.842,77.038,97.842,77.038z"/>
				<path fill="#153351" d="M98.663,83.131l0.143-0.063c0.068-0.026,0.1-0.103,0.07-0.173l-1.103-2.605
					c-0.029-0.069-0.106-0.103-0.177-0.071l-0.143,0.06c-0.067,0.027-0.098,0.106-0.07,0.176l1.103,2.605
					C98.517,83.128,98.593,83.157,98.663,83.131z"/>
				<circle fill="#153351" cx="98.673" cy="82.865" r="0.593"/>
				<path opacity="0.6" fill="#FDD622" enable-background="new    " d="M99.063,87.663c0.128,0.002,0.258-0.004,0.383,0.031
					c0.007,0.003,0.007,0.016,0,0.02c-0.125,0.038-0.252,0.028-0.383,0.029C99.01,87.744,99.01,87.663,99.063,87.663z
					 M98.488,87.665c0.077,0.026,0.146,0.039,0.225,0.019c0.007-0.002,0.007-0.016,0-0.019c-0.065-0.021-0.133-0.035-0.196-0.065
					C98.469,87.576,98.441,87.649,98.488,87.665z M94.918,80.154c0.068-0.143,0.152-0.278,0.251-0.4
					c0.043-0.055-0.029-0.131-0.075-0.076c-0.11,0.127-0.206,0.263-0.285,0.413C94.772,80.163,94.885,80.227,94.918,80.154z
					 M94.435,80.908c-0.014,0.085,0.117,0.121,0.131,0.036c0.015-0.092,0.035-0.185,0.057-0.277c0.016-0.066,0.062-0.141,0.05-0.207
					c0-0.006-0.004-0.007-0.006-0.006c-0.069,0.024-0.105,0.111-0.138,0.172C94.477,80.719,94.451,80.806,94.435,80.908z
					 M96.317,78.813c0.22-0.155,0.438-0.309,0.672-0.439c0.07-0.039,0.022-0.16-0.056-0.13c-0.256,0.097-0.509,0.211-0.733,0.368
					C96.075,78.696,96.193,78.9,96.317,78.813z"/>
			</g>
			<g>
				<g>
					<path fill="#95E2F9" d="M83.543,92.781c-0.617-1.214-0.782-2.681-0.236-3.959c0.315-0.736,0.757-1.467,1.4-1.963
						c0.56-0.436,1.219-0.745,1.905-0.925c1.178-0.312,2.489-0.21,3.541,0.405c0.878,0.515,1.521,1.353,1.946,2.267
						c0.413,0.893,0.586,1.998,1.476,2.574c0.253,0.161,0.676,0.232,0.802,0.538c0.149,0.363-0.121,0.726-0.267,1.04
						c-0.172,0.378-0.343,0.753-0.514,1.128c-0.124,0.271-0.241,0.736-0.566,0.837c-0.312,0.109-0.645-0.16-0.934-0.239
						c-0.771-0.214-1.604,0.087-2.305,0.396c-0.802,0.351-2.122,0.168-3.005,0.091C85.152,94.828,84.281,94.236,83.543,92.781z"/>
				</g>
				<path fill="none" stroke="#FFFFFF" stroke-width="0.6158" stroke-miterlimit="10" d="M94.178,93.12c0,0-2.48-1.224-3.665-1.892
					c-0.314-0.179-0.64-0.354-1.072-0.737c-0.277-0.252-0.841-0.833-0.48-1.217c0.425-0.459,0.928,0.286,0.925,0.699
					c-0.002,0.341-0.297,0.846-0.579,1.047c-0.498,0.352-1.265,0.263-1.738-0.031c-0.363-0.224-0.159-0.755,0.245-0.729
					c0.384,0.024,1.466,0.835,1.216,1.485c-0.131,0.342-0.41,0.612-0.739,0.774c-0.592,0.288-1.362-0.462-0.529-0.73
					c0.592-0.189,1.35,0.016,1.906,0.231c1.52,0.59,2.697,1.093,4.206,1.713"/>
				
					<rect x="92.59" y="93.18" transform="matrix(0.4089 -0.9126 0.9126 0.4089 -29.6017 140.9377)" fill="#389FE5" width="2.8" height="0.276"/>
				<path fill="#67C2EF" d="M94.36,94.917c-0.034-0.066-0.128,0.17-0.199,0.194l-0.033-0.169c-0.07,0.023-0.147,0.165-0.18,0.1
					l-0.022-0.041c-0.035-0.069-0.127-0.101-0.197-0.074c-0.069,0.029-0.159-0.004-0.195-0.07l-0.062-0.11
					c-0.022-0.04-0.023-0.087-0.005-0.13l1.138-2.54c0.019-0.042,0.054-0.07,0.102-0.083l0.123-0.025
					c0.075-0.018,0.159,0.025,0.183,0.097c0.026,0.073,0.112,0.12,0.188,0.1l0.045-0.015c0.071-0.017,0.155,0.025,0.183,0.091
					l0.009,0.025c0.029,0.069,0.115,0.112,0.188,0.09l0.033-0.011c0.074-0.02,0.161,0.023,0.189,0.095l0.005,0.015
					c0.03,0.078,0.029,0.159-0.001,0.232l-1.021,2.282c-0.033,0.072-0.035-0.096-0.114-0.063l-0.137-0.295
					c-0.071,0.026-0.088,0.431-0.124,0.358L94.36,94.917z"/>
				<g>
					<g>
						<path fill="#389FE5" d="M93.8,94.835c-0.006,0-0.015,0-0.02-0.002c-0.021-0.011-0.033-0.036-0.021-0.059l0.529-1.186
							c0.01-0.024,0.039-0.031,0.06-0.024c0.024,0.012,0.034,0.038,0.024,0.063l-0.531,1.181
							C93.834,94.825,93.817,94.835,93.8,94.835z"/>
					</g>
					<g>
						<path fill="#389FE5" d="M94.566,93.124c-0.007,0-0.013,0-0.019-0.004c-0.023-0.009-0.033-0.037-0.023-0.058l0.293-0.657
							c0.011-0.023,0.038-0.032,0.062-0.023c0.023,0.009,0.033,0.035,0.023,0.06l-0.294,0.655
							C94.6,93.113,94.584,93.124,94.566,93.124z"/>
					</g>
					<g>
						<path fill="#389FE5" d="M94.459,94.142c-0.006,0-0.013,0-0.02-0.005c-0.023-0.01-0.034-0.037-0.023-0.061l0.768-1.714
							c0.01-0.024,0.037-0.033,0.061-0.024c0.023,0.01,0.032,0.036,0.023,0.061l-0.769,1.716
							C94.492,94.131,94.476,94.142,94.459,94.142z"/>
					</g>
					<g>
						<path fill="#389FE5" d="M94.087,94.97c-0.005,0-0.012,0-0.018-0.005c-0.023-0.009-0.034-0.038-0.023-0.06l0.227-0.508
							c0.01-0.021,0.036-0.03,0.059-0.021c0.022,0.01,0.033,0.036,0.022,0.061l-0.227,0.505
							C94.121,94.959,94.105,94.97,94.087,94.97z"/>
					</g>
					<g>
						<path fill="#389FE5" d="M95.03,93.647c-0.007,0-0.015-0.004-0.021-0.006c-0.023-0.01-0.031-0.035-0.023-0.061l0.411-0.918
							c0.011-0.022,0.037-0.031,0.061-0.022c0.021,0.012,0.031,0.038,0.021,0.061l-0.412,0.918
							C95.063,93.635,95.047,93.647,95.03,93.647z"/>
					</g>
					<g>
						<path fill="#389FE5" d="M94.595,94.615c-0.007,0-0.012-0.001-0.02-0.004c-0.023-0.008-0.033-0.038-0.023-0.059l0.166-0.371
							c0.011-0.021,0.036-0.033,0.061-0.021c0.022,0.008,0.033,0.033,0.022,0.059l-0.164,0.37
							C94.629,94.605,94.612,94.615,94.595,94.615z"/>
					</g>
					<g>
						<path fill="#389FE5" d="M94.432,93.422c-0.006,0-0.012-0.001-0.018-0.004c-0.024-0.011-0.033-0.037-0.024-0.06l0.06-0.135
							c0.012-0.022,0.038-0.029,0.062-0.022c0.023,0.011,0.033,0.036,0.023,0.061l-0.06,0.131
							C94.468,93.413,94.449,93.422,94.432,93.422z"/>
					</g>
				</g>
				<g opacity="0.5">
					<path fill="#95E2F9" d="M83.543,92.781c-0.617-1.214-0.782-2.681-0.236-3.959c0.062-0.143,0.128-0.288,0.202-0.433
						c-0.786,2.084,0.191,4.629,2.342,5.512c1.808,0.745,3.469,0.441,5.055-1.008c0.332-0.306,0.702-0.463,1.161-0.329
						c0.424,0.123,0.772,0.43,1.207,0.526c0.065,0.013,0.136,0.022,0.197,0c0.061-0.022,0.105-0.067,0.15-0.112
						c0.357-0.372,0.587-0.844,0.708-1.347c0.019,0.027,0.034,0.054,0.046,0.085c0.149,0.364-0.121,0.727-0.267,1.041
						c-0.172,0.377-0.343,0.753-0.514,1.128c-0.124,0.271-0.241,0.735-0.566,0.836c-0.312,0.11-0.645-0.16-0.934-0.238
						c-0.771-0.215-1.604,0.087-2.305,0.395c-0.802,0.352-2.122,0.169-3.005,0.091C85.152,94.828,84.281,94.236,83.543,92.781z"/>
				</g>
			</g>
			<ellipse fill="#E6ECEF" cx="109.961" cy="100.404" rx="28.504" ry="1.545"/>
			<g>
				<path fill="#FFBE9D" d="M117.188,95.974c0,0-0.084,2.199,0.03,2.702c0.088,0.395,1.321,0.434,1.471,0.226
					c0.15-0.21,0.342-2.759,0.342-2.759"/>
				<path fill="#4C4051" d="M119.03,99.258c0,0.279,0.137,1.111-0.202,1.111h-1.403c0,0-0.555,0-0.933,0h-1.256
					c-0.918,0-1.44-0.118-1.465-0.279c-0.094-0.661,3.114-1.773,3.422-1.771c0.016,0.002,0.025,0.005,0.039,0.008
					c0.045,0.016,0.148,0.067,0.226,0.2c0.212,0.367,0.689,0.53,1.071,0.349c0.079-0.038,0.153-0.088,0.214-0.154
					C118.741,98.721,119.03,98.835,119.03,99.258z"/>
			</g>
			<g>
				<path fill="#FFBE9D" d="M130.478,96.47c0,0,0.388,1.042,0.556,1.388c0.169,0.351,1.322-0.078,1.38-0.318
					c0.058-0.237-0.877-2.03-0.877-2.03"/>
				<path fill="#4C4051" d="M132.948,97.76c0.361,0.723,0.274,1.063,0.16,1.133l-0.963,0.578c-0.003,0.002-0.003,0.002-0.006,0.005
					c-0.03,0.014-0.441,0.223-0.753,0.418c-0.275,0.172-0.757,0.375-1.072,0.449c-0.984,0.228-1.747,0.118-1.825-0.018
					c-0.316-0.547,2.123-2.66,2.4-2.771c0.014-0.005,0.025-0.005,0.04-0.008c0.047,0,0.161,0.009,0.279,0.107
					c0.241,0.202,0.572,0.265,0.838,0.099c0.149-0.092,0.289-0.219,0.356-0.39C132.4,97.362,132.767,97.398,132.948,97.76z"/>
			</g>
			<g>
				<path fill="#285FAF" d="M131.898,95.714c0.026,0.065,0.003,0.14-0.052,0.18c-0.877,0.629-1.494,0.694-1.494,0.694
					c0-0.003-0.002-0.005-0.004-0.01c-0.205-0.318-6.597-10.416-7.826-12.377c-0.024-0.041-0.05-0.081-0.072-0.117
					c-0.005-0.005-0.012-0.01-0.012-0.019c-0.089-0.139-0.153-0.269-0.201-0.391c-0.009-0.024-0.023-0.05-0.03-0.07
					c-0.032-0.081-0.057-0.158-0.064-0.209c-0.01-0.042-0.017-0.085-0.024-0.128c0-0.005-0.007-0.013-0.007-0.019
					c-0.171-0.872-0.579-2.363-1.074-4.104c-0.282-0.987-0.587-2.051-0.894-3.123c-0.244-0.843-0.486-1.677-0.705-2.472
					l-1.786-6.942c-0.023-0.088,0.041-0.179,0.135-0.184l1.431-0.094c1.819-0.123,4.037-1.041,4.51-1.242
					c0.056-0.026,0.121-0.011,0.165,0.03c2.084,2.087,1.688,4.696,1.435,6.007c0,0.002-0.002,0.005-0.002,0.008
					c-0.115,0.603-0.146,1.214-0.103,1.825c0.143,1.883,0.423,5.395,0.45,7.833c0,0.002,0,0.002,0,0.007
					c0.003,0.066,0.105,1.523,1.494,3.245c0.264,0.284,0.515,0.594,0.739,0.934C129.981,88.107,130.747,92.973,131.898,95.714z"/>
				<path opacity="0.35" fill="#5275A0" enable-background="new    " d="M130.348,96.577c-0.205-0.319-6.597-10.416-7.826-12.377
					c-0.024-0.041-0.05-0.081-0.072-0.117c-0.005-0.005-0.012-0.01-0.012-0.019c-0.089-0.14-0.153-0.269-0.201-0.392
					c-0.009-0.023-0.023-0.051-0.03-0.07c-0.032-0.081-0.057-0.157-0.064-0.208c-0.01-0.042-0.017-0.085-0.024-0.128
					c0-0.007-0.007-0.013-0.007-0.019c-0.17-0.862-0.572-2.339-1.061-4.058c-0.008-0.031-0.007-0.063,0.002-0.094l2.854-7.654
					c0.023-0.058,0.079-0.098,0.141-0.098h0.748c0.103,0,0.174,0.098,0.142,0.195c-0.254,0.767-1.196,3.631-1.615,5.032
					c-0.485,1.617-0.62,4.153-0.663,5.081c-0.094,2.04,2.41,5.5,3.125,6.756C126.556,89.763,130.062,96.017,130.348,96.577z"/>
			</g>
			<path fill="#285FAF" d="M123.796,72.6c0.214-0.1,1.076-0.587,1.621-2.125c0.024-0.066-0.001-0.14-0.06-0.18
				c-0.831-0.524-6.623-4.146-8.01-3.705c-0.425,0.137-1.23,13.608-1.224,13.897c0.002,0.141-0.006,1.602,0.001,1.772
				c0.09,2.292,0.896,13.717,0.985,14.982c0.005,0.068,0.054,0.125,0.122,0.137c0.223,0.035,0.769,0.109,1.572,0.103
				c0.058-0.049,0.093-0.079,0.15-0.13c0.362-3.065,1.941-8.837,1.146-12.451c-0.009-0.044-0.016-0.091-0.024-0.133
				c-0.005-0.072-0.013-0.162-0.029-0.286c-0.191-1.598-0.196-1.13,0.241-3.15c0.001-0.006,0.004-0.015,0.005-0.021
				c0.979-2.519,2.824-7.114,3.431-8.635C123.739,72.64,123.762,72.616,123.796,72.6z"/>
			<path fill="#389FE5" d="M126.203,56.929c-0.007,0.766-0.053,1.53-0.114,2.268c-0.081,0.902-0.19,1.765-0.305,2.543
				c-0.269,1.861-0.566,3.244-0.538,3.574c0.022,0.208,0.097,0.406,0.188,0.597c0.127,0.272-0.089,0.46-0.089,0.46
				c-0.124,0.054-0.25,0.104-0.383,0.153c-3.245,1.186-8.022,0.177-8.022,0.177c-0.197,0.016-0.396-0.142-0.319-0.518
				c0.061-0.283,0.359-1.661,0.348-1.953c-0.011-0.268,0.066-1.18,0.219-2.446c0.053-0.451,0.116-0.938,0.191-1.463
				c0.061-0.444,0.131-0.912,0.206-1.395c0.088-0.561,0.164-1.108,0.236-1.643c0.082-0.605,0.16-1.194,0.246-1.773
				c0.155-1.005,0.333-1.969,0.601-2.901c0.219-0.769,0.504-1.521,0.882-2.255c0.904-1.739,3.095-2.011,3.473-2.048
				c0.036-0.001,0.07,0.002,0.101,0.025c1.632,1.092,2.466,2.972,2.834,5.095C126.154,54.553,126.217,55.745,126.203,56.929z"/>
			<path opacity="0.08" enable-background="new    " d="M122.954,52.366c-0.129,1.622-0.73,6.847-3.227,9.166
				c-0.012,0.009-0.021,0.016-0.034,0.026c-0.13,0.068-0.904,0.438-2.355,0.249c-0.08-0.012-0.142-0.083-0.129-0.166
				c0.096-0.789,0.22-1.7,0.372-2.673c0.004-0.025,0.013-0.049,0.029-0.07l0.623-4.378c0,0,0.637-2.115,1.488-2.973
				c0.54-0.539,2.967,0.719,2.967,0.719C122.777,52.149,122.966,52.219,122.954,52.366z"/>
			<path fill="#F2A181" d="M110.638,68.447c0,0-0.667,0.31-0.904,0.783h0.952"/>
			<g>
				<g>
					<polygon fill="#FDCF33" points="104.768,84.507 104.779,94.434 94.645,94.443 94.645,84.515 					"/>
				</g>
			</g>
			<g>
				<g>
					<polygon fill="#FFD86C" points="94.645,84.507 94.645,94.434 92.285,94.437 92.277,84.509 					"/>
				</g>
			</g>
			<polygon fill="#F4BF2A" points="106.062,87.017 95.929,87.017 94.645,84.507 104.779,84.507 			"/>
			<g>
				<path fill="#C1CED6" d="M84.51,95.118h23.504c0.757,0,1.376-0.62,1.376-1.378V70.115c0-0.188,0.152-0.341,0.34-0.341h4.03
					c0.196,0,0.355-0.157,0.355-0.354c0-0.194-0.159-0.353-0.355-0.353h-4.03c-0.578,0-1.048,0.47-1.048,1.049v23.626
					c0,0.368-0.3,0.667-0.668,0.667H84.51c-0.196,0-0.356,0.159-0.356,0.356C84.156,94.959,84.314,95.118,84.51,95.118z"/>
			</g>
			<circle fill="#B3EAFF" cx="104.923" cy="97.819" r="2.549"/>
			<circle fill="#FFFFFF" cx="104.922" cy="97.819" r="1.307"/>
			<circle fill="#B3EAFF" cx="88.463" cy="97.819" r="2.55"/>
			<circle fill="#FFFFFF" cx="88.463" cy="97.819" r="1.308"/>
			<g>
				<path fill="#FFBE9D" d="M122.38,53.422c0.124-0.644,0.183-1.116,0.169-1.288c-0.142-1.318-1.534-1.076-1.786-0.917
					c-0.29,0.177-1.021,0.749-1.838,3.174c-0.563,1.671-0.902,2.964-1.11,3.766c-0.068,0.244-0.16,0.533-0.234,0.775l1.676,2.408
					C120.637,60.474,121.929,55.788,122.38,53.422z"/>
				<path fill="#FFBE9D" d="M116.672,60.839c-0.735,1.069-3.425,5.23-4.636,6.734l0.927,0.733c0.039-0.064,0.08-0.13,0.126-0.199
					c0.003-0.006,0.408-0.273,0.418-0.279c0.814-0.893,1.723-1.645,3.026-2.969c1.348-1.374,2.592-2.815,3.096-3.701
					c0.058-0.103,0.795-1.283,0.806-1.423l-2.686-1.35C117.788,58.441,117.206,60.067,116.672,60.839z"/>
			</g>
			<path fill="#FFBE9D" d="M112.4,67.1c0,0-0.435,0.593-0.721,0.739c-0.287,0.15-0.708,0.459-0.995,0.577
				c-0.286,0.121-0.852,1.48-0.673,1.648c0.179,0.166,1.274,0.453,1.932,0.131c0.629-0.308,0.394-0.73,0.548-0.985
				c0.386-0.636,1.015-1.383,1.015-1.383l-0.215-0.427L112.4,67.1z"/>
			<path fill="#FFBE9D" d="M123.161,48.33c-0.066,0.117-0.147,0.222-0.243,0.315c-0.002,0.002-0.005,0.003-0.007,0.008
				c-0.583,0.563-1.618,0.667-2.062,0.686c-0.1,0.002-0.17-0.083-0.152-0.181c0.038-0.184,0.051-0.519-0.106-1.036
				c-0.024-0.08-0.115-0.125-0.195-0.093c-0.751,0.279-1.465,0.417-1.918,0.238c-0.023-0.009-0.045-0.023-0.062-0.042
				c-0.319-0.343-0.589-0.757-0.815-1.213c-0.027-0.057-0.087-0.088-0.149-0.08c-0.211,0.027-0.51,0.034-0.574-0.139
				c-0.082-0.227,0.074-1.018,0.134-1.318c-0.001-0.011-0.007-0.023-0.008-0.034c0.011-0.218,0.076-0.491,0.007-0.756
				c-0.021-0.07-0.177-0.154-0.214-0.212c-0.33-0.513-0.469-1.213-0.511-1.459c-0.011-0.056,0.011-0.109,0.057-0.139
				c0.32-0.23,1.605-1.153,1.708-1.171c0.12-0.027,3.074-0.57,3.173-0.532c0.103,0.041,1.598,1.799,1.793,3.711
				c0.074,0.739-0.083,1.29-0.315,1.692h0.002C122.704,46.574,122.676,47.915,123.161,48.33z"/>
			<path fill="#389FE5" d="M118.511,54.722c0.524,0.638,2.616,1.347,3.487,1.408c0.487-1.267,2.074-5.349,0.308-6.057
				C120.354,49.289,119.182,52.319,118.511,54.722z"/>
			<path opacity="0.5" fill="#FFBE9D" enable-background="new    " d="M122.911,48.654c-0.583,0.563-1.617,0.667-2.062,0.686
				c-0.1,0.002-0.169-0.083-0.151-0.181c0.039-0.191,0.052-0.542-0.121-1.082c-0.021-0.063-0.001-0.127,0.047-0.167
				c0.125-0.1,0.375-0.308,0.593-0.554c0.094-0.103,0.264-0.034,0.259,0.105l-0.063,1.35c-0.004,0.08,0.055,0.148,0.136,0.155
				C121.832,48.988,122.484,48.994,122.911,48.654z"/>
			<path fill="#153351" d="M116.608,43.709c1.071,0.613,2.877,0.008,3.331,0.275c0.454,0.265,0.622,1.382,0.829,1.419
				c0.222,0.039,0.171-0.301,0.146-0.709c-0.027-0.405-0.092-0.868,0.623-0.733c0.319,0.057,0.505,0.975,0.733,1.697
				c0.176,0.546,0.312,0.797,0.411,0.909c0.066,0.074,0.189,0.058,0.239-0.028c1.156-2.014,0.924-6.469-2.147-6.436
				c-0.03,0-0.063-0.012-0.088-0.031c-0.175-0.137-0.932-0.678-1.895-0.575c-0.006,0.001-0.014,0-0.021,0.001
				c-0.874,0.091-3.464,0.961-3.913,1.827C114.325,42.341,116.054,43.388,116.608,43.709z"/>
		</g>
		<g>
			<g opacity="0.6">
				<g>
					<g>
						<polyline fill="#389FE5" points="124.918,38.926 123.617,39.62 124.267,37.927 						"/>
					</g>
					<circle fill="#389FE5" cx="126.206" cy="36.763" r="2.75"/>
				</g>
			</g>
			<path opacity="0.5" fill="#FFFFFF" enable-background="new    " d="M127.73,37.043c0.031-0.114,0.047-0.234,0.047-0.355
				c0-0.115-0.015-0.228-0.042-0.335l-0.253,0.03c-0.03-0.13-0.08-0.25-0.148-0.364l0.201-0.159
				c-0.058-0.102-0.132-0.197-0.219-0.286c-0.034-0.033-0.069-0.065-0.105-0.095c-0.01-0.01-0.02-0.016-0.029-0.022
				c-0.041-0.034-0.083-0.061-0.128-0.088l-0.16,0.199c-0.012-0.006-0.025-0.015-0.039-0.021c-0.015-0.01-0.029-0.018-0.045-0.026
				c-0.086-0.047-0.179-0.082-0.276-0.105l0.029-0.256c-0.115-0.03-0.234-0.047-0.357-0.047c-0.115,0-0.227,0.015-0.333,0.042
				l0.029,0.253c-0.129,0.03-0.252,0.079-0.362,0.146l-0.16-0.2c-0.102,0.057-0.197,0.129-0.285,0.218
				c-0.08,0.081-0.151,0.169-0.208,0.264l0.199,0.159c-0.068,0.107-0.121,0.231-0.155,0.358l-0.253-0.026
				c-0.029,0.114-0.046,0.232-0.046,0.356c0,0.114,0.013,0.227,0.04,0.333l0.253-0.03c0.029,0.132,0.079,0.252,0.147,0.366
				l-0.2,0.156c0.06,0.103,0.131,0.199,0.219,0.286c0.083,0.082,0.17,0.15,0.264,0.208l0.158-0.199
				c0.11,0.068,0.232,0.12,0.361,0.155l-0.026,0.252c0.114,0.03,0.232,0.047,0.357,0.047c0.115,0,0.225-0.012,0.332-0.041
				l-0.029-0.25c0.131-0.03,0.253-0.081,0.366-0.146l0.158,0.197c0.102-0.059,0.196-0.132,0.285-0.218
				c0.081-0.083,0.149-0.17,0.206-0.264l-0.198-0.159c0.07-0.11,0.121-0.231,0.154-0.361L127.73,37.043z M127.011,36.712
				c-0.013,0.424-0.358,0.768-0.781,0.781c-0.467,0.016-0.848-0.366-0.833-0.834c0.013-0.422,0.358-0.766,0.78-0.782
				C126.644,35.864,127.028,36.244,127.011,36.712z"/>
		</g>
	</g>
</g>
</svg>
