<?xml version="1.0" encoding="utf-8"?>
<!-- Generator: Adobe Illustrator 16.0.0, SVG Export Plug-In . SVG Version: 6.00 Build 0)  -->
<!DOCTYPE svg PUBLIC "-//W3C//DTD SVG 1.1//EN" "http://www.w3.org/Graphics/SVG/1.1/DTD/svg11.dtd">
<svg version="1.1" id="Layer_1" xmlns="http://www.w3.org/2000/svg" xmlns:xlink="http://www.w3.org/1999/xlink" x="0px" y="0px"
	 width="316.832px" height="102.404px" viewBox="0 0 316.832 102.404" enable-background="new 0 0 316.832 102.404"
	 xml:space="preserve">
<g enable-background="new    ">
	<path fill="#1D3766" d="M119.826,26.384c0.357-0.057,0.708-0.094,1.047-0.112c0.34-0.02,0.688-0.028,1.047-0.028
		c0.32,0,0.651,0.01,0.991,0.028c0.339,0.02,0.688,0.057,1.047,0.112V36.94c0,1.15,0.042,2.137,0.127,2.958
		c0.085,0.819,0.255,1.5,0.509,2.038c0.255,0.537,0.613,0.934,1.076,1.188c0.462,0.255,1.062,0.382,1.797,0.382
		s1.33-0.127,1.783-0.382s0.807-0.65,1.062-1.188c0.255-0.538,0.425-1.219,0.51-2.038c0.085-0.821,0.127-1.808,0.127-2.958V26.384
		c0.377-0.057,0.735-0.094,1.075-0.112c0.34-0.02,0.671-0.028,0.99-0.028c0.34,0,0.685,0.01,1.033,0.028
		c0.35,0.02,0.703,0.057,1.062,0.112v11.436c0,1.377-0.112,2.637-0.34,3.778c-0.226,1.142-0.632,2.117-1.217,2.929
		s-1.368,1.438-2.349,1.883c-0.981,0.442-2.228,0.665-3.736,0.665c-1.51,0-2.755-0.223-3.736-0.665
		c-0.98-0.443-1.765-1.071-2.349-1.883c-0.585-0.812-0.991-1.787-1.217-2.929c-0.227-1.143-0.339-2.401-0.339-3.778V26.384
		L119.826,26.384z"/>
	<path fill="#1D3766" d="M137.825,32.1c0.265-0.057,0.528-0.1,0.793-0.127c0.264-0.028,0.557-0.042,0.877-0.042
		s0.604,0.014,0.85,0.042c0.246,0.027,0.5,0.07,0.764,0.127c0.058,0.095,0.109,0.23,0.156,0.41c0.047,0.181,0.09,0.367,0.127,0.565
		c0.038,0.198,0.071,0.393,0.101,0.58c0.027,0.188,0.052,0.35,0.069,0.481c0.15-0.283,0.351-0.565,0.596-0.85
		s0.538-0.538,0.878-0.765c0.339-0.228,0.721-0.41,1.146-0.552c0.425-0.143,0.901-0.213,1.43-0.213c2.282,0,3.745,0.868,4.388,2.604
		c0.377-0.698,0.91-1.307,1.599-1.825c0.689-0.519,1.563-0.778,2.618-0.778c1.66,0,2.882,0.457,3.665,1.372
		c0.783,0.916,1.175,2.346,1.175,4.288v9.313c-0.679,0.112-1.349,0.17-2.009,0.17c-0.662,0-1.331-0.058-2.01-0.17v-8.266
		c0-1.019-0.128-1.802-0.383-2.349s-0.77-0.821-1.542-0.821c-0.321,0-0.639,0.048-0.948,0.143c-0.313,0.095-0.594,0.27-0.851,0.522
		c-0.254,0.255-0.462,0.614-0.622,1.076s-0.24,1.063-0.24,1.797v7.896c-0.68,0.112-1.35,0.17-2.01,0.17s-1.33-0.058-2.01-0.17
		v-8.266c0-1.019-0.128-1.802-0.382-2.349c-0.255-0.547-0.77-0.821-1.543-0.821c-0.32,0-0.641,0.048-0.962,0.143
		s-0.608,0.278-0.863,0.552c-0.255,0.274-0.458,0.656-0.607,1.146c-0.151,0.491-0.228,1.133-0.228,1.926v7.67
		c-0.68,0.112-1.35,0.17-2.01,0.17s-1.33-0.058-2.01-0.17L137.825,32.1L137.825,32.1z"/>
	<path fill="#1D3766" d="M167.118,35.158h-1.84l-0.142-0.566l5.293-6.765h0.65V32.1h3.424c0.057,0.282,0.095,0.538,0.113,0.765
		c0.02,0.227,0.028,0.463,0.028,0.708c0,0.264-0.01,0.519-0.028,0.764c-0.02,0.245-0.058,0.521-0.113,0.821h-3.424v5.745
		c0,0.585,0.047,1.057,0.142,1.415c0.095,0.357,0.23,0.642,0.41,0.849c0.179,0.208,0.401,0.351,0.665,0.425
		c0.264,0.075,0.575,0.113,0.934,0.113c0.283,0,0.563-0.022,0.836-0.07c0.273-0.047,0.515-0.09,0.722-0.128
		c0.133,0.358,0.227,0.731,0.283,1.118c0.056,0.388,0.085,0.731,0.085,1.033c0,0.208-0.006,0.382-0.015,0.523
		c-0.01,0.142-0.023,0.277-0.042,0.409c-0.869,0.207-1.766,0.313-2.688,0.313c-1.718,0-3.028-0.4-3.935-1.203
		c-0.905-0.802-1.358-2.108-1.358-3.92V35.158L167.118,35.158z"/>
	<path fill="#1D3766" d="M177.251,35.158h-1.896c-0.057-0.245-0.1-0.505-0.127-0.778c-0.028-0.272-0.043-0.532-0.043-0.777
		c0-0.511,0.058-1.011,0.17-1.501h5.83v14.633c-0.68,0.113-1.34,0.17-1.979,0.17c-0.623,0-1.273-0.057-1.953-0.17L177.251,35.158
		L177.251,35.158z M176.656,29.638c-0.113-0.643-0.17-1.273-0.17-1.896c0-0.604,0.057-1.235,0.17-1.896
		c0.32-0.058,0.665-0.101,1.032-0.129c0.368-0.027,0.702-0.042,1.006-0.042c0.319,0,0.67,0.015,1.047,0.042
		c0.377,0.028,0.727,0.071,1.047,0.129c0.057,0.319,0.095,0.637,0.112,0.946c0.021,0.313,0.029,0.628,0.029,0.948
		c0,0.303-0.01,0.613-0.029,0.935c-0.019,0.32-0.057,0.643-0.112,0.963c-0.32,0.057-0.664,0.095-1.033,0.112
		c-0.367,0.02-0.712,0.028-1.033,0.028c-0.301,0-0.641-0.01-1.018-0.028C177.325,29.733,176.977,29.695,176.656,29.638z"/>
	<path fill="#1D3766" d="M184.043,32.1c0.265-0.057,0.528-0.1,0.792-0.127c0.265-0.028,0.557-0.042,0.878-0.042
		s0.604,0.014,0.849,0.042c0.246,0.027,0.5,0.07,0.766,0.127c0.057,0.095,0.107,0.23,0.154,0.41
		c0.048,0.181,0.091,0.367,0.129,0.565c0.037,0.198,0.07,0.393,0.099,0.58c0.029,0.188,0.053,0.35,0.071,0.481
		c0.149-0.283,0.349-0.565,0.595-0.85c0.244-0.283,0.537-0.538,0.877-0.765c0.34-0.228,0.722-0.41,1.146-0.552
		c0.425-0.143,0.9-0.213,1.43-0.213c2.281,0,3.745,0.868,4.388,2.604c0.377-0.698,0.91-1.307,1.599-1.825
		c0.689-0.518,1.563-0.778,2.618-0.778c1.66,0,2.881,0.457,3.664,1.372c0.783,0.916,1.176,2.346,1.176,4.288v9.313
		c-0.68,0.112-1.35,0.17-2.01,0.17c-0.661,0-1.33-0.058-2.01-0.17v-8.266c0-1.019-0.127-1.802-0.382-2.349s-0.77-0.821-1.542-0.821
		c-0.322,0-0.639,0.048-0.949,0.143c-0.312,0.095-0.594,0.27-0.849,0.522c-0.256,0.255-0.463,0.614-0.622,1.076
		c-0.161,0.462-0.241,1.063-0.241,1.797v7.896c-0.679,0.112-1.35,0.17-2.009,0.17c-0.661,0-1.331-0.058-2.011-0.17v-8.266
		c0-1.019-0.128-1.802-0.383-2.349c-0.254-0.547-0.769-0.821-1.542-0.821c-0.32,0-0.642,0.048-0.962,0.143
		c-0.321,0.095-0.608,0.278-0.863,0.552c-0.256,0.274-0.458,0.656-0.608,1.146c-0.15,0.491-0.228,1.133-0.228,1.926v7.67
		c-0.679,0.112-1.349,0.17-2.009,0.17c-0.661,0-1.33-0.058-2.01-0.17V32.1z"/>
	<path fill="#1D3766" d="M211.014,40.648c0.076,1.132,0.474,1.953,1.189,2.462c0.717,0.51,1.66,0.765,2.83,0.765
		c0.641,0,1.297-0.062,1.967-0.185c0.67-0.122,1.307-0.297,1.91-0.523c0.208,0.378,0.387,0.831,0.538,1.358
		c0.15,0.529,0.234,1.095,0.255,1.698c-1.473,0.565-3.133,0.85-4.981,0.85c-1.357,0-2.522-0.189-3.495-0.566
		s-1.765-0.899-2.377-1.569s-1.065-1.468-1.358-2.393s-0.438-1.935-0.438-3.027c0-1.076,0.151-2.085,0.453-3.028
		s0.75-1.765,1.345-2.463c0.595-0.697,1.33-1.249,2.207-1.655c0.877-0.405,1.9-0.607,3.07-0.607c1.02,0,1.926,0.18,2.718,0.536
		c0.792,0.359,1.467,0.851,2.023,1.473c0.556,0.623,0.977,1.363,1.259,2.222c0.283,0.859,0.426,1.779,0.426,2.76
		c0,0.358-0.015,0.713-0.043,1.063s-0.062,0.628-0.1,0.835h-9.397V40.648z M216.76,37.846c-0.038-0.906-0.288-1.638-0.75-2.193
		c-0.463-0.557-1.108-0.835-1.938-0.835c-0.943,0-1.66,0.265-2.15,0.792c-0.49,0.528-0.783,1.272-0.877,2.236H216.76z"/>
	<path fill="#1D3766" d="M227.657,32.073c0.264-0.057,0.522-0.095,0.776-0.113c0.255-0.019,0.543-0.027,0.863-0.027
		c0.528,0,1.066,0.057,1.613,0.169c0.057,0.095,0.107,0.23,0.155,0.411c0.048,0.18,0.095,0.371,0.142,0.579s0.086,0.41,0.113,0.608
		c0.028,0.198,0.053,0.363,0.07,0.495c0.169-0.302,0.377-0.599,0.622-0.893c0.246-0.292,0.543-0.552,0.894-0.777
		c0.348-0.228,0.739-0.41,1.174-0.552c0.434-0.143,0.915-0.213,1.442-0.213c0.812,0,1.57,0.151,2.278,0.452
		c0.708,0.304,1.325,0.761,1.854,1.373c0.526,0.613,0.938,1.383,1.229,2.308c0.293,0.925,0.439,2.02,0.439,3.282
		c0,1.228-0.181,2.325-0.538,3.298c-0.358,0.973-0.878,1.798-1.558,2.477c-0.68,0.68-1.51,1.203-2.49,1.571
		c-0.98,0.367-2.095,0.552-3.341,0.552c-0.319,0-0.637-0.015-0.946-0.043c-0.313-0.028-0.571-0.063-0.779-0.099v6.51
		c-0.356,0.057-0.703,0.094-1.032,0.113c-0.331,0.019-0.654,0.027-0.977,0.027s-0.646-0.01-0.978-0.027
		c-0.33-0.021-0.675-0.058-1.031-0.113V32.073H227.657z M231.675,43.62c0.51,0.151,1.095,0.228,1.756,0.228
		c1.17,0,2.065-0.378,2.688-1.133c0.622-0.755,0.934-1.896,0.934-3.425c0-0.585-0.048-1.127-0.142-1.628
		c-0.095-0.499-0.254-0.929-0.48-1.287c-0.226-0.357-0.515-0.642-0.863-0.85c-0.35-0.207-0.778-0.313-1.287-0.313
		c-0.473,0-0.873,0.09-1.202,0.271c-0.331,0.18-0.601,0.425-0.808,0.734c-0.209,0.313-0.358,0.676-0.453,1.091
		c-0.096,0.415-0.143,0.858-0.143,1.33V43.62L231.675,43.62z"/>
	<path fill="#1D3766" d="M250.666,37.11c0-0.452-0.075-0.82-0.228-1.104c-0.151-0.283-0.357-0.505-0.622-0.665
		c-0.266-0.159-0.59-0.269-0.977-0.324c-0.387-0.057-0.816-0.085-1.288-0.085c-1.019,0-2.104,0.197-3.255,0.594
		c-0.264-0.49-0.463-0.952-0.594-1.387c-0.133-0.435-0.199-0.952-0.199-1.558c0.83-0.283,1.66-0.49,2.491-0.622
		c0.83-0.132,1.604-0.198,2.32-0.198c1.963,0,3.494,0.473,4.6,1.415c1.104,0.943,1.655,2.453,1.655,4.528v8.49
		c-0.66,0.208-1.463,0.406-2.405,0.595c-0.944,0.188-2.009,0.283-3.198,0.283c-0.963,0-1.844-0.085-2.646-0.255
		c-0.803-0.17-1.49-0.453-2.066-0.851c-0.575-0.396-1.018-0.904-1.33-1.527c-0.311-0.622-0.467-1.388-0.467-2.292
		c0-0.905,0.192-1.665,0.58-2.278c0.387-0.613,0.887-1.104,1.5-1.472c0.612-0.368,1.297-0.632,2.053-0.793
		c0.754-0.16,1.509-0.24,2.264-0.24c0.548,0,1.15,0.028,1.813,0.085L250.666,37.11L250.666,37.11z M250.666,40.025
		c-0.228-0.037-0.472-0.07-0.735-0.1c-0.266-0.027-0.5-0.043-0.708-0.043c-0.925,0-1.655,0.166-2.192,0.496
		c-0.538,0.33-0.808,0.863-0.808,1.6c0,0.49,0.104,0.868,0.313,1.132c0.207,0.265,0.457,0.458,0.75,0.58
		c0.292,0.123,0.604,0.198,0.934,0.227c0.33,0.029,0.617,0.043,0.863,0.043c0.283,0,0.565-0.022,0.85-0.07
		c0.283-0.048,0.527-0.09,0.735-0.127L250.666,40.025L250.666,40.025z"/>
	<path fill="#1D3766" d="M257.033,32.1c0.282-0.057,0.552-0.1,0.807-0.127c0.255-0.028,0.533-0.042,0.835-0.042
		c0.283,0,0.563,0.019,0.835,0.057c0.273,0.038,0.542,0.085,0.807,0.141c0.058,0.096,0.108,0.231,0.155,0.411
		s0.09,0.367,0.128,0.565c0.038,0.197,0.071,0.396,0.1,0.595c0.028,0.198,0.053,0.363,0.07,0.495
		c0.415-0.585,0.925-1.108,1.528-1.57c0.604-0.463,1.358-0.692,2.264-0.692c0.188,0,0.406,0.01,0.651,0.027
		c0.245,0.019,0.425,0.047,0.538,0.085c0.037,0.188,0.064,0.405,0.084,0.65s0.029,0.5,0.029,0.765c0,0.32-0.016,0.67-0.043,1.047
		c-0.028,0.378-0.08,0.735-0.156,1.075c-0.207-0.037-0.438-0.057-0.693-0.057c-0.254,0-0.41,0-0.467,0
		c-0.32,0-0.679,0.033-1.075,0.1c-0.396,0.066-0.773,0.24-1.132,0.523c-0.359,0.283-0.656,0.707-0.892,1.272
		c-0.236,0.566-0.354,1.358-0.354,2.377v6.963c-0.339,0.058-0.679,0.095-1.018,0.113c-0.34,0.02-0.671,0.028-0.991,0.028
		c-0.321,0-0.646-0.01-0.978-0.028c-0.329-0.02-0.675-0.057-1.032-0.113V32.1L257.033,32.1z"/>
	<path fill="#1D3766" d="M274.326,37.11c0-0.452-0.075-0.82-0.228-1.104c-0.151-0.283-0.357-0.505-0.621-0.665
		c-0.267-0.159-0.591-0.269-0.978-0.324c-0.387-0.057-0.816-0.085-1.288-0.085c-1.02,0-2.104,0.197-3.255,0.594
		c-0.265-0.49-0.463-0.952-0.594-1.387c-0.134-0.435-0.199-0.952-0.199-1.558c0.83-0.283,1.66-0.49,2.491-0.622
		c0.829-0.132,1.604-0.198,2.321-0.198c1.962,0,3.493,0.473,4.599,1.415c1.104,0.943,1.655,2.453,1.655,4.528v8.49
		c-0.66,0.208-1.462,0.406-2.405,0.595c-0.944,0.188-2.009,0.283-3.198,0.283c-0.963,0-1.844-0.085-2.646-0.255
		c-0.802-0.17-1.489-0.453-2.065-0.851c-0.575-0.396-1.019-0.904-1.33-1.527c-0.312-0.622-0.467-1.388-0.467-2.292
		c0-0.905,0.192-1.665,0.58-2.278c0.387-0.613,0.887-1.104,1.5-1.472c0.612-0.368,1.297-0.632,2.053-0.793
		c0.754-0.16,1.509-0.24,2.264-0.24c0.548,0,1.15,0.028,1.813,0.085L274.326,37.11L274.326,37.11z M274.326,40.025
		c-0.228-0.037-0.472-0.07-0.735-0.1c-0.266-0.027-0.5-0.043-0.708-0.043c-0.925,0-1.655,0.166-2.193,0.496
		c-0.537,0.33-0.807,0.863-0.807,1.6c0,0.49,0.104,0.868,0.313,1.132c0.207,0.265,0.457,0.458,0.75,0.58
		c0.292,0.123,0.604,0.198,0.934,0.227c0.33,0.029,0.617,0.043,0.863,0.043c0.283,0,0.566-0.022,0.85-0.07s0.527-0.09,0.735-0.127
		L274.326,40.025L274.326,40.025z"/>
</g>
<g enable-background="new    ">
	<path fill="#1D3766" d="M143.288,53.044c0.34-0.057,0.675-0.094,1.006-0.112c0.329-0.02,0.654-0.027,0.976-0.027
		c0.322,0,0.651,0.009,0.991,0.027c0.34,0.02,0.679,0.057,1.02,0.112v20.208c-0.889,0.266-1.788,0.468-2.703,0.608
		c-0.915,0.142-2.023,0.213-3.325,0.213c-1,0-1.958-0.138-2.873-0.41s-1.722-0.708-2.42-1.303c-0.698-0.594-1.25-1.362-1.655-2.308
		c-0.406-0.942-0.607-2.094-0.607-3.451c0-1.076,0.174-2.091,0.522-3.043s0.85-1.778,1.5-2.478c0.65-0.697,1.438-1.25,2.363-1.655
		c0.924-0.404,1.953-0.607,3.085-0.607c0.339,0,0.692,0.014,1.062,0.042c0.367,0.028,0.722,0.09,1.062,0.185v-6.001H143.288z
		 M143.288,62.13c-0.377-0.095-0.685-0.155-0.92-0.185c-0.235-0.028-0.533-0.042-0.892-0.042c-0.623,0-1.166,0.127-1.627,0.382
		c-0.463,0.255-0.846,0.595-1.146,1.02c-0.304,0.425-0.523,0.925-0.666,1.5c-0.142,0.575-0.212,1.175-0.212,1.798
		c0,0.772,0.095,1.429,0.282,1.967c0.188,0.537,0.448,0.967,0.778,1.288c0.33,0.319,0.722,0.552,1.174,0.692
		c0.453,0.142,0.943,0.213,1.474,0.213c0.319,0,0.612-0.016,0.877-0.044c0.264-0.027,0.557-0.089,0.877-0.184V62.13z"/>
	<path fill="#1D3766" d="M157.354,64.11c0-0.452-0.074-0.82-0.227-1.104c-0.15-0.282-0.357-0.505-0.622-0.665
		c-0.265-0.159-0.59-0.269-0.977-0.324c-0.388-0.057-0.816-0.085-1.288-0.085c-1.02,0-2.104,0.197-3.254,0.594
		c-0.266-0.49-0.464-0.952-0.596-1.387s-0.197-0.952-0.197-1.558c0.829-0.283,1.659-0.49,2.489-0.622s1.604-0.198,2.321-0.198
		c1.962,0,3.495,0.473,4.599,1.415c1.104,0.943,1.656,2.453,1.656,4.528v8.49c-0.66,0.208-1.463,0.406-2.406,0.595
		c-0.942,0.189-2.009,0.283-3.196,0.283c-0.963,0-1.846-0.085-2.646-0.255c-0.803-0.17-1.49-0.453-2.065-0.851
		c-0.576-0.396-1.02-0.904-1.33-1.527c-0.313-0.622-0.468-1.388-0.468-2.292c0-0.905,0.193-1.665,0.58-2.278
		c0.388-0.613,0.888-1.104,1.5-1.472c0.613-0.368,1.297-0.632,2.053-0.793c0.755-0.16,1.509-0.24,2.265-0.24
		c0.547,0,1.15,0.028,1.811,0.085L157.354,64.11L157.354,64.11z M157.354,67.025c-0.227-0.037-0.471-0.07-0.734-0.1
		c-0.265-0.028-0.5-0.043-0.708-0.043c-0.924,0-1.655,0.166-2.193,0.496c-0.537,0.33-0.807,0.863-0.807,1.6
		c0,0.49,0.104,0.868,0.312,1.132c0.208,0.265,0.458,0.458,0.75,0.58c0.292,0.123,0.604,0.198,0.936,0.227
		c0.331,0.029,0.616,0.043,0.862,0.043c0.283,0,0.565-0.022,0.85-0.07c0.283-0.048,0.527-0.09,0.734-0.127L157.354,67.025
		L157.354,67.025z"/>
	<path fill="#1D3766" d="M163.721,59.1c0.283-0.057,0.553-0.1,0.808-0.127c0.256-0.028,0.532-0.042,0.836-0.042
		c0.282,0,0.561,0.019,0.834,0.057c0.272,0.038,0.543,0.085,0.807,0.141c0.057,0.096,0.109,0.231,0.156,0.411
		s0.09,0.367,0.127,0.565c0.038,0.197,0.071,0.396,0.1,0.595c0.029,0.199,0.052,0.363,0.07,0.495
		c0.415-0.585,0.924-1.108,1.529-1.57c0.604-0.463,1.356-0.692,2.264-0.692c0.188,0,0.405,0.01,0.65,0.027
		c0.245,0.02,0.425,0.047,0.537,0.085c0.038,0.188,0.065,0.405,0.085,0.65s0.028,0.5,0.028,0.765c0,0.32-0.015,0.67-0.042,1.047
		c-0.029,0.378-0.081,0.735-0.156,1.075c-0.207-0.037-0.438-0.057-0.692-0.057s-0.41,0-0.467,0c-0.321,0-0.681,0.033-1.076,0.1
		c-0.396,0.066-0.773,0.24-1.131,0.523c-0.359,0.283-0.656,0.707-0.894,1.272c-0.237,0.566-0.354,1.358-0.354,2.377v6.963
		c-0.34,0.058-0.681,0.095-1.02,0.113c-0.34,0.02-0.671,0.028-0.991,0.028c-0.319,0-0.646-0.01-0.977-0.028
		c-0.33-0.02-0.674-0.057-1.033-0.113L163.721,59.1L163.721,59.1z"/>
	<path fill="#1D3766" d="M181.948,67.365c-1.058-0.302-1.883-0.75-2.478-1.345c-0.594-0.595-0.891-1.485-0.891-2.674
		c0-1.435,0.514-2.558,1.542-3.368c1.027-0.812,2.429-1.218,4.203-1.218c0.734,0,1.462,0.066,2.179,0.198s1.443,0.33,2.18,0.594
		c-0.038,0.491-0.133,1.002-0.283,1.528c-0.149,0.528-0.329,0.991-0.536,1.387c-0.453-0.188-0.953-0.354-1.5-0.494
		c-0.549-0.143-1.123-0.213-1.728-0.213c-0.643,0-1.143,0.1-1.5,0.298c-0.358,0.197-0.538,0.515-0.538,0.947
		c0,0.415,0.128,0.707,0.382,0.877c0.256,0.17,0.618,0.331,1.091,0.481l1.612,0.481c0.527,0.15,1.005,0.335,1.431,0.552
		c0.424,0.217,0.786,0.485,1.09,0.807c0.301,0.321,0.537,0.717,0.707,1.188c0.17,0.471,0.254,1.047,0.254,1.727
		c0,0.698-0.146,1.35-0.438,1.953c-0.293,0.604-0.718,1.127-1.272,1.57c-0.559,0.442-1.232,0.793-2.024,1.048
		c-0.792,0.254-1.688,0.382-2.688,0.382c-0.453,0-0.868-0.015-1.246-0.043c-0.377-0.028-0.74-0.075-1.089-0.142
		c-0.351-0.066-0.693-0.146-1.033-0.24c-0.339-0.094-0.708-0.217-1.104-0.368c0.038-0.509,0.127-1.023,0.27-1.542
		c0.142-0.52,0.326-1.023,0.552-1.515c0.623,0.245,1.212,0.43,1.769,0.552c0.558,0.123,1.138,0.185,1.741,0.185
		c0.266,0,0.552-0.022,0.863-0.07s0.599-0.133,0.863-0.255c0.264-0.122,0.484-0.282,0.665-0.48c0.18-0.198,0.269-0.457,0.269-0.778
		c0-0.453-0.137-0.777-0.41-0.977c-0.273-0.198-0.654-0.372-1.146-0.523L181.948,67.365z"/>
	<path fill="#1D3766" d="M190.778,59.1c0.68-0.112,1.35-0.169,2.01-0.169s1.33,0.057,2.01,0.169v7.755
		c0,0.773,0.061,1.411,0.184,1.911s0.313,0.896,0.566,1.188c0.254,0.293,0.57,0.5,0.947,0.623c0.378,0.122,0.82,0.184,1.331,0.184
		c0.697,0,1.281-0.065,1.755-0.197V59.1c0.679-0.112,1.34-0.169,1.979-0.169c0.66,0,1.33,0.057,2.011,0.169v14.065
		c-0.604,0.208-1.4,0.411-2.393,0.608c-0.99,0.198-2.022,0.298-3.099,0.298c-0.963,0-1.888-0.076-2.773-0.228
		c-0.888-0.149-1.666-0.472-2.336-0.962s-1.203-1.208-1.599-2.15c-0.396-0.943-0.596-2.198-0.596-3.766V59.1H190.778z"/>
	<path fill="#1D3766" d="M206.034,59.073c0.264-0.057,0.522-0.095,0.776-0.113c0.255-0.019,0.543-0.027,0.863-0.027
		c0.528,0,1.066,0.057,1.613,0.169c0.057,0.095,0.107,0.23,0.155,0.411c0.048,0.18,0.095,0.371,0.142,0.579s0.086,0.41,0.113,0.608
		c0.028,0.198,0.053,0.363,0.07,0.495c0.169-0.302,0.377-0.599,0.622-0.893c0.246-0.292,0.543-0.552,0.894-0.777
		c0.348-0.228,0.739-0.41,1.174-0.552c0.434-0.143,0.915-0.213,1.442-0.213c0.812,0,1.57,0.151,2.278,0.452
		c0.708,0.304,1.325,0.761,1.854,1.373c0.526,0.613,0.938,1.383,1.229,2.308c0.293,0.925,0.439,2.02,0.439,3.282
		c0,1.228-0.181,2.325-0.538,3.298c-0.358,0.973-0.878,1.798-1.558,2.477c-0.68,0.68-1.51,1.203-2.49,1.571
		c-0.98,0.367-2.095,0.552-3.341,0.552c-0.319,0-0.637-0.015-0.946-0.043c-0.313-0.028-0.571-0.063-0.779-0.099v6.51
		c-0.357,0.057-0.703,0.094-1.032,0.113c-0.331,0.019-0.654,0.027-0.977,0.027s-0.646-0.01-0.978-0.027
		c-0.33-0.021-0.675-0.058-1.031-0.113V59.073H206.034z M210.052,70.62c0.51,0.151,1.095,0.228,1.756,0.228
		c1.17,0,2.065-0.378,2.688-1.133c0.622-0.755,0.934-1.896,0.934-3.425c0-0.585-0.048-1.127-0.142-1.628
		c-0.094-0.499-0.254-0.929-0.48-1.287c-0.226-0.357-0.515-0.642-0.862-0.85c-0.351-0.207-0.779-0.313-1.288-0.313
		c-0.473,0-0.873,0.09-1.202,0.271c-0.331,0.18-0.601,0.425-0.808,0.734c-0.209,0.313-0.358,0.676-0.452,1.091
		c-0.097,0.415-0.144,0.858-0.144,1.33V70.62z"/>
	<path fill="#1D3766" d="M227.938,74.073c-1.188,0-2.221-0.194-3.099-0.58c-0.877-0.387-1.604-0.925-2.179-1.613
		c-0.576-0.688-1.011-1.495-1.304-2.42s-0.438-1.925-0.438-3c0-1.076,0.146-2.085,0.438-3.027c0.292-0.943,0.728-1.761,1.304-2.448
		c0.575-0.688,1.302-1.231,2.179-1.628c0.878-0.396,1.911-0.594,3.099-0.594c1.189,0,2.228,0.197,3.113,0.594
		c0.887,0.396,1.623,0.938,2.209,1.628c0.584,0.688,1.019,1.505,1.301,2.448c0.283,0.942,0.426,1.951,0.426,3.027
		c0,1.075-0.143,2.075-0.426,3c-0.282,0.925-0.717,1.731-1.301,2.42c-0.586,0.688-1.322,1.228-2.209,1.613
		S229.128,74.073,227.938,74.073z M227.938,71.016c1.058,0,1.816-0.393,2.279-1.176c0.462-0.782,0.693-1.909,0.693-3.382
		c0-1.472-0.231-2.6-0.693-3.383c-0.463-0.782-1.223-1.174-2.279-1.174c-1.037,0-1.787,0.392-2.25,1.174
		c-0.462,0.783-0.692,1.911-0.692,3.383c0,1.473,0.23,2.6,0.692,3.382C226.151,70.625,226.901,71.016,227.938,71.016z"/>
	<path fill="#1D3766" d="M237.052,59.1c0.283-0.057,0.553-0.1,0.807-0.127c0.256-0.028,0.533-0.042,0.836-0.042
		c0.282,0,0.562,0.019,0.835,0.057c0.272,0.038,0.543,0.085,0.807,0.141c0.057,0.096,0.108,0.231,0.156,0.411
		c0.047,0.18,0.089,0.367,0.127,0.565c0.037,0.197,0.069,0.396,0.1,0.595c0.027,0.198,0.051,0.363,0.07,0.495
		c0.414-0.585,0.924-1.108,1.528-1.57c0.604-0.463,1.357-0.692,2.265-0.692c0.188,0,0.404,0.01,0.649,0.027
		c0.245,0.02,0.425,0.047,0.537,0.085c0.038,0.188,0.066,0.405,0.086,0.65c0.019,0.245,0.027,0.5,0.027,0.765
		c0,0.32-0.014,0.67-0.042,1.047c-0.028,0.378-0.081,0.735-0.155,1.075c-0.208-0.037-0.438-0.057-0.692-0.057
		c-0.256,0-0.41,0-0.467,0c-0.322,0-0.681,0.033-1.076,0.1c-0.396,0.067-0.773,0.24-1.132,0.523
		c-0.359,0.283-0.656,0.707-0.893,1.272c-0.236,0.566-0.354,1.358-0.354,2.377v6.963c-0.341,0.058-0.681,0.095-1.021,0.113
		c-0.34,0.02-0.67,0.028-0.99,0.028s-0.646-0.01-0.977-0.028c-0.33-0.02-0.675-0.057-1.033-0.113L237.052,59.1L237.052,59.1z"/>
	<path fill="#1D3766" d="M247.721,62.158h-1.84l-0.141-0.566l5.293-6.765h0.649V59.1h3.424c0.058,0.282,0.096,0.538,0.113,0.765
		c0.021,0.227,0.029,0.463,0.029,0.708c0,0.264-0.01,0.519-0.029,0.764c-0.019,0.245-0.057,0.521-0.113,0.821h-3.424v5.745
		c0,0.585,0.047,1.057,0.143,1.415c0.095,0.357,0.229,0.642,0.41,0.849c0.179,0.208,0.4,0.351,0.664,0.425
		c0.265,0.075,0.575,0.113,0.935,0.113c0.283,0,0.562-0.022,0.836-0.07c0.273-0.047,0.514-0.09,0.721-0.128
		c0.133,0.358,0.228,0.731,0.283,1.118s0.085,0.731,0.085,1.033c0,0.208-0.005,0.382-0.014,0.523
		c-0.011,0.142-0.024,0.277-0.042,0.409c-0.869,0.207-1.767,0.313-2.689,0.313c-1.717,0-3.027-0.4-3.934-1.203
		c-0.906-0.802-1.359-2.108-1.359-3.92V62.158z"/>
	<path fill="#1D3766" d="M260.26,67.648c0.075,1.132,0.472,1.953,1.188,2.462c0.717,0.51,1.659,0.765,2.83,0.765
		c0.642,0,1.297-0.062,1.968-0.185c0.669-0.122,1.306-0.297,1.91-0.523c0.208,0.378,0.387,0.831,0.537,1.358
		c0.15,0.529,0.235,1.095,0.255,1.698c-1.472,0.565-3.133,0.85-4.98,0.85c-1.359,0-2.523-0.189-3.496-0.566
		c-0.972-0.377-1.764-0.899-2.377-1.569s-1.066-1.468-1.358-2.393c-0.293-0.925-0.438-1.935-0.438-3.027
		c0-1.076,0.15-2.085,0.453-3.028c0.301-0.943,0.75-1.765,1.344-2.463c0.594-0.697,1.33-1.249,2.207-1.655
		c0.878-0.405,1.901-0.607,3.071-0.607c1.019,0,1.925,0.18,2.718,0.536c0.792,0.359,1.467,0.851,2.023,1.473
		c0.556,0.623,0.977,1.363,1.259,2.222c0.283,0.859,0.425,1.779,0.425,2.76c0,0.358-0.014,0.713-0.043,1.063
		c-0.027,0.35-0.062,0.628-0.099,0.835h-9.397V67.648z M266.005,64.846c-0.037-0.906-0.287-1.638-0.75-2.193
		s-1.108-0.835-1.938-0.835c-0.942,0-1.659,0.265-2.15,0.792c-0.49,0.528-0.783,1.272-0.877,2.236H266.005z"/>
</g>
<g>
	<circle fill="#B1B2BF" cx="57.934" cy="52.593" r="44.488"/>
	<path fill="#FFFFFF" d="M13.226,52.775c0,0,0.004-0.274,0.012-0.807c0.002-0.134,0.001-0.282,0.008-0.446
		c0.006-0.166,0.013-0.345,0.021-0.542c0.011-0.197,0.013-0.408,0.028-0.635c0.015-0.227,0.031-0.469,0.048-0.726
		c0.075-1.025,0.194-2.292,0.425-3.767c0.23-1.475,0.572-3.159,1.084-5.011c0.031-0.116,0.063-0.233,0.096-0.35
		c0.035-0.118,0.07-0.234,0.106-0.353c0.071-0.236,0.142-0.475,0.214-0.717c0.159-0.481,0.312-0.976,0.494-1.476
		c0.172-0.501,0.37-1.007,0.567-1.526c0.21-0.514,0.418-1.042,0.657-1.57c0.925-2.122,2.104-4.342,3.574-6.578
		c1.469-2.235,3.236-4.482,5.33-6.633c2.092-2.149,4.507-4.207,7.247-6.034c1.369-0.913,2.816-1.77,4.337-2.557
		c1.52-0.788,3.119-1.493,4.778-2.118c1.66-0.626,3.389-1.154,5.169-1.583c0.444-0.113,0.895-0.205,1.345-0.304
		c0.225-0.052,0.453-0.09,0.68-0.134c0.228-0.042,0.455-0.088,0.683-0.129c0.23-0.038,0.46-0.075,0.69-0.114l0.345-0.057
		l0.347-0.047c0.232-0.032,0.464-0.064,0.696-0.097c0.233-0.03,0.467-0.054,0.701-0.081c0.468-0.059,0.939-0.094,1.412-0.136
		c0.236-0.024,0.473-0.035,0.711-0.05c0.237-0.014,0.475-0.032,0.714-0.042c0.239-0.009,0.479-0.018,0.719-0.026l0.359-0.014
		l0.358-0.005c0.24-0.003,0.479-0.006,0.719-0.008c0.247,0,0.484,0.005,0.727,0.008c0.483,0.001,0.968,0.026,1.454,0.044
		c0.243,0.005,0.486,0.028,0.73,0.042c0.243,0.017,0.487,0.027,0.731,0.051c0.486,0.045,0.976,0.082,1.464,0.143
		c0.244,0.03,0.489,0.055,0.734,0.088c0.245,0.033,0.488,0.068,0.733,0.103c0.246,0.033,0.489,0.074,0.734,0.114
		c0.245,0.042,0.49,0.081,0.734,0.125c0.489,0.097,0.98,0.182,1.467,0.294c0.979,0.205,1.952,0.46,2.923,0.735
		c0.483,0.143,0.97,0.285,1.45,0.447c0.484,0.152,0.961,0.327,1.441,0.496c0.241,0.085,0.478,0.18,0.717,0.27l0.357,0.136
		c0.119,0.046,0.237,0.097,0.355,0.144c0.237,0.097,0.474,0.194,0.711,0.292c0.235,0.104,0.469,0.206,0.705,0.31
		c3.754,1.671,7.339,3.896,10.575,6.618c3.237,2.721,6.126,5.936,8.511,9.533c2.385,3.592,4.264,7.563,5.522,11.742
		c1.261,4.177,1.897,8.558,1.894,12.937c-0.005,4.378-0.651,8.757-1.92,12.931c-1.265,4.171-3.15,8.134-5.54,11.72
		c-2.389,3.585-5.28,6.79-8.517,9.499c-3.237,2.712-6.818,4.924-10.567,6.583c-0.236,0.105-0.471,0.206-0.704,0.307
		c-0.237,0.099-0.474,0.194-0.71,0.291c-0.118,0.048-0.236,0.098-0.354,0.141L73.9,94.384c-0.238,0.089-0.475,0.184-0.715,0.268
		c-0.48,0.168-0.956,0.342-1.438,0.49c-0.48,0.16-0.966,0.303-1.448,0.443c-0.969,0.272-1.939,0.525-2.917,0.729
		c-0.485,0.11-0.976,0.193-1.462,0.29c-0.245,0.042-0.489,0.08-0.732,0.123c-0.245,0.04-0.487,0.08-0.732,0.113
		c-0.245,0.032-0.488,0.066-0.732,0.099c-0.244,0.034-0.488,0.058-0.732,0.088c-0.487,0.059-0.976,0.094-1.461,0.139
		c-0.242,0.022-0.485,0.033-0.729,0.049c-0.243,0.013-0.485,0.035-0.727,0.042c-0.485,0.015-0.969,0.04-1.45,0.04
		c-0.241,0-0.48,0.008-0.721,0.008c-0.241-0.006-0.48-0.008-0.719-0.012l-0.36-0.007l-0.357-0.013
		c-0.239-0.008-0.477-0.017-0.715-0.028c-0.237-0.01-0.475-0.028-0.711-0.043c-0.237-0.016-0.473-0.029-0.709-0.049
		c-0.47-0.043-0.94-0.082-1.406-0.142c-0.234-0.026-0.467-0.05-0.699-0.082c-0.231-0.034-0.464-0.064-0.694-0.096l-0.346-0.05
		l-0.344-0.057c-0.229-0.041-0.457-0.077-0.687-0.115c-0.228-0.04-0.454-0.087-0.681-0.132c-0.227-0.041-0.453-0.082-0.677-0.132
		c-0.449-0.1-0.897-0.193-1.338-0.307c-1.774-0.432-3.494-0.96-5.146-1.588c-1.652-0.626-3.243-1.332-4.755-2.118
		c-1.513-0.789-2.953-1.646-4.314-2.555c-2.724-1.825-5.123-3.88-7.201-6.022s-3.832-4.385-5.29-6.608
		c-1.458-2.229-2.625-4.439-3.542-6.55c-0.235-0.527-0.442-1.053-0.65-1.563c-0.195-0.515-0.391-1.018-0.561-1.52
		c-0.18-0.495-0.331-0.987-0.487-1.469c-0.072-0.239-0.144-0.477-0.213-0.711c-0.035-0.118-0.07-0.234-0.104-0.352
		c-0.033-0.116-0.063-0.231-0.095-0.347c-0.505-1.845-0.841-3.518-1.067-4.985c-0.227-1.466-0.342-2.722-0.415-3.744
		c-0.016-0.254-0.03-0.494-0.045-0.719c-0.015-0.227-0.018-0.438-0.026-0.632c-0.008-0.195-0.015-0.375-0.021-0.538
		c-0.007-0.164-0.006-0.312-0.007-0.443c-0.006-0.529-0.01-0.802-0.01-0.802H13.226z M13.512,52.775c0,0,0.004,0.272,0.011,0.802
		c0.003,0.132,0.001,0.279,0.009,0.443c0.006,0.163,0.014,0.343,0.021,0.538c0.009,0.194,0.012,0.405,0.028,0.632
		c0.014,0.225,0.03,0.465,0.046,0.719c0.075,1.022,0.193,2.278,0.423,3.742c0.229,1.466,0.568,3.139,1.076,4.981
		c0.032,0.115,0.063,0.23,0.096,0.348c0.035,0.116,0.069,0.232,0.104,0.35c0.071,0.233,0.141,0.473,0.215,0.712
		c0.157,0.478,0.309,0.97,0.49,1.466c0.17,0.498,0.367,1.002,0.563,1.517c0.208,0.511,0.417,1.034,0.652,1.559
		c0.922,2.108,2.092,4.314,3.552,6.536c1.46,2.219,3.216,4.455,5.296,6.592c2.079,2.135,4.478,4.179,7.2,5.994
		c1.361,0.908,2.799,1.758,4.31,2.541c1.51,0.782,3.099,1.482,4.748,2.104c1.65,0.623,3.367,1.146,5.137,1.574
		c0.44,0.111,0.888,0.201,1.335,0.301c0.224,0.052,0.45,0.091,0.675,0.134c0.227,0.041,0.452,0.088,0.68,0.13
		c0.228,0.036,0.456,0.073,0.684,0.111l0.344,0.056l0.346,0.049c0.23,0.032,0.46,0.063,0.692,0.095
		c0.232,0.031,0.463,0.054,0.696,0.08c0.465,0.058,0.934,0.096,1.403,0.137c0.234,0.024,0.47,0.034,0.707,0.049
		s0.472,0.031,0.709,0.045c0.236,0.008,0.474,0.015,0.712,0.025l0.355,0.012l0.358,0.006c0.239,0.002,0.478,0.006,0.718,0.007
		c0.238,0,0.479-0.005,0.719-0.007c0.482-0.002,0.962-0.028,1.444-0.043c0.242-0.009,0.483-0.03,0.725-0.045
		c0.242-0.017,0.485-0.027,0.727-0.049c0.483-0.045,0.97-0.081,1.456-0.143c0.243-0.027,0.485-0.055,0.729-0.088
		c0.243-0.033,0.486-0.067,0.729-0.102c0.244-0.03,0.486-0.072,0.73-0.112c0.243-0.043,0.486-0.079,0.729-0.125
		c0.485-0.095,0.973-0.18,1.457-0.292c0.972-0.202,1.938-0.459,2.903-0.729c0.48-0.146,0.964-0.284,1.441-0.445
		c0.48-0.15,0.955-0.327,1.432-0.493c0.239-0.086,0.474-0.18,0.711-0.27l0.356-0.134c0.118-0.046,0.235-0.096,0.353-0.145
		c0.235-0.096,0.47-0.192,0.706-0.29c0.234-0.101,0.466-0.202,0.701-0.307c3.73-1.66,7.291-3.872,10.508-6.577
		c3.217-2.702,6.087-5.896,8.456-9.469c2.371-3.57,4.236-7.517,5.486-11.667c1.253-4.151,1.885-8.503,1.882-12.854
		c-0.005-4.351-0.646-8.701-1.908-12.847c-1.257-4.146-3.131-8.084-5.506-11.645c-2.374-3.563-5.246-6.748-8.462-9.439
		c-3.216-2.694-6.775-4.893-10.5-6.542c-0.232-0.102-0.465-0.204-0.699-0.305c-0.235-0.097-0.47-0.192-0.705-0.287
		c-0.118-0.048-0.234-0.097-0.352-0.143l-0.355-0.135c-0.237-0.089-0.472-0.181-0.711-0.267c-0.476-0.166-0.95-0.338-1.43-0.488
		c-0.476-0.159-0.958-0.298-1.438-0.441c-0.964-0.269-1.928-0.52-2.897-0.721c-0.483-0.111-0.97-0.193-1.454-0.288
		c-0.243-0.043-0.486-0.081-0.728-0.122c-0.242-0.041-0.484-0.081-0.728-0.113c-0.243-0.033-0.484-0.067-0.727-0.101
		c-0.243-0.031-0.485-0.055-0.728-0.084c-0.484-0.061-0.969-0.095-1.452-0.14c-0.241-0.021-0.483-0.031-0.724-0.048
		c-0.24-0.014-0.482-0.034-0.723-0.041c-0.481-0.016-0.96-0.041-1.44-0.041c-0.238-0.001-0.48-0.007-0.715-0.006
		c-0.24,0.003-0.479,0.006-0.718,0.01l-0.359,0.005l-0.354,0.014c-0.237,0.009-0.473,0.019-0.709,0.028
		c-0.235,0.01-0.471,0.029-0.707,0.043c-0.235,0.015-0.47,0.027-0.704,0.05c-0.468,0.042-0.935,0.08-1.397,0.138
		c-0.231,0.028-0.464,0.052-0.694,0.083c-0.23,0.032-0.461,0.065-0.689,0.097L51.231,9.05l-0.342,0.057
		c-0.228,0.038-0.455,0.076-0.682,0.114c-0.227,0.04-0.451,0.086-0.676,0.129c-0.226,0.044-0.45,0.083-0.674,0.135
		c-0.445,0.098-0.891,0.19-1.33,0.302c-1.762,0.43-3.471,0.956-5.113,1.579c-1.641,0.623-3.222,1.322-4.725,2.105
		c-1.502,0.781-2.933,1.632-4.286,2.538c-2.707,1.813-5.09,3.853-7.155,5.981c-2.065,2.13-3.807,4.357-5.256,6.57
		c-1.447,2.213-2.608,4.409-3.519,6.506c-0.235,0.522-0.439,1.044-0.646,1.552c-0.194,0.514-0.388,1.013-0.557,1.51
		c-0.179,0.493-0.329,0.982-0.484,1.457c-0.072,0.238-0.142,0.476-0.212,0.71c-0.034,0.116-0.069,0.232-0.103,0.348
		c-0.033,0.115-0.063,0.231-0.094,0.346c-0.501,1.831-0.836,3.494-1.06,4.95c-0.225,1.458-0.34,2.707-0.413,3.722
		c-0.016,0.253-0.03,0.493-0.044,0.715c-0.016,0.226-0.018,0.435-0.026,0.628s-0.015,0.371-0.021,0.535
		c-0.007,0.162-0.005,0.311-0.008,0.439c-0.006,0.527-0.01,0.798-0.01,0.798H13.512z"/>
	<circle fill="#CBEBFB" cx="96.45" cy="29.597" r="7.857"/>
	<circle fill="#CBEBFB" cx="77.421" cy="9.222" r="8.646"/>
	<circle fill="#CBEBFB" cx="41.042" cy="10.717" r="8.953"/>
	<circle fill="#069AA5" cx="20.502" cy="27.996" r="8.105"/>
	<circle fill="#069AA5" cx="100.187" cy="56.858" r="6.051"/>
	<circle fill="#082E3C" cx="46.403" cy="96.988" r="5.639"/>
	<circle fill="#CBEBFB" cx="97.402" cy="80.643" r="7.858"/>
	<circle fill="#CBEBFB" cx="23.555" cy="79.159" r="7.59"/>
	<circle fill="#CBEBFB" cx="15.857" cy="54.667" r="7.857"/>
	<g>
		<g>
			<circle fill="#069AA5" cx="79.802" cy="94.903" r="7.096"/>
		</g>
	</g>
	<g>
		<g>
			<path fill="#124B59" d="M77.362,3.148l-5.336,4.307c0.027,0.005,0.118,0.463,0.147,0.463l0.693,2.605l8.915-0.164l0.746-2.606
				c0.027,0,0.146-0.293,0.172-0.299L77.362,3.148z"/>
			<rect x="73.184" y="5.298" fill="#E0E0EA" width="8.514" height="4.827"/>
			<path fill="#FFFFFF" d="M72.032,10.985v2.833c0,0.255,0.206,0.461,0.461,0.461h9.772c0.254,0,0.461-0.207,0.461-0.461v-2.833
				c0-0.255-0.207-0.462-0.461-0.462h-0.231V5.212c0-0.155-0.157-0.279-0.35-0.279h-8.633c-0.193,0-0.35,0.125-0.35,0.279v5.311
				h-0.208C72.238,10.522,72.032,10.729,72.032,10.985z M81.377,5.787c0,0.221-0.226,0.4-0.506,0.4h-7.007
				c-0.28,0-0.506-0.18-0.506-0.4c0-0.222,0.227-0.4,0.506-0.4h7.007C81.151,5.387,81.377,5.565,81.377,5.787z M81.377,6.947
				c0,0.221-0.226,0.4-0.506,0.4h-7.007c-0.28,0-0.506-0.179-0.506-0.4c0-0.221,0.227-0.4,0.506-0.4h7.007
				C81.151,6.546,81.377,6.726,81.377,6.947z M81.377,8.106c0,0.221-0.226,0.4-0.506,0.4h-7.007c-0.28,0-0.506-0.179-0.506-0.4
				c0-0.22,0.227-0.4,0.506-0.4h7.007C81.151,7.706,81.377,7.886,81.377,8.106z M81.377,9.266c0,0.221-0.226,0.4-0.506,0.4h-7.007
				c-0.28,0-0.506-0.18-0.506-0.4c0-0.221,0.227-0.4,0.506-0.4h7.007C81.151,8.866,81.377,9.045,81.377,9.266z"/>
			<path fill="#F1B82B" d="M75.913,10.694l1.306,1.088c0.041,0.035,0.092,0.052,0.143,0.052c0.051,0,0.102-0.017,0.144-0.052
				l1.305-1.087l3.576,3.575c-0.035,0.01-0.069,0.022-0.107,0.022h-9.833c-0.039,0-0.073-0.013-0.11-0.022L75.913,10.694z"/>
			<path fill="#F1B82B" d="M71.999,7.588c0-0.047,0.013-0.091,0.027-0.133l3.542,2.951l-3.547,3.548
				c-0.009-0.036-0.022-0.071-0.022-0.109V7.588z"/>
			<path fill="#F1B82B" d="M82.698,7.453c0.014,0.043,0.027,0.086,0.027,0.134v6.256c0,0.039-0.013,0.074-0.022,0.11l-3.548-3.548
				L82.698,7.453z"/>
		</g>
	</g>
	<g>
		<g>
			<g>
				<path fill="#7D7D7D" d="M37.604,14.349l-0.578-0.996c-0.12-0.207-0.385-0.277-0.591-0.157l-1.632,0.948
					c0-0.696,0.356-1.373,1.001-1.748c0.5-0.29,1.072-0.338,1.585-0.186c0.104-0.044,0.202-0.107,0.285-0.195l2.445-2.543l0.001,0
					l1.726-1.796c0.091-0.096,0.154-0.205,0.194-0.32c-0.272-0.877,0.084-1.857,0.913-2.337c0.644-0.375,1.41-0.35,2.013-0.004
					l-1.633,0.948c-0.205,0.12-0.276,0.384-0.156,0.59l0.578,0.996c0.119,0.207,0.384,0.277,0.591,0.157l1.631-0.948
					c0,0.696-0.357,1.374-1.002,1.746c-0.5,0.291-1.071,0.339-1.586,0.188c-0.103,0.044-0.201,0.108-0.283,0.195l-2.446,2.544v0
					l-1.726,1.795c-0.091,0.095-0.155,0.204-0.194,0.32c0.271,0.877-0.085,1.856-0.914,2.338c-0.645,0.373-1.41,0.348-2.013,0.002
					l1.632-0.947C37.654,14.819,37.723,14.556,37.604,14.349z"/>
				<g>
					<path fill="#676665" d="M35.071,5.302l0.707-0.706l1.187,0.481l0.481,1.188l4.691,4.69c0.212,0.212,0.228,0.544,0.033,0.738
						c-0.195,0.195-0.525,0.18-0.738-0.033L36.74,6.97l-1.188-0.482L35.071,5.302z"/>
					<g>
						<path fill="#F1B82B" d="M44.949,16.237c0.32,0.32,0.815,0.341,1.107,0.049l0.706-0.706c0.293-0.291,0.271-0.788-0.049-1.107
							l-3.662-3.661c-0.319-0.32-0.815-0.342-1.107-0.049l-0.705,0.706c-0.292,0.292-0.271,0.788,0.048,1.107L44.949,16.237z"/>
						<g>
							<path fill="#D09C2A" d="M45.818,14.636c0.255,0.255,0.51,0.415,0.568,0.356l0.142-0.141c0.058-0.059-0.103-0.313-0.357-0.568
								l-2.929-2.93c-0.256-0.254-0.51-0.415-0.569-0.356l-0.14,0.141c-0.058,0.059,0.101,0.314,0.356,0.568L45.818,14.636z"/>
							<path fill="#D09C2A" d="M44.759,15.694c0.256,0.256,0.51,0.416,0.569,0.358l0.141-0.141c0.059-0.059-0.102-0.313-0.356-0.569
								l-2.931-2.929c-0.255-0.255-0.509-0.415-0.567-0.356l-0.142,0.141c-0.059,0.059,0.101,0.313,0.356,0.568L44.759,15.694z"/>
							<path fill="#D09C2A" d="M45.289,15.166c0.255,0.255,0.509,0.415,0.568,0.356l0.141-0.141
								c0.058-0.058-0.103-0.312-0.356-0.569l-2.931-2.928c-0.256-0.256-0.509-0.416-0.567-0.357l-0.143,0.141
								c-0.058,0.059,0.101,0.313,0.356,0.569L45.289,15.166z"/>
						</g>
					</g>
				</g>
			</g>
		</g>
	</g>
	<g>
		<path fill="#F1B82B" d="M26.575,29.107c0-0.094-0.005-0.165-0.018-0.284c-0.104-0.646-0.564-1.268-1.151-1.547
			c-0.286-0.131-0.599-0.203-0.915-0.201c-0.736,0.003-1.476-0.004-2.213,0.003c-0.613,0.015-1.208,0.317-1.579,0.803
			c-0.301,0.387-0.455,0.881-0.432,1.371c-0.021,0.425,0.079,0.86,0.307,1.223c0.353,0.59,1.023,0.979,1.714,0.985
			c0.096,0.017,0.207-0.024,0.291,0.036c0.495,0.348,0.991,0.695,1.489,1.039c0.173,0.127,0.446-0.04,0.398-0.254
			c-0.077-0.277-0.211-0.536-0.288-0.816c0.265-0.008,0.539,0.019,0.798-0.052c0.568-0.125,1.073-0.506,1.353-1.016
			C26.548,30.008,26.6,29.574,26.575,29.107z"/>
		<g>
			<g>
				<g>
					<path fill="#DE5036" d="M19.594,27.648c-0.282,0-0.512-0.22-0.53-0.498h-0.57c-0.018,0.278-0.247,0.498-0.529,0.498
						c-0.283,0-0.512-0.22-0.529-0.498h-0.571c-0.017,0.278-0.248,0.498-0.529,0.498c-0.282,0-0.513-0.22-0.529-0.498h-2.57
						c-0.005,0.201,0.002,0.402,0.01,0.601c0.056,1.021,0.705,1.98,1.625,2.433c0.438,0.225,0.938,0.321,1.428,0.314
						c0.354,0.005,0.711-0.009,1.067,0.006c-0.214,0.608-0.445,1.209-0.669,1.815c0.853-0.593,1.703-1.188,2.553-1.786
						c0.024-0.012,0.047-0.033,0.077-0.033c0.257-0.013,0.518,0.017,0.772-0.034c-0.022-0.112-0.087-0.21-0.115-0.323
						c-0.134-0.38-0.124-0.789-0.11-1.182c-0.026-0.082,0.029-0.157,0.033-0.236c0.099-0.634,0.477-1.202,0.993-1.576h-0.776
						C20.105,27.427,19.876,27.648,19.594,27.648z"/>
				</g>
				<g>
					<path fill="#F05A37" d="M21.843,25.031c0.002-0.001,0.003-0.002,0.003-0.003c-0.001,0-0.003-0.001-0.004-0.002
						c-0.003-0.002-0.004-0.005-0.007-0.007c-0.006-0.005-0.01-0.012-0.015-0.019c-0.048-0.025-0.085-0.066-0.125-0.101
						c-0.542-0.482-1.271-0.732-1.995-0.728c-1.205,0.002-2.408,0-3.612,0.002c-0.32,0.023-0.642,0.07-0.94,0.193
						c-0.459,0.162-0.858,0.462-1.188,0.815c0-0.001,0-0.002,0-0.002c-0.001,0.002-0.003,0.003-0.004,0.005c0,0,0,0,0.001,0
						c-0.235,0.294-0.45,0.64-0.567,1c-0.111,0.31-0.148,0.636-0.156,0.964h2.57c-0.001-0.011-0.002-0.022-0.002-0.034
						c0-0.293,0.237-0.531,0.531-0.531c0.293,0,0.53,0.237,0.53,0.531c0,0.012,0,0.022-0.001,0.034h0.571
						c0-0.011-0.002-0.022-0.002-0.034c0-0.293,0.238-0.531,0.532-0.531s0.531,0.237,0.531,0.531c0,0.012,0,0.022-0.001,0.034h0.57
						c0-0.011-0.001-0.022-0.001-0.034c0-0.293,0.238-0.531,0.532-0.531c0.293,0,0.531,0.237,0.531,0.531
						c0,0.012,0,0.022-0.001,0.034h0.776c0.323-0.233,0.7-0.391,1.097-0.439c0.223-0.036,0.451-0.013,0.674-0.025
						C22.603,26.063,22.278,25.478,21.843,25.031z"/>
				</g>
			</g>
		</g>
	</g>
	<g>
		<g>
			<g>
				<circle fill="#069AA5" cx="23.015" cy="78.857" r="5.261"/>
				<circle fill="#F6F7F7" cx="23.015" cy="78.857" r="4.561"/>
				<g>
					<g>
						<path fill="#0B3654" d="M25.817,78.674c0.045-0.046,0.071-0.113,0.063-0.184c-0.015-0.117-0.124-0.201-0.243-0.188
							l-2.681,0.321c-0.12,0.015-0.205,0.122-0.191,0.242c0.014,0.121,0.124,0.205,0.243,0.189l2.681-0.318
							C25.74,78.728,25.784,78.707,25.817,78.674z"/>
						<path fill="#0B3654" d="M23.059,78.995c0.051-0.052,0.068-0.129,0.037-0.187l-1.746-3.232c-0.038-0.07-0.13-0.088-0.208-0.042
							c-0.075,0.05-0.106,0.145-0.068,0.213l1.746,3.231c0.038,0.072,0.13,0.089,0.207,0.042
							C23.039,79.012,23.05,79.005,23.059,78.995z"/>
					</g>
				</g>
				<g>
					<g>
						<path fill="#0B3654" d="M20.915,82.495c0.005-0.005,0.008-0.01,0.011-0.014l2.462-4.182c0.03-0.053,0.012-0.118-0.04-0.147
							c-0.052-0.031-0.117-0.015-0.149,0.037l-2.461,4.179c-0.03,0.054-0.013,0.12,0.039,0.15
							C20.823,82.547,20.882,82.536,20.915,82.495z"/>
					</g>
				</g>
				<g>
					<path fill="#0B3654" d="M25.32,80.586"/>
					<circle fill="#0B3654" cx="23.016" cy="75.31" r="0.245"/>
					<circle fill="#0B3654" cx="23.016" cy="82.4" r="0.245"/>
					<circle fill="#0B3654" cx="19.47" cy="78.916" r="0.245"/>
					<circle fill="#0B3654" cx="26.561" cy="78.916" r="0.245"/>
					<path fill="#0B3654" d="M21.094,75.823c0,0.075,0.061,0.137,0.134,0.137c0.075,0,0.136-0.062,0.136-0.137
						c0-0.072-0.061-0.133-0.136-0.133C21.155,75.69,21.094,75.751,21.094,75.823z"/>
					<circle fill="#0B3654" cx="19.933" cy="77.151" r="0.135"/>
					<path fill="#0B3654" d="M19.812,80.643c0,0.074,0.061,0.137,0.135,0.137c0.075,0,0.135-0.063,0.135-0.137
						c0-0.072-0.06-0.132-0.135-0.132C19.873,80.511,19.812,80.571,19.812,80.643z"/>
					<circle fill="#0B3654" cx="21.249" cy="81.946" r="0.134"/>
					<circle fill="#0B3654" cx="24.736" cy="81.954" r="0.135"/>
					<path fill="#0B3654" d="M25.91,80.653c0,0.071,0.06,0.133,0.136,0.133c0.074,0,0.134-0.062,0.134-0.133
						c0-0.076-0.061-0.135-0.134-0.135C25.97,80.518,25.91,80.577,25.91,80.653z"/>
					<circle fill="#0B3654" cx="26.038" cy="77.151" r="0.135"/>
					<circle fill="#0B3654" cx="24.736" cy="75.842" r="0.135"/>
				</g>
			</g>
		</g>
	</g>
	<g>
		<path fill="#FFFFFF" d="M43.973,94.913l0.628,0.214c0,0,1.224-0.628,1.77-0.53c0.546,0.102,1.704,0.398,1.902,0.761
			c0.198,0.367,0.479,1.325,0,1.292c-0.48-0.034-0.694-0.794-0.694-0.894s-1.108,0.082-1.108,0.082s-1.406,0.53-2.399,1.539
			c0,0-0.71-0.231-0.793-0.528L43.973,94.913z"/>
		<path fill="#FFFFFF" d="M48.713,98.469c0.087,0.18,0.293,0.26,0.458,0.176l0,0c0.166-0.081,0.229-0.291,0.142-0.47l-0.107-0.215
			c-0.086-0.178-0.292-0.257-0.458-0.176l0,0c-0.165,0.08-0.228,0.292-0.142,0.471L48.713,98.469z"/>
		<path fill="#FFFFFF" d="M48.082,98.915c0.099,0.202,0.323,0.296,0.502,0.209l0,0c0.177-0.088,0.24-0.321,0.142-0.526l-0.12-0.245
			c-0.099-0.2-0.324-0.294-0.501-0.205l0,0c-0.177,0.086-0.241,0.32-0.142,0.521L48.082,98.915z"/>
		<path fill="#FFFFFF" d="M47.415,99.279c0.104,0.212,0.332,0.311,0.51,0.226l0,0c0.178-0.087,0.237-0.331,0.134-0.541l-0.125-0.255
			c-0.104-0.21-0.333-0.313-0.51-0.226l0,0c-0.177,0.09-0.238,0.33-0.134,0.542L47.415,99.279z"/>
		<g>
			<path fill="#FFFFFF" d="M46.788,99.738c0.104,0.214,0.332,0.314,0.509,0.229l0,0c0.178-0.09,0.237-0.331,0.134-0.54l-0.125-0.257
				c-0.104-0.212-0.333-0.313-0.51-0.228l0,0c-0.178,0.09-0.238,0.333-0.134,0.542L46.788,99.738z"/>
			<g>
				<g>
					<g>
						<path fill="#FFFFFF" d="M43.923,97.673l1.328-1.058l1.231-0.634l0.925-0.109c0,0,0.439,1.114,1.001,0.915
							c0.562-0.198,0.025-1.497,0.025-1.497l0.929-0.395l0.794,1.953l-0.513,0.438c-0.137,0.181-0.279,0.347-0.425,0.5
							c-0.088-0.091-0.207-0.146-0.333-0.146c-0.066,0-0.129,0.013-0.188,0.044c-0.144,0.07-0.229,0.213-0.242,0.365
							C48.391,98.02,48.32,98,48.245,98c-0.067,0-0.131,0.017-0.191,0.046c-0.142,0.069-0.228,0.21-0.247,0.365
							c-0.075-0.045-0.16-0.07-0.246-0.07c-0.066,0-0.129,0.012-0.187,0.043c-0.167,0.082-0.255,0.266-0.245,0.462
							c-0.062-0.028-0.127-0.043-0.195-0.043c-0.066,0-0.128,0.013-0.187,0.04c-0.226,0.113-0.309,0.408-0.193,0.669
							c-0.097,0.06-0.396,0.229-0.548,0.146c-0.182-0.101-0.198-0.363-0.198-0.363s-0.347,0.231-0.612,0
							c-0.265-0.23-0.116-0.396-0.116-0.396s-0.38,0.166-0.546,0c-0.166-0.165-0.115-0.396-0.115-0.396s-0.231,0.163-0.497-0.166
							C43.658,98.004,43.923,97.673,43.923,97.673z"/>
					</g>
				</g>
			</g>
		</g>
	</g>
	<g>
		<g>
			<g>
				<path fill="#F05A37" d="M93.549,84.101c0.008-0.024,0.013-0.045,0.022-0.067c0.037-0.077,0.088-0.143,0.159-0.192
					c0.342-0.234,0.685-0.47,1.029-0.706c0.139-0.093,0.281-0.185,0.425-0.275c0.089-0.056,0.188-0.093,0.293-0.103
					c0.05-0.006,0.098,0,0.143,0.026c0.175,0.111,0.353,0.218,0.53,0.326c0.01,0.004,0.02,0.013,0.035,0.021
					c-0.826,0.579-1.649,1.153-2.475,1.729c-0.004-0.013-0.007-0.021-0.009-0.027c-0.039-0.154-0.078-0.309-0.115-0.463
					c-0.016-0.061-0.028-0.12-0.043-0.183C93.545,84.161,93.547,84.132,93.549,84.101z"/>
			</g>
			<g>
				<path fill="#F05A37" d="M98.918,77.805c-0.019,0.239-0.043,0.477-0.068,0.716c-0.008,0.078-0.022,0.157-0.036,0.235
					c-0.007,0.043-0.029,0.061-0.07,0.061c-0.028,0-0.057-0.002-0.084-0.009c-0.067-0.017-0.129-0.048-0.189-0.081
					c-0.072-0.043-0.144-0.087-0.198-0.152c-0.057-0.066-0.109-0.141-0.163-0.21c-0.014-0.018-0.018-0.033-0.016-0.055
					c0.048-0.634,0.097-1.268,0.143-1.901c0.004-0.06,0.025-0.112,0.065-0.155c0.021-0.021,0.042-0.041,0.063-0.06
					c0.128-0.101,0.273-0.167,0.432-0.207c0.042-0.011,0.085-0.015,0.128-0.023c0.039,0.002,0.075,0.005,0.113,0.007
					c0.008,0.006,0.016,0.012,0.025,0.017c-0.001,0.008-0.001,0.019-0.002,0.025C99.013,76.608,98.968,77.207,98.918,77.805z"/>
			</g>
			<path fill="#069AA5" d="M96.612,83.479c0.116,0.046,0.236,0.067,0.359,0.062c0.17-0.008,0.316-0.074,0.439-0.191
				c0.067-0.065,0.123-0.139,0.177-0.214c0.2-0.275,0.381-0.559,0.561-0.848c0.437-0.698,0.858-1.407,1.272-2.119
				c0.013-0.024,0.025-0.047,0.034-0.07c0.048-0.119,0.077-0.241,0.087-0.369c0.011-0.152-0.011-0.3-0.077-0.44
				c-0.067-0.138-0.167-0.245-0.293-0.33c-0.038-0.024-0.076-0.049-0.116-0.072c0.001-0.015,0.001-0.027,0.003-0.042
				c0.009-0.104,0.019-0.211,0.028-0.317c0.029-0.306,0.057-0.613,0.084-0.922c0.018-0.199,0.036-0.398,0.053-0.598
				c0.03-0.321,0.059-0.645,0.089-0.969c0.001-0.012,0.003-0.026,0.005-0.037c0.006-0.002,0.009-0.004,0.014-0.004
				c0.009,0,0.02,0.002,0.03,0.004c0.166,0.021,0.329,0.055,0.49,0.102c0.295,0.089,0.573,0.215,0.818,0.403
				c0.429,0.329,0.65,0.768,0.684,1.305c0.003,0.052,0.008,0.106,0.013,0.159c-0.007,0.107-0.014,0.215-0.02,0.322
				c-0.004,0.016-0.008,0.029-0.009,0.043c-0.018,0.147-0.032,0.296-0.05,0.444c-0.023,0.183-0.045,0.366-0.075,0.55
				c-0.004,0.023-0.009,0.05-0.013,0.076c-0.037,0.218-0.077,0.433-0.122,0.648c-0.053,0.263-0.12,0.521-0.195,0.774
				c-0.007,0.024-0.013,0.046-0.02,0.068c-0.006,0.017-0.012,0.037-0.018,0.055c-0.109,0.355-0.236,0.701-0.396,1.037
				c-0.116,0.245-0.246,0.485-0.406,0.703c-0.3,0.405-0.61,0.798-0.941,1.176c-0.236,0.269-0.482,0.527-0.745,0.769
				c-0.091,0.082-0.184,0.163-0.28,0.243c-0.271,0.225-0.555,0.427-0.866,0.591c-0.289,0.155-0.591,0.271-0.915,0.32
				c-0.105,0.018-0.212,0.027-0.32,0.02c-0.119-0.012-0.24-0.018-0.359-0.023c-0.033-0.003-0.064-0.007-0.096-0.018
				c-0.315-0.097-0.624-0.218-0.921-0.363c-0.213-0.104-0.418-0.224-0.611-0.36c-0.012-0.009-0.021-0.016-0.035-0.027
				c0.806-0.558,1.607-1.11,2.408-1.665C96.443,83.406,96.525,83.449,96.612,83.479z"/>
			<path fill="#F05A37" d="M91.299,80.889c0,3.562,2.888,6.45,6.451,6.45c3.562,0,6.451-2.889,6.451-6.45s-2.889-6.452-6.451-6.452
				C94.187,74.437,91.299,77.328,91.299,80.889z M91.869,80.889c0-3.249,2.633-5.882,5.881-5.882c3.247,0,5.88,2.633,5.88,5.882
				c0,3.247-2.634,5.88-5.88,5.88C94.502,86.769,91.869,84.136,91.869,80.889z"/>
		</g>
	</g>
	<g>
		<path fill="#F1B82B" d="M80.652,94.103c-0.151-0.166-0.374-0.212-0.495-0.103c-0.122,0.107-0.282,0.156-0.357,0.102
			c-0.076-0.057-0.251-0.304-0.201-0.461c0.05-0.155-0.084-0.341-0.298-0.41c-0.214-0.069-0.43,0.003-0.48,0.16
			c-0.05,0.155-0.167,0.274-0.261,0.266c-0.094-0.01-0.368-0.139-0.402-0.301c-0.034-0.158-0.242-0.251-0.461-0.202
			c-0.22,0.046-0.372,0.215-0.337,0.377c0.034,0.158-0.007,0.322-0.092,0.36c-0.085,0.038-0.389,0.063-0.499-0.06
			c-0.11-0.118-0.336-0.096-0.502,0.054c-0.167,0.152-0.213,0.374-0.104,0.496s0.154,0.282,0.1,0.358
			c-0.055,0.074-0.305,0.252-0.461,0.199c-0.155-0.05-0.339,0.087-0.408,0.299c-0.068,0.216,0.003,0.431,0.158,0.479
			c0.156,0.05,0.276,0.168,0.267,0.263c-0.009,0.095-0.139,0.368-0.299,0.401c-0.159,0.035-0.251,0.243-0.205,0.465
			c0.048,0.218,0.218,0.37,0.376,0.336c0.161-0.035,0.324,0.006,0.362,0.091c0.038,0.086,0.063,0.389-0.058,0.498
			c-0.122,0.109-0.098,0.337,0.054,0.502c0.151,0.168,0.374,0.216,0.495,0.105c0.122-0.111,0.283-0.153,0.358-0.102
			c0.076,0.054,0.251,0.305,0.201,0.462c-0.051,0.153,0.084,0.338,0.298,0.407c0.214,0.068,0.43-0.002,0.479-0.157
			c0.051-0.157,0.168-0.275,0.263-0.267c0.094,0.01,0.367,0.139,0.4,0.299c0.035,0.16,0.243,0.253,0.463,0.204
			c0.219-0.049,0.371-0.216,0.336-0.377c-0.035-0.16,0.007-0.321,0.092-0.359c0.086-0.039,0.389-0.063,0.498,0.057
			c0.11,0.121,0.336,0.097,0.503-0.053c0.167-0.151,0.214-0.375,0.104-0.496c-0.11-0.119-0.056-0.42-0.008-0.5
			c0.046-0.081,0.213-0.106,0.369-0.058c0.156,0.05,0.339-0.085,0.408-0.297c0.069-0.214-0.002-0.432-0.158-0.483
			c-0.156-0.047-0.275-0.166-0.266-0.261s0.138-0.365,0.298-0.399c0.16-0.035,0.252-0.244,0.205-0.464
			c-0.047-0.219-0.218-0.371-0.377-0.338c-0.16,0.036-0.322-0.006-0.36-0.09c-0.04-0.087-0.065-0.39,0.058-0.499
			C80.826,94.497,80.803,94.271,80.652,94.103z M80.047,96.736c-0.302,0.937-1.306,1.451-2.244,1.149
			c-0.937-0.301-1.452-1.307-1.15-2.243c0.301-0.938,1.306-1.453,2.243-1.149C79.834,94.795,80.348,95.797,80.047,96.736z"/>
		<path fill="#FFFFFF" d="M83.875,91.977c-0.098-0.107-0.24-0.137-0.317-0.067c-0.078,0.071-0.182,0.1-0.231,0.064
			s-0.16-0.196-0.128-0.296c0.031-0.102-0.054-0.22-0.192-0.263c-0.138-0.043-0.277,0.002-0.309,0.102
			c-0.033,0.1-0.108,0.177-0.169,0.17c-0.06-0.005-0.236-0.088-0.258-0.19c-0.022-0.105-0.155-0.164-0.297-0.133
			s-0.239,0.141-0.218,0.243c0.023,0.104-0.004,0.207-0.06,0.233c-0.054,0.023-0.249,0.038-0.319-0.038
			c-0.071-0.078-0.216-0.063-0.323,0.034c-0.106,0.096-0.137,0.24-0.066,0.318c0.071,0.077,0.101,0.182,0.064,0.23
			c-0.035,0.049-0.196,0.161-0.296,0.13c-0.1-0.034-0.218,0.053-0.262,0.19c-0.045,0.137,0.002,0.277,0.101,0.309
			c0.1,0.03,0.177,0.107,0.171,0.167c-0.006,0.061-0.089,0.237-0.192,0.26s-0.162,0.157-0.131,0.297
			c0.03,0.143,0.139,0.238,0.243,0.217c0.103-0.021,0.208,0.005,0.232,0.059c0.024,0.055,0.041,0.251-0.037,0.323
			c-0.078,0.068-0.063,0.215,0.035,0.32c0.097,0.107,0.239,0.139,0.318,0.066c0.078-0.07,0.182-0.1,0.229-0.064
			c0.05,0.037,0.163,0.198,0.13,0.297c-0.033,0.101,0.054,0.22,0.192,0.262c0.137,0.047,0.276,0,0.308-0.101
			c0.032-0.101,0.107-0.178,0.168-0.172s0.236,0.092,0.259,0.192c0.022,0.104,0.156,0.162,0.297,0.133
			c0.142-0.03,0.239-0.139,0.217-0.243c-0.021-0.104,0.005-0.208,0.06-0.231c0.055-0.025,0.249-0.04,0.32,0.038
			c0.071,0.077,0.216,0.062,0.323-0.036c0.106-0.097,0.137-0.237,0.066-0.316c-0.07-0.08-0.036-0.271-0.005-0.323
			c0.03-0.053,0.136-0.068,0.238-0.038c0.1,0.033,0.218-0.054,0.262-0.19c0.045-0.137-0.001-0.276-0.102-0.311
			c-0.1-0.031-0.177-0.107-0.17-0.167c0.006-0.061,0.089-0.236,0.192-0.258c0.104-0.021,0.162-0.156,0.132-0.299
			c-0.032-0.142-0.14-0.239-0.243-0.216c-0.102,0.022-0.208-0.004-0.232-0.06c-0.024-0.054-0.041-0.252,0.037-0.322
			C83.988,92.228,83.972,92.083,83.875,91.977z M83.486,93.67c-0.194,0.602-0.839,0.932-1.443,0.739
			c-0.603-0.193-0.934-0.84-0.74-1.444c0.194-0.602,0.839-0.933,1.443-0.739C83.349,92.42,83.68,93.065,83.486,93.67z"/>
		<path fill="#082E3C" d="M83.969,95.776c-0.075-0.083-0.185-0.105-0.245-0.052c-0.061,0.055-0.14,0.076-0.177,0.05
			c-0.037-0.027-0.125-0.149-0.099-0.227c0.024-0.077-0.041-0.168-0.147-0.203c-0.107-0.033-0.213,0.002-0.238,0.078
			c-0.025,0.077-0.083,0.138-0.129,0.131c-0.046-0.004-0.181-0.066-0.199-0.147c-0.017-0.077-0.119-0.123-0.228-0.102
			c-0.109,0.024-0.184,0.108-0.167,0.188c0.017,0.079-0.004,0.159-0.047,0.179c-0.042,0.019-0.192,0.03-0.246-0.028
			c-0.054-0.061-0.165-0.047-0.248,0.026c-0.083,0.074-0.106,0.183-0.052,0.244c0.054,0.062,0.077,0.14,0.05,0.177
			c-0.027,0.037-0.151,0.124-0.228,0.099c-0.078-0.022-0.168,0.042-0.203,0.148c-0.033,0.104,0.001,0.212,0.079,0.237
			c0.078,0.023,0.137,0.082,0.131,0.13c-0.004,0.045-0.068,0.181-0.147,0.198c-0.08,0.018-0.125,0.12-0.102,0.228
			c0.023,0.108,0.108,0.184,0.187,0.166c0.079-0.016,0.16,0.004,0.178,0.046c0.02,0.043,0.032,0.193-0.028,0.245
			c-0.06,0.057-0.047,0.169,0.027,0.25c0.074,0.083,0.185,0.106,0.245,0.053c0.06-0.055,0.139-0.078,0.177-0.05
			c0.037,0.025,0.123,0.148,0.098,0.226c-0.025,0.078,0.041,0.168,0.147,0.203c0.106,0.034,0.213-0.002,0.237-0.079
			c0.025-0.076,0.083-0.137,0.129-0.131c0.046,0.005,0.182,0.069,0.199,0.147c0.017,0.078,0.12,0.124,0.229,0.104
			c0.108-0.025,0.183-0.109,0.167-0.188c-0.018-0.078,0.002-0.158,0.044-0.178c0.043-0.02,0.193-0.031,0.247,0.027
			c0.054,0.063,0.166,0.05,0.249-0.025s0.105-0.186,0.051-0.245c-0.054-0.059-0.027-0.206-0.004-0.248
			c0.023-0.039,0.105-0.054,0.183-0.027c0.076,0.023,0.168-0.042,0.202-0.148c0.034-0.105-0.001-0.213-0.078-0.236
			c-0.077-0.027-0.136-0.083-0.131-0.13c0.004-0.046,0.069-0.182,0.148-0.198c0.078-0.018,0.125-0.121,0.101-0.229
			c-0.024-0.108-0.107-0.184-0.186-0.166c-0.08,0.016-0.16-0.004-0.179-0.047c-0.019-0.042-0.031-0.191,0.029-0.244
			C84.056,95.97,84.044,95.857,83.969,95.776z M83.671,97.077c-0.149,0.464-0.646,0.719-1.109,0.568
			c-0.463-0.147-0.719-0.646-0.569-1.109c0.149-0.462,0.645-0.719,1.109-0.567C83.565,96.115,83.82,96.613,83.671,97.077z"/>
	</g>
	<g>
		<g>
			<path fill="#114149" d="M12.382,55.473c-0.587,0-1.063-0.477-1.063-1.063c0-0.589,0.477-1.066,1.063-1.066h0.514v2.13H12.382z"/>
		</g>
		<path fill="#DA4643" d="M12.258,59.056c0,0.169,0.137,0.305,0.305,0.305l0,0c0.169,0,0.307-0.136,0.307-0.305v-9.294
			c0-0.169-0.138-0.306-0.307-0.306l0,0c-0.168,0-0.305,0.137-0.305,0.306V59.056z"/>
		<path fill="#DA4643" d="M19.331,52.497c1.055,0,1.911,0.855,1.911,1.913c0,1.056-0.856,1.91-1.911,1.91c-0.005,0-0.009,0-0.013,0
			L19.331,52.497z"/>
		<path fill="#114149" d="M19.229,56.326c0,0-0.795,3.427-1.32,3.506c-0.526,0.078-0.736-0.263-0.578-0.71
			c0.157-0.447,0.42-2.944,0.367-3.234c-0.052-0.289,1.62,0.435,1.62,0.435"/>
		<g>
			<g>
				<path fill="#FFFDF3" d="M18.492,52.492h0.737v3.832h-0.737c0,0-3.854-0.645-5.755,3.011v-4.892v-0.07v-4.889
					C14.638,53.137,18.492,52.492,18.492,52.492z"/>
			</g>
		</g>
		<path fill="#CBCAC7" d="M18.881,53.127c0,0-3.865,0.657-5.811-2.208c0,0,0.604,2.603,5.758,2.682L18.881,53.127z"/>
	</g>
	<g>
		<g>
			<g>
				<g>
					<path fill="#36495E" d="M91.273,33.428c0,0.361,0.285,0.653,0.637,0.653h8.789c0.353,0,0.637-0.292,0.637-0.653v-6.127
						c0-0.361-0.285-0.653-0.637-0.653H91.91c-0.352,0-0.637,0.292-0.637,0.653V33.428z"/>
					<rect x="91.733" y="27.282" fill="#F8FBF6" width="9.143" height="6.164"/>
					<g>
						<g>
							<g>
								<rect x="97.042" y="27.401" fill="#F26F5A" width="1.029" height="1.027"/>
							</g>
							<g>
								<rect x="95.773" y="27.401" fill="#F26F5A" width="1.027" height="1.027"/>
							</g>
							<g>
								<rect x="94.503" y="27.401" fill="#F26F5A" width="1.028" height="1.027"/>
							</g>
							<g>
								<rect x="91.964" y="27.401" fill="#F26F5A" width="1.028" height="1.027"/>
							</g>
							<g>
								<rect x="93.233" y="27.401" fill="#F26F5A" width="1.028" height="1.027"/>
							</g>
						</g>
					</g>
					<g>
						<g>
							<g>
								<rect x="99.582" y="28.624" fill="#F26F5A" width="1.028" height="1.027"/>
							</g>
							<g>
								<rect x="97.042" y="28.624" fill="#F26F5A" width="1.029" height="1.027"/>
							</g>
							<g>
								<rect x="98.313" y="28.624" fill="#F26F5A" width="1.027" height="1.027"/>
							</g>
							<g>
								<rect x="95.773" y="28.624" fill="#F26F5A" width="1.027" height="1.027"/>
							</g>
							<g>
								<rect x="94.503" y="28.624" fill="#F26F5A" width="1.028" height="1.027"/>
							</g>
							<g>
								<rect x="91.964" y="28.624" fill="#F26F5A" width="1.028" height="1.027"/>
							</g>
							<g>
								<rect x="93.233" y="28.624" fill="#F26F5A" width="1.028" height="1.027"/>
							</g>
						</g>
					</g>
					<g>
						<rect x="99.582" y="29.846" fill="#F26F5A" width="1.028" height="1.027"/>
						<rect x="97.042" y="29.846" fill="#87D5F7" width="1.029" height="1.027"/>
						<rect x="98.313" y="29.846" fill="#F26F5A" width="1.027" height="1.027"/>
						<rect x="95.773" y="29.846" fill="#F26F5A" width="1.027" height="1.027"/>
						<rect x="94.503" y="29.846" fill="#F26F5A" width="1.028" height="1.027"/>
						<rect x="91.964" y="29.846" fill="#F26F5A" width="1.028" height="1.027"/>
						<rect x="93.233" y="29.846" fill="#F26F5A" width="1.028" height="1.027"/>
					</g>
					<g>
						<g>
							<g>
								<rect x="99.582" y="31.068" fill="#F26F5A" width="1.028" height="1.028"/>
							</g>
							<g>
								<rect x="97.042" y="31.068" fill="#F26F5A" width="1.029" height="1.028"/>
							</g>
							<g>
								<rect x="98.313" y="31.068" fill="#F26F5A" width="1.027" height="1.028"/>
							</g>
							<g>
								<rect x="95.773" y="31.068" fill="#F26F5A" width="1.027" height="1.028"/>
							</g>
							<g>
								<rect x="94.503" y="31.068" fill="#F26F5A" width="1.028" height="1.028"/>
							</g>
							<g>
								<rect x="91.964" y="31.068" fill="#F26F5A" width="1.028" height="1.028"/>
							</g>
							<g>
								<rect x="93.233" y="31.068" fill="#F26F5A" width="1.028" height="1.028"/>
							</g>
						</g>
					</g>
					<g>
						<g>
							<g>
								<rect x="99.582" y="32.291" fill="#F26F5A" width="1.028" height="1.027"/>
							</g>
							<g>
								<rect x="97.042" y="32.291" fill="#F26F5A" width="1.029" height="1.027"/>
							</g>
							<g>
								<rect x="98.313" y="32.291" fill="#F26F5A" width="1.027" height="1.027"/>
							</g>
						</g>
					</g>
				</g>
				<g>
					<g>
						<path fill="#87D5F7" d="M98.694,26.902c0,0.129,0.134,0.233,0.3,0.233l0,0c0.167,0,0.302-0.104,0.302-0.233V26.27
							c0-0.128-0.134-0.234-0.302-0.234l0,0c-0.166,0-0.3,0.105-0.3,0.234V26.902z"/>
						<path fill="#87D5F7" d="M96.901,26.902c0,0.129,0.134,0.233,0.301,0.233l0,0c0.167,0,0.301-0.104,0.301-0.233V26.27
							c0-0.128-0.134-0.234-0.301-0.234l0,0c-0.167,0-0.301,0.105-0.301,0.234V26.902z"/>
						<path fill="#87D5F7" d="M95.107,26.902c0,0.129,0.135,0.233,0.301,0.233l0,0c0.167,0,0.302-0.104,0.302-0.233V26.27
							c0-0.128-0.135-0.234-0.302-0.234l0,0c-0.166,0-0.301,0.105-0.301,0.234V26.902z"/>
						<path fill="#87D5F7" d="M93.313,26.902c0,0.129,0.135,0.233,0.301,0.233l0,0c0.167,0,0.301-0.104,0.301-0.233V26.27
							c0-0.128-0.135-0.234-0.301-0.234l0,0c-0.167,0-0.301,0.105-0.301,0.234V26.902z"/>
					</g>
				</g>
			</g>
		</g>
	</g>
	<g>
		<path fill="#2C3D4F" d="M96.55,59.641c-0.25,0.256-0.248,0.664,0.004,0.913c0.127,0.125,0.293,0.188,0.458,0.187
			c0.165,0,0.331-0.063,0.456-0.189l3.172-3.202l0.003-0.004c0.475,0.152,1.017,0.037,1.392-0.34
			c0.357-0.361,0.472-0.868,0.346-1.326l-0.77,0.777l-0.76-0.199l-0.208-0.757l0.771-0.779c-0.458-0.121-0.965-0.002-1.324,0.358
			c-0.359,0.363-0.474,0.878-0.343,1.338L96.55,59.641z M96.707,60.198c0-0.136,0.108-0.245,0.245-0.247
			c0.135,0,0.247,0.109,0.248,0.245c0,0.137-0.109,0.249-0.245,0.249C96.818,60.445,96.708,60.335,96.707,60.198z"/>
		<path fill="#FFFFFF" d="M97.038,56.88l-0.031-1.11l1.094-0.03c0.065-0.4,0.207-0.771,0.417-1.1l-0.792-0.751l0.766-0.807
			l0.792,0.748c0.315-0.229,0.68-0.391,1.074-0.478l-0.029-1.091l1.112-0.03l0.03,1.092c0.398,0.067,0.77,0.208,1.098,0.418
			l0.751-0.793l0.808,0.767l-0.748,0.793c0.225,0.314,0.388,0.679,0.476,1.076l1.092-0.03l0.03,1.113l-1.091,0.029
			c-0.067,0.396-0.21,0.769-0.417,1.098l0.79,0.751l-0.764,0.808l-0.792-0.751c-0.316,0.228-0.68,0.392-1.075,0.478l0.03,1.093
			l-1.112,0.03l-0.03-1.093c-0.316-0.053-0.616-0.155-0.891-0.298l0.542-0.527c0.274,0.111,0.573,0.167,0.886,0.158
			c1.229-0.034,2.2-1.06,2.166-2.287c-0.035-1.229-1.058-2.201-2.288-2.164c-1.229,0.033-2.199,1.058-2.165,2.288
			c0.005,0.206,0.04,0.405,0.099,0.597l-0.531,0.581c-0.088-0.192-0.156-0.396-0.203-0.606L97.038,56.88z"/>
	</g>
	<g>
		<g>
			<g>
				<path fill="#0A333F" d="M44.283,77.41c-0.12-0.462-0.281-0.912-0.429-1.359c-0.178-0.436-0.352-0.865-0.554-1.265
					c-0.194-0.404-0.406-0.783-0.63-1.129c-0.204-0.353-0.452-0.659-0.663-0.943c-0.447-0.561-0.874-0.976-1.192-1.241
					c-0.324-0.262-0.528-0.38-0.528-0.38s0.14,0.192,0.352,0.537c0.105,0.173,0.229,0.382,0.366,0.627
					c0.142,0.238,0.271,0.527,0.436,0.824c0.14,0.313,0.307,0.636,0.456,0.995c0.162,0.351,0.297,0.737,0.454,1.125
					c0.161,0.39,0.268,0.815,0.424,1.227c0.112,0.431,0.262,0.853,0.367,1.29c0.097,0.422,0.224,0.837,0.305,1.257h1.161
					c-0.008-0.058-0.018-0.115-0.026-0.172C44.521,78.336,44.383,77.876,44.283,77.41z"/>
				<path fill="#0A333F" d="M73.021,76.966c0.155-0.41,0.263-0.837,0.424-1.223c0.156-0.391,0.292-0.777,0.454-1.129
					c0.149-0.36,0.316-0.683,0.456-0.993c0.164-0.298,0.293-0.587,0.436-0.825c0.135-0.246,0.26-0.453,0.365-0.629
					c0.213-0.343,0.351-0.535,0.351-0.535s-0.205,0.117-0.527,0.38c-0.32,0.265-0.747,0.682-1.194,1.238
					c-0.211,0.289-0.458,0.593-0.662,0.948c-0.224,0.346-0.437,0.723-0.631,1.127c-0.202,0.4-0.375,0.831-0.554,1.264
					c-0.146,0.447-0.309,0.897-0.428,1.362c-0.075,0.349-0.172,0.696-0.24,1.044h1.197c0.062-0.245,0.129-0.49,0.187-0.741
					C72.76,77.819,72.908,77.397,73.021,76.966z"/>
				<g>
					<path fill="#703D18" d="M43.235,40.676c0,0-0.498,11.619-3.335,15.781c0,0,15.508,9.549,36.688-0.285
						c0,0-3.971-6.146-2.742-14.277L43.235,40.676z"/>
					<rect x="52.372" y="54.743" fill="#FFFFFF" width="11.099" height="13.132"/>
					<polygon fill="#AEAEAF" points="52.355,61.646 63.797,55.236 52.352,52.612 					"/>
					<g>
						<path fill="#DFE5E1" d="M43.845,38.616c0,9.864,6.163,17.88,13.828,18.1V24.074C50.14,24.321,43.845,28.889,43.845,38.616z"/>
						<path fill="#FFFFFF" d="M58.316,24.063c-0.214,0-0.43,0.004-0.644,0.011v32.641c0.107,0.004,0.214,0.009,0.323,0.009
							c7.815,0,14.149-8.105,14.149-18.108C72.145,28.614,66.132,24.063,58.316,24.063z"/>
					</g>
					<path fill="#703D18" d="M63.793,29.65c0,0,1.46,6.938,9.131,8.4c0,0,3.286-18.625-13.514-18.625
						c-16.798,0-17.529,10.956-17.529,18.625C41.881,38.05,54.298,39.145,63.793,29.65z"/>
					<path fill="#FFFFFF" d="M70.719,39.752c-0.304,2.088,0.281,3.903,1.305,4.054c1.025,0.151,2.103-1.42,2.406-3.508
						c0.305-2.088-0.28-3.902-1.306-4.053C72.101,36.095,71.022,37.664,70.719,39.752z"/>
					
						<ellipse transform="matrix(0.9953 -0.0972 0.0972 0.9953 -3.6584 4.3763)" fill="#DFE5E1" cx="43.101" cy="39.748" rx="1.711" ry="3.749"/>
					<path fill="#2C5871" d="M67.723,70.548l-2.531,0.182l1.988,1.627l-3.122,6.618h7.213c0.068-0.347,0.165-0.694,0.24-1.045
						c0.119-0.462,0.281-0.913,0.428-1.356c0.179-0.438,0.352-0.868,0.554-1.269c0.194-0.404,0.407-0.782,0.631-1.127
						c0.204-0.355,0.451-0.658,0.662-0.944c0.448-0.56,0.874-0.977,1.194-1.241c0.322-0.263,0.527-0.38,0.527-0.38
						s-0.138,0.192-0.351,0.536c-0.105,0.175-0.23,0.386-0.365,0.627c-0.142,0.239-0.272,0.529-0.436,0.824
						c-0.14,0.313-0.307,0.638-0.456,0.997c-0.162,0.349-0.297,0.737-0.454,1.127c-0.162,0.389-0.27,0.813-0.424,1.225
						c-0.112,0.427-0.261,0.854-0.367,1.29c-0.057,0.246-0.125,0.492-0.187,0.736h7.699c-1.107-4.22-4.452-13.426-12.965-16.021
						l0.882,0.362L67.723,70.548z"/>
					<path fill="#2C5871" d="M43.139,77.718c-0.105-0.438-0.254-0.859-0.367-1.29c-0.156-0.411-0.263-0.837-0.424-1.227
						c-0.157-0.388-0.292-0.774-0.454-1.125c-0.149-0.359-0.316-0.683-0.456-0.995c-0.164-0.297-0.294-0.586-0.436-0.824
						c-0.136-0.245-0.261-0.454-0.366-0.627c-0.212-0.345-0.352-0.537-0.352-0.537s0.205,0.118,0.528,0.38
						c0.318,0.266,0.745,0.681,1.192,1.241c0.211,0.284,0.459,0.591,0.663,0.943c0.224,0.346,0.437,0.725,0.63,1.129
						c0.202,0.399,0.375,0.829,0.554,1.265c0.147,0.447,0.309,0.897,0.429,1.359c0.1,0.466,0.238,0.926,0.296,1.393
						c0.009,0.057,0.018,0.114,0.026,0.172h7.276l-3.869-6.618l2.171-1.809l-2.893-0.18l0.362-6.328l1.822-0.973
						c-3.258,0.884-11.831,4.289-13.846,15.907h7.815C43.364,78.554,43.236,78.139,43.139,77.718z"/>
					<g>
						<g>
							<g>
								<polygon fill="#A8D7E1" points="55.822,63.552 50.956,62.821 50.887,62.889 50.575,63.192 55.125,76.579 55.939,78.974 
									57.922,78.974 57.922,63.931 								"/>
							</g>
							<g>
								<polygon fill="#C6E8EE" points="64.809,62.13 60.269,64.356 57.922,63.931 57.922,78.974 60.494,78.974 61.129,76.579 
									64.586,63.527 64.934,62.314 								"/>
							</g>
						</g>
					</g>
					<polygon fill="#0A333F" points="68.084,63.315 67.201,62.953 65.011,62.052 64.934,62.314 64.586,63.527 61.126,75.544 
						60.138,78.974 61.281,78.974 64.058,78.974 67.18,72.356 65.192,70.729 67.723,70.548 					"/>
					<polygon fill="#0A333F" points="55.122,76.192 50.575,63.192 50.451,62.838 50.365,62.593 49.476,63.067 47.654,64.04 
						47.291,70.368 50.184,70.548 48.013,72.356 51.882,78.974 54.975,78.974 56.094,78.974 					"/>
					<polygon fill="#8CC2D6" points="52.354,60.965 57.96,64.04 53.111,70.477 50.365,62.593 					"/>
					<polygon fill="#8CC2D6" points="63.564,60.787 65.011,62.052 62.801,69.751 57.96,64.04 					"/>
				</g>
			</g>
			<g>
				<g>
					<g>
						<g>
							<g>
								<g>
									<path fill="#0A333F" d="M42.6,35.693c0,0,2.438-12.279,14.155-12.279c11.716,0,14.81,10.686,14.81,10.686l-1.781,0.188
										c0,0-2.906-8.061-12.702-8.061c-9.794,0-13.263,9.467-13.263,9.467H42.6z"/>
								</g>
								<g>
									<path fill="#2C5871" d="M70.253,35.037c0,0,1.125,9.56,0.844,10.217c0,0,3.749,0.562,3.843-2.437v-5.156
										c0,0-0.151-1.809-2.343-2.624h-1.969"/>
								</g>
								<g>
									<path fill="#0A333F" d="M59.901,50.733c0,0,8.29-0.649,11.665-4.601c0,0,0.839-0.595,1.437,0.595
										c0.595,1.191-8.284,5.195-13.101,5.412c0,0-0.217,0.866-2.598,0.922c-2.382,0.055-2.923-0.758-2.923-0.758
										s-1.137-1.299,0.216-2.22c1.353-0.92,2.486-0.56,2.486-0.56S59.413,49.651,59.901,50.733z"/>
								</g>
							</g>
						</g>
					</g>
				</g>
			</g>
		</g>
	</g>
</g>
</svg>
