<?xml version="1.0" encoding="utf-8"?>
<!-- Generator: Adobe Illustrator 16.0.0, SVG Export Plug-In . SVG Version: 6.00 Build 0)  -->
<!DOCTYPE svg PUBLIC "-//W3C//DTD SVG 1.1//EN" "http://www.w3.org/Graphics/SVG/1.1/DTD/svg11.dtd">
<svg version="1.1" id="Layer_1" xmlns="http://www.w3.org/2000/svg" xmlns:xlink="http://www.w3.org/1999/xlink" x="0px" y="0px"
	 width="316.832px" height="102.404px" viewBox="0 0 316.832 102.404" enable-background="new 0 0 316.832 102.404"
	 xml:space="preserve">
<g>
	<g>
		<g>
			<path fill="#EBEBEB" d="M35.605,17.869c-6.148,0.714-13.16,3.279-13.582,7.887c-0.168,1.835,0.801,3.644,0.708,5.481
				c-0.162,3.216-3.487,5.848-6.994,7.74c-3.507,1.894-7.488,3.441-10.119,6c-2.631,2.558-3.364,6.616-0.156,8.782
				c3.187,2.151,8.539,1.451,11.901,3.449c2.974,1.769,3.344,5.153,1.96,7.788c-1.383,2.635-4.127,4.723-6.686,6.818
				c-2.56,2.095-5.079,4.4-5.829,7.174c-1.426,5.271,4.364,10.475,11.25,12.146c6.884,1.672,14.407,0.633,21.367-0.857
				c6.959-1.491,13.88-3.438,21.122-3.564c9.542-0.166,18.582,2.829,27.632,5.08c11.918,2.965,24.877,4.698,37.043,2.354
				c8.144-1.569,15.457-4.868,22.636-8.125c6.725-3.05,13.689-6.272,17.876-11.229c4.186-4.956,4.629-12.179-1.17-16.14
				c-2.884-1.972-6.794-2.848-10.19-4.302c-3.397-1.454-6.565-3.999-6.062-6.886c0.375-2.155,2.662-3.8,4.315-5.594
				c5.738-6.222,3.676-15.254-3.154-20.836S132.083,13.005,121.922,13c-8.249-0.004-16.166,1.406-23.926,3.413
				c-6.632,1.714-13.437,3.674-20.572,3.586c-7.415-0.092-14.629-1.529-21.981-2.109C48.859,17.368,42.176,17.106,35.605,17.869z"/>
			<path fill="#E0E0E0" d="M43.598,21.646c-5.177,0.639-11.078,2.938-11.433,7.063c-0.142,1.646,0.674,3.265,0.596,4.911
				c-0.137,2.881-2.936,5.238-5.889,6.935c-2.952,1.695-6.303,3.083-8.518,5.375s-2.831,5.927-0.131,7.866
				c2.682,1.929,7.188,1.301,10.018,3.091c2.503,1.582,2.815,4.615,1.651,6.977c-1.165,2.36-3.476,4.229-5.628,6.107
				c-2.153,1.878-4.275,3.941-4.906,6.428c-1.2,4.721,3.674,9.382,9.469,10.88c5.795,1.497,12.129,0.565,17.987-0.771
				c5.858-1.335,11.684-3.079,17.78-3.191c8.031-0.148,15.641,2.533,23.259,4.551c10.032,2.656,20.94,4.209,31.182,2.108
				c6.855-1.405,13.01-4.361,19.053-7.278c5.661-2.731,11.524-5.619,15.048-10.058s3.896-10.909-0.983-14.458
				c-2.428-1.768-5.72-2.552-8.579-3.854c-2.86-1.302-5.526-3.583-5.103-6.167c0.316-1.931,2.24-3.404,3.633-5.011
				c4.832-5.574,3.095-13.665-2.654-18.665c-5.75-5-14.639-7.196-23.192-7.2c-6.942-0.003-13.606,1.26-20.14,3.057
				c-5.582,1.536-11.31,3.291-17.317,3.213c-6.24-0.082-12.313-1.37-18.504-1.892C54.754,21.198,49.129,20.963,43.598,21.646z"/>
			<path fill="#C2C2C2" d="M48.34,24.602c-4.438,0.548-9.501,2.519-9.805,6.059c-0.122,1.411,0.578,2.799,0.511,4.211
				c-0.116,2.471-2.517,4.493-5.049,5.947s-5.406,2.644-7.306,4.608c-1.9,1.966-2.428,5.085-0.113,6.748
				c2.3,1.652,6.165,1.115,8.592,2.649c2.147,1.358,2.414,3.96,1.416,5.984c-0.999,2.023-2.979,3.628-4.827,5.237
				c-1.847,1.61-3.667,3.383-4.208,5.512c-1.028,4.05,3.151,8.048,8.122,9.333c4.972,1.284,10.402,0.485,15.428-0.659
				c5.024-1.146,10.021-2.643,15.249-2.739c6.889-0.127,13.415,2.174,19.948,3.904c8.604,2.276,17.96,3.607,26.744,1.808
				c5.88-1.206,11.159-3.741,16.342-6.243c4.854-2.343,9.884-4.817,12.905-8.626c3.022-3.807,3.342-9.355-0.844-12.398
				c-2.083-1.517-4.905-2.188-7.357-3.306c-2.454-1.116-4.739-3.072-4.377-5.29c0.272-1.656,1.922-2.92,3.116-4.299
				c4.145-4.779,2.654-11.719-2.277-16.008c-4.931-4.289-12.555-6.171-19.891-6.174c-5.956-0.003-11.671,1.08-17.272,2.621
				c-4.788,1.317-9.701,2.823-14.854,2.755c-5.353-0.07-10.562-1.175-15.871-1.621C57.908,24.217,53.083,24.015,48.34,24.602z"/>
		</g>
		<circle fill="#EBEBEB" cx="157.657" cy="19.081" r="1.567"/>
		<circle fill="#EBEBEB" cx="161.314" cy="43.896" r="1.045"/>
		<circle fill="#EBEBEB" cx="167.583" cy="30.313" r="1.045"/>
		<circle fill="#EBEBEB" cx="134.801" cy="6.674" r="0.653"/>
		<circle fill="#EBEBEB" cx="16.869" cy="16.992" r="1.306"/>
		<circle fill="#EBEBEB" cx="11.253" cy="28.354" r="1.176"/>
		<circle fill="#EBEBEB" cx="-0.24" cy="40.891" r="2.22"/>
		<circle fill="#EBEBEB" cx="0.936" cy="61.657" r="1.306"/>
		<circle fill="#EBEBEB" cx="11.384" cy="66.097" r="0.522"/>
		<circle fill="#EBEBEB" cx="-0.893" cy="86.994" r="1.306"/>
		<circle fill="#EBEBEB" cx="13.474" cy="97.442" r="2.09"/>
		<circle fill="#EBEBEB" cx="149.56" cy="94.83" r="1.045"/>
		<circle fill="#EBEBEB" cx="160.269" cy="89.606" r="1.567"/>
		<circle fill="#EBEBEB" cx="173.852" cy="77.068" r="1.044"/>
		<circle fill="#EBEBEB" cx="172.677" cy="56.302" r="0.653"/>
		<circle fill="#EBEBEB" cx="96.405" cy="9.548" r="0.914"/>
		<circle fill="#EBEBEB" cx="47.952" cy="10.984" r="1.306"/>
		<path fill="#EBEBEB" d="M168.888,16.099L168.888,16.099c0.423,1.14,1.319,2.038,2.461,2.46l0,0l0,0
			c-1.142,0.421-2.038,1.319-2.461,2.459l0,0l0,0c-0.423-1.141-1.319-2.038-2.459-2.459l0,0l0,0
			C167.569,18.137,168.467,17.239,168.888,16.099L168.888,16.099z"/>
		<path fill="#EBEBEB" d="M169.281,44.309L169.281,44.309c0.31,0.837,0.97,1.497,1.807,1.806l0,0l0,0
			c-0.837,0.311-1.497,0.97-1.807,1.807l0,0l0,0c-0.311-0.837-0.971-1.497-1.808-1.807l0,0l0,0
			C168.31,45.806,168.97,45.146,169.281,44.309L169.281,44.309z"/>
		<path fill="#EBEBEB" d="M170.456,85.949L170.456,85.949c0.311,0.838,0.971,1.498,1.809,1.808l0,0l0,0
			c-0.838,0.31-1.498,0.971-1.809,1.809l0,0l0,0c-0.31-0.838-0.97-1.499-1.807-1.809l0,0l0,0
			C169.486,87.447,170.146,86.787,170.456,85.949L170.456,85.949z"/>
		<path fill="#EBEBEB" d="M108.29,5.76L108.29,5.76c0.311,0.838,0.97,1.498,1.808,1.808l0,0l0,0
			c-0.838,0.311-1.497,0.97-1.808,1.807l0,0l0,0c-0.31-0.837-0.97-1.497-1.807-1.807l0,0l0,0C107.32,7.258,107.98,6.597,108.29,5.76
			L108.29,5.76z"/>
		<path fill="#EBEBEB" d="M29.929,7.327L29.929,7.327c0.31,0.837,0.97,1.498,1.807,1.807l0,0l0,0
			c-0.837,0.311-1.498,0.971-1.807,1.808l0,0l0,0c-0.311-0.837-0.971-1.498-1.808-1.808l0,0l0,0
			C28.96,8.825,29.619,8.164,29.929,7.327L29.929,7.327z"/>
		<path fill="#EBEBEB" d="M1.719,28.223L1.719,28.223c0.31,0.837,0.97,1.498,1.807,1.807l0,0l0,0C2.689,30.34,2.029,31,1.719,31.837
			l0,0l0,0C1.409,31,0.749,30.34-0.088,30.03l0,0l0,0C0.749,29.721,1.409,29.061,1.719,28.223L1.719,28.223z"/>
		<path fill="#EBEBEB" d="M2.764,73.412L2.764,73.412c0.31,0.837,0.97,1.496,1.807,1.807l0,0l0,0
			c-0.837,0.311-1.498,0.972-1.807,1.809l0,0l0,0c-0.311-0.837-0.971-1.498-1.808-1.809l0,0l0,0
			C1.795,74.908,2.454,74.249,2.764,73.412L2.764,73.412z"/>
		<g>
			<g>
				<path fill="#E57F00" d="M111.832,28.696c-1.44-2.134-3.041-4.2-3.999-6.591c-0.957-2.392-1.188-5.233,0.104-7.461
					c-0.296,0.153-0.592,0.307-0.889,0.46c0.884-1.387,2.015-2.614,3.322-3.608c-0.214-0.099-0.429-0.197-0.643-0.296
					c0.964-0.377,2.029-0.49,3.052-0.326c0.659-0.462,1.574-0.768,2.372-0.871c-0.088,0.125-0.177,0.25-0.265,0.376
					c1.105-0.095,2.231,0.042,3.282,0.4c-0.131,0.146-0.263,0.292-0.395,0.437c1.041,0.813,1.966,1.771,2.741,2.836
					c-0.21,0.026-0.42,0.053-0.631,0.079c0.743,2.112,0.813,4.455,0.198,6.608c-0.807,2.828-2.748,5.301-3.132,8.217
					C115.295,29.654,112.838,30.185,111.832,28.696z"/>
				<polygon fill="#FFDCB4" points="121.135,26.569 126.481,18.263 124.518,8.525 126.905,7.953 130.681,18.454 127.245,25.423 				
					"/>
				<g>
					<path fill="#652C00" d="M108.337,96.229c-4.796,3.159-6.844,3.218-6.844,3.218s-0.702,0.818,1.112,0.877
						c1.813,0.059,8.075,0,8.075,0l0.452-1.989l-0.525-1.871L108.337,96.229z"/>
					<path fill="#532200" d="M101.36,99.796c0.008,0.23,0.24,0.496,1.245,0.528c1.813,0.059,8.075,0,8.075,0l0.119-0.528H101.36z"/>
				</g>
				<g>
					<path fill="#652C00" d="M118.958,96.054c-0.331-0.021-0.624,0.238-0.618,0.57c0.005,0.3-0.073,0.608-0.196,0.885
						c-0.212,0.473-0.542,0.882-0.812,1.322c-0.269,0.443-0.481,0.953-0.418,1.467c0.039-0.01,0.023,0.12,0.063,0.11h5.177
						c0.596-0.501,0.734-1.412,0.54-2.166c-0.194-0.753-0.661-1.402-1.119-2.032C120.75,96.169,119.828,96.106,118.958,96.054z"/>
					<path fill="#532200" d="M116.935,99.796c-0.031,0.166-0.042,0.334-0.021,0.504c0.039-0.01,0.023,0.12,0.063,0.11h5.177
						c0.197-0.166,0.34-0.379,0.441-0.614H116.935z"/>
				</g>
				<polygon fill="#633571" points="111.068,96.812 113.878,59.961 118.223,96.812 122.025,96.812 121.073,53.878 106.802,55.515 
					107.19,96.812 				"/>
				<path fill="#462452" d="M113.594,58.755c2.568-0.137,5.126-0.646,7.554-1.469l-0.059-2.642c-0.046-0.25-0.093-0.501-0.138-0.753
					l-14.151,1.624l0.033,3.433C109.079,59.149,111.362,59.094,113.594,58.755z"/>
				<path fill="#FFDCB4" d="M102.605,55.259c-0.003-0.088-0.045-0.169-0.106-0.241c0.078-5.188,1.071-10.119,2.771-14.799
					c-1.328-0.061-2.651-0.767-3.868-1.462c-0.642,5.346-0.961,10.74-0.925,16.197c0.003,0,0.007,0.001,0.01,0.001l-0.158,2.228
					c0,0,0.811,2.201,0.842,2.233c0.032,0.033,1.63,0.691,1.63,0.691s0.142-0.259,0.055-0.477c-0.086-0.216-0.907-0.862-0.907-0.862
					l-0.249-1.857c0,0,0.724-0.043,0.788,0.767c0.064,0.811,0.249,0.93,0.432,0.854c0.185-0.076,0.55-0.972,0.378-1.555
					C103.123,56.391,102.615,55.625,102.605,55.259z"/>
				<path fill="#FF924F" d="M121.517,46.14l0.013-0.312c0-0.604,0.005-1.209,0.019-1.811c0.024-0.175,0.055-0.347,0.08-0.521
					l0.366-8.624l6.823-9.878c-1.514-1.32-3.027-2.64-4.541-3.958c-2.727,2.989-6.544,4.958-10.56,5.45
					c-0.02-0.098-0.042-0.194-0.06-0.292c-0.002,0-0.004,0-0.006,0c-0.01,0-0.021,0-0.031,0v0.001
					c-1.968,0.039-3.929,0.333-5.822,0.874c-3.125,0.893-5.484,3.442-6.165,6.62c-0.404,1.897-0.757,3.802-1.058,5.711
					c1.593,0.695,3.324,1.403,5.063,1.463c0.097-0.205,0.192-0.41,0.294-0.614c0.436,5.369,0.147,11.075-0.387,16.436
					c2.634,0.645,5.385,0.925,8.105,0.79c0.03,0.002,0.061,0.003,0.091,0.003v0.006c0.03-0.002,0.062-0.002,0.091-0.003
					c0.03,0.001,0.062,0.001,0.09,0.003V57.48c0.031,0,0.062-0.001,0.092-0.003c2.721,0.135,5.472-0.146,8.104-0.79
					c-0.342-3.434-0.576-7.008-0.589-10.546L121.517,46.14z"/>
				<path fill="#EF7B41" d="M121.152,29.809c1.286-1.326,1.792-3.219,2.06-5.045c0.143-0.964,0.225-1.936,0.26-2.907
					c-2.648,2.526-6.118,4.186-9.754,4.631c-0.02-0.098-0.042-0.194-0.06-0.292c-0.002,0-0.004,0-0.006,0c-0.01,0-0.021,0-0.031,0
					v0.001c-1.537,0.031-3.07,0.219-4.568,0.557c1.1,1.6,2.458,3,4.167,3.888C115.747,31.955,119.167,31.856,121.152,29.809z"/>
				<g>
					<circle fill="#EAC29E" cx="108.985" cy="19.798" r="1.248"/>
					<circle fill="#EAC29E" cx="118.495" cy="19.798" r="1.248"/>
				</g>
				<path fill="#E5BD9B" d="M115.899,27.344L115.899,27.344c-1.177,0.9-2.808,0.917-4.001,0.04l-0.054-0.04v-4.99h4.055V27.344z"/>
				<path fill="#D1AC8D" d="M111.844,25.708c0.799,0.553,1.768,0.879,2.813,0.879c0.43,0,0.844-0.061,1.241-0.163v-4.071h-4.055
					V25.708z"/>
				<path fill="#D1AC8D" d="M111.844,22.353v0.555h2.99v4.978c0.376-0.112,0.738-0.292,1.064-0.542v-4.99H111.844z"/>
				<path fill="#FFDCB4" d="M113.871,26.032L113.871,26.032c-2.734,0-4.952-2.217-4.952-4.952l-0.089-3.038
					c0-2.734,2.217-4.952,4.952-4.952l0,0c2.734,0,4.951,2.218,4.951,4.952l0.089,3.038
					C118.823,23.815,116.606,26.032,113.871,26.032z"/>
				<path fill="#FDD1AB" d="M114.834,13.206c1.561,0.834,2.621,2.478,2.621,4.368l0.089,3.039c0,2.734-2.217,4.951-4.951,4.951l0,0
					c-0.36,0-0.713-0.041-1.052-0.114c0.695,0.372,1.488,0.583,2.33,0.583l0,0c2.734,0,4.951-2.217,4.951-4.952l-0.088-3.038
					C118.734,15.67,117.063,13.689,114.834,13.206z"/>
				<g>
					<ellipse fill="#554537" cx="111.264" cy="19.617" rx="0.377" ry="0.643"/>
					<ellipse fill="#554537" cx="116.615" cy="19.617" rx="0.377" ry="0.643"/>
				</g>
				<g>
					<g>
						<path fill="#554537" d="M112.427,18.637c-0.041,0-0.081-0.02-0.108-0.053c-0.237-0.292-0.571-0.471-0.917-0.491
							c-0.34-0.017-0.693,0.121-0.953,0.386c-0.055,0.054-0.143,0.055-0.198,0c-0.055-0.055-0.056-0.143-0.002-0.197
							c0.316-0.321,0.736-0.492,1.168-0.467c0.425,0.022,0.833,0.24,1.119,0.594c0.048,0.06,0.039,0.147-0.021,0.197
							C112.489,18.627,112.458,18.637,112.427,18.637z"/>
					</g>
					<g>
						<path fill="#554537" d="M115.52,18.637c0.041,0,0.081-0.02,0.107-0.053c0.237-0.292,0.571-0.471,0.918-0.491
							c0.339-0.017,0.693,0.121,0.953,0.386c0.056,0.054,0.144,0.055,0.198,0s0.055-0.143,0.001-0.197
							c-0.316-0.321-0.736-0.492-1.168-0.467c-0.425,0.022-0.833,0.24-1.119,0.594c-0.048,0.06-0.039,0.147,0.021,0.197
							C115.458,18.627,115.49,18.637,115.52,18.637z"/>
					</g>
				</g>
				<path fill="#FFDCB4" d="M127.001,10.244l-0.096-2.291l0.287-5.061c0,0-3.628-3.819-3.915-3.914
					c-0.286-0.097-1.432,2.959-1.432,2.959l1.813,3.818l0.859,2.769L127.001,10.244z"/>
				<path fill="#E57F00" d="M107.356,17.947c0.484,1.337,0.971,2.675,1.456,4.012c0.476-1.623,0.713-3.319,0.701-5.017
					c0.048,0.281,0.095,0.562,0.143,0.842c0.198-0.643,0.396-1.287,0.594-1.929c0.774,0.426,1.548,0.852,2.323,1.277
					c-0.105-0.366-0.21-0.732-0.315-1.101c0.877,0.492,1.754,0.985,2.631,1.477c-0.164-0.368-0.328-0.737-0.492-1.105
					c1.347,0.087,2.52,1.105,3.127,2.354c0.606,1.247,0.727,2.691,0.674,4.087c0.908-0.994,1.242-2.405,1.173-3.771
					c-0.068-1.367-0.562-2.681-1.227-3.863c-0.511-0.906-1.139-1.762-1.962-2.371c-0.825-0.607-1.869-0.948-2.866-0.762
					c-0.942,0.177-1.746,0.792-2.511,1.389c-0.775,0.604-1.556,1.213-2.213,1.952C107.931,16.156,107.554,16.963,107.356,17.947z"/>
			</g>
			<path opacity="0.1" enable-background="new    " d="M127.865,24.165l2.325-4.716c-0.998-0.914-2.246-1.527-3.593-1.616
				c-0.063-0.005-0.125-0.004-0.188-0.002l0.07,0.433l-1.938,3.008c-0.089-0.078-0.178-0.156-0.268-0.234
				c-0.258,0.283-0.529,0.554-0.806,0.819c-1.299,1.238-2.795,2.267-4.41,3.048c-0.042,0.02-0.083,0.042-0.125,0.061
				c-0.007,0.003-0.015,0.007-0.021,0.011c-0.156,1.563,0.127,3.173,0.692,4.647c0.45,1.176,1.069,2.274,1.777,3.318
				c-0.262,0.069-0.522,0.146-0.782,0.228c0,0-0.001,0-0.002,0.001c-0.166,0.054-0.328,0.113-0.488,0.179
				c-0.002,0-0.003,0.002-0.005,0.002c-0.159,0.064-0.315,0.137-0.469,0.214l0,0c-2.092,1.05-3.632,3.167-4.119,5.727
				c-1.271,6.665-1.923,13.409-1.871,20.258c0.045,0.003,0.094,0.011,0.14,0.014l-0.164,2.304c0,0,0.036,0.097,0.09,0.244
				l0.164-2.149l0.445,3.778c0.044,0.114,0.074,0.188,0.08,0.193c0.03,0.028,1.508,0.639,1.508,0.639s0.129-0.239,0.05-0.439
				c-0.08-0.198-0.838-0.799-0.838-0.799l-0.229-1.716c0,0,0.669-0.041,0.729,0.708c0.061,0.748,0.229,0.858,0.399,0.788
				c0.17-0.069,0.509-0.897,0.35-1.438c-0.16-0.539-0.629-1.248-0.639-1.587c-0.004-0.116-0.083-0.221-0.186-0.309
				c0.095,0.009,0.189,0.021,0.28,0.023c0.062-5.078,1.229-9.893,3.236-14.445c0.358,4.964,0.122,10.24-0.318,15.195
				c0.119,0.033,0.24,0.062,0.36,0.093l0.021,2.531l0.312,34.479h0.232c-0.946,0.591-1.76,1.037-2.448,1.375
				c-0.167,0.312-0.295,0.647-0.314,0.993c0,0.012-0.001,0.022-0.002,0.035c-0.002,0.08-0.001,0.159,0.008,0.239
				c0.039-0.01,0.023,0.12,0.063,0.11h5.177c0.063-0.053,0.119-0.112,0.171-0.174c0.022-0.025,0.042-0.052,0.063-0.079
				c0.022-0.03,0.044-0.064,0.065-0.097c0.055-0.084,0.103-0.173,0.143-0.265v-0.001l0,0c0.204-0.475,0.229-1.048,0.098-1.552
				c-0.133-0.517-0.396-0.985-0.695-1.432h0.027l-0.884-39.903c0.329-0.067,0.655-0.142,0.979-0.222
				c-0.342-3.434-0.576-7.009-0.589-10.546l-0.015-0.002l0.013-0.311c0-0.604,0.005-1.209,0.019-1.811
				c0.024-0.175,0.055-0.347,0.08-0.521l0.366-8.624l6.823-9.878C128.5,24.719,128.183,24.443,127.865,24.165z"/>
			<g opacity="0.1">
				<path d="M105.983,56.788c-0.077-0.896-0.146-1.799-0.202-2.706c-0.071,0.876-0.149,1.746-0.235,2.605
					C105.691,56.723,105.837,56.755,105.983,56.788z"/>
				<path d="M107.091,99.711c-0.131-0.509-0.39-0.97-0.685-1.409h0.027l-0.021-0.882c-1.85,1.069-3.138,1.577-3.929,1.814
					c-0.188,0.342-0.422,0.66-0.63,0.993c0.051,0.015,0.105,0.026,0.167,0.039c0.012,0.002,0.022,0.005,0.035,0.006
					c0.068,0.013,0.144,0.021,0.227,0.03c0.01,0.002,0.021,0.002,0.032,0.004c0.089,0.008,0.184,0.015,0.29,0.018
					c0.881,0.028,2.812,0.029,4.563,0.022C107.169,100.131,107.144,99.915,107.091,99.711z"/>
				<path d="M112.126,60.207l-0.173-2.447c0.102-0.008,0.202-0.015,0.3-0.018c0.063-7.29-0.717-14.469-2.232-21.563
					c-0.196-0.919-0.539-1.782-0.998-2.568c-0.01-0.018-0.021-0.035-0.03-0.052c-0.062-0.104-0.126-0.205-0.192-0.307
					c-0.027-0.044-0.056-0.087-0.085-0.13c-0.063-0.094-0.129-0.187-0.196-0.278c-0.034-0.046-0.069-0.092-0.104-0.137
					c-0.067-0.089-0.137-0.179-0.208-0.265c-0.031-0.037-0.063-0.073-0.096-0.11c-0.132-0.152-0.27-0.301-0.411-0.444
					c-0.052-0.053-0.103-0.106-0.156-0.157c-0.065-0.063-0.134-0.125-0.203-0.188c-0.063-0.057-0.126-0.112-0.189-0.168
					c-0.067-0.056-0.134-0.11-0.202-0.166c-0.074-0.059-0.15-0.117-0.226-0.173c-0.063-0.047-0.125-0.094-0.188-0.14
					c-0.115-0.081-0.232-0.158-0.352-0.234c-0.052-0.032-0.104-0.063-0.155-0.095c-0.124-0.075-0.25-0.147-0.378-0.215
					c-0.057-0.03-0.113-0.059-0.17-0.086c-0.105-0.055-0.211-0.105-0.319-0.155c-0.06-0.027-0.12-0.054-0.181-0.08
					c-0.114-0.049-0.229-0.094-0.345-0.138c-0.054-0.021-0.107-0.042-0.162-0.063c-0.172-0.061-0.344-0.118-0.52-0.167
					c-0.074-0.021-0.147-0.039-0.223-0.059c-1.028,1.133-1.765,2.535-2.097,4.087c-0.404,1.897-0.757,3.802-1.058,5.711
					c0.236,0.104,0.477,0.206,0.717,0.307c-0.566,5.033-0.853,10.11-0.817,15.243c0.003,0,0.007,0.001,0.01,0.001l-0.158,2.228
					c0,0,0.811,2.201,0.842,2.233c0.032,0.033,1.63,0.691,1.63,0.691s0.142-0.259,0.055-0.477c-0.086-0.216-0.907-0.862-0.907-0.862
					l-0.249-1.857c0,0,0.724-0.043,0.788,0.767c0.064,0.811,0.249,0.93,0.432,0.854c0.185-0.076,0.55-0.972,0.378-1.555
					c-0.173-0.584-0.681-1.352-0.69-1.718c-0.003-0.088-0.045-0.169-0.106-0.241c0.075-4.967,0.99-9.696,2.559-14.197
					c0.193,0.021,0.388,0.04,0.582,0.046c0.097-0.205,0.192-0.41,0.294-0.614c0.081,1.002,0.138,2.019,0.171,3.039
					c2.202,4.653,3.479,9.559,3.548,14.723c0.142-0.006,0.287-0.019,0.433-0.031c-0.109,0.094-0.196,0.206-0.201,0.333
					c-0.011,0.36-0.51,1.116-0.68,1.688c-0.17,0.573,0.191,1.456,0.372,1.53s0.361-0.043,0.425-0.84
					c0.064-0.797,0.776-0.755,0.776-0.755l-0.245,1.828c0,0-0.807,0.638-0.892,0.851c-0.085,0.212,0.053,0.467,0.053,0.467
					s1.573-0.647,1.604-0.68C111.329,62.374,112.126,60.207,112.126,60.207z"/>
			</g>
			<g>
				<path fill="#661C00" d="M58.028,21.469c-1.931-2.625-2.896-5.912-2.684-9.138c-0.308,0.166-0.613,0.332-0.92,0.497
					c0.292-0.53,0.723-0.987,1.238-1.315c-0.318-0.014-0.638-0.026-0.957-0.038c0.74-0.419,1.549-0.721,2.386-0.891
					c0.729-1.085,1.583-2.191,2.542-3.091c-0.065,0.176-0.133,0.354-0.198,0.53c0.952-0.365,1.904-0.729,2.856-1.096
					c-0.148,0.152-0.298,0.305-0.447,0.457c1.923,0.049,3.824,0.705,5.351,1.851c-0.233-0.048-0.466-0.097-0.7-0.146
					c0.96,0.973,1.789,2.068,2.457,3.25c-0.276-0.069-0.553-0.142-0.829-0.212c-0.462,2.522-1.123,5.009-1.975,7.433
					c-2.087,1.282-4.444,1.943-6.896,2.204C58.8,21.81,58.293,21.83,58.028,21.469z"/>
				<g>
					<path fill="#652C00" d="M55.894,96.096c-4.949,3.26-7.063,3.319-7.063,3.319s-0.724,0.844,1.147,0.904
						c1.871,0.06,8.332,0,8.332,0l0.467-2.052l-0.543-1.933L55.894,96.096z"/>
					<path fill="#532200" d="M48.696,99.777c0.008,0.237,0.248,0.511,1.284,0.544c1.871,0.061,8.332,0,8.332,0l0.124-0.544H48.696z"
						/>
				</g>
				<g>
					<path fill="#652C00" d="M66.853,95.917c-0.341-0.021-0.645,0.246-0.639,0.588c0.006,0.311-0.075,0.629-0.203,0.913
						c-0.22,0.487-0.561,0.909-0.838,1.365c-0.276,0.457-0.497,0.982-0.431,1.513c0.041-0.01,0.024,0.125,0.064,0.114h5.341
						c0.615-0.516,0.758-1.457,0.557-2.233c-0.201-0.777-0.683-1.448-1.154-2.099C68.702,96.034,67.75,95.969,66.853,95.917z"/>
					<path fill="#532200" d="M64.766,99.777c-0.032,0.171-0.043,0.345-0.022,0.519c0.041-0.01,0.024,0.125,0.064,0.114h5.341
						c0.204-0.171,0.352-0.391,0.456-0.633H64.766z"/>
				</g>
				<polygon fill="#00192F" points="58.712,96.698 61.611,58.675 66.094,96.698 70.017,96.698 69.036,52.397 54.31,54.088 
					54.711,96.698 				"/>
				<path fill="#001E36" d="M61.319,57.429c2.651-0.142,5.29-0.667,7.795-1.516l-0.061-2.727c-0.049-0.258-0.096-0.518-0.143-0.776
					L54.31,54.088l0.032,3.542C56.66,57.838,59.014,57.78,61.319,57.429z"/>
				<path fill="#FFDCB4" d="M49.979,53.823c-0.003-0.092-0.046-0.176-0.11-0.25c0.081-5.354,1.106-10.441,2.858-15.269
					c-1.37-0.063-2.735-0.792-3.991-1.51c-0.662,5.516-0.992,11.082-0.955,16.711c0.003,0.001,0.007,0.001,0.01,0.002l-0.163,2.298
					c0,0,0.835,2.271,0.869,2.306c0.033,0.033,1.683,0.713,1.683,0.713s0.145-0.267,0.055-0.489
					c-0.089-0.224-0.937-0.892-0.937-0.892l-0.256-1.916c0,0,0.747-0.045,0.813,0.79c0.066,0.836,0.256,0.959,0.445,0.881
					s0.568-1.003,0.391-1.604C50.513,54.993,49.99,54.201,49.979,53.823z"/>
				<path fill="#FFDCB4" d="M73.151,53.823c0.002-0.092,0.046-0.176,0.11-0.25c-0.081-5.354-1.106-10.441-2.858-15.269
					c1.37-0.063,2.735-0.792,3.991-1.51c0.662,5.516,0.992,11.082,0.955,16.711c-0.003,0.001-0.008,0.001-0.011,0.002l0.163,2.298
					c0,0-0.835,2.271-0.869,2.306c-0.033,0.033-1.683,0.713-1.683,0.713s-0.145-0.267-0.056-0.489
					c0.089-0.224,0.936-0.892,0.936-0.892l0.256-1.916c0,0-0.746-0.045-0.813,0.79c-0.067,0.836-0.256,0.959-0.445,0.881
					c-0.188-0.078-0.568-1.003-0.39-1.604C72.616,54.993,73.14,54.201,73.151,53.823z"/>
				<path fill="#008D9E" d="M69.718,38.339c0.104,0.21,0.203,0.421,0.305,0.634c1.792-0.063,3.579-0.792,5.222-1.51
					c-0.309-1.972-0.673-3.936-1.091-5.894c-0.701-3.279-3.136-5.909-6.36-6.831c-1.953-0.559-3.977-0.862-6.007-0.902v-0.001
					c-0.011,0-0.021,0-0.032,0s-0.021,0-0.031,0v0.001c-0.053,0.001-0.104,0.003-0.156,0.006c-0.052-0.002-0.104-0.004-0.156-0.006
					v-0.001c-0.011,0-0.021,0-0.032,0c-0.011,0-0.021,0-0.031,0v0.001c-2.03,0.04-4.055,0.344-6.008,0.902
					c-3.225,0.922-5.659,3.552-6.36,6.831c-0.418,1.958-0.782,3.922-1.091,5.894c1.643,0.717,3.43,1.446,5.223,1.51
					c0.1-0.213,0.2-0.424,0.304-0.634c0.45,5.54,0.153,11.428-0.397,16.958c2.717,0.663,5.556,0.953,8.362,0.814
					c0.032,0.001,0.063,0.002,0.095,0.003v0.006c0.031-0.002,0.063-0.002,0.094-0.003c0.031,0.001,0.063,0.001,0.094,0.003v-0.006
					c0.032-0.001,0.063-0.002,0.094-0.003c2.808,0.139,5.646-0.151,8.363-0.814C69.565,49.766,69.268,43.879,69.718,38.339z"/>
				<path fill="#007A88" d="M55.169,24.794c2.295,2.172,5.101,3.811,8.141,4.681c3.304,0.944,6.853,0.975,10.188,0.151
					c-1.093-2.35-3.149-4.156-5.705-4.887c-1.953-0.559-3.977-0.862-6.007-0.902v-0.001c-0.011,0-0.021,0-0.032,0s-0.021,0-0.031,0
					v0.001c-0.053,0.001-0.104,0.003-0.156,0.006c-0.052-0.002-0.104-0.004-0.156-0.006v-0.001c-0.011,0-0.021,0-0.032,0
					c-0.011,0-0.021,0-0.031,0v0.001c-2.03,0.04-4.055,0.344-6.008,0.902C55.281,24.755,55.226,24.776,55.169,24.794z"/>
				<g>
					<circle fill="#EAC29E" cx="56.562" cy="17.234" r="1.288"/>
					<circle fill="#EAC29E" cx="66.375" cy="17.234" r="1.287"/>
				</g>
				<path fill="#E5BD9B" d="M63.697,25.021L63.697,25.021c-1.215,0.928-2.896,0.943-4.129,0.041l-0.056-0.041V19.87h4.185V25.021z"
					/>
				<path fill="#D1AC8D" d="M59.512,23.331c0.824,0.572,1.824,0.908,2.903,0.908c0.443,0,0.871-0.063,1.281-0.168V19.87h-4.185
					V23.331z"/>
				<path fill="#D1AC8D" d="M59.512,19.87v0.573h3.087v5.136c0.389-0.117,0.761-0.302,1.098-0.558V19.87H59.512z"/>
				<path fill="#FFDCB4" d="M61.604,23.667L61.604,23.667c-2.822,0-5.109-2.288-5.109-5.108l-0.092-3.136
					c0-2.82,2.288-5.108,5.109-5.108l0,0c2.82,0,5.107,2.288,5.107,5.108l0.091,3.136C66.713,21.379,64.426,23.667,61.604,23.667z"
					/>
				<path fill="#FDD1AB" d="M62.598,10.432c1.608,0.859,2.705,2.556,2.705,4.507l0.092,3.134c0,2.821-2.288,5.109-5.109,5.109l0,0
					c-0.373,0-0.735-0.042-1.086-0.118c0.717,0.383,1.535,0.602,2.404,0.602l0,0c2.82,0,5.107-2.288,5.107-5.108l-0.091-3.136
					C66.621,12.974,64.898,10.93,62.598,10.432z"/>
				<g>
					<ellipse fill="#554537" cx="58.915" cy="17.047" rx="0.39" ry="0.758"/>
					<ellipse fill="#554537" cx="64.436" cy="17.047" rx="0.389" ry="0.758"/>
				</g>
				<g>
					<g>
						<path fill="#554537" d="M60.114,16.036c-0.042,0-0.083-0.019-0.112-0.054c-0.244-0.302-0.589-0.486-0.946-0.506
							c-0.351-0.018-0.716,0.125-0.983,0.396c-0.056,0.058-0.148,0.059-0.204,0.001c-0.057-0.056-0.057-0.146-0.001-0.204
							c0.326-0.332,0.759-0.508,1.206-0.481c0.438,0.023,0.859,0.248,1.155,0.612c0.05,0.063,0.041,0.152-0.022,0.202
							C60.178,16.026,60.146,16.036,60.114,16.036z"/>
					</g>
					<g>
						<path fill="#554537" d="M63.306,16.036c0.042,0,0.083-0.019,0.111-0.054c0.244-0.302,0.589-0.486,0.947-0.506
							c0.351-0.018,0.715,0.125,0.983,0.396c0.057,0.058,0.147,0.059,0.204,0.001c0.057-0.056,0.058-0.146,0.002-0.204
							c-0.327-0.332-0.76-0.508-1.206-0.481c-0.438,0.023-0.86,0.248-1.155,0.612c-0.05,0.063-0.041,0.152,0.021,0.202
							C63.242,16.026,63.274,16.036,63.306,16.036z"/>
					</g>
				</g>
				<path fill="#661C00" d="M55.883,15.448c0.21,0.894,0.421,1.788,0.631,2.682c0.363-1.665,0.664-3.302,1.026-4.966
					c1.379,0.157,2.733,0.267,4.119,0.19c0.195-1.328,0.208-2.675,0.122-4.016c-1.542,0.208-3.088,0.708-4.266,1.727
					C56.338,12.081,55.526,13.933,55.883,15.448z"/>
				<path fill="#661C00" d="M67.284,15.448c-0.21,0.894-0.421,1.788-0.631,2.682c-0.363-1.665-0.664-3.302-1.027-4.966
					c-1.379,0.157-2.732,0.267-4.119,0.19c-0.194-1.328-0.208-2.675-0.122-4.016c1.542,0.208,3.089,0.708,4.267,1.727
					C66.828,12.081,67.641,13.933,67.284,15.448z"/>
				<path fill="#CEAA8A" d="M66.701,18.17c-0.362,0.98-1.103,1.827-2.058,2.24c-0.585-0.927-1.735-1.464-2.822-1.317
					c-0.109,0.016-0.212,0.007-0.318,0.015c-0.104-0.008-0.21,0.001-0.317-0.015c-1.087-0.146-2.237,0.391-2.822,1.317
					c-0.808-0.35-1.464-1.011-1.866-1.8c0.029,2.797,2.303,5.057,5.106,5.057l0,0c2.82,0,5.107-2.288,5.107-5.108L66.701,18.17z
					 M61.563,22.702c-1.423,0-2.577-0.684-2.577-1.528c0-0.843,1.154-1.526,2.577-1.526c1.424,0,2.578,0.684,2.578,1.526
					C64.141,22.018,62.988,22.702,61.563,22.702z"/>
			</g>
			<g>
				<path fill="#6D4A00" d="M136.175,25.892c-1.749-1.75-3.496-3.591-4.473-5.863c-0.976-2.273-1.04-5.094,0.454-7.065
					c-0.35-0.068-0.701-0.138-1.05-0.206c0.978-0.207,1.836-0.911,2.228-1.832c0.596-1.396,1.929-2.714,3.36-3.215
					c1.431-0.502,3.068-0.382,4.411,0.323c1.423,0.747,2.463,2.086,3.134,3.546c0.671,1.459,1.009,3.046,1.324,4.621
					c-0.182-0.007-0.361-0.016-0.543-0.023c0.044,1.041,0.089,2.082,0.133,3.123c-0.217-0.109-0.435-0.219-0.652-0.328
					c-0.427,1.971-1.17,3.872-2.188,5.612c-0.496,0.848-1.112,1.701-2.028,2.057C138.921,27.167,137.209,26.926,136.175,25.892z"/>
				<g>
					<path fill="#652C00" d="M132.267,96.096c-4.948,3.26-7.062,3.319-7.062,3.319s-0.724,0.844,1.147,0.904
						c1.872,0.061,8.332,0,8.332,0l0.467-2.052l-0.543-1.933L132.267,96.096z"/>
					<path fill="#532200" d="M125.069,99.777c0.008,0.237,0.248,0.511,1.284,0.544c1.872,0.061,8.332,0,8.332,0l0.124-0.544H125.069
						z"/>
				</g>
				<g>
					<path fill="#652C00" d="M143.226,95.917c-0.34-0.021-0.644,0.246-0.639,0.588c0.005,0.311-0.076,0.629-0.204,0.913
						c-0.219,0.487-0.56,0.909-0.837,1.365c-0.276,0.457-0.497,0.982-0.431,1.513c0.04-0.01,0.023,0.125,0.064,0.114h5.341
						c0.615-0.516,0.758-1.457,0.557-2.233c-0.201-0.777-0.683-1.448-1.155-2.099C145.075,96.034,144.124,95.969,143.226,95.917z"/>
					<path fill="#532200" d="M141.139,99.777c-0.032,0.171-0.044,0.345-0.022,0.519c0.04-0.01,0.023,0.125,0.064,0.114h5.341
						c0.204-0.171,0.351-0.391,0.456-0.633H141.139z"/>
				</g>
				<polygon fill="#5E2D00" points="135.086,96.698 137.985,58.675 142.469,96.698 146.39,96.698 145.409,52.397 130.684,54.088 
					131.085,96.698 				"/>
				<path fill="#482200" d="M137.692,57.429c2.65-0.142,5.289-0.667,7.795-1.516l-0.06-2.727c-0.05-0.258-0.097-0.518-0.144-0.776
					l-14.601,1.676l0.032,3.542C133.033,57.838,135.388,57.78,137.692,57.429z"/>
				<path fill="#FFDCB4" d="M126.353,53.823c-0.002-0.092-0.046-0.176-0.11-0.25c0.081-5.354,1.105-10.441,2.858-15.269
					c-1.37-0.063-2.735-0.792-3.991-1.51c-0.662,5.516-0.992,11.082-0.956,16.711c0.003,0.001,0.007,0.001,0.01,0.002l-0.163,2.298
					c0,0,0.835,2.271,0.869,2.306c0.034,0.033,1.684,0.713,1.684,0.713s0.145-0.267,0.056-0.489
					c-0.089-0.224-0.937-0.892-0.937-0.892l-0.256-1.916c0,0,0.746-0.045,0.813,0.79c0.066,0.836,0.256,0.959,0.445,0.881
					s0.568-1.003,0.391-1.604C126.888,54.993,126.364,54.201,126.353,53.823z"/>
				<path fill="#FFDCB4" d="M149.524,53.823c0.003-0.092,0.047-0.176,0.11-0.25c-0.08-5.354-1.105-10.441-2.857-15.269
					c1.371-0.063,2.736-0.792,3.991-1.51c0.662,5.516,0.991,11.082,0.955,16.711c-0.004,0.001-0.008,0.001-0.011,0.002l0.162,2.298
					c0,0-0.835,2.271-0.869,2.306c-0.033,0.034-1.682,0.713-1.682,0.713s-0.145-0.267-0.056-0.489
					c0.089-0.224,0.935-0.892,0.935-0.892l0.257-1.916c0,0-0.746-0.045-0.813,0.79c-0.067,0.836-0.256,0.959-0.445,0.881
					c-0.188-0.078-0.568-1.003-0.391-1.604C148.99,54.992,149.514,54.201,149.524,53.823z"/>
				<path fill="#FF5713" d="M146.092,38.339c0.104,0.21,0.203,0.421,0.304,0.634c1.793-0.063,3.58-0.792,5.223-1.51
					c-0.309-1.972-0.672-3.936-1.091-5.894c-0.701-3.279-3.136-5.909-6.361-6.831c-1.952-0.559-3.976-0.862-6.005-0.902v-0.001
					c-0.012,0-0.021,0-0.033,0c-0.011,0-0.021,0-0.032,0v0.001c-0.052,0.001-0.104,0.003-0.156,0.006
					c-0.051-0.002-0.104-0.004-0.155-0.006v-0.001c-0.01,0-0.021,0-0.032,0c-0.011,0-0.021,0-0.031,0v0.001
					c-2.03,0.04-4.055,0.344-6.008,0.902c-3.225,0.922-5.658,3.552-6.359,6.831c-0.419,1.958-0.782,3.922-1.093,5.894
					c1.645,0.717,3.431,1.446,5.224,1.51c0.1-0.213,0.2-0.424,0.304-0.634c0.45,5.54,0.153,11.428-0.398,16.958
					c2.718,0.663,5.556,0.953,8.362,0.814c0.032,0.001,0.063,0.002,0.095,0.003v0.006c0.03-0.002,0.063-0.002,0.093-0.003
					c0.032,0.001,0.063,0.001,0.094,0.003v-0.006c0.032-0.001,0.063-0.002,0.095-0.003c2.808,0.139,5.646-0.151,8.363-0.814
					C145.939,49.766,145.641,43.879,146.092,38.339z"/>
				<path fill="#E1420B" d="M131.542,24.794c2.296,2.172,5.102,3.811,8.141,4.681c3.305,0.944,6.853,0.975,10.188,0.151
					c-1.093-2.35-3.148-4.156-5.706-4.887c-1.952-0.559-3.976-0.862-6.005-0.902v-0.001c-0.012,0-0.021,0-0.033,0
					c-0.011,0-0.021,0-0.033,0v0.001c-0.051,0.001-0.103,0.003-0.155,0.006c-0.051-0.002-0.104-0.004-0.155-0.006v-0.001
					c-0.01,0-0.021,0-0.032,0c-0.011,0-0.021,0-0.032,0v0.001c-2.029,0.04-4.054,0.344-6.007,0.902
					C131.654,24.755,131.599,24.776,131.542,24.794z"/>
				<g>
					<circle fill="#EAC29E" cx="132.936" cy="17.234" r="1.287"/>
					<circle fill="#EAC29E" cx="142.748" cy="17.234" r="1.287"/>
				</g>
				<path fill="#E5BD9B" d="M140.07,25.021L140.07,25.021c-1.215,0.928-2.896,0.943-4.129,0.041l-0.055-0.041V19.87h4.184V25.021
					L140.07,25.021z"/>
				<path fill="#D1AC8D" d="M135.886,23.331c0.824,0.572,1.823,0.908,2.902,0.908c0.443,0,0.871-0.063,1.281-0.168V19.87h-4.184
					V23.331z"/>
				<path fill="#D1AC8D" d="M135.886,19.87v0.573h3.086v5.136c0.389-0.117,0.761-0.302,1.098-0.558V19.87H135.886z"/>
				<path fill="#FFDCB4" d="M137.978,23.667L137.978,23.667c-2.821,0-5.109-2.288-5.109-5.108l-0.092-3.136
					c0-2.82,2.287-5.108,5.109-5.108l0,0c2.821,0,5.108,2.288,5.108,5.108l0.092,3.136
					C143.087,21.379,140.799,23.667,137.978,23.667z"/>
				<path fill="#FDD1AB" d="M138.972,10.432c1.608,0.859,2.703,2.556,2.703,4.507l0.092,3.134c0,2.821-2.287,5.109-5.109,5.109l0,0
					c-0.372,0-0.735-0.042-1.085-0.118c0.716,0.383,1.535,0.602,2.404,0.602l0,0c2.82,0,5.108-2.288,5.108-5.108l-0.092-3.136
					C142.995,12.974,141.271,10.93,138.972,10.432z"/>
				<g>
					<ellipse fill="#554537" cx="135.288" cy="17.047" rx="0.39" ry="0.758"/>
					<ellipse fill="#554537" cx="140.809" cy="17.047" rx="0.39" ry="0.758"/>
				</g>
				<g>
					<g>
						<path fill="#554537" d="M136.488,16.036c-0.042,0-0.084-0.019-0.112-0.054c-0.245-0.302-0.59-0.486-0.946-0.506
							c-0.352-0.018-0.715,0.125-0.983,0.396c-0.057,0.058-0.147,0.059-0.204,0.001c-0.057-0.056-0.057-0.146-0.002-0.204
							c0.326-0.332,0.759-0.508,1.206-0.481c0.438,0.023,0.859,0.248,1.155,0.612c0.05,0.063,0.041,0.152-0.021,0.202
							C136.552,16.026,136.52,16.036,136.488,16.036z"/>
					</g>
					<g>
						<path fill="#554537" d="M139.679,16.036c0.042,0,0.084-0.019,0.111-0.054c0.245-0.302,0.59-0.486,0.947-0.506
							c0.351-0.018,0.715,0.125,0.984,0.396c0.056,0.058,0.146,0.059,0.203,0.001c0.058-0.057,0.059-0.146,0.002-0.204
							c-0.326-0.332-0.76-0.508-1.206-0.481c-0.438,0.023-0.859,0.248-1.155,0.612c-0.05,0.063-0.04,0.152,0.021,0.202
							C139.615,16.026,139.647,16.036,139.679,16.036z"/>
					</g>
				</g>
				<path fill="#CEAA8A" d="M143.075,18.17c-0.362,0.98-1.103,1.827-2.058,2.24c-0.584-0.927-1.734-1.464-2.821-1.317
					c-0.109,0.016-0.212,0.007-0.318,0.015c-0.105-0.008-0.209,0.001-0.317-0.015c-1.086-0.146-2.236,0.391-2.821,1.317
					c-0.809-0.35-1.464-1.011-1.866-1.8c0.028,2.797,2.303,5.057,5.106,5.057l0,0c2.82,0,5.108-2.288,5.108-5.108L143.075,18.17z
					 M137.937,22.702c-1.423,0-2.578-0.684-2.578-1.528c0-0.843,1.155-1.526,2.578-1.526c1.424,0,2.578,0.684,2.578,1.526
					C140.514,22.018,139.361,22.702,137.937,22.702z"/>
				<path fill="#6D4A00" d="M131.192,18.24c0.875,0.108,1.717-0.49,2.164-1.251s0.583-1.659,0.708-2.532
					c0.64,0.908,1.526,1.641,2.54,2.098c-0.342-0.369-0.549-0.858-0.577-1.36c0.554,0.834,1.579,1.223,2.564,1.387
					c0.987,0.164,2.007,0.157,2.968,0.438c0.96,0.28,1.897,0.942,2.124,1.917c1.097-1.495,0.917-3.401,0.173-5.101
					c-0.768-1.75-2.007-3.391-3.764-4.144s-4.848-0.45-5.933,1.123C132.586,13.099,131.459,15.481,131.192,18.24z"/>
			</g>
			<g opacity="0.26">
				<path d="M139.114,64.159c-0.075,0.249-0.04,0.563,0.034,0.831l0.087-1.157C139.188,63.945,139.144,64.054,139.114,64.159z"/>
				<path opacity="0.6" enable-background="new    " d="M140.107,41.774c-0.094-0.494-0.23-0.969-0.399-1.425l0,0
					c-0.049-0.135-0.102-0.267-0.158-0.396c-0.006-0.015-0.012-0.028-0.017-0.042c-0.056-0.128-0.113-0.253-0.174-0.377
					c-0.004-0.008-0.008-0.016-0.012-0.023c-0.249-0.502-0.542-0.971-0.877-1.4c-0.022-0.027-0.043-0.056-0.065-0.083
					c-0.067-0.083-0.136-0.165-0.206-0.246c-0.034-0.039-0.068-0.077-0.102-0.115c-0.066-0.073-0.134-0.145-0.202-0.215
					c-0.042-0.043-0.086-0.085-0.128-0.127c-0.067-0.063-0.133-0.128-0.2-0.19c-0.056-0.05-0.112-0.097-0.169-0.145
					c-0.095-0.081-0.193-0.161-0.292-0.236c-0.078-0.061-0.157-0.121-0.239-0.178c-0.053-0.037-0.108-0.073-0.163-0.109
					c-0.076-0.051-0.153-0.101-0.231-0.147c-0.056-0.034-0.112-0.066-0.168-0.099c-0.082-0.047-0.165-0.092-0.249-0.135
					c-0.055-0.027-0.108-0.056-0.163-0.083c-0.095-0.045-0.188-0.087-0.286-0.128c-0.047-0.021-0.094-0.042-0.142-0.062
					c-0.05-0.021-0.1-0.038-0.149-0.057c0.68-1.412,1.291-2.854,1.685-4.368c0.598-2.292,0.665-4.794-0.269-6.97
					c-0.725-1.688-2.133-3.13-3.832-3.765c0.095,0.308,0.205,0.611,0.33,0.903c0.654,1.526,1.661,2.858,2.779,4.1
					c-0.936,0.148-1.859,0.351-2.771,0.611c-0.057,0.017-0.113,0.037-0.169,0.054c-3.139,0.965-5.502,3.556-6.191,6.777
					c-0.418,1.958-0.781,3.922-1.091,5.893c0.243,0.106,0.491,0.212,0.739,0.316c-0.585,5.192-0.879,10.432-0.844,15.728
					c0.003,0,0.007,0.001,0.01,0.001l-0.163,2.297c0,0,0.835,2.272,0.869,2.307c0.033,0.033,1.682,0.713,1.682,0.713
					s0.146-0.269,0.057-0.49c-0.09-0.222-0.937-0.893-0.937-0.893l-0.256-1.917c0,0,0.747-0.044,0.813,0.791
					c0.067,0.837,0.257,0.958,0.446,0.882c0.189-0.078,0.568-1.002,0.39-1.604c-0.179-0.602-0.701-1.393-0.713-1.771
					c-0.003-0.092-0.047-0.175-0.109-0.249c0.077-5.125,1.021-10.007,2.639-14.648c0.2,0.022,0.399,0.041,0.6,0.048
					c0.102-0.211,0.2-0.423,0.304-0.633c0.451,5.54,0.152,11.427-0.398,16.958c0.434,0.105,0.871,0.198,1.311,0.285l0.019,2.047l0,0
					l0.262,27.8l1.491,13.183h0.052c-0.007,0.075-0.024,0.15-0.041,0.227h2.543l0.129-0.568l-0.442-1.57h0.377l0.559-7.336
					l-0.577-27.221l-0.013-0.557c0.101-0.026,0.2-0.049,0.3-0.076c-0.44-4.956-0.679-10.231-0.317-15.197
					c2.007,4.554,3.175,9.368,3.235,14.447c0.039-0.001,0.082-0.008,0.122-0.011c-0.063,0.057-0.112,0.12-0.143,0.188l0.226,1.913
					c0.215-0.301,0.586-0.277,0.586-0.277l-0.229,1.717c0,0-0.071,0.056-0.171,0.139l0.096,0.804
					c0.381-0.159,0.778-0.327,0.794-0.343c0.03-0.029,0.778-2.066,0.778-2.066l-0.162-2.29c0.094-0.011,0.19-0.021,0.281-0.025
					C142.031,55.183,141.378,48.439,140.107,41.774z"/>
			</g>
			<path opacity="0.1" enable-background="new    " d="M58.227,38.583L58.227,38.583c-0.05-0.134-0.104-0.266-0.158-0.396
				c-0.006-0.015-0.012-0.027-0.019-0.04c-0.055-0.129-0.112-0.254-0.174-0.378c-0.004-0.009-0.008-0.017-0.012-0.023
				c-0.209-0.422-0.448-0.823-0.717-1.194c0.115-0.189,0.213-0.387,0.278-0.594c0.504-1.573-0.907-3.172-0.735-4.795
				c0.154-1.448,1.553-2.8,1.078-4.197c-0.308-0.901-1.343-1.546-1.645-2.431c-0.263,0.065-0.525,0.131-0.787,0.206
				c-0.058,0.016-0.112,0.037-0.169,0.055c-3.14,0.965-5.503,3.556-6.19,6.776c-0.418,1.958-0.782,3.922-1.091,5.894
				c0.242,0.106,0.489,0.211,0.738,0.315c-0.585,5.194-0.879,10.433-0.845,15.728c0.003,0.001,0.007,0.001,0.01,0.002l-0.163,2.298
				c0,0,0.835,2.271,0.869,2.306c0.033,0.033,1.683,0.713,1.683,0.713s0.145-0.267,0.055-0.489
				c-0.089-0.224-0.937-0.892-0.937-0.892l-0.256-1.916c0,0,0.747-0.045,0.813,0.79c0.066,0.836,0.256,0.959,0.445,0.881
				s0.568-1.003,0.391-1.604c-0.178-0.602-0.702-1.394-0.713-1.771c-0.003-0.092-0.046-0.176-0.11-0.25
				c0.077-5.125,1.021-10.005,2.639-14.649c0.2,0.023,0.4,0.041,0.602,0.049c0.1-0.212,0.2-0.424,0.304-0.634
				c0.45,5.54,0.153,11.428-0.397,16.958c0.433,0.105,0.87,0.198,1.31,0.285l0.019,2.047l0,0L54.71,96.7h0.244
				c-0.94,0.587-1.758,1.04-2.47,1.401l0.031,0.272h0.051c-0.021,0.222-0.083,0.442-0.173,0.646
				c-0.196,0.437-0.501,0.813-0.75,1.224c-0.021,0.033-0.039,0.069-0.059,0.104c0.157,0.001,0.317,0.002,0.484,0.003
				c0.326,0.001,0.667,0.001,1.016,0.001c0.233,0,0.47,0,0.705-0.001c0.118,0,0.236,0,0.354-0.001
				c0.471-0.001,0.938-0.003,1.381-0.007c0.109,0,0.22-0.001,0.327-0.002c0.289-0.001,0.563-0.003,0.816-0.004
				c0.004-0.217-0.017-0.434-0.068-0.639c-0.135-0.521-0.409-0.986-0.716-1.432l-0.772-36.361L55.1,61.349
				c0.1-0.026,0.199-0.051,0.3-0.077c-0.44-4.956-0.678-10.232-0.319-15.196c2.008,4.554,3.176,9.367,3.236,14.447
				c0.04-0.002,0.082-0.008,0.123-0.011c-0.094,0.084-0.167,0.182-0.17,0.294c-0.011,0.34-0.479,1.048-0.64,1.588
				c-0.159,0.539,0.181,1.366,0.351,1.437c0.169,0.071,0.339-0.039,0.398-0.788c0.062-0.748,0.729-0.708,0.729-0.708L58.88,64.05
				c0,0-0.759,0.6-0.839,0.8c-0.08,0.198,0.05,0.438,0.05,0.438s1.479-0.609,1.508-0.639c0.028-0.03,0.778-2.066,0.778-2.066
				l-0.163-2.291c0.095-0.009,0.19-0.021,0.282-0.024c0.052-6.85-0.601-13.594-1.871-20.259
				C58.532,39.514,58.396,39.039,58.227,38.583z"/>
			<g opacity="0.1">
				<path d="M70.149,100.41L70.149,100.41c0.064-0.055,0.123-0.115,0.177-0.179c0.022-0.027,0.044-0.056,0.065-0.081
					c0.023-0.033,0.046-0.067,0.067-0.102c0.057-0.087,0.105-0.178,0.146-0.271l0,0c0.211-0.491,0.234-1.082,0.101-1.603
					c-0.138-0.533-0.409-1.017-0.718-1.478h0.028l-0.432-19.449l-1.672,20.479h0.142c-0.307,0.457-0.576,0.937-0.714,1.467
					c-0.101,0.39-0.11,0.819-0.02,1.216H70.149L70.149,100.41z"/>
				<path d="M63.749,55.509c0.046,0.002,0.092,0.007,0.14,0.01l-0.013,0.662l0.159,0.021l-0.154,2.17c0,0,0.83,2.256,0.863,2.29
					c0.033,0.033,1.67,0.708,1.67,0.708s0.145-0.266,0.056-0.486c-0.089-0.222-0.93-0.885-0.93-0.885l-0.255-1.901
					c0,0,0.741-0.046,0.808,0.783c0.066,0.83,0.255,0.951,0.443,0.874s0.563-0.995,0.387-1.593
					c-0.164-0.552-0.614-1.261-0.691-1.663l0.002,0.001v-0.722c0.075,0.005,0.149,0.011,0.223,0.013
					c0.028-2.108,0.25-4.179,0.647-6.207c0.265-1.352,0.607-2.686,1.023-4.001c0.104-0.329,0.213-0.657,0.326-0.983
					c0.227-0.653,0.47-1.302,0.731-1.945c0.108-0.271,0.229-0.537,0.344-0.805c0.034-1.182,0.093-2.354,0.187-3.511
					c0.104,0.21,0.203,0.421,0.305,0.634c0.2-0.009,0.399-0.025,0.6-0.049c1.617,4.645,2.563,9.524,2.639,14.649
					c-0.063,0.074-0.106,0.158-0.109,0.25c-0.011,0.378-0.535,1.169-0.713,1.771c-0.179,0.603,0.201,1.526,0.39,1.604
					c0.189,0.078,0.378-0.045,0.445-0.881c0.066-0.835,0.813-0.79,0.813-0.79l-0.256,1.916c0,0-0.847,0.668-0.936,0.892
					s0.056,0.489,0.056,0.489s1.649-0.68,1.683-0.713s0.869-2.306,0.869-2.306l-0.163-2.298c0.003-0.001,0.007-0.001,0.011-0.002
					c0.034-5.295-0.26-10.533-0.846-15.728c0.25-0.104,0.497-0.209,0.739-0.315c-0.309-1.972-0.673-3.936-1.091-5.894
					c-0.249-1.162-0.718-2.238-1.359-3.19c-0.005-0.006-0.009-0.014-0.014-0.02c-0.08-0.118-0.163-0.234-0.249-0.349
					c-0.021-0.025-0.041-0.053-0.062-0.079c-0.083-0.109-0.168-0.217-0.256-0.321c-0.018-0.021-0.036-0.04-0.053-0.062
					c-0.267-0.312-0.554-0.604-0.86-0.877c-0.012-0.011-0.023-0.021-0.037-0.031c-1.427,0.484-2.809,1.103-4.114,1.855
					C64.869,37.365,63.671,46.352,63.749,55.509z"/>
			</g>
			<g>
				<path fill="#CD4900" d="M97.404,27.353c-1.325-0.013-2.813-0.093-3.707-1.07c-0.586-0.641-0.781-1.533-1.06-2.354
					c-0.458-1.354-1.191-2.611-1.549-3.994c-0.356-1.385-0.259-3.016,0.751-4.026c-0.301,0.118-0.603,0.235-0.903,0.354
					c0.409-0.776,1.105-1.396,1.925-1.711c0.581-1.22,1.543-2.316,2.792-2.835c-0.021,0.147-0.042,0.294-0.063,0.441
					c2.373-0.825,5.064-0.692,7.345,0.361c-0.142,0.044-0.282,0.087-0.423,0.13c1.031,1.284,1.803,2.777,2.253,4.364
					c-0.172-0.056-0.344-0.109-0.515-0.164c0.28,1.144,0.113,2.356-0.23,3.483c-0.346,1.127-0.861,2.192-1.298,3.286
					c-0.359,0.896-0.688,1.85-1.389,2.516C100.348,27.074,98.766,27.365,97.404,27.353z"/>
				<g>
					<path fill="#803900" d="M92.102,96.296c-4.722,3.108-6.735,3.166-6.735,3.166s-0.691,0.807,1.094,0.863s7.948,0,7.948,0
						l0.445-1.957l-0.519-1.843L92.102,96.296z"/>
					<path fill="#6E3000" d="M85.236,99.805c0.008,0.227,0.237,0.487,1.225,0.52c1.785,0.058,7.947,0,7.947,0l0.119-0.52H85.236z"/>
				</g>
				<g>
					<path fill="#803900" d="M102.556,96.124c-0.326-0.02-0.613,0.235-0.608,0.563c0.005,0.295-0.072,0.6-0.195,0.87
						c-0.208,0.466-0.532,0.866-0.798,1.304c-0.265,0.435-0.474,0.937-0.411,1.441c0.039-0.01,0.023,0.118,0.062,0.108h5.095
						c0.587-0.492,0.723-1.39,0.531-2.131s-0.651-1.381-1.102-2.001C104.32,96.235,103.412,96.175,102.556,96.124z"/>
					<path fill="#6E3000" d="M100.565,99.805c-0.031,0.162-0.042,0.328-0.021,0.495c0.039-0.01,0.023,0.118,0.062,0.108h5.095
						c0.194-0.162,0.335-0.373,0.435-0.604H100.565z"/>
				</g>
				<path fill="#FFDCB4" d="M83.591,56.075l-0.19,2.699c0,0,0.797,2.168,0.829,2.2c0.032,0.03,1.604,0.68,1.604,0.68
					s0.14-0.255,0.054-0.468c-0.086-0.212-0.894-0.852-0.894-0.852l-0.244-1.827c0,0,0.712-0.043,0.775,0.755
					c0.063,0.797,0.245,0.914,0.425,0.84c0.181-0.074,0.542-0.956,0.372-1.53c-0.17-0.573-0.669-1.328-0.68-1.689
					c-0.012-0.359-0.681-0.604-0.712-0.637C84.897,56.214,83.591,56.075,83.591,56.075z"/>
				<path fill="#FFDCB4" d="M111.075,56.075l0.191,2.699c0,0-0.797,2.168-0.829,2.2c-0.032,0.03-1.604,0.68-1.604,0.68
					s-0.138-0.255-0.053-0.468c0.085-0.212,0.893-0.852,0.893-0.852l0.244-1.827c0,0-0.712-0.043-0.774,0.755
					c-0.064,0.797-0.245,0.914-0.426,0.84c-0.18-0.074-0.542-0.956-0.371-1.53c0.169-0.573,0.669-1.328,0.68-1.689
					c0.01-0.359,0.68-0.604,0.712-0.637S111.075,56.075,111.075,56.075z"/>
				<polygon fill="#5E2D00" points="94.791,96.87 97.556,60.601 101.833,96.87 105.574,96.87 104.637,54.613 90.592,56.225 
					90.974,96.87 				"/>
				<path fill="#482200" d="M97.166,55.469l-0.271,0.032c-0.485,5.835-2.838,34.146-3.478,41.367h1.374L97.556,60.6l4.276,36.269
					h2.786L97.166,55.469z"/>
				<path fill="#482200" d="M97.277,59.413c2.529-0.134,5.045-0.636,7.435-1.444l-0.058-2.601c-0.045-0.247-0.091-0.493-0.136-0.74
					l-13.928,1.599l0.032,3.379C92.833,59.802,95.079,59.748,97.277,59.413z"/>
				<path fill="#0078A4" d="M109.16,34.747c-0.668-3.128-2.991-5.637-6.067-6.516c-1.861-0.533-3.793-0.822-5.729-0.86v-0.002
					c-0.01,0-0.021,0.001-0.031,0.001s-0.02-0.001-0.029-0.001v0.002c-1.938,0.039-3.867,0.328-5.729,0.86
					c-3.076,0.878-5.398,3.387-6.067,6.516c-1.517,7.094-2.296,14.273-2.232,21.563c0.833,0.028,1.768,0.241,2.601,0.271
					c0.072-5.406,1.466-10.53,3.863-15.377c0.429,5.285,0.146,10.901-0.38,16.176c2.592,0.634,5.299,0.908,7.977,0.777
					c2.679,0.131,5.387-0.146,7.979-0.777c-0.526-5.274-0.81-10.892-0.38-16.176c2.396,4.847,3.791,9.971,3.862,15.377
					c0.833-0.029,1.769-0.242,2.602-0.271C111.457,49.02,110.677,41.842,109.16,34.747z"/>
				<path fill="#006D96" d="M103.093,28.232c-1.861-0.533-3.793-0.822-5.729-0.86V27.37c-0.01,0-0.021,0.001-0.031,0.001
					s-0.02-0.001-0.029-0.001v0.002c-1.938,0.039-3.867,0.328-5.729,0.86c-0.213,0.061-0.422,0.131-0.628,0.207
					c2.157,2.099,4.823,3.677,7.718,4.506c3.216,0.919,6.684,0.904,9.906,0.018C107.534,30.686,105.556,28.935,103.093,28.232z"/>
				<g>
					<circle fill="#EAC29E" cx="92.74" cy="21.073" r="1.228"/>
					<circle fill="#EAC29E" cx="102.1" cy="21.073" r="1.228"/>
				</g>
				<path fill="#E5BD9B" d="M99.545,28.499L99.545,28.499c-1.158,0.886-2.762,0.902-3.938,0.04l-0.053-0.04v-4.912h3.991V28.499z"/>
				<path fill="#FFDCB4" d="M97.549,27.208L97.549,27.208c-2.69,0-4.873-2.182-4.873-4.874l-0.087-2.989
					c0-2.69,2.183-4.872,4.874-4.872l0,0c2.691,0,4.873,2.182,4.873,4.872l0.087,2.989C102.422,25.027,100.24,27.208,97.549,27.208z
					"/>
				<path fill="#FDD1AB" d="M98.497,14.586c1.535,0.82,2.58,2.438,2.58,4.298l0.087,2.99c0,2.691-2.182,4.873-4.873,4.873l0,0
					c-0.354,0-0.702-0.04-1.035-0.113c0.684,0.366,1.465,0.574,2.293,0.574l0,0c2.691,0,4.873-2.182,4.873-4.874l-0.087-2.989
					C102.335,17.01,100.691,15.06,98.497,14.586z"/>
				<g>
					<ellipse fill="#002C5A" cx="94.984" cy="20.895" rx="0.371" ry="0.542"/>
					<ellipse fill="#002C5A" cx="100.25" cy="20.895" rx="0.372" ry="0.542"/>
				</g>
				<g>
					<g>
						<path fill="#554537" d="M96.128,19.93c-0.04,0-0.08-0.019-0.106-0.052c-0.233-0.288-0.563-0.464-0.903-0.482
							c-0.334-0.017-0.682,0.119-0.938,0.378c-0.054,0.054-0.142,0.055-0.194,0.001c-0.054-0.053-0.055-0.141-0.002-0.195
							c0.312-0.314,0.725-0.483,1.149-0.459c0.418,0.024,0.82,0.236,1.103,0.584c0.048,0.06,0.039,0.146-0.021,0.194
							C96.189,19.92,96.158,19.93,96.128,19.93z"/>
					</g>
					<g>
						<path fill="#554537" d="M99.172,19.93c0.041,0,0.08-0.019,0.107-0.052c0.233-0.288,0.562-0.464,0.903-0.482
							c0.334-0.017,0.683,0.119,0.938,0.378c0.054,0.054,0.142,0.055,0.194,0.001c0.055-0.053,0.055-0.141,0.001-0.195
							c-0.312-0.314-0.725-0.483-1.149-0.459c-0.418,0.024-0.819,0.236-1.102,0.584c-0.048,0.06-0.039,0.146,0.021,0.194
							C99.112,19.92,99.142,19.93,99.172,19.93z"/>
					</g>
				</g>
				<path fill="#FFFFFF" d="M96.668,22.662c0,0.549,0.46,0.995,1.028,0.995s1.028-0.446,1.028-0.995H96.668z"/>
				<path fill="#CD4900" d="M91.364,19.081c0.188,1.038,0.621,2.032,1.255,2.879c0.401-1.48,0.803-2.962,1.205-4.442
					c0.925,0.621,1.998,1.023,3.106,1.165c-0.139-0.175-0.276-0.35-0.414-0.523c1.688,0.1,3.563,0.283,4.693,1.531
					c0.703,0.773,0.984,1.826,1.244,2.835c-0.036-1.276,0.539-2.499,0.618-3.774c0.096-1.558-0.606-3.145-1.828-4.13
					c-1.221-0.983-2.931-1.342-4.449-0.93c-1.255,0.34-2.488,1.206-3.479,2.044C92.326,16.574,91.134,17.81,91.364,19.081z"/>
			</g>
			<g>
				<path fill="#2F1A00" d="M34.315,26.101c-0.752,0.862-2.088,1.154-3.132,0.683c-0.753-0.341-1.305-1.003-1.827-1.644
					c-0.645-0.79-1.298-1.597-1.676-2.543c-0.379-0.947-0.442-2.074,0.076-2.95c-0.479-0.589-0.606-1.443-0.32-2.146
					c0.287-0.702,0.977-1.223,1.729-1.308c-0.292-0.445-0.287-1.066,0.015-1.506c0.301-0.44,0.878-0.67,1.398-0.56
					c0.022-0.858,0.295-1.605,1.068-1.979c0.772-0.375,1.752-0.279,2.438,0.235c0.775-0.98,2.565-0.822,3.155,0.281
					c0.732-0.207,1.531,0.114,2.09,0.63c0.56,0.516,0.925,1.201,1.28,1.873c0.51,0.967,1.032,2.1,0.611,3.107
					c0.692,0.83,0.845,2.074,0.373,3.047c0.202,1.825-0.65,3.729-2.147,4.793C37.951,27.18,35.972,26.894,34.315,26.101z"/>
				<g>
					<path fill="#803900" d="M29.395,96.296c-4.722,3.108-6.735,3.166-6.735,3.166s-0.69,0.807,1.094,0.863
						c1.785,0.057,7.947,0,7.947,0l0.445-1.957l-0.519-1.843L29.395,96.296z"/>
					<path fill="#6E3000" d="M22.529,99.805c0.007,0.227,0.236,0.487,1.225,0.52c1.785,0.058,7.947,0,7.947,0l0.118-0.52H22.529z"/>
				</g>
				<g>
					<path fill="#803900" d="M39.849,96.124c-0.326-0.02-0.614,0.235-0.609,0.563c0.005,0.295-0.072,0.6-0.194,0.87
						c-0.208,0.466-0.532,0.866-0.798,1.304c-0.265,0.435-0.474,0.937-0.411,1.441c0.039-0.01,0.022,0.118,0.062,0.108h5.095
						c0.586-0.492,0.723-1.39,0.531-2.131c-0.192-0.741-0.651-1.381-1.103-2.001C41.612,96.235,40.704,96.175,39.849,96.124z"/>
					<path fill="#6E3000" d="M37.858,99.805c-0.031,0.162-0.042,0.328-0.021,0.495c0.039-0.01,0.022,0.118,0.062,0.108h5.095
						c0.194-0.162,0.334-0.373,0.436-0.604H37.858z"/>
				</g>
				<path fill="#A6682B" d="M20.883,56.075l-0.19,2.699c0,0,0.797,2.168,0.829,2.2c0.032,0.03,1.604,0.68,1.604,0.68
					s0.139-0.255,0.054-0.468c-0.084-0.212-0.893-0.852-0.893-0.852l-0.245-1.827c0,0,0.712-0.043,0.776,0.755
					c0.063,0.797,0.244,0.914,0.425,0.84s0.542-0.956,0.372-1.53c-0.17-0.573-0.669-1.328-0.68-1.689
					c-0.011-0.359-0.681-0.604-0.712-0.637C22.19,56.214,20.883,56.075,20.883,56.075z"/>
				<path fill="#A6682B" d="M48.368,56.075l0.191,2.699c0,0-0.797,2.168-0.829,2.2c-0.032,0.03-1.604,0.68-1.604,0.68
					s-0.138-0.255-0.053-0.468c0.085-0.212,0.893-0.852,0.893-0.852l0.245-1.827c0,0-0.712-0.043-0.775,0.755
					c-0.064,0.797-0.244,0.914-0.426,0.84c-0.181-0.074-0.542-0.956-0.371-1.53c0.17-0.573,0.669-1.328,0.68-1.689
					c0.011-0.359,0.68-0.604,0.711-0.637C47.061,56.214,48.368,56.075,48.368,56.075z"/>
				<polygon fill="#5E2D00" points="32.083,96.87 34.849,60.601 39.125,96.87 42.866,96.87 41.93,54.613 27.885,56.225 
					28.267,96.87 				"/>
				<path fill="#482200" d="M34.459,55.469l-0.271,0.032c-0.484,5.835-2.838,34.146-3.478,41.367h1.373L34.849,60.6l4.275,36.269
					h2.786L34.459,55.469z"/>
				<path fill="#482200" d="M34.57,59.413c2.529-0.134,5.045-0.636,7.435-1.444l-0.058-2.601c-0.045-0.247-0.091-0.493-0.135-0.74
					l-13.928,1.599l0.032,3.379C30.126,59.802,32.372,59.748,34.57,59.413z"/>
				<path fill="#00B52D" d="M46.453,34.747c-0.668-3.128-2.991-5.637-6.066-6.516c-1.862-0.533-3.794-0.822-5.729-0.86v-0.002
					c-0.01,0-0.021,0.001-0.031,0.001c-0.01,0-0.021-0.001-0.03-0.001v0.002c-1.938,0.039-3.867,0.328-5.729,0.86
					c-3.076,0.878-5.398,3.387-6.067,6.516c-1.517,7.094-2.296,14.273-2.232,21.563c0.833,0.028,1.768,0.241,2.601,0.271
					c0.073-5.406,1.466-10.53,3.863-15.377c0.429,5.285,0.146,10.901-0.38,16.176c2.592,0.634,5.299,0.908,7.978,0.777
					c2.679,0.131,5.387-0.146,7.979-0.777c-0.526-5.274-0.811-10.892-0.38-16.176c2.396,4.847,3.791,9.971,3.862,15.377
					c0.833-0.029,1.77-0.242,2.602-0.271C48.749,49.02,47.969,41.842,46.453,34.747z"/>
				<path fill="#009E26" d="M40.386,28.232c-1.862-0.533-3.794-0.822-5.729-0.86V27.37c-0.01,0-0.021,0.001-0.031,0.001
					c-0.01,0-0.021-0.001-0.03-0.001v0.002c-1.938,0.039-3.867,0.328-5.729,0.86c-0.213,0.061-0.422,0.131-0.627,0.207
					c2.157,2.099,4.822,3.677,7.718,4.506c3.216,0.919,6.683,0.904,9.906,0.018C44.827,30.686,42.849,28.935,40.386,28.232z"/>
				<g>
					<circle fill="#845220" cx="30.033" cy="21.073" r="1.228"/>
					<circle fill="#845220" cx="39.392" cy="21.073" r="1.228"/>
				</g>
				<path fill="#7F4E1F" d="M36.838,28.499L36.838,28.499c-1.158,0.886-2.762,0.902-3.938,0.04l-0.053-0.04v-4.912h3.99V28.499z"/>
				<path fill="#A6682B" d="M34.842,27.208L34.842,27.208c-2.69,0-4.874-2.182-4.874-4.874l-0.087-2.989
					c0-2.69,2.183-4.872,4.873-4.872l0,0c2.691,0,4.873,2.182,4.873,4.872l0.087,2.989C39.715,25.027,37.533,27.208,34.842,27.208z"
					/>
				<path fill="#985F27" d="M35.79,14.586c1.534,0.82,2.579,2.438,2.579,4.298l0.087,2.99c0,2.691-2.182,4.873-4.873,4.873l0,0
					c-0.354,0-0.702-0.04-1.035-0.113c0.685,0.366,1.465,0.574,2.293,0.574l0,0c2.691,0,4.873-2.182,4.873-4.874l-0.087-2.989
					C39.628,17.01,37.984,15.06,35.79,14.586z"/>
				<g>
					<ellipse cx="32.277" cy="20.895" rx="0.372" ry="0.723"/>
					<ellipse cx="37.542" cy="20.895" rx="0.372" ry="0.723"/>
				</g>
				<g>
					<g>
						<path d="M33.421,19.93c-0.04,0-0.08-0.019-0.105-0.052c-0.233-0.288-0.563-0.464-0.903-0.482
							c-0.334-0.017-0.682,0.119-0.938,0.378c-0.055,0.054-0.142,0.055-0.195,0.001c-0.054-0.053-0.055-0.141-0.001-0.195
							c0.311-0.314,0.724-0.483,1.15-0.459c0.418,0.024,0.819,0.236,1.101,0.584c0.048,0.06,0.039,0.146-0.021,0.194
							C33.482,19.92,33.451,19.93,33.421,19.93z"/>
					</g>
					<g>
						<path d="M36.465,19.93c0.04,0,0.08-0.019,0.107-0.052c0.233-0.288,0.562-0.464,0.903-0.482
							c0.334-0.017,0.683,0.119,0.938,0.378c0.054,0.054,0.142,0.055,0.195,0.001c0.054-0.053,0.055-0.141,0.001-0.195
							c-0.312-0.314-0.725-0.483-1.149-0.459c-0.418,0.024-0.819,0.236-1.102,0.584c-0.048,0.06-0.039,0.146,0.021,0.194
							C36.404,19.92,36.434,19.93,36.465,19.93z"/>
					</g>
				</g>
				<path fill="#FFFFFF" d="M33.961,22.662c0,0.549,0.46,0.995,1.028,0.995s1.028-0.446,1.028-0.995H33.961z"/>
				<path fill="#2F1A00" d="M28.094,20.41c0.488,0.533,1.355,0.672,1.986,0.318c0.631-0.355,0.964-1.167,0.765-1.862
					c0.343,0.447,1.024,0.233,1.512-0.052c0.485-0.284,0.787-0.808,0.981-1.335c0.571,0.792,1.683,0.961,2.484,0.402
					c0.511,0.829,1.477,1.071,2.383,0.715c-0.048,0.753,0.288,1.497,0.831,2.021s1.322,0.792,2.072,0.716
					c-0.082-1.48-0.326-3.08-0.948-4.427c-0.622-1.348-1.688-2.538-3.077-3.06c-1.894-0.713-4.104-0.059-5.657,1.238
					C29.874,16.382,28.846,18.532,28.094,20.41z"/>
			</g>
			<g opacity="0.1">
				<path d="M46.318,56.883c-0.011,0.361-0.51,1.116-0.68,1.689c-0.171,0.574,0.19,1.456,0.371,1.53
					c0.182,0.074,0.361-0.043,0.426-0.84c0.063-0.798,0.775-0.755,0.775-0.755l-0.245,1.827c0,0-0.808,0.64-0.893,0.852
					c-0.085,0.213,0.053,0.468,0.053,0.468s1.573-0.648,1.604-0.68c0.032-0.032,0.829-2.2,0.829-2.2l-0.173-2.446
					c0.102-0.009,0.201-0.015,0.301-0.019c0.063-7.289-0.717-14.469-2.234-21.563c-0.196-0.919-0.539-1.782-0.998-2.567
					c-0.01-0.019-0.019-0.035-0.029-0.053c-0.062-0.104-0.126-0.206-0.191-0.307c-0.028-0.044-0.058-0.087-0.085-0.13
					c-0.063-0.096-0.129-0.188-0.197-0.279c-0.034-0.045-0.069-0.091-0.104-0.136c-0.068-0.089-0.137-0.179-0.208-0.266
					c-0.031-0.036-0.063-0.071-0.096-0.108c-0.131-0.153-0.269-0.301-0.411-0.445c-0.052-0.052-0.103-0.105-0.155-0.157
					c-0.066-0.063-0.136-0.125-0.203-0.187c-0.063-0.057-0.126-0.113-0.191-0.168c-0.066-0.057-0.134-0.112-0.202-0.166
					c-0.073-0.061-0.149-0.117-0.227-0.173c-0.063-0.047-0.125-0.096-0.188-0.14c-0.114-0.081-0.231-0.157-0.351-0.233
					c-0.051-0.032-0.103-0.064-0.155-0.095c-0.124-0.075-0.25-0.147-0.377-0.217c-0.056-0.029-0.112-0.058-0.17-0.087
					c-0.104-0.053-0.211-0.104-0.318-0.153c-0.062-0.027-0.121-0.055-0.182-0.081c-0.114-0.049-0.229-0.095-0.345-0.139
					c-0.054-0.021-0.108-0.042-0.163-0.062c-0.17-0.062-0.343-0.117-0.519-0.167c-1.161-0.333-2.35-0.57-3.549-0.711v-0.307
					c-0.544,0.61-0.988,1.273-0.973,2.021c0.024,1.148,1.154,2.157,1.036,3.302c-0.078,0.749-0.672,1.371-1.1,2.029
					c-0.993,1.523-1.097,3.435-0.307,5.04c-1.255,6.625-1.899,13.329-1.848,20.136c0.045,0.002,0.094,0.01,0.14,0.013l-0.164,2.304
					c0,0,0.749,2.037,0.779,2.065c0.006,0.006,0.072,0.036,0.172,0.079l0.275-3.601l0.143,1.21c0.189,0.022,0.583,0.139,0.628,0.704
					c0.061,0.749,0.23,0.858,0.399,0.789c0.17-0.07,0.509-0.898,0.35-1.438s-0.629-1.248-0.639-1.588
					c-0.003-0.117-0.083-0.221-0.186-0.308c0.095,0.008,0.189,0.021,0.28,0.023c0.049-4.154,0.841-8.131,2.225-11.933
					c0.318,0.332,0.721,0.586,1.161,0.797c0.092,3.958-0.125,8.018-0.469,11.886c0.12,0.033,0.24,0.062,0.36,0.091l0.022,2.533
					l0.312,34.479h0.232c-0.445,0.276-0.858,0.521-1.246,0.738c-0.06,0.09-0.118,0.181-0.175,0.272
					c-0.217,0.355-0.395,0.759-0.417,1.171c-0.001,0.013-0.002,0.022-0.002,0.035c-0.002,0.078-0.001,0.157,0.008,0.235
					c0.039-0.01,0.022,0.118,0.062,0.108h4.935l0.264-1.154l-0.396-1.407h0.176l0,0l0.062-0.825
					c-0.033-0.051-0.063-0.104-0.098-0.152h0.027l-0.872-39.354c0.203-0.045,0.406-0.088,0.608-0.138
					c-0.525-5.274-0.81-10.892-0.38-16.176c2.396,4.847,3.791,9.971,3.862,15.377c0.142-0.004,0.286-0.017,0.434-0.03
					C46.408,56.644,46.322,56.756,46.318,56.883z"/>
				<path d="M35.959,64.323c-0.063-0.16-0.561-0.574-0.758-0.734l0.109,0.926c0.318,0.133,0.599,0.248,0.599,0.248
					S36.039,64.522,35.959,64.323z"/>
				<path d="M37.219,26.806c0.792-0.012,1.559-0.214,2.229-0.689c1.497-1.063,2.351-2.969,2.147-4.793
					c0.333-0.684,0.35-1.5,0.093-2.215c-0.528,0.304-1.171,0.504-1.765,0.727c-0.929,0.35-1.91,0.959-1.916,1.821
					c-0.003,0.698,0.646,1.273,0.84,1.952c0.295,1.032-0.498,2.045-1.301,2.86C37.44,26.579,37.329,26.692,37.219,26.806z"/>
			</g>
			<g>
				<path fill="#652800" d="M47.448,50.891c-1.702-0.582-3.403-1.165-5.104-1.747c-0.968-0.331-1.98-0.691-2.62-1.389
					c-1.501-1.636-0.207-4.1-1.032-6.051c-0.295-0.697-0.85-1.292-1.252-1.949c-1.03-1.68-0.999-3.796,0.081-5.454
					c0.428-0.657,1.021-1.279,1.1-2.028c0.119-1.146-1.012-2.153-1.036-3.302c-0.021-1.063,0.883-1.95,1.686-2.767
					c0.802-0.814,1.595-1.829,1.3-2.861c-0.194-0.678-0.843-1.254-0.839-1.951c0.005-0.861,0.986-1.473,1.916-1.821
					c0.929-0.35,1.987-0.64,2.521-1.373c0.433-0.593,1.274-0.901,1.988-1.247c0.713-0.347,1.661-0.438,2.337-0.043
					c0.861,0.504,1.004,1.586,1.828,2.133c1.226,0.813,3.443,0.135,4.289,1.241c0.711,0.93-0.325,2.154-0.117,3.249
					c0.19,1,1.371,1.672,1.702,2.646c0.476,1.397-0.923,2.75-1.078,4.197c-0.172,1.623,1.239,3.224,0.736,4.796
					c-0.337,1.056-1.479,1.838-1.74,2.908c-0.315,1.293,0.745,2.596,0.527,3.903c-0.292,1.75-2.657,2.708-3.435,4.349
					c-0.366,0.772-0.347,1.628-0.435,2.457s-0.325,1.709-1.053,2.268C48.991,51.612,47.934,51.614,47.448,50.891z"/>
				<g>
					<path fill="#E95A00" d="M42.229,96.545c-4.436,2.921-6.328,2.976-6.328,2.976s-0.649,0.758,1.027,0.812
						c1.677,0.055,7.467,0,7.467,0l0.418-1.839l-0.486-1.731L42.229,96.545z"/>
					<path fill="#D85100" d="M35.778,99.843c0.007,0.214,0.223,0.459,1.15,0.488c1.677,0.055,7.467,0,7.467,0l0.11-0.488H35.778z"/>
				</g>
				<g>
					<path fill="#E95A00" d="M51.573,96.383c-0.306-0.019-0.577,0.223-0.572,0.528c0.004,0.277-0.067,0.563-0.183,0.818
						c-0.196,0.437-0.501,0.813-0.75,1.224c-0.249,0.409-0.445,0.88-0.386,1.355c0.035-0.011,0.021,0.109,0.057,0.102h4.787
						c0.551-0.463,0.679-1.306,0.499-2.002c-0.18-0.697-0.611-1.298-1.035-1.88C53.23,96.488,52.377,96.431,51.573,96.383z"/>
					<path fill="#D85100" d="M49.702,99.842c-0.029,0.153-0.039,0.311-0.02,0.468c0.035-0.011,0.021,0.109,0.057,0.102h4.787
						c0.183-0.152,0.313-0.351,0.409-0.568L49.702,99.842L49.702,99.842z"/>
				</g>
				<path fill="#FFDCB4" d="M37.376,58.635l-0.153,2.176c0,0,0.642,1.746,0.668,1.771c0.025,0.025,1.292,0.548,1.292,0.548
					s0.11-0.206,0.043-0.377c-0.069-0.171-0.72-0.686-0.72-0.686l-0.196-1.474c0,0,0.572-0.032,0.625,0.608
					c0.051,0.643,0.196,0.736,0.342,0.676c0.146-0.06,0.437-0.77,0.3-1.231s-0.539-1.07-0.548-1.361s-0.548-0.487-0.574-0.513
					C38.428,58.746,37.376,58.635,37.376,58.635z"/>
				<path fill="#FFDCB4" d="M56.943,58.578l0.158,2.536c0,0-0.659,2.036-0.687,2.066c-0.025,0.029-1.328,0.639-1.328,0.639
					s-0.113-0.239-0.043-0.439c0.07-0.198,0.738-0.798,0.738-0.798l0.203-1.718c0,0-0.589-0.04-0.643,0.709
					c-0.053,0.749-0.201,0.858-0.352,0.789s-0.449-0.898-0.308-1.438c0.141-0.538,0.554-1.247,0.563-1.587s0.563-0.567,0.59-0.599
					C55.862,58.708,56.943,58.578,56.943,58.578z"/>
				<polygon fill="#FFB5EE" points="44.594,97.084 47.087,63.009 50.941,97.084 54.313,97.084 53.469,57.384 40.81,58.898 
					41.155,97.084 				"/>
				<polygon fill="#FCA6D9" points="46.817,58.179 46.737,58.189 42.99,97.084 44.594,97.084 47.087,63.009 50.941,97.084 
					53.457,97.084 				"/>
				<path fill="#FCA6D9" d="M53.538,60.615l-0.067-3.231l-12.66,1.515l0.032,3.708c2.194-0.21,4.393-0.519,6.563-0.927
					C49.462,61.414,51.514,61.055,53.538,60.615z"/>
				<path fill="#FF5092" d="M55.457,38.719c-0.47-2.938-2.103-4.499-4.265-5.323c-1.31-0.5-2.667-0.957-4.027-0.993v-0.001
					c-0.007,0-0.015,0-0.021,0c-0.008,0-0.016,0-0.022,0v0.001c-1.36,0.036-2.719,0.493-4.027,0.993
					c-2.162,0.824-3.796,2.384-4.266,5.323c-1.065,6.665-1.614,13.409-1.57,20.259c0.586,0.026,1.243,0.228,1.828,0.256
					c0.052-5.081,1.031-14.688,2.717-19.243c2.156,8.727-1.143,15.036-1.601,19.992c2.255,0.596,5.057,0.854,6.94,0.729
					c1.882,0.125,4.685-0.134,6.939-0.729c-0.458-4.956-3.276-12.094-1.6-19.992c1.685,4.554,2.665,14.162,2.715,19.243
					c0.585-0.028,1.243-0.229,1.829-0.256C57.072,52.128,56.523,45.384,55.457,38.719z"/>
				<path fill="#EE4077" d="M51.193,33.395c-1.31-0.5-2.667-0.957-4.027-0.993v-0.001c-0.007,0-0.015,0-0.021,0
					c-0.008,0-0.016,0-0.022,0v0.001c-1.36,0.036-2.719,0.493-4.027,0.993c-0.29,0.109-0.569,0.234-0.838,0.374
					c1.803,1.481,3.893,2.614,6.137,3.256c2.197,0.629,4.519,0.783,6.787,0.506C54.501,35.347,53.041,34.101,51.193,33.395z"/>
				<g>
					<circle fill="#EAC29E" cx="42.828" cy="26.373" r="1.154"/>
					<circle fill="#EAC29E" cx="51.622" cy="26.373" r="1.154"/>
				</g>
				<path fill="#E5BD9B" d="M49.221,33.35L49.221,33.35c-1.089,0.833-2.597,0.847-3.7,0.037l-0.05-0.037v-4.616h3.75V33.35z"/>
				<path fill="#FFDCB4" d="M47.346,32.137L47.346,32.137c-2.528,0-4.579-2.05-4.579-4.579l-0.082-2.81
					c0-2.529,2.05-4.578,4.578-4.578l0,0c2.528,0,4.577,2.049,4.577,4.578l0.083,2.81C51.925,30.088,49.875,32.137,47.346,32.137z"
					/>
				<path fill="#FDD1AB" d="M48.237,20.278c1.442,0.77,2.424,2.29,2.424,4.039l0.082,2.809c0,2.528-2.05,4.578-4.578,4.578l0,0
					c-0.334,0-0.659-0.038-0.973-0.104c0.642,0.343,1.375,0.539,2.155,0.539l0,0c2.528,0,4.578-2.05,4.578-4.579l-0.083-2.81
					C51.843,22.556,50.298,20.724,48.237,20.278z"/>
				<g>
					<ellipse fill="#554537" cx="44.936" cy="26.206" rx="0.349" ry="0.424"/>
					<ellipse fill="#554537" cx="49.884" cy="26.206" rx="0.35" ry="0.424"/>
				</g>
				<g>
					<g>
						<path fill="#554537" d="M46.011,25.299c-0.038,0-0.075-0.016-0.101-0.048c-0.219-0.27-0.528-0.436-0.849-0.453
							c-0.314-0.015-0.642,0.111-0.881,0.355c-0.052,0.051-0.134,0.051-0.184,0.001c-0.051-0.05-0.051-0.132-0.001-0.183
							c0.292-0.298,0.682-0.455,1.081-0.433c0.394,0.022,0.771,0.222,1.035,0.549c0.045,0.057,0.036,0.138-0.019,0.183
							C46.069,25.29,46.04,25.299,46.011,25.299z"/>
					</g>
					<g>
						<path fill="#554537" d="M48.871,25.299c0.038,0,0.075-0.016,0.102-0.048c0.219-0.27,0.527-0.436,0.848-0.453
							c0.313-0.015,0.641,0.111,0.881,0.355c0.05,0.051,0.132,0.051,0.183,0.001c0.052-0.05,0.052-0.132,0.001-0.183
							c-0.292-0.298-0.681-0.455-1.08-0.433c-0.393,0.022-0.771,0.222-1.034,0.549c-0.045,0.057-0.037,0.138,0.019,0.183
							C48.814,25.29,48.843,25.299,48.871,25.299z"/>
					</g>
				</g>
				<path fill="#FFFFFF" d="M46.518,27.866c0,0.516,0.433,0.935,0.966,0.935s0.966-0.418,0.966-0.935H46.518z"/>
				<path fill="#652800" d="M42.434,30.31c0.271-0.596,0.291-1.269,0.345-1.919c0.165-1.999,0.685-3.968,1.526-5.786
					c1.397,1.166,2.957,2.14,4.617,2.886c0.583,0.262,1.189,0.501,1.68,0.913c1.6,1.347,1.461,4.049,3.075,5.378
					c0.283-2.727,0.521-5.569-0.438-8.137c-0.959-2.569-3.479-4.771-6.201-4.438c-1.376,0.167-2.625,0.955-3.561,1.979
					c-0.937,1.023-1.588,2.272-2.137,3.548c-0.586,1.365-1.073,2.9-0.924,4.406C40.537,30.342,41.507,32.35,42.434,30.31z"/>
			</g>
			<g>
				<path fill="#D19F00" d="M124.549,34.309c-1.296-1.608-2.486-3.33-3.225-5.259c-0.738-1.928-0.999-4.088-0.42-6.069
					c0.579-1.982,2.076-3.744,4.048-4.354c1.235-0.382,2.075-1.452,3.365-1.367c2.362,0.156,4.426,1.927,5.36,4.103
					c0.933,2.175,0.863,4.677,0.268,6.969c-0.595,2.292-1.685,4.419-2.767,6.526c-1.668,0.118-3.433,0.264-5.104,0.305
					C125.379,35.177,124.983,34.849,124.549,34.309z"/>
				<g>
					<path fill="#E95A00" d="M122.231,96.545c-4.437,2.921-6.329,2.976-6.329,2.976s-0.649,0.758,1.028,0.812
						c1.676,0.055,7.467,0,7.467,0l0.418-1.839l-0.487-1.731L122.231,96.545z"/>
					<path fill="#D85100" d="M115.78,99.843c0.007,0.214,0.222,0.459,1.151,0.488c1.676,0.055,7.467,0,7.467,0l0.11-0.488H115.78z"
						/>
				</g>
				<g>
					<path fill="#E95A00" d="M131.574,96.383c-0.306-0.019-0.577,0.223-0.572,0.528c0.005,0.277-0.067,0.563-0.183,0.818
						c-0.196,0.437-0.501,0.813-0.75,1.224c-0.248,0.409-0.445,0.88-0.386,1.355c0.036-0.011,0.021,0.109,0.057,0.102h4.787
						c0.551-0.463,0.68-1.306,0.5-2.002c-0.18-0.697-0.611-1.298-1.035-1.88C133.231,96.488,132.378,96.431,131.574,96.383z"/>
					<path fill="#D85100" d="M129.704,99.842c-0.029,0.153-0.04,0.311-0.02,0.468c0.036-0.011,0.021,0.109,0.057,0.102h4.787
						c0.183-0.152,0.314-0.351,0.409-0.568L129.704,99.842L129.704,99.842z"/>
				</g>
				<polygon fill="#CE9600" points="124.595,97.084 127.088,63.009 130.943,97.084 134.314,97.084 133.47,57.384 120.811,58.898 
					121.156,97.084 				"/>
				<polygon fill="#9C7200" points="126.818,58.179 126.738,58.189 122.991,97.084 124.595,97.084 127.088,63.009 130.943,97.084 
					133.458,97.084 				"/>
				<path fill="#9C7200" d="M133.539,60.615l-0.068-3.231l-12.659,1.516l0.034,3.708c2.193-0.21,4.392-0.519,6.561-0.927
					C129.463,61.414,131.515,61.055,133.539,60.615z"/>
				<path fill="#FFDCB4" d="M117.359,58.471l-0.154,2.175c0,0,0.643,1.747,0.667,1.771c0.026,0.025,1.293,0.548,1.293,0.548
					s0.111-0.206,0.043-0.377c-0.067-0.171-0.719-0.685-0.719-0.685l-0.197-1.473c0,0,0.573-0.034,0.625,0.606
					c0.053,0.644,0.197,0.736,0.342,0.677c0.146-0.06,0.438-0.771,0.301-1.232c-0.138-0.462-0.539-1.069-0.548-1.361
					c-0.009-0.29-0.549-0.487-0.574-0.513C118.412,58.584,117.359,58.471,117.359,58.471z"/>
				<path fill="#FFDCB4" d="M136.927,58.416l0.157,2.535c0,0-0.66,2.037-0.686,2.066c-0.027,0.029-1.328,0.64-1.328,0.64
					s-0.114-0.24-0.045-0.439c0.071-0.199,0.739-0.799,0.739-0.799l0.202-1.717c0,0-0.589-0.04-0.642,0.708
					c-0.053,0.749-0.203,0.859-0.352,0.789c-0.149-0.069-0.449-0.898-0.309-1.438c0.142-0.538,0.555-1.247,0.563-1.587
					s0.563-0.568,0.588-0.6C135.845,58.545,136.927,58.416,136.927,58.416z"/>
				<path fill="#006456" d="M135.441,38.556c-0.471-2.939-2.104-4.499-4.267-5.325c-1.309-0.5-2.667-0.957-4.027-0.992v-0.002
					c-0.007,0.001-0.015,0.001-0.021,0.001c-0.008,0-0.015,0-0.021-0.001v0.002c-1.361,0.036-2.718,0.493-4.028,0.992
					c-2.162,0.826-3.794,2.385-4.265,5.325c-1.066,6.665-1.614,13.408-1.57,20.258c0.585,0.027,1.243,0.228,1.828,0.255
					c0.051-5.079,1.031-14.688,2.715-19.242c2.157,8.728-1.142,15.036-1.6,19.992c2.255,0.595,5.058,0.854,6.939,0.729
					c1.882,0.124,4.687-0.136,6.94-0.729c-0.457-4.956-3.277-12.093-1.601-19.992c1.686,4.554,2.665,14.163,2.716,19.242
					c0.586-0.027,1.243-0.228,1.828-0.255C137.054,51.966,136.507,45.221,135.441,38.556z"/>
				<path fill="#005C4E" d="M131.176,33.232c-1.309-0.5-2.667-0.957-4.027-0.992v-0.002c-0.007,0.001-0.015,0.001-0.021,0.001
					c-0.008,0-0.015,0-0.021-0.001v0.002c-1.361,0.036-2.718,0.493-4.028,0.992c-0.29,0.11-0.569,0.235-0.838,0.375
					c1.803,1.481,3.892,2.615,6.136,3.256c2.198,0.628,4.52,0.783,6.787,0.505C134.484,35.184,133.025,33.938,131.176,33.232z"/>
				<g>
					<circle fill="#EAC29E" cx="122.83" cy="25.872" r="1.154"/>
					<circle fill="#EAC29E" cx="131.623" cy="25.872" r="1.154"/>
				</g>
				<path fill="#E5BD9B" d="M129.223,32.849L129.223,32.849c-1.09,0.833-2.597,0.847-3.701,0.035l-0.05-0.035v-4.616h3.75
					L129.223,32.849L129.223,32.849z"/>
				<path fill="#FFDCB4" d="M127.348,31.635L127.348,31.635c-2.529,0-4.579-2.05-4.579-4.578l-0.082-2.81
					c0-2.528,2.05-4.578,4.579-4.578l0,0c2.527,0,4.579,2.049,4.579,4.578l0.082,2.81C131.927,29.586,129.876,31.635,127.348,31.635
					z"/>
				<path fill="#FDD1AB" d="M128.238,19.776c1.442,0.771,2.425,2.29,2.425,4.04l0.082,2.809c0,2.529-2.05,4.579-4.579,4.579l0,0
					c-0.334,0-0.659-0.038-0.973-0.105c0.642,0.343,1.375,0.54,2.155,0.54l0,0c2.527,0,4.579-2.051,4.579-4.579l-0.082-2.81
					C131.844,22.055,130.3,20.222,128.238,19.776z"/>
				<g>
					<ellipse fill="#00575E" cx="124.938" cy="25.705" rx="0.349" ry="0.424"/>
					<ellipse fill="#00575E" cx="129.885" cy="25.705" rx="0.35" ry="0.424"/>
				</g>
				<g>
					<g>
						<path fill="#A77F00" d="M126.012,24.798c-0.037,0-0.075-0.017-0.102-0.048c-0.219-0.271-0.528-0.436-0.848-0.454
							c-0.314-0.014-0.642,0.112-0.881,0.356c-0.051,0.051-0.133,0.051-0.184,0c-0.051-0.05-0.052-0.131-0.001-0.183
							c0.292-0.297,0.681-0.454,1.08-0.432c0.394,0.022,0.771,0.223,1.035,0.549c0.044,0.056,0.036,0.138-0.02,0.183
							C126.07,24.789,126.041,24.798,126.012,24.798z"/>
					</g>
					<g>
						<path fill="#A77F00" d="M128.873,24.798c0.037,0,0.075-0.017,0.102-0.048c0.219-0.271,0.527-0.436,0.848-0.454
							c0.315-0.014,0.642,0.112,0.882,0.356c0.05,0.051,0.132,0.051,0.183,0c0.052-0.05,0.052-0.131,0.001-0.183
							c-0.292-0.297-0.68-0.454-1.079-0.432c-0.395,0.022-0.771,0.223-1.035,0.549c-0.045,0.056-0.036,0.138,0.02,0.183
							C128.815,24.789,128.844,24.798,128.873,24.798z"/>
					</g>
				</g>
				<path fill="#FFFFFF" d="M126.806,27.365c0,0.517,0.304,0.935,0.679,0.935s0.68-0.418,0.68-0.935H126.806z"/>
				<path fill="#D19F00" d="M124.124,22.022c1.296,1.177,3.071,1.625,4.7,2.268c1.629,0.644,3.306,1.683,3.781,3.368
					c1.395-2.272,0.774-5.522-1.281-7.222c-2.055-1.699-5.261-1.742-7.44-0.206c-1.794,1.265-2.813,3.471-2.796,5.646
					c0.004,0.481-0.109,1.173,0.427,1.064c0.369-0.076,0.955-1.107,1.154-1.406C123.378,24.474,123.879,23.274,124.124,22.022z"/>
			</g>
			<g opacity="0.1">
				<path d="M92.339,99.996c0,0-1.239-0.039-4.039-1.521c-2.021,0.955-2.934,0.985-2.934,0.985s-0.137,0.16-0.13,0.345l0,0
					c0,0.019,0.004,0.037,0.007,0.057c0.001,0.006,0.003,0.012,0.004,0.019c0.005,0.021,0.015,0.042,0.024,0.063
					c0.003,0.005,0.006,0.011,0.009,0.016c0.013,0.022,0.028,0.043,0.048,0.064c0.002,0.003,0.006,0.007,0.009,0.01
					c0.021,0.022,0.045,0.043,0.075,0.063c0.002,0.002,0.003,0.003,0.005,0.004c0.031,0.021,0.068,0.041,0.109,0.061
					c0.006,0.003,0.011,0.005,0.017,0.008c0.041,0.02,0.088,0.035,0.141,0.052c0.008,0.003,0.017,0.005,0.026,0.008
					c0.054,0.016,0.112,0.028,0.178,0.041c0.011,0.003,0.022,0.005,0.033,0.006c0.068,0.013,0.143,0.021,0.224,0.03
					c0.01,0.002,0.021,0.003,0.03,0.004c0.089,0.007,0.182,0.014,0.285,0.017c0.334,0.012,0.824,0.018,1.396,0.022
					c0.19,0.001,0.391,0.002,0.599,0.002c0.414,0.002,0.856,0.002,1.304,0.002c0.939-0.002,1.905-0.006,2.714-0.012
					C92.472,100.156,92.339,99.996,92.339,99.996z"/>
				<path d="M91.941,28.135c-0.123,0.033-0.246,0.062-0.368,0.097c-3.076,0.878-5.398,3.387-6.067,6.516
					c-1.517,7.094-2.296,14.273-2.232,21.563c0.099,0.004,0.199,0.01,0.3,0.019L83.4,58.774c0,0,0.797,2.168,0.829,2.2
					c0.032,0.03,1.604,0.68,1.604,0.68s0.14-0.255,0.054-0.468c-0.086-0.212-0.894-0.852-0.894-0.852l-0.244-1.827
					c0,0,0.712-0.043,0.775,0.755c0.063,0.797,0.245,0.914,0.425,0.84c0.181-0.074,0.542-0.956,0.372-1.53
					c-0.17-0.573-0.669-1.328-0.68-1.689c-0.004-0.127-0.091-0.237-0.201-0.332c0.146,0.015,0.291,0.026,0.433,0.03
					c0.072-5.406,1.466-10.53,3.863-15.377c0.376,4.631,0.205,9.52-0.197,14.208c0.099-0.036,0.197-0.071,0.294-0.11
					c0.113-1.132,0.222-2.265,0.321-3.396c0.458-0.515,0.893-1.001,0.964-1.046c0.113-0.071,0.535-1.419,0.773-2.202
					c0.159,0.123,0.266,0.204,0.266,0.204l0.249-0.542l0.196,0.201l6.172-11.625L91.941,28.135z M90.577,46.571
					c0.003-0.042,0.006-0.083,0.009-0.125l0.064,0.067C90.626,46.532,90.602,46.552,90.577,46.571z M90.614,46.009
					c0.229-3.48,0.379-6.964,0.416-10.449l2.291,1.755L90.614,46.009z"/>
			</g>
			<g>
				<g>
					<path fill="#803900" d="M72.456,95.948c0.339-0.021,0.64,0.245,0.633,0.585c-0.005,0.308,0.076,0.624,0.203,0.906
						c0.217,0.483,0.557,0.9,0.831,1.354c0.275,0.454,0.494,0.977,0.428,1.502c-0.039-0.01-0.022,0.123-0.063,0.113h-5.303
						c-0.611-0.512-0.753-1.446-0.554-2.219c0.2-0.771,0.679-1.438,1.146-2.083C70.621,96.065,71.566,96.001,72.456,95.948z"/>
					<path fill="#6E3000" d="M74.529,99.78c0.032,0.171,0.043,0.343,0.021,0.517c-0.04-0.01-0.022,0.123-0.063,0.113h-5.303
						c-0.202-0.169-0.35-0.388-0.453-0.63H74.529z"/>
				</g>
				<path fill="#FFDCB4" d="M65.369,54.56l-0.199,2.81c0,0,0.83,2.256,0.863,2.29c0.033,0.033,1.67,0.707,1.67,0.707
					s0.145-0.266,0.056-0.486s-0.929-0.885-0.929-0.885l-0.254-1.902c0,0,0.741-0.045,0.807,0.785
					c0.067,0.829,0.255,0.951,0.443,0.873c0.188-0.077,0.564-0.995,0.387-1.592c-0.177-0.597-0.696-1.383-0.708-1.759
					c-0.011-0.376-0.708-0.631-0.74-0.664C66.73,54.704,65.369,54.56,65.369,54.56z"/>
				<path fill="#FFDCB4" d="M89.908,47.529c0,0-0.778,2.657-0.938,2.757c-0.16,0.1-2.139,2.417-2.139,2.297
					c0-0.119-0.539-4.095-0.459-4.234c0.081-0.14,1.279-1.737,1.279-1.737l1.318-0.14L89.908,47.529z"/>
				<path fill="#F4F4F4" d="M90.448,47.329l-0.439,0.959c0,0-2.297-1.757-2.196-1.818c0.1-0.06,1.159-0.897,1.159-0.897
					L90.448,47.329z"/>
				<polygon fill="#F4F4F4" points="65.186,53.999 65.166,55.177 67.523,55.497 67.523,53.999 				"/>
				<g>
					<path fill="#803900" d="M83.18,96.128c4.914,3.235,7.011,3.296,7.011,3.296s0.719,0.84-1.138,0.898
						c-1.858,0.06-8.272,0-8.272,0l-0.464-2.038l0.539-1.917L83.18,96.128z"/>
					<path fill="#6E3000" d="M90.327,99.78c-0.008,0.237-0.246,0.509-1.273,0.542c-1.858,0.06-8.272,0-8.272,0l-0.124-0.542H90.327z
						"/>
				</g>
				<polygon fill="#404040" points="73.176,96.724 79.906,58.973 80.505,96.724 84.399,96.724 87.278,52.741 72.657,54.419 
					69.203,96.724 				"/>
				<path fill="#303030" d="M87.082,55.733l0.196-2.992l-14.62,1.678l-0.219,2.676C77.331,57.602,82.426,57.201,87.082,55.733z"/>
				<polygon fill="#303030" points="80.088,53.566 79.555,53.628 71.792,96.724 73.176,96.724 79.906,58.973 80.505,96.724 
					82.432,96.724 				"/>
				<path fill="#652800" d="M74.025,17.026c0.048,0.322,0.063,0.648,0.076,0.977c0.264,0.438,0.611,0.832,1.007,1.16
					c0.813,0.677,1.804,1.114,2.799,1.492c1.233,0.47,2.587,0.867,3.863,0.524c1.206-0.325,2.09-1.229,3.015-2.09
					c0.383-0.354,0.626-0.829,0.697-1.342c0.165-1.191,0.565-2.479,0.642-3.542c0.106-1.499-0.009-3.101-0.889-4.33
					c-0.66-0.921-1.699-1.539-2.802-1.847c-1.104-0.308-2.273-0.326-3.415-0.222c-0.849,0.076-1.71,0.229-2.444,0.651
					c-0.733,0.424-1.352,1.203-1.385,2.039c-0.89-0.192-1.791,0.493-2.093,1.336c-0.304,0.843-0.139,1.777,0.138,2.63
					C73.507,15.317,73.89,16.142,74.025,17.026z"/>
				<g>
					<circle fill="#EAC29E" cx="74.893" cy="16.897" r="1.278"/>
					<circle fill="#EAC29E" cx="84.635" cy="16.897" r="1.278"/>
				</g>
				<polygon fill="#3E3E3E" points="86.678,26.075 88.717,26.184 96.625,36.322 90.453,47.947 88.356,45.789 91.173,36.741 
					85.539,32.427 				"/>
				<polygon fill="#303030" points="89.727,47.2 89.255,45.31 92.131,36.861 93.57,36.682 92.491,36.322 93.689,36.082 
					92.011,35.782 88.116,30.449 87.71,34.09 91.173,36.741 88.356,45.789 				"/>
				<rect x="77.822" y="21.141" fill="#E5BD9B" width="4.155" height="5.112"/>
				<path fill="#FFDCB4" d="M79.899,23.283L79.899,23.283c-2.801,0-5.072-2.27-5.072-5.072l-0.091-3.111
					c0-2.803,2.271-5.073,5.072-5.073l0,0c2.802,0,5.072,2.271,5.072,5.073l0.092,3.111C84.971,21.013,82.7,23.283,79.899,23.283z"
					/>
				<path fill="#FDD1AB" d="M84.971,18.21L84.88,15.1c0-2.626-1.996-4.786-4.553-5.046c-0.004,0-0.009,0-0.014,0
					c-0.023-0.003-0.047-0.002-0.07-0.005c-0.459-0.011-0.918,0.058-1.354,0.213c-0.679,0.24-1.367,0.449-2.024,0.712
					c-1.288,0.92-2.13,2.423-2.13,4.127l0.065,2.266c0.148-0.276,0.326-0.543,0.5-0.797c0.492-0.718,1.061-1.45,1.124-2.315
					c0.382,0.488,1,0.527,1.62,0.595c0.619,0.066,1.246,0.007,1.867,0.054c1.179,0.092,2.322,0.59,3.187,1.389
					c0.863,0.799,1.443,1.895,1.615,3.052C84.82,18.968,84.905,18.59,84.971,18.21z"/>
				<path fill="#FDD1AB" d="M80.885,10.144c1.599,0.854,2.687,2.537,2.687,4.475l0.091,3.112c0,2.801-2.271,5.073-5.072,5.073l0,0
					c-0.37,0-0.729-0.042-1.077-0.118c0.712,0.381,1.523,0.597,2.387,0.597l0,0c2.802,0,5.073-2.27,5.073-5.072l-0.092-3.111
					C84.881,12.668,83.169,10.638,80.885,10.144z"/>
				<g>
					<ellipse fill="#554537" cx="77.229" cy="16.711" rx="0.387" ry="0.565"/>
					<ellipse fill="#554537" cx="82.71" cy="16.711" rx="0.388" ry="0.565"/>
				</g>
				<path fill="#535353" d="M80.094,24.375c-4.068,0-8.131,1.088-11.654,3.119c-2.282,8.868-3.48,17.855-3.401,27.011
					c0.866,0.031,1.84,0.253,2.707,0.283c0.076-5.627,1.526-10.961,4.021-16.006c0.445,5.5,0.15,11.346-0.396,16.837
					c5.358,1.311,11.193,1.158,16.314-0.893c0.951-9.501,1.509-19.008,1.031-28.543C85.808,24.907,83.27,24.375,80.094,24.375z"/>
				<path fill="#404040" d="M83.409,24.542l3.209,4.11l-1.139,0.839l1.079,0.419c0,0-2.631,11.396-5.062,15.375l0.268-15.675
					L83.409,24.542z"/>
				<path fill="#F4F4F4" d="M76.098,24.726c3.045,6.286,4.366,13.437,5.501,20.463c0.755-3.426,1.208-6.833,1.565-10.334
					c0.35-3.408,0.692-6.878,0.218-10.252c-1.044-0.155-2.124-0.228-3.29-0.228C78.755,24.376,77.417,24.495,76.098,24.726z"/>
				<path fill="#F87D63" d="M82.916,37.117c-0.129-1.417-0.275-2.831-0.452-4.242c-0.331-2.644-0.782-5.353-2.163-7.632
					c-0.703,3.157-0.825,6.29-0.726,9.479c0.848,3.438,1.459,6.969,2.024,10.468C82.19,42.506,82.595,39.833,82.916,37.117z"/>
				<path fill="#E35434" d="M80.356,26.697L80.356,26.697c-0.333,0-0.62-0.234-0.688-0.56l-0.127-0.618
					c-0.089-0.436,0.243-0.844,0.688-0.844h0.254c0.444,0,0.776,0.408,0.687,0.844l-0.127,0.618
					C80.976,26.463,80.689,26.697,80.356,26.697z"/>
				<polygon fill="#E8E8E8" points="76.091,24.721 77.797,22.969 80.356,24.362 79.458,25.844 				"/>
				<polygon fill="#E8E8E8" points="81.928,23.24 80.356,24.362 81.254,25.664 83.409,24.542 				"/>
				<path fill="#404040" d="M76.098,24.726c0.001,0,0.002,0,0.003-0.001l-0.011-0.004l-3.016,4.05l2.637,1.558l-1.198,0.659
					c0,0,4.563,6.905,6.982,14.297c0.026-0.093,0.05-0.186,0.072-0.278C80.442,38.039,79.117,30.957,76.098,24.726z"/>
				<path fill="#454545" d="M72.739,53.961c1.856-7.048,1.882-14.459,0.233-21.56c-3.939,6.738-6.158,14.469-6.412,22.269
					c0.402,0.056,0.805,0.105,1.185,0.119c0.076-5.627,1.526-10.961,4.021-16.006c0.445,5.5,0.15,11.346-0.396,16.837
					c4.779,1.168,9.938,1.17,14.63-0.298C81.548,55.991,76.94,55.582,72.739,53.961z"/>
				<path fill="#454545" d="M81.181,43.9c0.005,0.068,0.436,6.35-0.679,12.475c0.249-0.02,0.497-0.046,0.744-0.072
					c1.084-6.152,0.655-12.386,0.651-12.453L81.181,43.9z"/>
				<circle fill="#404040" cx="81.659" cy="47.17" r="0.719"/>
				<circle fill="#404040" cx="81.479" cy="52.024" r="0.719"/>
				<g>
					<g>
						<path fill="#554537" d="M78.42,15.708c-0.042,0-0.083-0.018-0.11-0.053c-0.242-0.3-0.585-0.483-0.94-0.503
							c-0.348-0.018-0.71,0.124-0.977,0.394c-0.057,0.058-0.146,0.059-0.202,0.001c-0.058-0.055-0.058-0.146-0.002-0.202
							c0.324-0.328,0.754-0.504,1.196-0.478c0.436,0.024,0.854,0.246,1.146,0.607c0.05,0.062,0.041,0.151-0.021,0.201
							C78.483,15.697,78.451,15.708,78.42,15.708z"/>
					</g>
					<g>
						<path fill="#554537" d="M81.588,15.708c0.042,0,0.083-0.018,0.111-0.053c0.243-0.3,0.585-0.483,0.94-0.503
							c0.348-0.018,0.71,0.124,0.976,0.394c0.056,0.058,0.146,0.059,0.203,0.001c0.057-0.055,0.057-0.146,0.002-0.202
							c-0.324-0.328-0.754-0.504-1.197-0.478c-0.436,0.024-0.854,0.246-1.146,0.607c-0.051,0.062-0.041,0.151,0.021,0.201
							C81.525,15.697,81.557,15.708,81.588,15.708z"/>
					</g>
				</g>
				<path fill="#652800" d="M73.815,14.979c0.113,1.095,0.446,2.167,0.976,3.134c-0.207-0.843,0.319-1.667,0.812-2.384
					c0.49-0.717,1.06-1.45,1.124-2.314c0.381,0.487,1,0.527,1.62,0.594c0.618,0.067,1.245,0.007,1.866,0.055
					c1.18,0.092,2.322,0.59,3.187,1.388c0.864,0.799,1.443,1.894,1.616,3.052c0.396-1.421,0.531-2.892,0.333-4.354
					c-0.2-1.461-0.854-2.896-1.985-3.854s-2.771-1.374-4.173-0.874c-1.332,0.477-2.708,0.815-3.796,1.71
					C74.305,12.028,73.672,13.586,73.815,14.979z"/>
				<path fill="#FFFFFF" d="M78.584,18.931c0,0.811,0.658,1.468,1.469,1.468s1.468-0.657,1.468-1.468H78.584z"/>
			</g>
		</g>
	</g>
</g>
<path fill="#1D3766" d="M175.156,34.177c0.697-0.112,1.377-0.17,2.037-0.17s1.35,0.058,2.065,0.17v9.991
	c-0.98,0.358-2.006,0.6-3.069,0.723c-1.066,0.123-1.996,0.184-2.789,0.184c-1.66,0-3.113-0.26-4.357-0.778
	c-1.246-0.519-2.283-1.246-3.112-2.18c-0.831-0.934-1.453-2.042-1.869-3.325c-0.414-1.283-0.622-2.679-0.622-4.188
	s0.217-2.91,0.65-4.203c0.435-1.292,1.062-2.41,1.883-3.354c0.82-0.942,1.83-1.679,3.027-2.208c1.197-0.527,2.563-0.792,4.09-0.792
	c0.905,0,1.75,0.058,2.533,0.17c0.782,0.113,1.6,0.35,2.447,0.708c-0.037,0.566-0.15,1.118-0.339,1.656s-0.396,1.08-0.623,1.627
	c-0.661-0.226-1.245-0.386-1.755-0.48c-0.511-0.095-1.113-0.143-1.812-0.143c-1.813,0-3.203,0.59-4.176,1.77
	c-0.971,1.179-1.457,2.929-1.457,5.25c0,2.32,0.481,4.052,1.443,5.192c0.963,1.143,2.377,1.712,4.246,1.712
	c0.319,0,0.606-0.019,0.862-0.057c0.254-0.038,0.484-0.075,0.693-0.113v-7.16H175.156z"/>
<path fill="#1D3766" d="M189.25,35.111c0-0.453-0.075-0.82-0.227-1.104c-0.15-0.282-0.357-0.504-0.622-0.665
	c-0.265-0.159-0.59-0.269-0.978-0.325c-0.387-0.058-0.815-0.085-1.287-0.085c-1.02,0-2.104,0.197-3.255,0.595
	c-0.265-0.491-0.463-0.953-0.595-1.387c-0.132-0.435-0.198-0.953-0.198-1.558c0.83-0.283,1.66-0.49,2.49-0.623
	c0.83-0.132,1.604-0.198,2.321-0.198c1.962,0,3.495,0.473,4.599,1.416c1.104,0.943,1.656,2.453,1.656,4.528v8.491
	c-0.66,0.208-1.463,0.406-2.406,0.594c-0.942,0.188-2.009,0.283-3.196,0.283c-0.964,0-1.846-0.085-2.646-0.255
	c-0.803-0.17-1.49-0.453-2.066-0.85c-0.575-0.396-1.019-0.905-1.329-1.527c-0.312-0.622-0.468-1.387-0.468-2.292
	s0.193-1.665,0.58-2.278c0.388-0.613,0.888-1.104,1.5-1.472c0.613-0.368,1.297-0.632,2.052-0.792c0.756-0.16,1.51-0.241,2.266-0.241
	c0.547,0,1.149,0.028,1.811,0.085L189.25,35.111L189.25,35.111z M189.25,38.026c-0.227-0.038-0.471-0.071-0.734-0.1
	c-0.265-0.027-0.5-0.042-0.708-0.042c-0.925,0-1.655,0.166-2.193,0.495c-0.537,0.331-0.807,0.863-0.807,1.6
	c0,0.49,0.104,0.868,0.312,1.132s0.458,0.458,0.75,0.58c0.292,0.123,0.604,0.198,0.936,0.227c0.33,0.029,0.616,0.042,0.862,0.042
	c0.283,0,0.565-0.022,0.85-0.07c0.282-0.048,0.527-0.09,0.734-0.127L189.25,38.026L189.25,38.026z"/>
<path fill="#1D3766" d="M195.787,30.101c0.266-0.058,0.529-0.1,0.793-0.127c0.265-0.028,0.558-0.042,0.877-0.042
	c0.321,0,0.604,0.014,0.851,0.042c0.246,0.027,0.5,0.07,0.764,0.127c0.057,0.095,0.109,0.23,0.156,0.409
	c0.047,0.181,0.09,0.368,0.127,0.566c0.038,0.198,0.07,0.392,0.1,0.58c0.028,0.189,0.052,0.349,0.07,0.481
	c0.188-0.283,0.415-0.566,0.68-0.85s0.57-0.538,0.92-0.764c0.35-0.227,0.74-0.41,1.174-0.552c0.435-0.143,0.916-0.213,1.443-0.213
	c1.66,0,2.91,0.453,3.75,1.359c0.84,0.905,1.26,2.331,1.26,4.273v9.34c-0.679,0.113-1.35,0.17-2.01,0.17s-1.33-0.057-2.009-0.17
	v-8.265c0-1.019-0.155-1.802-0.468-2.349c-0.312-0.547-0.854-0.821-1.627-0.821c-0.32,0-0.65,0.048-0.99,0.143
	s-0.646,0.277-0.92,0.552s-0.495,0.656-0.665,1.146s-0.255,1.132-0.255,1.925v7.67c-0.681,0.113-1.351,0.17-2.011,0.17
	c-0.659,0-1.33-0.057-2.01-0.17V30.101L195.787,30.101z"/>
<path fill="#1D3766" d="M211.41,24.045c0.32-0.057,0.651-0.094,0.99-0.112c0.34-0.02,0.67-0.028,0.991-0.028
	c0.32,0,0.65,0.01,0.99,0.028s0.68,0.057,1.019,0.112v7.783c0.133-0.17,0.307-0.373,0.523-0.609
	c0.217-0.234,0.485-0.462,0.808-0.679c0.32-0.216,0.708-0.399,1.16-0.552c0.453-0.151,0.972-0.228,1.557-0.228
	c1.622,0,2.854,0.453,3.693,1.359c0.839,0.905,1.26,2.331,1.26,4.273v9.367c-0.34,0.058-0.679,0.095-1.02,0.113
	c-0.34,0.02-0.67,0.028-0.99,0.028c-0.321,0-0.651-0.01-0.99-0.028c-0.34-0.019-0.68-0.057-1.02-0.113v-8.292
	c0-1.019-0.16-1.802-0.48-2.349c-0.321-0.547-0.868-0.821-1.643-0.821c-0.32,0-0.65,0.048-0.989,0.143
	c-0.34,0.094-0.646,0.277-0.92,0.552c-0.274,0.274-0.5,0.656-0.681,1.146c-0.18,0.49-0.27,1.132-0.27,1.925v7.697
	c-0.339,0.058-0.679,0.095-1.019,0.113c-0.34,0.02-0.67,0.028-0.99,0.028c-0.321,0-0.646-0.01-0.978-0.028
	c-0.33-0.019-0.665-0.057-1.005-0.113V24.045H211.41z"/>
<path fill="#1D3766" d="M233.316,45.073c-1.188,0-2.222-0.194-3.101-0.581c-0.877-0.386-1.604-0.924-2.179-1.613
	c-0.575-0.688-1.009-1.495-1.302-2.419s-0.439-1.925-0.439-3s0.146-2.084,0.439-3.027s0.727-1.76,1.302-2.448
	c0.575-0.689,1.302-1.231,2.179-1.627c0.879-0.396,1.911-0.595,3.101-0.595c1.188,0,2.227,0.197,3.113,0.595
	c0.887,0.396,1.623,0.938,2.208,1.627c0.585,0.688,1.019,1.505,1.302,2.448s0.424,1.952,0.424,3.027c0,1.076-0.141,2.076-0.424,3
	s-0.717,1.731-1.302,2.419c-0.586,0.689-1.321,1.228-2.208,1.613C235.543,44.88,234.506,45.073,233.316,45.073z M233.316,42.017
	c1.057,0,1.815-0.393,2.278-1.176c0.462-0.782,0.693-1.909,0.693-3.382c0-1.472-0.231-2.599-0.693-3.382
	c-0.463-0.783-1.223-1.175-2.278-1.175c-1.037,0-1.787,0.392-2.25,1.175s-0.693,1.91-0.693,3.382c0,1.473,0.23,2.601,0.693,3.382
	C231.529,41.625,232.279,42.017,233.316,42.017z"/>
<path fill="#1D3766" d="M245.429,38.365c-1.058-0.301-1.884-0.75-2.478-1.344c-0.594-0.595-0.892-1.486-0.892-2.675
	c0-1.435,0.515-2.557,1.542-3.368c1.028-0.812,2.43-1.218,4.203-1.218c0.735,0,1.463,0.066,2.18,0.198s1.443,0.331,2.18,0.594
	c-0.039,0.491-0.133,1-0.283,1.528c-0.15,0.529-0.33,0.991-0.537,1.387c-0.452-0.188-0.953-0.354-1.5-0.495
	c-0.549-0.143-1.122-0.213-1.728-0.213c-0.642,0-1.142,0.1-1.5,0.298c-0.358,0.197-0.538,0.514-0.538,0.947
	c0,0.415,0.128,0.708,0.383,0.877c0.254,0.17,0.617,0.33,1.09,0.481l1.613,0.48c0.527,0.151,1.004,0.336,1.43,0.553
	c0.425,0.217,0.787,0.485,1.09,0.807c0.302,0.321,0.538,0.717,0.708,1.188s0.254,1.047,0.254,1.727c0,0.698-0.146,1.349-0.438,1.953
	c-0.293,0.604-0.718,1.128-1.272,1.571c-0.559,0.443-1.231,0.792-2.024,1.047c-0.792,0.255-1.688,0.382-2.688,0.382
	c-0.453,0-0.869-0.014-1.246-0.042s-0.74-0.076-1.09-0.142c-0.351-0.066-0.693-0.146-1.033-0.241
	c-0.339-0.095-0.707-0.217-1.104-0.368c0.038-0.51,0.127-1.023,0.271-1.542c0.141-0.52,0.325-1.023,0.551-1.514
	c0.623,0.244,1.213,0.429,1.77,0.552c0.558,0.123,1.138,0.184,1.74,0.184c0.266,0,0.553-0.022,0.863-0.07
	c0.312-0.048,0.6-0.133,0.863-0.256s0.485-0.282,0.666-0.48c0.179-0.198,0.268-0.458,0.268-0.778c0-0.453-0.137-0.778-0.41-0.977
	c-0.272-0.199-0.655-0.373-1.146-0.523L245.429,38.365z"/>
<path fill="#1D3766" d="M259.891,30.073c0.264-0.057,0.522-0.094,0.777-0.113c0.254-0.019,0.542-0.027,0.863-0.027
	c0.527,0,1.065,0.057,1.613,0.17c0.057,0.095,0.106,0.23,0.154,0.41s0.096,0.372,0.143,0.58s0.085,0.41,0.113,0.608
	c0.027,0.198,0.052,0.363,0.069,0.495c0.17-0.301,0.377-0.599,0.623-0.892c0.245-0.292,0.542-0.553,0.893-0.778
	c0.349-0.227,0.739-0.41,1.175-0.552c0.434-0.143,0.914-0.212,1.442-0.212c0.812,0,1.57,0.15,2.277,0.452
	c0.708,0.303,1.326,0.761,1.854,1.373c0.527,0.613,0.938,1.382,1.23,2.308c0.292,0.925,0.438,2.019,0.438,3.282
	c0,1.228-0.181,2.326-0.538,3.298c-0.358,0.971-0.877,1.797-1.558,2.476c-0.68,0.679-1.51,1.203-2.489,1.571
	c-0.981,0.368-2.096,0.552-3.341,0.552c-0.319,0-0.637-0.014-0.947-0.042c-0.312-0.028-0.571-0.063-0.778-0.099v6.51
	c-0.358,0.057-0.703,0.094-1.033,0.113c-0.33,0.018-0.654,0.026-0.977,0.026c-0.32,0-0.646-0.01-0.978-0.026
	c-0.33-0.021-0.674-0.058-1.031-0.113v-21.37H259.891z M263.91,41.62c0.51,0.151,1.094,0.228,1.755,0.228
	c1.17,0,2.065-0.378,2.688-1.133c0.623-0.754,0.934-1.896,0.934-3.424c0-0.585-0.047-1.127-0.141-1.627
	c-0.096-0.5-0.255-0.929-0.481-1.288c-0.227-0.357-0.515-0.641-0.862-0.849c-0.349-0.208-0.778-0.313-1.288-0.313
	c-0.472,0-0.873,0.091-1.202,0.27c-0.331,0.179-0.601,0.424-0.808,0.736c-0.208,0.311-0.357,0.675-0.452,1.089
	c-0.096,0.416-0.143,0.858-0.143,1.33V41.62z"/>
<path fill="#1D3766" d="M281.967,45.073c-1.188,0-2.221-0.194-3.1-0.581c-0.877-0.386-1.604-0.924-2.178-1.613
	c-0.576-0.688-1.01-1.495-1.303-2.419c-0.294-0.924-0.439-1.925-0.439-3s0.146-2.084,0.439-3.027
	c0.293-0.943,0.727-1.76,1.303-2.448c0.574-0.689,1.301-1.231,2.178-1.627c0.879-0.396,1.91-0.595,3.1-0.595
	c1.19,0,2.228,0.197,3.113,0.595c0.887,0.396,1.623,0.938,2.207,1.627c0.586,0.688,1.021,1.505,1.303,2.448
	c0.283,0.943,0.425,1.952,0.425,3.027c0,1.076-0.142,2.076-0.425,3c-0.282,0.924-0.717,1.731-1.303,2.419
	c-0.584,0.689-1.32,1.228-2.207,1.613C284.193,44.88,283.156,45.073,281.967,45.073z M281.967,42.017
	c1.058,0,1.816-0.393,2.279-1.176c0.461-0.782,0.693-1.909,0.693-3.382c0-1.472-0.232-2.599-0.693-3.382
	c-0.463-0.783-1.223-1.175-2.279-1.175c-1.036,0-1.786,0.392-2.25,1.175c-0.463,0.783-0.692,1.91-0.692,3.382
	c0,1.473,0.229,2.601,0.692,3.382C280.179,41.625,280.929,42.017,281.967,42.017z"/>
<path fill="#1D3766" d="M291.25,30.101c0.283-0.058,0.553-0.1,0.808-0.127c0.255-0.028,0.531-0.042,0.835-0.042
	c0.281,0,0.561,0.019,0.835,0.057c0.271,0.038,0.542,0.085,0.807,0.142c0.057,0.096,0.108,0.231,0.155,0.41
	c0.047,0.181,0.089,0.368,0.127,0.566s0.071,0.396,0.1,0.594c0.029,0.198,0.053,0.363,0.07,0.495
	c0.415-0.584,0.925-1.108,1.528-1.571c0.604-0.462,1.357-0.692,2.265-0.692c0.188,0,0.405,0.01,0.65,0.027
	c0.245,0.02,0.425,0.047,0.538,0.085c0.038,0.189,0.065,0.406,0.085,0.651c0.019,0.246,0.027,0.5,0.027,0.764
	c0,0.321-0.014,0.67-0.042,1.047c-0.027,0.377-0.08,0.736-0.155,1.075c-0.208-0.038-0.438-0.056-0.693-0.056s-0.41,0-0.467,0
	c-0.321,0-0.68,0.033-1.075,0.099c-0.396,0.066-0.774,0.241-1.133,0.524s-0.655,0.708-0.893,1.272
	c-0.234,0.566-0.354,1.358-0.354,2.377v6.962c-0.34,0.058-0.68,0.095-1.02,0.113c-0.34,0.02-0.67,0.028-0.991,0.028
	c-0.319,0-0.646-0.01-0.976-0.028c-0.331-0.019-0.675-0.057-1.033-0.113L291.25,30.101L291.25,30.101z"/>
<path fill="#1D3766" d="M172.34,60.157h-1.896c-0.057-0.244-0.1-0.504-0.127-0.778c-0.029-0.271-0.043-0.531-0.043-0.776
	c0-0.511,0.057-1.011,0.17-1.501h5.83v14.633c-0.68,0.113-1.34,0.17-1.98,0.17c-0.623,0-1.272-0.057-1.953-0.17L172.34,60.157
	L172.34,60.157z M171.745,54.638c-0.113-0.643-0.17-1.273-0.17-1.896c0-0.604,0.057-1.235,0.17-1.896
	c0.321-0.058,0.665-0.101,1.033-0.129c0.368-0.027,0.702-0.042,1.005-0.042c0.32,0,0.67,0.015,1.047,0.042
	c0.377,0.028,0.728,0.071,1.047,0.129c0.058,0.319,0.096,0.637,0.113,0.946c0.021,0.313,0.029,0.628,0.029,0.948
	c0,0.303-0.011,0.613-0.029,0.935c-0.019,0.32-0.057,0.643-0.113,0.963c-0.319,0.057-0.664,0.095-1.032,0.112
	c-0.367,0.02-0.713,0.028-1.032,0.028c-0.303,0-0.643-0.01-1.02-0.028C172.414,54.733,172.066,54.695,171.745,54.638z"/>
<path fill="#1D3766" d="M179.301,57.1c0.266-0.057,0.529-0.1,0.794-0.127c0.264-0.028,0.557-0.042,0.877-0.042
	s0.604,0.014,0.85,0.042c0.246,0.027,0.5,0.07,0.764,0.127c0.058,0.095,0.109,0.23,0.156,0.41c0.047,0.181,0.09,0.367,0.127,0.565
	c0.038,0.198,0.071,0.393,0.101,0.58c0.027,0.188,0.052,0.35,0.069,0.481c0.188-0.283,0.415-0.565,0.681-0.85
	c0.264-0.283,0.569-0.538,0.92-0.765c0.349-0.228,0.739-0.41,1.174-0.552c0.434-0.143,0.916-0.213,1.442-0.213
	c1.66,0,2.91,0.452,3.75,1.358c0.841,0.905,1.261,2.33,1.261,4.273v9.34c-0.68,0.112-1.351,0.17-2.011,0.17
	c-0.659,0-1.33-0.058-2.009-0.17v-8.266c0-1.019-0.155-1.802-0.468-2.349c-0.312-0.547-0.854-0.821-1.627-0.821
	c-0.32,0-0.65,0.048-0.99,0.143s-0.646,0.278-0.92,0.552c-0.273,0.274-0.495,0.656-0.665,1.146c-0.17,0.491-0.255,1.133-0.255,1.926
	v7.67c-0.68,0.112-1.35,0.17-2.01,0.17s-1.33-0.058-2.011-0.17V57.1L179.301,57.1z"/>
<path fill="#1D3766" d="M203.755,51.044c0.341-0.057,0.676-0.094,1.006-0.112c0.329-0.02,0.654-0.028,0.977-0.028
	c0.32,0,0.65,0.01,0.99,0.028c0.34,0.02,0.68,0.057,1.02,0.112v20.208c-0.888,0.266-1.789,0.468-2.703,0.608
	c-0.916,0.142-2.022,0.213-3.325,0.213c-1,0-1.957-0.138-2.873-0.41c-0.914-0.272-1.722-0.708-2.42-1.303
	c-0.697-0.594-1.251-1.362-1.654-2.308c-0.406-0.942-0.609-2.094-0.609-3.451c0-1.076,0.174-2.091,0.523-3.043s0.85-1.778,1.5-2.478
	c0.65-0.697,1.438-1.25,2.362-1.655c0.926-0.404,1.953-0.607,3.086-0.607c0.34,0,0.693,0.014,1.062,0.042s0.723,0.09,1.062,0.185
	v-6.001H203.755z M203.755,60.13c-0.378-0.095-0.685-0.155-0.92-0.185c-0.234-0.029-0.532-0.042-0.892-0.042
	c-0.623,0-1.165,0.127-1.627,0.382c-0.463,0.255-0.845,0.595-1.146,1.02c-0.303,0.425-0.522,0.925-0.665,1.5
	c-0.142,0.575-0.212,1.175-0.212,1.798c0,0.772,0.095,1.429,0.283,1.967c0.188,0.537,0.447,0.967,0.777,1.288
	c0.33,0.319,0.723,0.552,1.175,0.692c0.453,0.142,0.943,0.213,1.472,0.213c0.32,0,0.613-0.016,0.877-0.044
	c0.266-0.027,0.558-0.089,0.878-0.184V60.13L203.755,60.13z"/>
<path fill="#1D3766" d="M211.48,60.157h-1.896c-0.057-0.244-0.099-0.504-0.128-0.778c-0.026-0.271-0.042-0.531-0.042-0.776
	c0-0.511,0.058-1.011,0.17-1.501h5.83v14.633c-0.679,0.113-1.34,0.17-1.98,0.17c-0.622,0-1.273-0.057-1.953-0.17V60.157
	L211.48,60.157z M210.886,54.638c-0.113-0.643-0.171-1.273-0.171-1.896c0-0.604,0.058-1.235,0.171-1.896
	c0.319-0.058,0.664-0.101,1.032-0.129c0.367-0.027,0.703-0.042,1.005-0.042c0.32,0,0.67,0.015,1.048,0.042
	c0.378,0.028,0.726,0.071,1.048,0.129c0.057,0.319,0.094,0.637,0.112,0.946c0.019,0.313,0.027,0.628,0.027,0.948
	c0,0.303-0.01,0.613-0.027,0.935c-0.02,0.32-0.057,0.643-0.112,0.963c-0.322,0.057-0.666,0.095-1.033,0.112
	c-0.368,0.02-0.713,0.028-1.033,0.028c-0.303,0-0.643-0.01-1.02-0.028C211.556,54.733,211.207,54.695,210.886,54.638z"/>
<path fill="#1D3766" d="M228.264,68.28c0.226,0.378,0.415,0.816,0.564,1.316c0.151,0.5,0.228,1.09,0.228,1.769
	c-0.754,0.303-1.462,0.495-2.123,0.58c-0.66,0.085-1.35,0.128-2.065,0.128c-1.227,0-2.292-0.194-3.198-0.58
	c-0.905-0.387-1.655-0.92-2.25-1.6c-0.594-0.68-1.043-1.485-1.344-2.42c-0.303-0.935-0.453-1.947-0.453-3.042
	c0-1.076,0.146-2.075,0.438-3c0.292-0.926,0.734-1.736,1.33-2.436c0.595-0.697,1.335-1.245,2.222-1.642s1.915-0.595,3.085-0.595
	c0.415,0,0.797,0.011,1.146,0.028c0.349,0.02,0.684,0.057,1.005,0.113c0.319,0.057,0.641,0.132,0.962,0.226
	c0.32,0.096,0.679,0.218,1.075,0.368c0,0.436-0.058,0.92-0.171,1.458c-0.112,0.537-0.292,1.052-0.536,1.542
	c-0.566-0.188-1.063-0.314-1.486-0.382c-0.424-0.065-0.91-0.099-1.457-0.099c-1.17,0-2.053,0.382-2.646,1.146
	c-0.594,0.765-0.892,1.854-0.892,3.271c0,1.527,0.321,2.642,0.962,3.34c0.643,0.697,1.51,1.047,2.604,1.047
	c0.281,0,0.542-0.005,0.777-0.016c0.235-0.009,0.468-0.031,0.693-0.069s0.457-0.096,0.693-0.17
	C227.664,68.487,227.943,68.393,228.264,68.28z"/>
<path fill="#1D3766" d="M238.255,62.11c0-0.452-0.074-0.82-0.227-1.104c-0.152-0.283-0.358-0.505-0.622-0.665
	c-0.266-0.159-0.59-0.269-0.977-0.324c-0.388-0.057-0.816-0.085-1.288-0.085c-1.02,0-2.104,0.197-3.255,0.594
	c-0.265-0.49-0.464-0.952-0.595-1.387c-0.133-0.435-0.199-0.952-0.199-1.558c0.83-0.283,1.66-0.49,2.491-0.622
	c0.83-0.132,1.604-0.198,2.321-0.198c1.962,0,3.494,0.473,4.599,1.415c1.105,0.943,1.655,2.453,1.655,4.528v8.49
	c-0.66,0.208-1.462,0.406-2.405,0.595s-2.009,0.283-3.197,0.283c-0.964,0-1.845-0.085-2.646-0.255s-1.49-0.453-2.065-0.851
	c-0.575-0.396-1.019-0.904-1.33-1.527c-0.312-0.622-0.468-1.388-0.468-2.292c0-0.905,0.193-1.665,0.58-2.278
	c0.388-0.613,0.888-1.104,1.5-1.472c0.613-0.368,1.297-0.632,2.054-0.793c0.754-0.16,1.509-0.24,2.264-0.24
	c0.547,0,1.15,0.028,1.812,0.085L238.255,62.11L238.255,62.11z M238.255,65.025c-0.227-0.037-0.472-0.07-0.734-0.1
	c-0.267-0.027-0.5-0.043-0.708-0.043c-0.925,0-1.655,0.166-2.193,0.496s-0.807,0.863-0.807,1.6c0,0.49,0.104,0.868,0.312,1.132
	c0.207,0.265,0.457,0.458,0.75,0.58c0.292,0.123,0.604,0.198,0.935,0.227c0.33,0.029,0.616,0.043,0.862,0.043
	c0.283,0,0.566-0.022,0.851-0.07c0.283-0.048,0.526-0.09,0.734-0.127L238.255,65.025L238.255,65.025z"/>
<path fill="#1D3766" d="M249.349,71.903c-0.906-0.188-1.694-0.505-2.363-0.948c-0.671-0.442-1.232-0.99-1.686-1.642
	c-0.452-0.651-0.787-1.393-1.005-2.223c-0.217-0.83-0.325-1.717-0.325-2.659c0-1.076,0.146-2.075,0.438-3
	c0.293-0.926,0.736-1.736,1.33-2.436c0.594-0.697,1.335-1.245,2.222-1.642c0.888-0.396,1.915-0.595,3.085-0.595
	c0.415,0,0.797,0.011,1.146,0.028c0.349,0.02,0.684,0.057,1.005,0.113c0.32,0.057,0.642,0.132,0.962,0.226
	c0.32,0.096,0.68,0.218,1.076,0.368c0,0.436-0.057,0.92-0.17,1.458c-0.113,0.537-0.293,1.052-0.538,1.542
	c-0.565-0.188-1.063-0.314-1.485-0.382c-0.426-0.065-0.911-0.099-1.458-0.099c-1.171,0-2.052,0.382-2.646,1.146
	c-0.595,0.765-0.893,1.854-0.893,3.271c0,1.527,0.32,2.642,0.963,3.34c0.642,0.697,1.51,1.047,2.604,1.047
	c0.283,0,0.542-0.005,0.778-0.016c0.234-0.009,0.467-0.031,0.692-0.069c0.227-0.038,0.457-0.096,0.693-0.17
	c0.235-0.075,0.514-0.17,0.835-0.283c0.227,0.378,0.414,0.815,0.566,1.315c0.149,0.5,0.227,1.091,0.227,1.77
	c-0.756,0.283-1.453,0.472-2.096,0.566c-0.642,0.094-1.32,0.142-2.037,0.142l-0.453,1.16c0.057-0.02,0.118-0.033,0.184-0.042
	c0.066-0.01,0.156-0.016,0.271-0.016c1,0,1.778,0.23,2.335,0.693c0.556,0.462,0.835,1.052,0.835,1.77
	c0,0.963-0.406,1.688-1.217,2.18c-0.813,0.49-1.868,0.735-3.17,0.735c-0.266,0-0.596-0.01-0.99-0.027
	c-0.396-0.021-0.821-0.095-1.273-0.228c0.037-0.303,0.084-0.637,0.142-1.005c0.057-0.368,0.18-0.692,0.368-0.977
	c0.339,0.094,0.642,0.16,0.904,0.198c0.265,0.036,0.547,0.057,0.851,0.057c0.526,0,0.952-0.066,1.272-0.198s0.48-0.357,0.48-0.68
	c0-0.32-0.15-0.542-0.452-0.665s-0.698-0.185-1.188-0.185c-0.265,0-0.553,0.02-0.862,0.058c-0.313,0.037-0.601,0.104-0.863,0.198
	l-0.198-0.198L249.349,71.903z"/>
<path fill="#1D3766" d="M263.075,72.073c-1.188,0-2.222-0.194-3.099-0.58c-0.877-0.387-1.604-0.925-2.181-1.613
	c-0.575-0.688-1.01-1.495-1.302-2.42c-0.293-0.925-0.438-1.925-0.438-3c0-1.076,0.146-2.085,0.438-3.027
	c0.292-0.943,0.727-1.761,1.302-2.448c0.576-0.688,1.304-1.231,2.181-1.628s1.91-0.594,3.099-0.594c1.189,0,2.228,0.197,3.113,0.594
	c0.887,0.396,1.622,0.938,2.208,1.628c0.584,0.688,1.019,1.505,1.302,2.448c0.282,0.942,0.425,1.951,0.425,3.027
	c0,1.075-0.143,2.075-0.425,3c-0.283,0.925-0.718,1.731-1.302,2.42c-0.586,0.688-1.321,1.228-2.208,1.613
	C265.302,71.879,264.263,72.073,263.075,72.073z M257.953,52.572c0.32-0.414,0.74-0.77,1.259-1.062
	c0.52-0.293,1.128-0.438,1.825-0.438c0.359,0,0.703,0.053,1.033,0.156c0.33,0.103,0.656,0.217,0.977,0.34
	c0.32,0.122,0.651,0.234,0.99,0.339c0.34,0.104,0.689,0.156,1.048,0.156c0.32,0,0.622-0.047,0.905-0.143
	c0.283-0.095,0.623-0.34,1.02-0.735c0.302,0.32,0.558,0.68,0.765,1.075c0.207,0.396,0.357,0.792,0.453,1.188
	c-0.321,0.415-0.746,0.76-1.273,1.033c-0.529,0.272-1.143,0.41-1.84,0.41c-0.359,0-0.707-0.053-1.047-0.155
	c-0.34-0.104-0.676-0.217-1.006-0.34s-0.66-0.236-0.99-0.34c-0.33-0.104-0.664-0.155-1.004-0.155c-0.359,0-0.67,0.052-0.936,0.155
	c-0.265,0.103-0.595,0.345-0.989,0.722c-0.266-0.34-0.511-0.693-0.736-1.063C258.179,53.35,258.027,52.969,257.953,52.572z
	 M263.075,69.016c1.057,0,1.815-0.393,2.278-1.176c0.463-0.782,0.692-1.909,0.692-3.382c0-1.472-0.229-2.6-0.692-3.383
	c-0.463-0.782-1.223-1.174-2.278-1.174c-1.038,0-1.788,0.392-2.25,1.174c-0.462,0.783-0.693,1.911-0.693,3.383
	c0,1.473,0.231,2.6,0.693,3.382C261.287,68.624,262.037,69.016,263.075,69.016z"/>
<path fill="#1D3766" d="M275.556,65.648c0.074,1.132,0.471,1.953,1.188,2.462c0.717,0.51,1.66,0.765,2.83,0.765
	c0.642,0,1.297-0.062,1.967-0.185c0.67-0.122,1.308-0.297,1.911-0.523c0.207,0.378,0.386,0.831,0.537,1.358
	c0.151,0.529,0.236,1.095,0.255,1.698c-1.472,0.565-3.132,0.85-4.98,0.85c-1.358,0-2.523-0.189-3.495-0.566
	c-0.973-0.377-1.766-0.899-2.378-1.569c-0.613-0.67-1.065-1.468-1.357-2.393c-0.293-0.925-0.438-1.935-0.438-3.027
	c0-1.076,0.149-2.085,0.452-3.028s0.75-1.765,1.345-2.463c0.595-0.697,1.331-1.249,2.208-1.655c0.878-0.405,1.899-0.607,3.07-0.607
	c1.02,0,1.925,0.18,2.718,0.536c0.792,0.359,1.467,0.851,2.022,1.473c0.558,0.623,0.978,1.362,1.26,2.222
	c0.283,0.859,0.425,1.779,0.425,2.76c0,0.358-0.015,0.713-0.042,1.063c-0.028,0.35-0.063,0.628-0.1,0.835h-9.396V65.648z
	 M281.302,62.846c-0.038-0.906-0.288-1.638-0.75-2.193c-0.464-0.557-1.108-0.835-1.938-0.835c-0.944,0-1.661,0.265-2.151,0.792
	c-0.49,0.528-0.782,1.272-0.877,2.236H281.302z"/>
<path fill="#1D3766" d="M290.16,65.365c-1.057-0.302-1.882-0.75-2.477-1.345c-0.596-0.595-0.893-1.485-0.893-2.674
	c0-1.435,0.515-2.558,1.543-3.368c1.027-0.813,2.43-1.218,4.202-1.218c0.736,0,1.462,0.066,2.18,0.198s1.443,0.33,2.181,0.594
	c-0.038,0.491-0.133,1.002-0.283,1.528c-0.151,0.528-0.331,0.991-0.538,1.387c-0.453-0.188-0.953-0.354-1.5-0.494
	c-0.548-0.143-1.123-0.213-1.727-0.213c-0.643,0-1.143,0.1-1.5,0.298c-0.358,0.197-0.538,0.515-0.538,0.947
	c0,0.415,0.128,0.707,0.383,0.877s0.617,0.331,1.09,0.481l1.612,0.48c0.527,0.151,1.005,0.336,1.43,0.553s0.788,0.485,1.09,0.807
	s0.537,0.717,0.707,1.188c0.17,0.471,0.255,1.047,0.255,1.727c0,0.698-0.146,1.35-0.438,1.953c-0.293,0.604-0.718,1.127-1.273,1.57
	c-0.557,0.442-1.23,0.793-2.022,1.048c-0.793,0.254-1.689,0.382-2.689,0.382c-0.452,0-0.868-0.015-1.245-0.043
	c-0.378-0.028-0.739-0.075-1.09-0.142c-0.349-0.066-0.692-0.146-1.032-0.24c-0.34-0.095-0.708-0.217-1.104-0.368
	c0.038-0.509,0.128-1.023,0.27-1.542c0.143-0.52,0.325-1.023,0.553-1.515c0.622,0.245,1.212,0.43,1.769,0.552
	c0.557,0.123,1.137,0.185,1.74,0.185c0.265,0,0.553-0.022,0.863-0.07c0.312-0.048,0.6-0.133,0.862-0.255
	c0.266-0.123,0.486-0.282,0.665-0.48c0.181-0.198,0.271-0.457,0.271-0.778c0-0.453-0.139-0.777-0.41-0.977
	c-0.274-0.198-0.656-0.372-1.146-0.523L290.16,65.365z"/>
</svg>
